
<svg xmlns="http://www.w3.org/2000/svg" width="1439.387" height="763.753" viewBox="0 0 1439.387 763.753">
  <g id="Group_2228" data-name="Group 2228" transform="translate(1.052)">
    <g id="Group_2221" data-name="Group 2221">
      <path id="Path_10109" data-name="Path 10109" d="M90.014,357.022q90.412.1,180.825.032h45.2c5.8,0,10.505-1.751,14.3-5.317,2.821-2.659,4.637-6.193,5.836-11.445l-.032-8.138c-.389-.713-1.07-1.329-3.177-1.329h-.032c-3.372.1-6.712.1-10.213.065l-9.468-.032V280.827q0-39.151-.032-78.27c0-12.353-7.846-20.329-19.973-20.329q-81.658-.1-163.316-.032H112.743a19.417,19.417,0,0,0-12.483,3.923c-5.123,4.021-7.49,9.338-7.49,16.73q.049,44.209.032,88.353v39.621H75.878c-4.02,0-5.253.259-5.609.486-.13.259-.389,1.459-.357,5.382C69.977,349.046,77.856,356.989,90.014,357.022Zm6.1-154.043c0-11.218,6.16-17.411,17.346-17.411H292.627c11.218,0,17.379,6.16,17.379,17.379V330.662H96.11Zm-22.534,138.8a25.4,25.4,0,0,1-.713-6.452l.032-1.167h1.167s70.877,0,95.357-.032a9.334,9.334,0,0,1,7.846,3.567c1.232,1.621,2.724,2.2,5.966,2.27,12.418-.13,25.485-.13,39.945,0,2.821-.032,4.312-.584,5.447-2.107a9.483,9.483,0,0,1,8.4-3.761q30.251.049,60.631.065h34.79l.1,3.956a14.909,14.909,0,0,1-13.034,15.336,33.355,33.355,0,0,1-3.956.162H256.216q-82.679-.049-165.391.032c-4.8,0-11.575-.843-15.531-8.009A17.776,17.776,0,0,1,73.576,341.783Z" transform="translate(139.59 393.494)"/>
      <g id="Group_2201" data-name="Group 2201" transform="translate(855.697 568.621)">
        <g id="Group_2193" data-name="Group 2193">
          <g id="Group_2190" data-name="Group 2190" transform="translate(54.316)">
            <path id="Path_10110" data-name="Path 10110" d="M351.872,193.5a46.18,46.18,0,0,0-32.521-13.488h0a45.348,45.348,0,0,0-13.066,1.913,46.128,46.128,0,0,0-19.713,11.8,1.569,1.569,0,0,0-.1,2.4,1.589,1.589,0,0,0,2.4,0c.259-.227.486-.454.713-.681l.324-.324a42.721,42.721,0,0,1,50.483-6.128,45.635,45.635,0,0,1,9.208,7.036,2.082,2.082,0,0,0,1.362.713,1.573,1.573,0,0,0,1.038-.454,1.614,1.614,0,0,0,.616-1.167A1.982,1.982,0,0,0,351.872,193.5Z" transform="translate(-285.962 -180.01)"/>
            <path id="Path_10111" data-name="Path 10111" d="M338.334,192.89c-9.759-9.046-21.3-11.964-33.98-8.657a33.971,33.971,0,0,0-15.3,8.981,1.747,1.747,0,0,0-.648,1.362,1.661,1.661,0,0,0,.648,1.167,1.64,1.64,0,0,0,1.038.454,2.7,2.7,0,0,0,1.718-.973,31.5,31.5,0,0,1,43.35-.811c.162.162.357.324.519.519a3.735,3.735,0,0,0,1.038.875,2.116,2.116,0,0,0,1.654.1,2.737,2.737,0,0,0,.843-.875l-.389-.324h0l.389.292h0c.065-.065.1-.162.162-.227l.227-.292-.422-.616C338.885,193.506,338.626,193.181,338.334,192.89Z" transform="translate(-280.498 -173.5)"/>
            <path id="Path_10112" data-name="Path 10112" d="M325.089,192.555a23.8,23.8,0,0,0-33.007-.389c-.843.811-1.232,1.394-1.232,1.913a1.559,1.559,0,0,0,.551,1.1c.713.746,1.427.875,2.983-.551a20.513,20.513,0,0,1,13.974-5.577,19.882,19.882,0,0,1,8.625,1.978,26.662,26.662,0,0,1,4.507,3.015c.486.389,1.005.778,1.524,1.135a2.382,2.382,0,0,0,1.3.584,1.235,1.235,0,0,0,.616-.195,3.924,3.924,0,0,0,.908-1.005l.389-.486-.357-.551C325.511,193.074,325.316,192.782,325.089,192.555Z" transform="translate(-275.002 -167.233)"/>
            <path id="Path_10113" data-name="Path 10113" d="M302.92,188.37a12.909,12.909,0,0,0-8.852,3.6c-.94.908-1.038,1.751-.324,2.561a1.526,1.526,0,0,0,1.135.551,2.26,2.26,0,0,0,1.427-.648c4.118-3.6,9.046-3.631,13.164,0,.973.843,1.881.875,2.594.13.746-.811.649-1.654-.324-2.561A12.453,12.453,0,0,0,302.92,188.37Z" transform="translate(-269.563 -161.264)"/>
          </g>
          <g id="Group_2192" data-name="Group 2192" transform="translate(0 25.16)">
            <g id="Group_2191" data-name="Group 2191">
              <path id="Path_10114" data-name="Path 10114" d="M293.4,251.449c2.3,9.046,7.846,15.466,16.957,19.584a3.391,3.391,0,0,1,2.3,3.534c-.032,4.053-.032,8.138-.032,12.191,0,3.923,0,7.814-.033,11.737a7.346,7.346,0,0,1-1.038,3.469c-.713,1.2-1.491,2.367-2.3,3.534-.486.713-.973,1.427-1.459,2.172a2.156,2.156,0,0,0-.389,2.107,1.909,1.909,0,0,0,1.783.746c8.754.065,17.541.032,26.3,0,1.362,0,1.945-.324,1.945-2.237V300.8c0-5.609-.032-11.413.1-17.119a14.327,14.327,0,0,1,1.2-4.766l.389-1.038c.389-1.1,2.107-1.135,2.464-1.135h.033c1.524.032,3.08.065,4.6.13,2.432.065,4.928.162,7.392.1,13.683-.259,24.382-2.237,33.753-6.193a2.314,2.314,0,0,1,.746-.162l.551-.1.389.389a9.216,9.216,0,0,1,2.5,6.549q.049,10.7-.032,21.4a5.439,5.439,0,0,1-.843,2.691c-.746,1.167-1.524,2.335-2.3,3.5-.584.875-1.167,1.718-1.718,2.594a2.016,2.016,0,0,0-.357,2.043,1.982,1.982,0,0,0,1.816.778c8.754.065,17.541.032,26.3,0,1.3,0,1.945-.357,1.978-2.237v-8.787c0-5.22,0-10.44.032-15.628a13.711,13.711,0,0,1,.551-3.761l2.334-8.073c1.459-5.026,3.015-10.213,4.345-15.369a38.134,38.134,0,0,0,.875-9.014c.065-6.355-.1-12.515-.259-17.736a10.881,10.881,0,0,0-.584-2.691c-.162-.486-.292-1.005-.422-1.524l-.389-1.589,1.913.421a2.664,2.664,0,0,1,1.005.292,11.761,11.761,0,0,1,6.614,10.927v3.242c.033,9.4.065,19.13-.032,28.695a18.415,18.415,0,0,0,3.567,11.77c.389.519.746,1.07,1.1,1.621.324.486.648,1.005,1.005,1.459a1.542,1.542,0,0,0,2.172.551,1.488,1.488,0,0,0,.324-2.2c-.811-1.329-1.686-2.626-2.594-3.891a13.634,13.634,0,0,1-2.529-8.236q.049-13.277.032-26.587v-5.674c0-9.046-5.642-15.207-14.72-16.082a3.97,3.97,0,0,1-2.2-.94,18.493,18.493,0,0,0-12.71-4.507h-.032c-11.737.032-23.474,0-35.212,0H350.787c-4.539,0-9.046.032-13.585-.032a15.213,15.213,0,0,1-5.35-.875c-2.853-1.135-5.674-2.464-8.43-3.729-1.135-.519-2.237-1.038-3.372-1.556l-1.1-.486.681-1.005c.389-.584.811-1.135,1.2-1.686a33.96,33.96,0,0,0,2.367-3.567c.648-1.135.843-2.075.551-2.561s-1.232-.778-2.561-.778l-7.23-.032-.065.292-1.005-.292H312.3l-.519-1.232.454-.486.227-1.816c.227-1.881.421-3.7.519-5.544a1.769,1.769,0,0,0-.389-1.329,1.464,1.464,0,0,0-1.07-.421h0c-.908,0-1.491.681-1.556,1.816-.033.421-.033.875-.033,1.3,0,.519,0,1.07-.032,1.589a6.449,6.449,0,0,1-3.534,5.382l-1.524.843v-6.387c0-.551-.162-1.816-1.459-1.848h-.032c-1.329,0-1.524,1.394-1.556,1.816a7.888,7.888,0,0,0,0,.875v.422c0,3.956-.292,4.377-4.15,5.771a18.187,18.187,0,0,0-4.41,2.237c-7.166,4.928-14.266,9.954-21.367,14.947l-1.265.875a6.839,6.839,0,0,0-1.135,1.038l-.259.259v4.085c.227.486.422.973.649,1.459a10.319,10.319,0,0,0,1.718,3.08,13.762,13.762,0,0,0,4.928,3.178,84.58,84.58,0,0,0,8.884,2.626l1.1.292a3.393,3.393,0,0,1,2.691,2.659c.551,2.043,1.167,4.053,1.751,6.063C291.712,245.192,292.62,248.337,293.4,251.449Zm98.729,53.563a16.2,16.2,0,0,1,1.038-1.556,7.031,7.031,0,0,0,1.491-4.993c-.1-5.382-.1-11.251-.032-17.995.065-3.826-.1-7.49-2.432-10.57l-.616-.811,9.273-6.809.324,1.524c.13.616.292,1.2.454,1.783a14.236,14.236,0,0,1,.713,3.794c.1,9.046.065,18.222.033,27.106v2.4a4.694,4.694,0,0,1-.681,2.4c-1.1,1.783-2.3,3.534-3.21,4.864a2.922,2.922,0,0,1-1.881,1.3,16.69,16.69,0,0,1-1.816.065h-4.312l1.038-1.589A6.443,6.443,0,0,0,392.127,305.013Zm-58.427-31.9c-.746-.1-1.524-.162-2.27-.227l-1.329-.13,2.724-7.23,2.529.454c1.135.227,2.237.422,3.372.551,4.8.584,9.176-1.167,13.261-3.113,2.788-1.362,5.09-1.135,7.1.648a7.373,7.373,0,0,1,2.5,7.36,2.591,2.591,0,0,1-2.724,2.334H358.8c-2.788-.032-5.577-.065-8.4-.065-3.923-.032-7.846-.065-11.77-.13C336.975,273.465,335.386,273.27,333.7,273.108Zm-7.2,12.807a20.888,20.888,0,0,1,1.88-8.592,2.318,2.318,0,0,1,1.978-1.459c1.07.032,2.172.162,3.307.292l2.5.292-.389,1.2c-.162.519-.357,1.005-.519,1.492a14.1,14.1,0,0,0-.778,2.659,15.063,15.063,0,0,0-.1,2.983c0,.422.033.843.033,1.264V307.38H326.6v-3.015c0-1.783,0-3.6.032-5.382C326.632,294.67,326.664,290.26,326.5,285.915Zm81.609-67.732c6.874.389,12.224,5.577,13.261,12.872a5.283,5.283,0,0,1,.1,1.005c-.033,1.945-.033,3.858-.065,5.8-.032,4.993-.065,10.181-.292,15.239-.13,2.918-2.529,11.348-3.34,13.553l-1.135,3.761c-.94,3.113-1.848,6.193-2.724,9.273a13.671,13.671,0,0,0-.551,3.729c-.032,4.961-.032,9.922-.032,14.882v6.323c0,.422-.032.843-.065,1.264l-.065,1.492H401.465l1.038-1.589c.259-.421.551-.811.811-1.2a22.614,22.614,0,0,0,1.459-2.3,4.781,4.781,0,0,0,.713-2.2c.065-10.278.065-20.589.033-30.867a12.145,12.145,0,0,0-2.335-7.36c-1.945-2.659-3.891-5.253-5.869-7.879-.778-1.038-1.589-1.264-2.4-.681-1.1.811-.389,2.01-.065,2.5.584.811,1.167,1.589,1.816,2.432l1.459,1.945-.681.616c-8.689,7.717-18.935,10.473-31.645,12.256l-1.3.162.227-1.945c.032-.324.065-.551.065-.778a10.72,10.72,0,0,0-4.766-9.662,8.753,8.753,0,0,0-9.143-.389,37.714,37.714,0,0,1-5.836,2.335,15.416,15.416,0,0,1-9.954-.195l-.843-.292.292-1.459c.357-1.913-.422-2.172-.843-2.3-.389-.13-1.427-.454-2.107,1.394-2.529,6.712-5.058,13.423-7.522,20.135a9.806,9.806,0,0,0-.551,3.113c-.032,5.285-.032,10.538-.032,15.823v8.268h-11.8l1.491-2.3a12.367,12.367,0,0,1,.94-1.362A7.531,7.531,0,0,0,315.7,298.3c-.065-5.8-.065-11.608-.032-17.411V268.18c.032-6.063.032-6.063-3.567-11.413l-1.654-2.464c-1.265-1.913-2.2-1.329-2.529-1.1a1.292,1.292,0,0,0-.648.811,3.1,3.1,0,0,0,.681,2.075c1.135,1.751,2.3,3.5,3.469,5.22a7.461,7.461,0,0,1,1.005,5.836l-.227,1.329-1.232-.584c-7.587-3.631-12.288-8.949-14.331-16.212-.746-2.659-1.491-5.317-2.27-7.976-1.005-3.469-1.978-6.971-2.951-10.473a2.79,2.79,0,0,0-2.27-2.3c-2.691-.681-5.35-1.459-8.009-2.237-1.232-.357-2.5-.713-3.761-1.07a6.778,6.778,0,0,1-5.188-5.577,2.81,2.81,0,0,1,1.329-3.145q8.365-5.788,16.73-11.672l4.831-3.372a11.784,11.784,0,0,1,7.263-2.27h13.91a5.825,5.825,0,0,1,1.005.1l2.464.259-1.264,1.459a19.107,19.107,0,0,1-9.792,5.966c-.519.162-1.751.648-1.394,1.881a1.577,1.577,0,0,0,.681.973,1.931,1.931,0,0,0,1.491.065c1.005-.292,1.945-.681,2.918-1.07.584-.227,1.2-.454,2.01-.746a2.553,2.553,0,0,1,1.913-.195c1.686.713,3.307,1.491,4.993,2.27l2.821,1.329-1.556,1.945c-.486.584-.908,1.135-1.329,1.718a1.529,1.529,0,0,0,.162,2.172,1.471,1.471,0,0,0,2.2-.292,19.979,19.979,0,0,0,2.075-2.529,2.416,2.416,0,0,1,3.4-.746,18.584,18.584,0,0,0,8.2,1.751h.065q13.569-.049,27.138-.032h11.672" transform="translate(-269.21 -187.77)"/>
              <path id="Path_10115" data-name="Path 10115" d="M277.62,196.318a2.534,2.534,0,0,0,2.4,2.561,2.484,2.484,0,0,0,2.659-2.432,2.516,2.516,0,0,0-2.367-2.594A2.617,2.617,0,0,0,277.62,196.318Z" transform="translate(-250.353 -174.141)"/>
            </g>
            <path id="Path_10116" data-name="Path 10116" d="M302.742,230.65h0a6.448,6.448,0,0,1-6.452-6.452V198.94h12.872V224.2A6.442,6.442,0,0,1,302.742,230.65Z" transform="translate(-208.488 -162.723)" fill="none" stroke="#b55219" stroke-width="2"/>
          </g>
        </g>
        <g id="Group_2197" data-name="Group 2197" transform="translate(204.623)">
          <g id="Group_2194" data-name="Group 2194" transform="translate(54.316)">
            <path id="Path_10117" data-name="Path 10117" d="M414.982,193.5a46.18,46.18,0,0,0-32.52-13.488h0a45.348,45.348,0,0,0-13.067,1.913,46.128,46.128,0,0,0-19.713,11.8,1.569,1.569,0,0,0-.1,2.4,1.589,1.589,0,0,0,2.4,0c.259-.227.486-.454.713-.681l.324-.324a42.721,42.721,0,0,1,50.483-6.128,45.638,45.638,0,0,1,9.208,7.036,2.082,2.082,0,0,0,1.362.713,1.573,1.573,0,0,0,1.038-.454,1.614,1.614,0,0,0,.616-1.167A1.981,1.981,0,0,0,414.982,193.5Z" transform="translate(-349.072 -180.01)"/>
            <path id="Path_10118" data-name="Path 10118" d="M401.444,192.89c-9.759-9.046-21.3-11.964-33.98-8.657a33.971,33.971,0,0,0-15.3,8.981,1.747,1.747,0,0,0-.649,1.362,1.552,1.552,0,0,0,.649,1.167,1.64,1.64,0,0,0,1.038.454,2.7,2.7,0,0,0,1.719-.973,31.5,31.5,0,0,1,43.35-.811c.162.162.357.324.519.519a3.735,3.735,0,0,0,1.038.875,2.117,2.117,0,0,0,1.654.1,2.737,2.737,0,0,0,.843-.875l-.389-.324h0l.389.292h0c.065-.065.1-.162.162-.227l.227-.292-.421-.616C401.963,193.506,401.736,193.181,401.444,192.89Z" transform="translate(-343.608 -173.5)"/>
            <path id="Path_10119" data-name="Path 10119" d="M388.189,192.555a23.8,23.8,0,0,0-33.007-.389c-.843.811-1.232,1.394-1.232,1.913a1.559,1.559,0,0,0,.551,1.1c.713.746,1.427.875,2.983-.551a20.513,20.513,0,0,1,13.974-5.577,19.882,19.882,0,0,1,8.625,1.978,26.66,26.66,0,0,1,4.507,3.015c.486.389,1.005.778,1.524,1.135a2.382,2.382,0,0,0,1.3.584,1.235,1.235,0,0,0,.616-.195,3.924,3.924,0,0,0,.908-1.005l.389-.486-.357-.551A5.609,5.609,0,0,0,388.189,192.555Z" transform="translate(-338.134 -167.233)"/>
            <path id="Path_10120" data-name="Path 10120" d="M366.02,188.37a12.909,12.909,0,0,0-8.852,3.6c-.94.908-1.038,1.751-.324,2.561a1.526,1.526,0,0,0,1.135.551,2.26,2.26,0,0,0,1.427-.648c4.118-3.6,9.046-3.631,13.164,0,.973.843,1.88.875,2.594.13.746-.811.649-1.654-.324-2.561A12.34,12.34,0,0,0,366.02,188.37Z" transform="translate(-332.695 -161.264)"/>
          </g>
          <g id="Group_2196" data-name="Group 2196" transform="translate(0 25.16)">
            <g id="Group_2195" data-name="Group 2195">
              <path id="Path_10121" data-name="Path 10121" d="M356.508,251.449c2.3,9.046,7.846,15.466,16.957,19.584a3.391,3.391,0,0,1,2.3,3.534c-.032,4.053-.032,8.138-.032,12.191,0,3.923,0,7.814-.032,11.737a7.346,7.346,0,0,1-1.038,3.469c-.713,1.2-1.491,2.367-2.3,3.534-.486.713-.973,1.427-1.459,2.172a2.156,2.156,0,0,0-.389,2.107,1.909,1.909,0,0,0,1.783.746c8.754.065,17.541.032,26.3,0,1.362,0,1.945-.324,1.945-2.237V300.8c0-5.609-.032-11.413.1-17.119a14.327,14.327,0,0,1,1.2-4.766l.389-1.038c.389-1.1,2.107-1.135,2.464-1.135h.033c1.524.032,3.08.065,4.6.13,2.432.065,4.928.162,7.392.1,13.683-.259,24.382-2.237,33.753-6.193a2.313,2.313,0,0,1,.746-.162l.551-.1.389.389a9.216,9.216,0,0,1,2.5,6.549q.049,10.7-.033,21.4a5.439,5.439,0,0,1-.843,2.691c-.746,1.167-1.524,2.335-2.3,3.5-.584.875-1.167,1.718-1.718,2.594a2.016,2.016,0,0,0-.357,2.043,1.982,1.982,0,0,0,1.816.778c8.754.065,17.541.032,26.3,0,1.3,0,1.945-.357,1.978-2.237v-8.787c0-5.22,0-10.44.033-15.628a13.717,13.717,0,0,1,.551-3.761l2.335-8.073c1.459-5.026,3.015-10.213,4.345-15.369a38.129,38.129,0,0,0,.875-9.014c.065-6.355-.1-12.515-.259-17.736a10.88,10.88,0,0,0-.583-2.691c-.162-.486-.292-1.005-.422-1.524l-.389-1.589,1.913.421a2.664,2.664,0,0,1,1.005.292,11.761,11.761,0,0,1,6.614,10.927v3.242c.033,9.4.065,19.13-.032,28.695a18.415,18.415,0,0,0,3.567,11.77c.389.519.746,1.07,1.1,1.621.324.486.649,1.005,1.005,1.459a1.542,1.542,0,0,0,2.172.551,1.488,1.488,0,0,0,.324-2.2c-.81-1.329-1.686-2.626-2.594-3.891a13.635,13.635,0,0,1-2.529-8.236q.049-13.277.032-26.587v-5.674c0-9.046-5.642-15.207-14.72-16.082a3.97,3.97,0,0,1-2.2-.94,18.493,18.493,0,0,0-12.71-4.507h-.032c-11.737.032-23.474,0-35.212,0H413.9c-4.539,0-9.046.032-13.585-.032a15.213,15.213,0,0,1-5.35-.875c-2.853-1.135-5.674-2.464-8.43-3.729-1.135-.519-2.237-1.038-3.372-1.556l-1.1-.486.681-1.005c.389-.584.811-1.135,1.2-1.686a33.964,33.964,0,0,0,2.367-3.567c.649-1.135.843-2.075.551-2.561s-1.232-.778-2.561-.778l-7.23-.032-.065.292-1.005-.292h-.584l-.519-1.232.454-.486.227-1.816c.227-1.881.422-3.7.519-5.544a1.768,1.768,0,0,0-.389-1.329,1.464,1.464,0,0,0-1.07-.421h0c-.908,0-1.491.681-1.556,1.816-.032.421-.032.875-.032,1.3,0,.519,0,1.07-.033,1.589a6.449,6.449,0,0,1-3.534,5.382l-1.524.843v-6.387c0-.551-.162-1.816-1.459-1.848h-.033c-1.329,0-1.524,1.394-1.556,1.816a7.866,7.866,0,0,0,0,.875v.422c0,3.956-.292,4.377-4.15,5.771a18.187,18.187,0,0,0-4.41,2.237c-7.166,4.928-14.266,9.954-21.367,14.947l-1.265.875a6.843,6.843,0,0,0-1.135,1.038l-.259.259v4.085c.227.486.422.973.649,1.459a10.32,10.32,0,0,0,1.718,3.08,13.762,13.762,0,0,0,4.928,3.178,84.582,84.582,0,0,0,8.884,2.626l1.1.292a3.393,3.393,0,0,1,2.691,2.659c.551,2.043,1.167,4.053,1.751,6.063C354.789,245.192,355.73,248.337,356.508,251.449Zm98.7,53.563a16.175,16.175,0,0,1,1.038-1.556,7.032,7.032,0,0,0,1.491-4.993c-.1-5.382-.1-11.251-.032-17.995.065-3.826-.1-7.49-2.432-10.57l-.616-.811,9.273-6.809.324,1.524c.13.616.292,1.2.454,1.783a14.236,14.236,0,0,1,.713,3.794c.1,9.046.065,18.222.032,27.106v2.4a4.693,4.693,0,0,1-.681,2.4c-1.1,1.783-2.3,3.534-3.21,4.864a2.921,2.921,0,0,1-1.88,1.3,16.69,16.69,0,0,1-1.816.065h-4.312l1.038-1.589A6.456,6.456,0,0,0,455.2,305.013Zm-58.394-31.9c-.746-.1-1.524-.162-2.27-.227l-1.329-.13,2.724-7.23,2.529.454c1.135.227,2.237.422,3.372.551,4.8.584,9.176-1.167,13.261-3.113,2.788-1.362,5.09-1.135,7.1.648a7.373,7.373,0,0,1,2.5,7.36,2.591,2.591,0,0,1-2.724,2.334h-.065c-2.788-.032-5.577-.065-8.4-.065-3.923-.032-7.846-.065-11.77-.13C400.085,273.465,398.5,273.27,396.81,273.108Zm-7.2,12.807a20.889,20.889,0,0,1,1.881-8.592,2.318,2.318,0,0,1,1.978-1.459c1.07.032,2.172.162,3.307.292l2.5.292-.389,1.2c-.162.519-.357,1.005-.519,1.492a14.1,14.1,0,0,0-.778,2.659,15.06,15.06,0,0,0-.1,2.983c0,.422.033.843.033,1.264V307.38h-7.814v-3.015c0-1.783,0-3.6.032-5.382C389.709,294.67,389.742,290.26,389.612,285.915Zm81.609-67.732c6.874.389,12.224,5.577,13.261,12.872a5.28,5.28,0,0,1,.1,1.005c-.033,1.945-.033,3.858-.065,5.8-.032,4.993-.065,10.181-.292,15.239-.13,2.918-2.529,11.348-3.339,13.553l-1.135,3.761c-.94,3.113-1.848,6.193-2.724,9.273a13.671,13.671,0,0,0-.551,3.729c-.032,4.961-.032,9.922-.032,14.882v6.323c0,.422-.032.843-.065,1.264l-.065,1.492h-11.77l1.038-1.589c.259-.421.551-.811.81-1.2a22.619,22.619,0,0,0,1.459-2.3,4.782,4.782,0,0,0,.713-2.2c.065-10.278.065-20.589.033-30.867a12.146,12.146,0,0,0-2.334-7.36c-1.945-2.659-3.891-5.253-5.869-7.879-.778-1.038-1.589-1.264-2.4-.681-1.1.811-.389,2.01-.065,2.5.584.811,1.167,1.589,1.816,2.432l1.459,1.945-.681.616c-8.69,7.717-18.935,10.473-31.645,12.256l-1.3.162.227-1.945c.032-.324.065-.551.065-.778a10.72,10.72,0,0,0-4.766-9.662,8.753,8.753,0,0,0-9.143-.389,37.714,37.714,0,0,1-5.836,2.335,15.416,15.416,0,0,1-9.954-.195l-.843-.292.292-1.459c.357-1.913-.422-2.172-.843-2.3-.389-.13-1.427-.454-2.107,1.394-2.529,6.712-5.058,13.423-7.522,20.135a9.808,9.808,0,0,0-.551,3.113c-.032,5.285-.032,10.538-.032,15.823v8.268h-11.8l1.491-2.3a12.376,12.376,0,0,1,.94-1.362,7.531,7.531,0,0,0,1.589-5.285c-.065-5.8-.065-11.608-.033-17.411V268.18c.033-6.063.033-6.063-3.567-11.413L373.53,254.3c-1.265-1.913-2.2-1.329-2.529-1.1a1.292,1.292,0,0,0-.648.811,3.1,3.1,0,0,0,.681,2.075c1.135,1.751,2.3,3.5,3.469,5.22a7.46,7.46,0,0,1,1.005,5.836l-.227,1.329-1.232-.584c-7.587-3.631-12.288-8.949-14.331-16.212-.746-2.659-1.491-5.317-2.27-7.976-1.005-3.469-1.978-6.971-2.951-10.473a2.79,2.79,0,0,0-2.27-2.3c-2.691-.681-5.35-1.459-8.009-2.237-1.232-.357-2.5-.713-3.761-1.07a6.778,6.778,0,0,1-5.188-5.577A2.81,2.81,0,0,1,336.6,218.9q8.365-5.788,16.73-11.672l4.831-3.372a11.784,11.784,0,0,1,7.263-2.27h13.91a5.825,5.825,0,0,1,1.005.1l2.464.259-1.265,1.459a19.107,19.107,0,0,1-9.792,5.966c-.519.162-1.751.648-1.394,1.881a1.577,1.577,0,0,0,.681.973,1.931,1.931,0,0,0,1.491.065c1.005-.292,1.945-.681,2.918-1.07.584-.227,1.2-.454,2.01-.746a2.553,2.553,0,0,1,1.913-.195c1.686.713,3.307,1.491,4.993,2.27l2.821,1.329-1.556,1.945c-.486.584-.908,1.135-1.329,1.718a1.529,1.529,0,0,0,.162,2.172,1.471,1.471,0,0,0,2.2-.292,19.979,19.979,0,0,0,2.075-2.529,2.416,2.416,0,0,1,3.4-.746,18.584,18.584,0,0,0,8.2,1.751h.065q13.569-.049,27.138-.032h11.672" transform="translate(-332.32 -187.77)"/>
              <path id="Path_10122" data-name="Path 10122" d="M340.731,196.318a2.534,2.534,0,0,0,2.4,2.561,2.484,2.484,0,0,0,2.659-2.432,2.516,2.516,0,0,0-2.367-2.594A2.6,2.6,0,0,0,340.731,196.318Z" transform="translate(-313.463 -174.141)"/>
            </g>
            <path id="Path_10123" data-name="Path 10123" d="M366.8,230.65h0a6.448,6.448,0,0,1-6.452-6.452V198.94h12.872V224.2A6.442,6.442,0,0,1,366.8,230.65Z" transform="translate(-269.468 -162.723)" fill="none" stroke="#b55219" stroke-width="2"/>
          </g>
        </g>
        <g id="Group_2200" data-name="Group 2200" transform="translate(410.965)">
          <path id="Path_10124" data-name="Path 10124" d="M478.622,193.5A46.18,46.18,0,0,0,446.1,180.01h0a45.348,45.348,0,0,0-13.067,1.913,46.129,46.129,0,0,0-19.713,11.8,1.569,1.569,0,0,0-.1,2.4,1.589,1.589,0,0,0,2.4,0c.259-.227.486-.454.713-.681l.324-.324a42.721,42.721,0,0,1,50.483-6.128,45.641,45.641,0,0,1,9.208,7.036,2.082,2.082,0,0,0,1.362.713,1.573,1.573,0,0,0,1.038-.454,1.614,1.614,0,0,0,.616-1.167A1.982,1.982,0,0,0,478.622,193.5Z" transform="translate(-358.396 -180.01)"/>
          <path id="Path_10125" data-name="Path 10125" d="M465.084,192.89c-9.759-9.046-21.3-11.964-33.98-8.657a33.971,33.971,0,0,0-15.3,8.981,1.747,1.747,0,0,0-.648,1.362,1.551,1.551,0,0,0,.648,1.167,1.64,1.64,0,0,0,1.038.454,2.7,2.7,0,0,0,1.719-.973,31.5,31.5,0,0,1,43.35-.811c.162.162.357.324.519.519a3.734,3.734,0,0,0,1.038.875,2.117,2.117,0,0,0,1.654.1,2.737,2.737,0,0,0,.843-.875l-.389-.324h0l.389.292h0c.065-.065.1-.162.162-.227l.227-.292-.422-.616C465.6,193.506,465.376,193.181,465.084,192.89Z" transform="translate(-352.932 -173.5)"/>
          <path id="Path_10126" data-name="Path 10126" d="M451.839,192.555a23.8,23.8,0,0,0-33.007-.389c-.843.811-1.232,1.394-1.232,1.913a1.559,1.559,0,0,0,.551,1.1c.713.746,1.427.875,2.983-.551a20.513,20.513,0,0,1,13.974-5.577,19.882,19.882,0,0,1,8.625,1.978,26.66,26.66,0,0,1,4.507,3.015c.486.389,1.005.778,1.524,1.135a2.382,2.382,0,0,0,1.3.584,1.235,1.235,0,0,0,.616-.195,3.925,3.925,0,0,0,.908-1.005l.389-.486-.357-.551C452.26,193.074,452.066,192.782,451.839,192.555Z" transform="translate(-347.436 -167.233)"/>
          <path id="Path_10127" data-name="Path 10127" d="M429.67,188.37a12.908,12.908,0,0,0-8.852,3.6c-.94.908-1.038,1.751-.324,2.561a1.526,1.526,0,0,0,1.135.551,2.26,2.26,0,0,0,1.427-.648c4.118-3.6,9.046-3.631,13.164,0,.973.843,1.881.875,2.594.13.746-.811.648-1.654-.324-2.561A12.453,12.453,0,0,0,429.67,188.37Z" transform="translate(-341.997 -161.264)"/>
          <g id="Group_2199" data-name="Group 2199" transform="translate(0 25.16)">
            <g id="Group_2198" data-name="Group 2198">
              <path id="Path_10128" data-name="Path 10128" d="M420.148,251.449c2.3,9.046,7.846,15.466,16.957,19.584a3.391,3.391,0,0,1,2.3,3.534c-.033,4.053-.033,8.138-.033,12.191,0,3.923,0,7.814-.032,11.737a7.345,7.345,0,0,1-1.038,3.469c-.713,1.2-1.491,2.367-2.3,3.534-.486.713-.973,1.427-1.459,2.172a2.156,2.156,0,0,0-.389,2.107,1.909,1.909,0,0,0,1.783.746c8.754.065,17.541.032,26.3,0,1.362,0,1.945-.324,1.945-2.237V300.8c0-5.609-.032-11.413.1-17.119a14.329,14.329,0,0,1,1.2-4.766l.389-1.038c.389-1.1,2.107-1.135,2.464-1.135h.032c1.524.032,3.08.065,4.6.13,2.432.065,4.928.162,7.393.1,13.683-.259,24.382-2.237,33.753-6.193a2.315,2.315,0,0,1,.746-.162l.551-.1.389.389a9.217,9.217,0,0,1,2.5,6.549q.049,10.7-.032,21.4a5.439,5.439,0,0,1-.843,2.691c-.746,1.167-1.524,2.335-2.3,3.5-.584.875-1.167,1.718-1.719,2.594a2.016,2.016,0,0,0-.357,2.043,1.982,1.982,0,0,0,1.816.778c8.754.065,17.541.032,26.3,0,1.3,0,1.945-.357,1.978-2.237v-8.787c0-5.22,0-10.44.032-15.628a13.712,13.712,0,0,1,.551-3.761l2.334-8.073c1.459-5.026,3.015-10.213,4.345-15.369a38.13,38.13,0,0,0,.875-9.014c.065-6.355-.1-12.515-.259-17.736a10.884,10.884,0,0,0-.584-2.691c-.162-.486-.292-1.005-.422-1.524l-.389-1.589,1.913.421a2.664,2.664,0,0,1,1.005.292,11.761,11.761,0,0,1,6.614,10.927v3.242c.032,9.4.065,19.13-.032,28.695a18.415,18.415,0,0,0,3.567,11.77c.389.519.746,1.07,1.1,1.621.324.486.648,1.005,1.005,1.459a1.542,1.542,0,0,0,2.172.551,1.488,1.488,0,0,0,.324-2.2c-.811-1.329-1.686-2.626-2.594-3.891a13.634,13.634,0,0,1-2.529-8.236q.049-13.277.033-26.587v-5.674c0-9.046-5.642-15.207-14.72-16.082a3.97,3.97,0,0,1-2.2-.94,18.493,18.493,0,0,0-12.71-4.507h-.032c-11.737.032-23.474,0-35.212,0H477.537c-4.539,0-9.046.032-13.585-.032A15.213,15.213,0,0,1,458.6,214c-2.853-1.135-5.674-2.464-8.43-3.729-1.135-.519-2.237-1.038-3.372-1.556l-1.1-.486.681-1.005c.389-.584.811-1.135,1.2-1.686a33.95,33.95,0,0,0,2.367-3.567c.649-1.135.843-2.075.551-2.561s-1.232-.778-2.561-.778l-7.23-.032-.065.292-1.005-.292h-.584l-.519-1.232.454-.486.227-1.816c.227-1.881.421-3.7.519-5.544a1.769,1.769,0,0,0-.389-1.329,1.465,1.465,0,0,0-1.07-.421h0c-.908,0-1.491.681-1.556,1.816-.032.421-.032.875-.032,1.3,0,.519,0,1.07-.033,1.589a6.449,6.449,0,0,1-3.534,5.382l-1.524.843v-6.387c0-.551-.162-1.816-1.459-1.848H430.1c-1.329,0-1.524,1.394-1.556,1.816a7.866,7.866,0,0,0,0,.875v.422c0,3.956-.292,4.377-4.15,5.771a18.189,18.189,0,0,0-4.41,2.237c-7.165,4.928-14.266,9.954-21.367,14.947l-1.264.875a6.841,6.841,0,0,0-1.135,1.038l-.259.259v4.085c.227.486.422.973.648,1.459a10.322,10.322,0,0,0,1.719,3.08,13.761,13.761,0,0,0,4.928,3.178,84.572,84.572,0,0,0,8.884,2.626l1.1.292a3.393,3.393,0,0,1,2.691,2.659c.551,2.043,1.167,4.053,1.751,6.063C418.462,245.192,419.37,248.337,420.148,251.449Zm98.729,53.563a16.187,16.187,0,0,1,1.038-1.556,7.031,7.031,0,0,0,1.491-4.993c-.1-5.382-.1-11.251-.032-17.995.065-3.826-.1-7.49-2.432-10.57l-.616-.811,9.273-6.809.324,1.524c.13.616.292,1.2.454,1.783a14.236,14.236,0,0,1,.713,3.794c.1,9.046.065,18.222.032,27.106v2.4a4.693,4.693,0,0,1-.681,2.4c-1.1,1.783-2.3,3.534-3.21,4.864a2.922,2.922,0,0,1-1.881,1.3,16.689,16.689,0,0,1-1.816.065h-4.312l1.038-1.589C518.52,305.6,518.682,305.3,518.877,305.013Zm-58.427-31.9c-.746-.1-1.524-.162-2.27-.227l-1.329-.13,2.724-7.23,2.529.454c1.135.227,2.237.422,3.372.551,4.8.584,9.176-1.167,13.261-3.113,2.788-1.362,5.09-1.135,7.1.648a7.372,7.372,0,0,1,2.5,7.36,2.591,2.591,0,0,1-2.724,2.334h-.065c-2.788-.032-5.577-.065-8.4-.065-3.923-.032-7.846-.065-11.77-.13C463.725,273.465,462.136,273.27,460.45,273.108Zm-7.2,12.807a20.891,20.891,0,0,1,1.88-8.592,2.318,2.318,0,0,1,1.978-1.459c1.07.032,2.172.162,3.307.292l2.5.292-.389,1.2c-.162.519-.357,1.005-.519,1.492a14.106,14.106,0,0,0-.778,2.659,15.051,15.051,0,0,0-.1,2.983c0,.422.032.843.032,1.264V307.38h-7.814v-3.015c0-1.783,0-3.6.033-5.382C453.382,294.67,453.382,290.26,453.252,285.915Zm81.609-67.732c6.874.389,12.224,5.577,13.261,12.872a5.28,5.28,0,0,1,.1,1.005c-.032,1.945-.032,3.858-.065,5.8-.032,4.993-.065,10.181-.292,15.239-.13,2.918-2.529,11.348-3.34,13.553l-1.135,3.761c-.94,3.113-1.848,6.193-2.724,9.273a13.664,13.664,0,0,0-.551,3.729c-.032,4.961-.032,9.922-.032,14.882v6.323c0,.422-.033.843-.065,1.264l-.065,1.492h-11.77l1.038-1.589c.259-.421.551-.811.811-1.2a22.619,22.619,0,0,0,1.459-2.3,4.782,4.782,0,0,0,.713-2.2c.065-10.278.065-20.589.032-30.867a12.145,12.145,0,0,0-2.334-7.36c-1.945-2.659-3.891-5.253-5.869-7.879-.778-1.038-1.589-1.264-2.4-.681-1.1.811-.389,2.01-.065,2.5.584.811,1.167,1.589,1.816,2.432l1.459,1.945-.681.616c-8.689,7.717-18.935,10.473-31.645,12.256l-1.3.162.227-1.945c.032-.324.065-.551.065-.778a10.719,10.719,0,0,0-4.766-9.662,8.753,8.753,0,0,0-9.143-.389,37.713,37.713,0,0,1-5.836,2.335,15.416,15.416,0,0,1-9.954-.195l-.843-.292.292-1.459c.357-1.913-.421-2.172-.843-2.3-.389-.13-1.427-.454-2.108,1.394-2.529,6.712-5.058,13.423-7.522,20.135a9.8,9.8,0,0,0-.551,3.113c-.033,5.285-.033,10.538-.033,15.823v8.268H438.4l1.491-2.3a12.351,12.351,0,0,1,.94-1.362,7.531,7.531,0,0,0,1.589-5.285c-.065-5.8-.065-11.608-.033-17.411V268.18c.033-6.063.033-6.063-3.567-11.413L437.17,254.3c-1.265-1.913-2.2-1.329-2.529-1.1a1.292,1.292,0,0,0-.648.811,3.094,3.094,0,0,0,.681,2.075c1.135,1.751,2.3,3.5,3.469,5.22a7.46,7.46,0,0,1,1.005,5.836l-.227,1.329-1.232-.584c-7.587-3.631-12.288-8.949-14.331-16.212-.746-2.659-1.491-5.317-2.27-7.976-1.005-3.469-1.978-6.971-2.951-10.473a2.79,2.79,0,0,0-2.27-2.3c-2.691-.681-5.35-1.459-8.009-2.237-1.232-.357-2.5-.713-3.761-1.07a6.778,6.778,0,0,1-5.188-5.577,2.811,2.811,0,0,1,1.329-3.145q8.365-5.788,16.73-11.672l4.831-3.372a11.785,11.785,0,0,1,7.263-2.27h13.91a5.825,5.825,0,0,1,1.005.1l2.464.259-1.265,1.459a19.106,19.106,0,0,1-9.792,5.966c-.519.162-1.751.648-1.394,1.881a1.577,1.577,0,0,0,.681.973,1.931,1.931,0,0,0,1.491.065c1.005-.292,1.945-.681,2.918-1.07.584-.227,1.2-.454,2.01-.746a2.553,2.553,0,0,1,1.913-.195c1.686.713,3.307,1.491,4.993,2.27l2.821,1.329-1.556,1.945c-.486.584-.908,1.135-1.329,1.718a1.529,1.529,0,0,0,.162,2.172,1.471,1.471,0,0,0,2.2-.292,19.982,19.982,0,0,0,2.075-2.529,2.415,2.415,0,0,1,3.4-.746,18.584,18.584,0,0,0,8.2,1.751h.065q13.569-.049,27.138-.032h11.672" transform="translate(-395.96 -187.77)"/>
              <path id="Path_10129" data-name="Path 10129" d="M404.371,196.318a2.534,2.534,0,0,0,2.4,2.561,2.484,2.484,0,0,0,2.659-2.432,2.516,2.516,0,0,0-2.367-2.594A2.617,2.617,0,0,0,404.371,196.318Z" transform="translate(-377.103 -174.141)"/>
            </g>
            <path id="Path_10130" data-name="Path 10130" d="M430.212,230.65h0a6.448,6.448,0,0,1-6.452-6.452V198.94h12.872V224.2A6.4,6.4,0,0,1,430.212,230.65Z" transform="translate(-333.623 -162.723)" fill="none" stroke="#b55219" stroke-width="2"/>
          </g>
        </g>
      </g>
      <g id="Group_2205" data-name="Group 2205" transform="translate(48.779 49.779)">
        <g id="Group_2202" data-name="Group 2202" transform="translate(0 43.485)">
          <path id="Path_10131" data-name="Path 10131" d="M64.663,182.093h95.551c5.869,0,8.852-2.983,8.852-8.819V154.339q0-44.209.032-88.418a4.408,4.408,0,0,0-1.394-3.4c-5.123-5.09-10.246-10.213-15.336-15.3L139.917,34.762a11.111,11.111,0,0,0-1.394-1.038,2.3,2.3,0,0,1-.454-.324H62.134a10.075,10.075,0,0,0-4.474,2.626,8.023,8.023,0,0,0-1.881,5.317v9.792H52.958c-.389,0-.746-.032-1.135-.032A31.13,31.13,0,0,0,20.664,77.982c-.065.389-.13.778-.227,1.135l-.1.486.032,5.642c.195.584.389,1.491.584,2.4a48.352,48.352,0,0,0,1.459,5.577,30.929,30.929,0,0,0,29.732,20.3h3.7v59.756C55.811,179.143,58.794,182.093,64.663,182.093Zm74.93-142.176,22.891,22.891H139.593Zm-80.41,4.8V41.571c.032-3.113,1.718-4.831,4.766-4.831h70.164a4.16,4.16,0,0,1,.584.032l1.167.1.324,1.2V63.716c0,2.108.454,2.561,2.594,2.561h26.976V173.242c0,4.02-1.491,5.48-5.48,5.48H64.663c-3.988,0-5.48-1.491-5.48-5.48V162.185q0-23.491-.032-47.014a3.125,3.125,0,0,1,2.4-3.34C73.838,107.26,80.907,98.538,82.5,85.958c1.881-14.72-6.841-28.4-21.237-33.266a2.743,2.743,0,0,1-2.108-3.015C59.183,48.023,59.183,46.369,59.183,44.716Zm-5.8,9.922,1.394.13c12.418,1.038,23.345,12,24.382,24.415l.1,1.394H53.379V54.637Zm.292,55.476c-.746.065-1.459.1-2.2.1a27.821,27.821,0,0,1-2.951-55.476l1.394-.13V81.322c0,2.2.454,2.659,2.626,2.659H79.059l-.032,1.3C78.8,94.875,69.85,108.817,53.671,110.113Z" transform="translate(-20.34 -33.4)"/>
          <path id="Path_10132" data-name="Path 10132" d="M122.348,61.094a6.977,6.977,0,0,0-7.392-3.34,7.458,7.458,0,0,0-5.739,4.215,7.8,7.8,0,0,0,.519,7.522l.486.811-1.783,1.978-5.22,5.642c-4.28,4.6-8.592,9.208-12.84,13.812a3.811,3.811,0,0,1-3.923,1.427,5.538,5.538,0,0,0-1.751.1,13.279,13.279,0,0,1-1.589.195,3.522,3.522,0,0,1-2.594-.94c-2.724-3.275-5.382-6.582-8.009-9.922a3.611,3.611,0,0,1-.551-2.561,16.4,16.4,0,0,1,.259-1.686,7.3,7.3,0,0,0,.227-2.14,7.531,7.531,0,0,0-12.742-4.6,6.986,6.986,0,0,0-1.816,7.879,2.807,2.807,0,0,1-.681,3.113c-3.048,3.275-6.1,6.549-9.079,9.857a3,3,0,0,1-3.469.973,7.473,7.473,0,1,0,5.026,4.734,3.5,3.5,0,0,1,.551-3.015c2.886-3.242,5.966-6.582,9.435-10.246A3.345,3.345,0,0,1,62.2,84.05c.648.032,1.362.032,2.01.065a19.119,19.119,0,0,0,3.048,0,4.788,4.788,0,0,1,.681-.032,2.873,2.873,0,0,1,2.432,1.232c2.464,3.113,4.928,6.225,7.49,9.273a3.48,3.48,0,0,1,.648,3.761,7.522,7.522,0,0,0,12.9,7.166c2.27-2.853,2.432-5.836.551-9.176l-.422-.713.486-.681c.227-.292.324-.454.454-.584l3.4-3.664q8.025-8.608,16.082-17.184a3.737,3.737,0,0,1,2.853-.843c3.372.324,5.8-.746,7.522-3.307A7.006,7.006,0,0,0,122.348,61.094ZM42.457,104.866h0a4.215,4.215,0,0,1,0-8.43,4.322,4.322,0,0,1,4.215,4.215A4.337,4.337,0,0,1,42.457,104.866ZM64.991,81.229h-.065a4.266,4.266,0,0,1-4.183-4.118,4.309,4.309,0,0,1,4.118-4.28,4.244,4.244,0,0,1,4.28,4.118A4.359,4.359,0,0,1,64.991,81.229Zm20.718,23.637h-.065a4.343,4.343,0,0,1-4.215-4.118,4.218,4.218,0,0,1,1.2-2.983,4.116,4.116,0,0,1,2.918-1.3,4.717,4.717,0,0,1,2.983,1.2,4.289,4.289,0,0,1,1.329,2.918A4.407,4.407,0,0,1,85.709,104.866Zm33.2-36.671a4.278,4.278,0,0,1-2.886,1.2h-.1a4.289,4.289,0,0,1-2.918-1.329,4.218,4.218,0,0,1-1.2-2.983,4.174,4.174,0,0,1,7.23-2.788,4.218,4.218,0,0,1,1.2,2.983A4.094,4.094,0,0,1,118.911,68.195Z" transform="translate(12.403 20.969)" fill="#b55219"/>
          <path id="Path_10133" data-name="Path 10133" d="M48.691,47.97H48.14a4.578,4.578,0,0,0-.713.032,1.709,1.709,0,0,0-1.556,1.654,1.759,1.759,0,0,0,1.556,1.654c.324.032.681.032,1.005.032H91.554c1.167,0,2.561-.292,2.561-1.686,0-1.362-1.394-1.686-2.561-1.686Z" transform="translate(36.907 -0.729)"/>
          <path id="Path_10134" data-name="Path 10134" d="M92.549,54.955a1.657,1.657,0,0,0,0-3.307,5.466,5.466,0,0,0-1.038-.032H48.421c-1.167,0-2.561.292-2.561,1.686,0,1.362,1.394,1.686,2.561,1.686H91.253A7.439,7.439,0,0,0,92.549,54.955Z" transform="translate(36.884 7.427)"/>
          <path id="Path_10135" data-name="Path 10135" d="M74.869,38.86H45.331a4.97,4.97,0,0,0-1.394.13,1.475,1.475,0,0,0-1.167,1.524A1.42,1.42,0,0,0,43.9,42.037a5.937,5.937,0,0,0,1.524.162H74.674a9.352,9.352,0,0,0,1.362-.065,1.611,1.611,0,0,0,.032-3.177A4.738,4.738,0,0,0,74.869,38.86Z" transform="translate(29.955 -21.157)"/>
          <path id="Path_10136" data-name="Path 10136" d="M42.77,44.186a1.734,1.734,0,0,0,1.783,1.654,4.323,4.323,0,0,0,.648,0H74.707a5.058,5.058,0,0,0,1.621-.195,1.391,1.391,0,0,0,1.038-1.491,1.423,1.423,0,0,0-1.038-1.491,4.687,4.687,0,0,0-1.459-.162H47.017c-.843,0-1.654,0-2.5.032A1.7,1.7,0,0,0,42.77,44.186Z" transform="translate(29.955 -12.995)"/>
          <path id="Path_10137" data-name="Path 10137" d="M43.874,47.98A1.723,1.723,0,0,0,42.22,49.6a1.779,1.779,0,0,0,1.621,1.686,1.285,1.285,0,0,0,1.135-.486,1.876,1.876,0,0,0,.551-1.135,1.733,1.733,0,0,0-1.654-1.686Z" transform="translate(28.722 -0.707)"/>
          <path id="Path_10138" data-name="Path 10138" d="M43.864,54.937A1.394,1.394,0,0,0,45,54.451a1.876,1.876,0,0,0,.551-1.135,1.629,1.629,0,0,0-.486-1.135A1.721,1.721,0,0,0,43.9,51.63h-.032a1.557,1.557,0,0,0-1.1.486,1.876,1.876,0,0,0-.551,1.135A1.836,1.836,0,0,0,43.864,54.937Z" transform="translate(28.7 7.478)"/>
          <path id="Path_10139" data-name="Path 10139" d="M27.362,50.272c-.032-.875-.421-2.27-1.718-2.3a1.465,1.465,0,0,0-1.07.421,2.883,2.883,0,0,0-.584,1.978A19.512,19.512,0,0,0,42.731,69.013c.811,0,2.237-.162,2.3-1.589.065-1.524-1.654-1.718-2.2-1.751A16.12,16.12,0,0,1,27.362,50.272Z" transform="translate(-12.156 -0.729)"/>
        </g>
        <g id="Group_2203" data-name="Group 2203" transform="translate(236.902 175.318)">
          <path id="Path_10140" data-name="Path 10140" d="M234.785,133.362H216.628a1.5,1.5,0,0,0-1.686,1.589c-.032,3.794-.032,7.62,0,11.413,0,.032-.032.065-.032.1v67.181h-7.976V154.6c0-2.01-.454-2.464-2.432-2.464H188.031c-2.27,0-2.626.389-2.626,2.659v58.881H177.4V174.313c0-1.783-.519-2.3-2.3-2.3H158.331c-2.075,0-2.5.421-2.5,2.529v39.135h-8.009V190.622c0-1.783-.519-2.334-2.27-2.334H128.664c-1.881,0-2.367.486-2.367,2.4v23.053H101.72c-3.6,0-4.993-1.394-4.993-4.961V82.458c0-3.631,1.427-5.026,5.058-5.026h73.341V96.854c0,4.734,3.08,7.814,7.846,7.814h19.389v35.309a8.2,8.2,0,0,0,.032.908,1.663,1.663,0,0,0,3.307.065,8.814,8.814,0,0,0,.032-.94v-9.824c0-8.722,0-17.411.032-26.133A3.86,3.86,0,0,0,204.5,101c-5.35-5.317-10.7-10.667-16.017-15.985l-9.37-9.37a16.856,16.856,0,0,0-1.427-1.232l-.422-.357H99.58a3.272,3.272,0,0,1-.681.227,7.324,7.324,0,0,0-5.48,7.2c-.032,5.382,0,10.732,0,16.114v111.05c0,5.609,2.853,8.462,8.495,8.462h44.031q43.917,0,87.835.032a2.767,2.767,0,0,0,2.691-1.167V134.562C235.92,133.686,235.466,133.362,234.785,133.362ZM178.563,80.285l21.075,21.043H182.746c-2.432-.032-4.118-1.556-4.15-3.729-.065-3.5-.032-7-.032-10.505ZM144.422,213.642H129.8V191.756h14.623Zm29.538,0H159.336V175.448h14.623Zm29.538,0H188.842v-58.07H203.5Zm29.505,0h-14.72V136.831H233Z" transform="translate(-93.406 -74.06)"/>
          <path id="Path_10141" data-name="Path 10141" d="M98.1,111.51a24.919,24.919,0,0,0,20.686,24.642,24.033,24.033,0,0,0,16.828-3.048c6.971-4.15,11.089-10.505,12.321-18.87l.13-1.005h5.8c1.329-.032,1.913-.616,1.913-1.945a30.577,30.577,0,0,0-.227-3.437A32.734,32.734,0,0,0,123.941,78.86h-.162a2.9,2.9,0,0,0-1.913.422q-.486.438-.486,2.14v5.123l-1.005.13C105.72,88.782,98.068,100.746,98.1,111.51Zm26.749-29.116,1.232.1c13.488,1.005,25.193,12.71,26.068,26.133l.065,1.232h-27.4V82.394Zm-3.437,28.889c.032,1.459.519,1.945,2.043,1.978h20.978l-.1,1.265c-.746,9.079-9.468,18.676-21.3,18.676h-.292a21.476,21.476,0,0,1-21.2-21.14C101.245,99.708,111,91.181,120.18,90.338l1.264-.13v14.3C121.38,106.776,121.38,109.014,121.412,111.283Z" transform="translate(-82.879 -63.297)" fill="#b55219"/>
          <path id="Path_10142" data-name="Path 10142" d="M153.27,99.82H100.841a5.092,5.092,0,0,0-1.589.162,1.45,1.45,0,0,0-1.1,1.556,1.5,1.5,0,0,0,1.167,1.556,4.123,4.123,0,0,0,1.167.1h53.336A1.658,1.658,0,0,0,155.7,101.6a1.757,1.757,0,0,0-1.881-1.751A3.332,3.332,0,0,0,153.27,99.82Z" transform="translate(-82.767 -16.298)" fill="#b55219"/>
          <path id="Path_10143" data-name="Path 10143" d="M111.5,104.06H100.248c-.778,0-2.108.227-2.108,1.621a1.541,1.541,0,0,0,.422,1.135,2.279,2.279,0,0,0,1.621.551c5.8.032,11.64.032,17.444,0a2.279,2.279,0,0,0,1.621-.551,1.541,1.541,0,0,0,.421-1.135c0-1.394-1.329-1.621-2.108-1.621Z" transform="translate(-82.789 -6.79)" fill="#b55219"/>
          <path id="Path_10144" data-name="Path 10144" d="M109.838,104.07h-.032a1.655,1.655,0,0,0-1.686,1.589,1.516,1.516,0,0,0,.454,1.167,1.714,1.714,0,0,0,1.232.519h0a1.633,1.633,0,0,0,1.654-1.621A1.593,1.593,0,0,0,109.838,104.07Z" transform="translate(-60.411 -6.768)" fill="#b55219"/>
        </g>
        <g id="Group_2204" data-name="Group 2204" transform="translate(189.482)">
          <path id="Path_10145" data-name="Path 10145" d="M187.722,95.345V93.854c0-11.575,0-23.572-.065-35.374a3.8,3.8,0,0,0-1.005-2.432C175.142,44.473,163.4,32.7,151.668,21.063a3.83,3.83,0,0,0-2.4-1.038c-20.492-.065-40.821-.032-59.724,0a11.988,11.988,0,0,0-3.307.454c-4.669,1.362-7.457,5.35-7.457,10.667V157.63c0,.389,0,.778.032,1.135a10.593,10.593,0,0,0,7.814,9.727c.259.065.519.162.778.227l.259.1h91.109a1.1,1.1,0,0,1,.389-.195c5.609-1.459,8.56-5.253,8.56-10.991,0-11.932,0-45.393,0-62.285ZM151.7,33.838V26.446l29.6,29.57H167.458c-3.08,0-6.16,0-9.241-.032a6.67,6.67,0,0,1-6.452-6.323C151.668,44.343,151.668,39.026,151.7,33.838Zm32.715,123.533c0,5.317-2.788,8.138-8.106,8.138H90.128c-5.188,0-8.041-2.853-8.041-8.041V31.277c0-5.09,2.886-8.009,7.944-8.009h58.232v9.889H97.585c-3.372,0-5.155,1.783-5.188,5.155-.032,2.2,0,4.377,0,6.582v2.367c0,4.15,1.621,5.771,5.771,5.771h40.853a7.69,7.69,0,0,0,1.491-.1,1.608,1.608,0,0,0-.065-3.177,5.129,5.129,0,0,0-1.232-.032H98.2c-2.237,0-2.5-.292-2.5-2.529V44.668c0-1.913.032-3.858-.032-5.771a2.471,2.471,0,0,1,.519-1.881,2.591,2.591,0,0,1,1.945-.584h.032c12.191.032,24.415.032,36.606.032h11.543c.324,0,.648.032,1.038.032l1.07.065V48.429c.032,6.614,4.345,10.894,10.959,10.894h25.1v98.048Z" transform="translate(-78.78 -19.988)"/>
          <path id="Path_10146" data-name="Path 10146" d="M102.014,33.752c-2.432,0-4.863-.032-7.263-.032-2.594,0-5.123,0-7.652.032-2.626,0-4.053,1.427-4.085,3.956-.065,5.22-.065,10.375,0,15.336.032,2.464,1.459,3.858,4.02,3.891,1.654.032,3.307,0,4.961,0h9.986c2.853,0,4.247-1.394,4.247-4.215.032-4.928.032-9.857,0-14.753C106.164,35.244,104.7,33.785,102.014,33.752Zm.778,19.843H86.353V37.124h16.439Z" transform="translate(-69.396 10.802)" fill="#b55219"/>
          <path id="Path_10147" data-name="Path 10147" d="M102.215,43.962c-2.432-.032-4.928-.032-7.457-.032s-5.123,0-7.749.032c-2.464.032-3.956,1.427-3.988,3.794-.1,5.058-.1,10.311,0,15.628.032,2.367,1.491,3.761,3.956,3.794,1.751.032,3.5,0,5.285,0h9.889c2.5-.032,3.956-1.459,3.988-3.891.032-4.928.032-10.084,0-15.336C106.171,45.421,104.744,43.995,102.215,43.962Zm.616,19.843H86.425V47.334h16.406Z" transform="translate(-69.435 33.696)" fill="#b55219"/>
          <path id="Path_10148" data-name="Path 10148" d="M106.186,58.248c-.032-2.659-1.459-4.085-4.118-4.085-2.464,0-4.961-.032-7.457-.032s-4.993,0-7.457.032c-2.691,0-4.118,1.427-4.15,4.085-.065,4.993-.065,10.051,0,15.044.032,2.626,1.459,4.053,4.15,4.053,4.961.032,9.954.032,14.915,0,2.659,0,4.085-1.394,4.118-4.053.032-1.751.032-3.469,0-5.22v-4.7C106.219,61.685,106.219,59.966,106.186,58.248Zm-3.372,15.725H86.408V57.534h16.406Z" transform="translate(-69.418 56.568)" fill="#b55219"/>
          <path id="Path_10149" data-name="Path 10149" d="M138.251,33.73H95.517a3.788,3.788,0,0,0-1.362.195c-.648.259-1.167.811-.908,1.491a4.2,4.2,0,0,0,1.524,1.621,3.883,3.883,0,0,0,.616,0c.162,0,.324-.032.486-.032h42.28c.357,0,.713,0,1.07-.032a1.6,1.6,0,0,0,.259-3.113A4.634,4.634,0,0,0,138.251,33.73Z" transform="translate(-46.493 10.825)"/>
          <path id="Path_10150" data-name="Path 10150" d="M138.556,36.44H95.433a4.132,4.132,0,0,0-.908.065,1.59,1.59,0,0,0-1.167.908,1.512,1.512,0,0,0,0,1.394c.324.681.875.94,2.075.94h43.188c1.329,0,2.043-.519,2.075-1.556a1.444,1.444,0,0,0-.389-1.1A2.4,2.4,0,0,0,138.556,36.44Z" transform="translate(-46.474 16.901)"/>
          <path id="Path_10151" data-name="Path 10151" d="M138.3,43.957H95.854a6.589,6.589,0,0,0-1.459.1,1.5,1.5,0,0,0-1.2,1.718A1.433,1.433,0,0,0,94.589,47.2c.357.032.713.032,1.07.032H138.1c.324,0,.681,0,1.005-.032a1.454,1.454,0,0,0,1.524-1.556,1.514,1.514,0,0,0-1.427-1.686A4.247,4.247,0,0,0,138.3,43.957Z" transform="translate(-46.473 33.702)"/>
          <path id="Path_10152" data-name="Path 10152" d="M137.99,46.65H95.839a5.6,5.6,0,0,0-1.686.195c-.616.227-1.167.778-.908,1.491a3.991,3.991,0,0,0,1.524,1.621,3.853,3.853,0,0,0,.616,0c.162,0,.324-.032.486-.032h42.312c.357,0,.713,0,1.07-.032a1.455,1.455,0,0,0,1.394-1.427,1.418,1.418,0,0,0-1.07-1.654A4.991,4.991,0,0,0,137.99,46.65Z" transform="translate(-46.491 39.795)"/>
          <path id="Path_10153" data-name="Path 10153" d="M138.328,54.14H95.854A5.092,5.092,0,0,0,94.3,54.3a1.605,1.605,0,0,0-1.1,1.167,1.229,1.229,0,0,0,.324,1.2,3.059,3.059,0,0,0,1.913.713c5.577.065,11.154.032,16.73.032h25.971c.324,0,.681,0,1.005-.032a1.49,1.49,0,0,0,1.524-1.556,1.53,1.53,0,0,0-1.329-1.654A9.13,9.13,0,0,0,138.328,54.14Z" transform="translate(-46.538 56.59)"/>
          <path id="Path_10154" data-name="Path 10154" d="M138.737,56.85H95.452a4.435,4.435,0,0,0-.94.065,1.674,1.674,0,0,0-1.167.843,1.586,1.586,0,0,0-.065,1.329c.324.778.875,1.038,2.14,1.038,5.382,0,10.765-.032,16.147,0h27.171c.713,0,1.881-.195,1.945-1.556C140.747,57.563,140,56.915,138.737,56.85Z" transform="translate(-46.525 62.667)"/>
        </g>
      </g>
      <g id="Group_2206" data-name="Group 2206" transform="translate(0 232.392)">
        <path id="Path_10155" data-name="Path 10155" d="M101.478,88.41S-167.7,554.138,194.565,566.588" transform="translate(-5.295 -49.178)" fill="none" stroke="#000" stroke-linecap="round" stroke-width="2"/>
        <path id="Path_10156" data-name="Path 10156" d="M224.118,76.31c-119.026,91.661-378.282,480.967-49.51,517.41" transform="translate(14.63 -76.31)" fill="none" stroke="#000" stroke-linecap="round" stroke-width="2"/>
        <path id="Path_10157" data-name="Path 10157" d="M212.95,108.28C96.842,145.891-105.9,485.59,148.168,522.033" transform="translate(41.068 -4.623)" fill="none" stroke="#000" stroke-linecap="round" stroke-width="2"/>
      </g>
      <path id="Path_10158" data-name="Path 10158" d="M103.178,147.472,88.231,158.95a2.2,2.2,0,0,1-3.761-1.556V134.47a2.2,2.2,0,0,1,3.761-1.556l14.947,11.445A2.173,2.173,0,0,1,103.178,147.472Z" transform="translate(172.24 281.535)"/>
      <path id="Path_10159" data-name="Path 10159" d="M199.178,154.892,184.231,166.37a2.2,2.2,0,0,1-3.761-1.556V141.89a2.2,2.2,0,0,1,3.761-1.556l14.947,11.445A2.173,2.173,0,0,1,199.178,154.892Z" transform="translate(387.503 298.173)"/>
      <path id="Path_10160" data-name="Path 10160" d="M380.444,147.352l14.947,11.478a2.2,2.2,0,0,0,3.761-1.556V134.35a2.2,2.2,0,0,0-3.761-1.556l-14.947,11.445A2.173,2.173,0,0,0,380.444,147.352Z" transform="translate(834.438 281.266)"/>
      <path id="Path_10161" data-name="Path 10161" d="M316.934,154.892l14.947,11.478a2.2,2.2,0,0,0,3.761-1.556V141.89a2.2,2.2,0,0,0-3.761-1.556l-14.947,11.445A2.173,2.173,0,0,0,316.934,154.892Z" transform="translate(692.028 298.173)"/>
      <g id="Group_2210" data-name="Group 2210" transform="translate(702.327 188.396)">
        <g id="Group_2208" data-name="Group 2208">
          <g id="Group_2207" data-name="Group 2207">
            <path id="Path_10162" data-name="Path 10162" d="M407.279,223.2V194.02c0-7.587-4.539-12.126-12.159-12.159h-6.679V152.713a4.98,4.98,0,0,0-3.048-4.961,5.23,5.23,0,0,0-1.265-.389l-.227-.065c-.227-.065-.454-.1-.681-.162l-1.038-.292v-74.7c0-.616,0-1.232-.032-1.816a7.99,7.99,0,0,0-10.6-7.133c-3.34,1.167-5.35,4.183-5.35,8.073v75.741l-1.135.227c-3.891.811-5.123,2.3-5.155,6.128v28.533H241.564c-2.821,0-5.771,0-8.657.032a10.969,10.969,0,0,0-10.927,10.8c-.1,10.375-.1,21.108,0,31.9a11.039,11.039,0,0,0,10.894,10.862h4.734v9.889c0,2.27.389,2.659,2.756,2.659h19.778c2.5,0,2.853-.357,2.853-2.951v-9.468H366.167v9.922c0,2.043.486,2.5,2.5,2.5h20.2c2.3,0,2.691-.389,2.691-2.691v-9.824h3.437C402.805,235.425,407.247,230.95,407.279,223.2ZM369.636,71.622a5.681,5.681,0,0,1,1.491-4.247,3.861,3.861,0,0,1,3.145-1.167c2.756.032,4.442,2.043,4.442,5.35V147.3H369.6V71.622Zm-6.193,79.307h21.4v30.8h-21.4ZM259.429,244.438H241.24v-8.916h18.189Zm128.558,0H369.733v-8.852h18.254ZM334.651,232.02H234.463c-6.193,0-9.046-2.853-9.046-8.981V193.858c0-4.766,2.367-7.717,6.647-8.365a12.365,12.365,0,0,1,1.913-.13H395.25c5.512,0,8.56,3.015,8.56,8.495v29.8c0,5.35-3.08,8.43-8.462,8.43Z" transform="translate(-221.908 -62.741)"/>
            <path id="Path_10163" data-name="Path 10163" d="M280.2,105.28H253.414c-2.464,0-2.464,1.1-2.464,1.686a1.585,1.585,0,0,0,.389,1.167,2.8,2.8,0,0,0,2.043.584h26.782a2.757,2.757,0,0,0,2.01-.584,1.489,1.489,0,0,0,.357-1.2C282.5,106.415,282.5,105.312,280.2,105.28Z" transform="translate(-156.785 32.646)" fill="#b55219"/>
            <path id="Path_10164" data-name="Path 10164" d="M264.01,107a1.528,1.528,0,0,0,1.524,1.686c2.724.1,5.479.1,8.106,0A1.546,1.546,0,0,0,275.164,107a1.6,1.6,0,0,0-1.751-1.686c-.811-.032-1.654-.032-2.5-.032h-3.7c-.519,0-1.005,0-1.524.032A1.566,1.566,0,0,0,264.01,107Z" transform="translate(-127.5 32.646)" fill="#b55219"/>
            <path id="Path_10165" data-name="Path 10165" d="M243.436,119.312h.032a7.738,7.738,0,0,0,5.642-2.334,7.885,7.885,0,0,0,2.335-5.706,7.992,7.992,0,0,0-7.944-7.911h-.032a7.976,7.976,0,1,0-.033,15.952Zm.032-12.548h.13a4.542,4.542,0,0,1,2.95,7.846,4.422,4.422,0,0,1-3.08,1.232h-.195a4.443,4.443,0,0,1-3.113-1.427,4.5,4.5,0,0,1-1.264-3.242A4.622,4.622,0,0,1,243.469,106.764Z" transform="translate(-191.518 28.341)" fill="#b55219"/>
            <path id="Path_10166" data-name="Path 10166" d="M251.306,103.35h-.1a8.028,8.028,0,0,0-5.642,2.3,7.826,7.826,0,0,0-2.367,5.609,8.026,8.026,0,0,0,7.976,8.041,7.977,7.977,0,0,0,.13-15.952Zm3.113,11.154a4.54,4.54,0,0,1-7.749-3.177,4.6,4.6,0,0,1,4.474-4.539h.065a4.442,4.442,0,0,1,3.145,1.3,4.52,4.52,0,0,1,1.362,3.21A4.352,4.352,0,0,1,254.418,114.5Z" transform="translate(-174.163 28.318)" fill="#b55219"/>
            <path id="Path_10167" data-name="Path 10167" d="M235.739,103.35h-.032a7.992,7.992,0,1,0,8.009,8.138,7.854,7.854,0,0,0-2.3-5.706A8.038,8.038,0,0,0,235.739,103.35Zm-.032,12.515h-.1a4.487,4.487,0,0,1-3.145-1.362,4.517,4.517,0,0,1,3.242-7.684h.1a4.523,4.523,0,0,1-.1,9.046Z" transform="translate(-208.852 28.318)" fill="#b55219"/>
          </g>
        </g>
        <g id="Group_2209" data-name="Group 2209" transform="translate(47.483 69.351)">
          <path id="Path_10168" data-name="Path 10168" d="M302.462,97.618A46.181,46.181,0,0,0,269.941,84.13h0a45.348,45.348,0,0,0-13.067,1.913,46.129,46.129,0,0,0-19.713,11.8,1.569,1.569,0,0,0-.1,2.4,1.589,1.589,0,0,0,2.4,0c.259-.227.486-.454.713-.681l.324-.324a42.722,42.722,0,0,1,50.483-6.128,45.636,45.636,0,0,1,9.208,7.036,2.082,2.082,0,0,0,1.362.713,1.573,1.573,0,0,0,1.038-.454,1.614,1.614,0,0,0,.616-1.167A1.909,1.909,0,0,0,302.462,97.618Z" transform="translate(-236.552 -84.13)"/>
          <path id="Path_10169" data-name="Path 10169" d="M288.924,97.01c-9.759-9.046-21.3-11.964-33.98-8.657a33.971,33.971,0,0,0-15.3,8.981,1.747,1.747,0,0,0-.648,1.362,1.552,1.552,0,0,0,.648,1.167,1.641,1.641,0,0,0,1.038.454,2.7,2.7,0,0,0,1.718-.973,31.5,31.5,0,0,1,43.35-.811c.162.162.357.324.519.519a3.734,3.734,0,0,0,1.038.875,2.116,2.116,0,0,0,1.654.1,2.738,2.738,0,0,0,.843-.875l-.389-.324h0l.389.292h0c.065-.065.1-.162.162-.227l.227-.292-.422-.616C289.443,97.626,289.216,97.269,288.924,97.01Z" transform="translate(-231.088 -77.62)"/>
          <path id="Path_10170" data-name="Path 10170" d="M275.679,96.665a23.8,23.8,0,0,0-33.007-.389c-.843.811-1.232,1.394-1.232,1.913a1.56,1.56,0,0,0,.551,1.1c.713.746,1.427.875,2.983-.551a20.513,20.513,0,0,1,13.974-5.577,19.881,19.881,0,0,1,8.625,1.978,26.662,26.662,0,0,1,4.507,3.015c.486.389,1.005.778,1.524,1.135a2.382,2.382,0,0,0,1.3.584,1.235,1.235,0,0,0,.616-.195,3.922,3.922,0,0,0,.908-1.005l.389-.486-.357-.551C276.1,97.216,275.906,96.925,275.679,96.665Z" transform="translate(-225.592 -71.375)"/>
          <path id="Path_10171" data-name="Path 10171" d="M253.51,92.48a12.909,12.909,0,0,0-8.852,3.6c-.94.908-1.038,1.751-.324,2.561a1.526,1.526,0,0,0,1.135.551,2.26,2.26,0,0,0,1.427-.648c4.118-3.6,9.046-3.631,13.164,0,.973.843,1.881.875,2.594.13.746-.811.648-1.654-.324-2.561A12.591,12.591,0,0,0,253.51,92.48Z" transform="translate(-220.153 -65.407)"/>
        </g>
      </g>
      <g id="Group_2211" data-name="Group 2211" transform="translate(315.273 520.927)">
        <path id="Path_10172" data-name="Path 10172" d="M168.442,178.788A46.18,46.18,0,0,0,135.921,165.3h0a45.347,45.347,0,0,0-13.067,1.913,46.129,46.129,0,0,0-19.713,11.8,1.569,1.569,0,0,0-.1,2.4,1.589,1.589,0,0,0,2.4,0c.259-.227.486-.454.713-.681l.324-.324a42.721,42.721,0,0,1,50.483-6.128,45.639,45.639,0,0,1,9.208,7.036,2.082,2.082,0,0,0,1.362.713,1.573,1.573,0,0,0,1.038-.454,1.614,1.614,0,0,0,.616-1.167A2.2,2.2,0,0,0,168.442,178.788Z" transform="translate(-102.532 -165.3)"/>
        <path id="Path_10173" data-name="Path 10173" d="M154.894,178.18c-9.759-9.046-21.3-11.964-33.98-8.657a33.971,33.971,0,0,0-15.3,8.981,1.747,1.747,0,0,0-.648,1.362,1.552,1.552,0,0,0,.648,1.167,1.64,1.64,0,0,0,1.038.454,2.7,2.7,0,0,0,1.718-.973,31.5,31.5,0,0,1,43.35-.811c.162.162.357.324.519.519a3.734,3.734,0,0,0,1.038.875,2.116,2.116,0,0,0,1.654.1,2.737,2.737,0,0,0,.843-.875L155.38,180h0l.389.292h0c.065-.065.1-.162.162-.227l.227-.292-.421-.616C155.445,178.8,155.186,178.471,154.894,178.18Z" transform="translate(-97.09 -158.79)"/>
        <path id="Path_10174" data-name="Path 10174" d="M141.649,177.845a23.8,23.8,0,0,0-33.007-.389c-.843.811-1.232,1.394-1.232,1.913a1.559,1.559,0,0,0,.551,1.1c.713.746,1.427.875,2.983-.551a20.513,20.513,0,0,1,13.974-5.577,19.882,19.882,0,0,1,8.625,1.978,26.664,26.664,0,0,1,4.507,3.015c.486.389,1.005.778,1.524,1.135a2.382,2.382,0,0,0,1.3.584,1.235,1.235,0,0,0,.616-.195,3.923,3.923,0,0,0,.908-1.005l.389-.486-.357-.551A5.593,5.593,0,0,0,141.649,177.845Z" transform="translate(-91.594 -152.523)"/>
        <path id="Path_10175" data-name="Path 10175" d="M119.479,173.66a12.909,12.909,0,0,0-8.852,3.6c-.94.908-1.038,1.751-.324,2.561a1.526,1.526,0,0,0,1.135.551,2.26,2.26,0,0,0,1.427-.648c4.118-3.6,9.046-3.631,13.164,0,.973.843,1.881.875,2.594.13.746-.811.648-1.654-.324-2.561A12.4,12.4,0,0,0,119.479,173.66Z" transform="translate(-86.155 -146.554)"/>
      </g>
      <g id="Group_2212" data-name="Group 2212" transform="translate(137.918 520.927)">
        <path id="Path_10176" data-name="Path 10176" d="M113.742,178.788A46.18,46.18,0,0,0,81.221,165.3h0a45.347,45.347,0,0,0-13.067,1.913,46.129,46.129,0,0,0-19.713,11.8,1.569,1.569,0,0,0-.1,2.4,1.589,1.589,0,0,0,2.4,0c.259-.227.486-.454.713-.681l.324-.324a42.721,42.721,0,0,1,50.483-6.128,45.638,45.638,0,0,1,9.208,7.036,2.082,2.082,0,0,0,1.362.713,1.573,1.573,0,0,0,1.038-.454,1.614,1.614,0,0,0,.616-1.167A2.082,2.082,0,0,0,113.742,178.788Z" transform="translate(-47.832 -165.3)"/>
        <path id="Path_10177" data-name="Path 10177" d="M100.194,178.18c-9.759-9.046-21.3-11.964-33.98-8.657a33.971,33.971,0,0,0-15.3,8.981,1.747,1.747,0,0,0-.648,1.362,1.552,1.552,0,0,0,.648,1.167,1.64,1.64,0,0,0,1.038.454,2.7,2.7,0,0,0,1.718-.973,31.5,31.5,0,0,1,43.35-.811c.162.162.357.324.519.519a3.734,3.734,0,0,0,1.038.875,2.116,2.116,0,0,0,1.654.1,2.737,2.737,0,0,0,.843-.875L100.68,180h0l.389.292h0c.065-.065.1-.162.162-.227l.227-.292-.421-.616A8.263,8.263,0,0,0,100.194,178.18Z" transform="translate(-42.39 -158.79)"/>
        <path id="Path_10178" data-name="Path 10178" d="M86.949,177.845a23.8,23.8,0,0,0-33.007-.389c-.843.811-1.232,1.394-1.232,1.913a1.559,1.559,0,0,0,.551,1.1c.713.746,1.427.875,2.983-.551a20.513,20.513,0,0,1,13.974-5.577,19.882,19.882,0,0,1,8.625,1.978,26.663,26.663,0,0,1,4.507,3.015c.486.389,1.005.778,1.524,1.135a2.382,2.382,0,0,0,1.3.584,1.235,1.235,0,0,0,.616-.195,3.923,3.923,0,0,0,.908-1.005l.389-.486-.357-.551A5.593,5.593,0,0,0,86.949,177.845Z" transform="translate(-36.894 -152.523)"/>
        <path id="Path_10179" data-name="Path 10179" d="M64.779,173.66a12.909,12.909,0,0,0-8.852,3.6c-.94.908-1.038,1.751-.324,2.561a1.526,1.526,0,0,0,1.135.551,2.26,2.26,0,0,0,1.427-.648c4.118-3.6,9.046-3.631,13.164,0,.973.843,1.881.875,2.594.13.746-.811.648-1.654-.324-2.561A12.4,12.4,0,0,0,64.779,173.66Z" transform="translate(-31.455 -146.554)"/>
      </g>
      <g id="Group_2218" data-name="Group 2218" transform="translate(688.574)">
        <g id="Group_2213" data-name="Group 2213" transform="translate(63.607 149.486)">
          <path id="Path_10180" data-name="Path 10180" d="M267.75,89.583l-6.1-.032h0V53.82a3.079,3.079,0,0,0-3.08-3.08h-9.468a3.079,3.079,0,0,0-3.08,3.08v35.7l-6.063-.032a2.692,2.692,0,0,0-1.913,4.572L251.895,108a2.7,2.7,0,0,0,3.793,0L269.63,94.155A2.685,2.685,0,0,0,267.75,89.583Z" transform="translate(-237.284 -50.74)" fill="none" stroke="#000" stroke-width="2"/>
          <path id="Path_10181" data-name="Path 10181" d="M280.84,69.935l-6.1.032h0V105.73a3.079,3.079,0,0,1-3.08,3.08H262.2a3.079,3.079,0,0,1-3.08-3.08V70l-6.063.032a2.692,2.692,0,0,1-1.913-4.572l13.845-13.942a2.7,2.7,0,0,1,3.793,0L282.72,65.363A2.672,2.672,0,0,1,280.84,69.935Z" transform="translate(-207.932 -50.74)" fill="none" stroke="#000" stroke-width="2"/>
        </g>
        <g id="Group_2217" data-name="Group 2217">
          <path id="Path_10182" data-name="Path 10182" d="M415.04,100.1c.389-1.362.649-2.724.908-4.118.13-.616.227-1.232.357-1.816V87.362a6.933,6.933,0,0,1-.324-1.135h0c-2.4-14.169-10.181-23.41-23.766-28.306-.454-.162-.908-.292-1.394-.454l-2.561-.811.195-2.5c.032-.421.065-.811.13-1.2a41.462,41.462,0,0,0-.1-15.985c-3.534-17.995-19.973-31.9-38.227-32.326-15.044-.357-27.138,5.836-35.828,18.416a4.291,4.291,0,0,1-5.253,1.881l-.389-.1a40.593,40.593,0,0,0-7.781-1.751c-13.715-1.1-25.485,5.739-31.451,18.254a4.5,4.5,0,0,1-4.7,2.724l-3.178-.1c-1.556-.065-3.048-.13-4.539-.13a32.286,32.286,0,0,0-4.734.292A40.717,40.717,0,0,0,218.652,93.23c4.345,19.195,20.589,32.1,40.432,32.164h3.923V122.7h-3.956c-19.811-.032-35.244-13.229-38.389-32.845-3.21-19.973,11.024-39.654,31.062-42.993a40.9,40.9,0,0,1,16.244.519c1.913.454,2.172.195,2.724-1.427a28.828,28.828,0,0,1,41.015-16.99c1.783.908,2.107.778,3.048-.973,7.652-14.4,23.183-22.6,38.681-20.459a38.108,38.108,0,0,1,31.71,48.635c-.584,2.043-.324,2.529-.292,2.561,0,.032.324.454,2.3.811,14.915,2.659,26.068,15.3,26.522,30.056a31.689,31.689,0,0,1-24.8,32.294,36.539,36.539,0,0,1-7.879.778h-1.913v2.724h2.756A34.39,34.39,0,0,0,415.04,100.1Z" transform="translate(-217.666 -4.636)"/>
          <path id="Path_10183" data-name="Path 10183" d="M251.812,106.073c9.792,0,47.889.065,55.119-.032a15.427,15.427,0,0,0,13.91-9.468,15.151,15.151,0,0,0-3.729-16.957,3.653,3.653,0,0,0-.681-.486l-2.821-2.01,2.107-1.783c4.28-3.6,6.29-7.587,6.258-12.515,0-4.766-2.01-8.754-6.1-12.224L314,49.008l2.335-2.108c.292-.259.551-.486.778-.713a15.125,15.125,0,0,0,3.729-16.86,15.285,15.285,0,0,0-13.812-9.532H303.4c-8.787-.032-17.7-.065-26.684-.065q-13.083,0-26.133.1c-6.128.065-10.765,3.145-13.456,8.916-2.464,5.285-1.913,10.473,1.654,15.433a20.4,20.4,0,0,0,1.978,2.237c.357.389.746.746,1.1,1.135L243.35,49.2l-1.686,1.459a15.553,15.553,0,0,0,.065,24.544l1.718,1.427-1.686,1.848c-.162.195-.292.324-.421.454-5.48,4.993-7.036,11.089-4.507,17.638C239.1,102.344,244.971,106.073,251.812,106.073ZM238.648,37.5a12.591,12.591,0,0,1,2.529-10.375,12.976,12.976,0,0,1,9.954-4.669c3.631-.065,7.3-.065,10.927-.032h25.031c6.42,0,12.84,0,19.259.032,7.133.032,12.71,5.253,12.969,12.094a12.529,12.529,0,0,1-10.375,12.872,14.128,14.128,0,0,1-2.626.227H251.488C244.971,47.646,239.816,43.561,238.648,37.5Zm.065,28.241A12.582,12.582,0,0,1,250,50.4a19.59,19.59,0,0,1,2.4-.065h34.563c6.517,0,13,0,19.519.032A12.578,12.578,0,0,1,309.137,75.3a18.516,18.516,0,0,1-3.177.259H251.812C245.165,75.53,240.043,71.672,238.713,65.739Zm2.4,17.282a12.826,12.826,0,0,1,9.695-4.8c2.788-.1,5.577-.065,8.4-.032h47.079c6.452.032,11.478,3.956,12.84,10.051a12.08,12.08,0,0,1-1.751,9.338,12.434,12.434,0,0,1-8.041,5.48,18.31,18.31,0,0,1-3.372.324H251.812c-6.679,0-11.834-3.923-13.066-10.019A12.3,12.3,0,0,1,241.113,83.02Z" transform="translate(-177.42 29.211)"/>
          <g id="Group_2214" data-name="Group 2214" transform="translate(74.547 58.149)">
            <path id="Path_10184" data-name="Path 10184" d="M270.041,26.146c-.162-.324-.357-.746-1.816-.746H242.611a7.952,7.952,0,0,0-.875.065,1.139,1.139,0,0,0-1.07,1.362c.032.454.1,1.167,1.945,1.2,2.918.032,5.8.032,8.722.032H267.8c1.394,0,1.783-.162,2.043-.519A1.164,1.164,0,0,0,270.041,26.146Z" transform="translate(-240.658 -16.224)" fill="#b55219"/>
            <path id="Path_10185" data-name="Path 10185" d="M254.085,25.42a1.227,1.227,0,0,0-.908.389,1.252,1.252,0,0,0,.032,1.783,1.331,1.331,0,0,0,.908.357,1.26,1.26,0,0,0,.908-.421,1.3,1.3,0,0,0,.357-.843,1.273,1.273,0,0,0-1.3-1.265Z" transform="translate(-213.386 -16.179)" fill="#b55219"/>
            <path id="Path_10186" data-name="Path 10186" d="M257.845,25.42h0a1.22,1.22,0,0,0-1.264,1.265,1.227,1.227,0,0,0,.389.908,1.253,1.253,0,0,0,.875.357h.032a1.319,1.319,0,0,0,.908-.421,1.21,1.21,0,0,0,.389-.875,1.367,1.367,0,0,0-1.329-1.232Z" transform="translate(-204.955 -16.179)" fill="#b55219"/>
            <path id="Path_10187" data-name="Path 10187" d="M270.041,23.316c-.162-.324-.357-.746-1.816-.746H242.611a7.953,7.953,0,0,0-.875.065A1.139,1.139,0,0,0,240.665,24c.032.454.1,1.167,1.945,1.2,2.918.032,5.8.032,8.722.032H267.8c1.394,0,1.783-.162,2.043-.519A1.167,1.167,0,0,0,270.041,23.316Z" transform="translate(-240.658 -22.57)" fill="#b55219"/>
            <path id="Path_10188" data-name="Path 10188" d="M254.085,22.58a1.227,1.227,0,0,0-.908.389,1.252,1.252,0,0,0,.032,1.783,1.331,1.331,0,0,0,.908.357,1.26,1.26,0,0,0,.908-.421,1.3,1.3,0,0,0,.357-.843,1.273,1.273,0,0,0-1.3-1.265Z" transform="translate(-213.386 -22.548)" fill="#b55219"/>
            <path id="Path_10189" data-name="Path 10189" d="M257.845,22.58h0a1.22,1.22,0,0,0-1.264,1.265,1.227,1.227,0,0,0,.389.908,1.253,1.253,0,0,0,.875.357h.032a1.319,1.319,0,0,0,.908-.421,1.21,1.21,0,0,0,.389-.875,1.367,1.367,0,0,0-1.329-1.232Z" transform="translate(-204.955 -22.548)" fill="#b55219"/>
            <path id="Path_10190" data-name="Path 10190" d="M270.041,23.316c-.162-.324-.357-.746-1.816-.746H242.611a7.953,7.953,0,0,0-.875.065A1.139,1.139,0,0,0,240.665,24c.032.454.1,1.167,1.945,1.2,2.918.032,5.8.032,8.722.032H267.8c1.394,0,1.783-.162,2.043-.519A1.167,1.167,0,0,0,270.041,23.316Z" transform="translate(-240.658 -22.57)" fill="#b55219"/>
            <path id="Path_10191" data-name="Path 10191" d="M254.085,22.58a1.227,1.227,0,0,0-.908.389,1.252,1.252,0,0,0,.032,1.783,1.331,1.331,0,0,0,.908.357,1.26,1.26,0,0,0,.908-.421,1.3,1.3,0,0,0,.357-.843,1.273,1.273,0,0,0-1.3-1.265Z" transform="translate(-213.386 -22.548)" fill="#b55219"/>
            <path id="Path_10192" data-name="Path 10192" d="M257.845,22.58h0a1.22,1.22,0,0,0-1.264,1.265,1.227,1.227,0,0,0,.389.908,1.253,1.253,0,0,0,.875.357h.032a1.319,1.319,0,0,0,.908-.421,1.21,1.21,0,0,0,.389-.875,1.367,1.367,0,0,0-1.329-1.232Z" transform="translate(-204.955 -22.548)" fill="#b55219"/>
          </g>
          <g id="Group_2215" data-name="Group 2215" transform="translate(74.547 85.58)">
            <path id="Path_10193" data-name="Path 10193" d="M270.041,34.606c-.162-.324-.357-.746-1.816-.746H242.611a7.951,7.951,0,0,0-.875.065,1.139,1.139,0,0,0-1.07,1.362c.032.454.1,1.167,1.945,1.2,2.918.032,5.8.032,8.722.032H267.8c1.394,0,1.783-.162,2.043-.519A1.164,1.164,0,0,0,270.041,34.606Z" transform="translate(-240.658 -24.684)" fill="#b55219"/>
            <path id="Path_10194" data-name="Path 10194" d="M254.085,33.88a1.227,1.227,0,0,0-.908.389,1.252,1.252,0,0,0,.032,1.783,1.331,1.331,0,0,0,.908.357,1.26,1.26,0,0,0,.908-.422,1.3,1.3,0,0,0,.357-.843,1.273,1.273,0,0,0-1.3-1.265Z" transform="translate(-213.386 -24.639)" fill="#b55219"/>
            <path id="Path_10195" data-name="Path 10195" d="M257.845,33.88h0a1.22,1.22,0,0,0-1.264,1.265,1.227,1.227,0,0,0,.389.908,1.253,1.253,0,0,0,.875.357h.032a1.319,1.319,0,0,0,.908-.422,1.21,1.21,0,0,0,.389-.875,1.367,1.367,0,0,0-1.329-1.232Z" transform="translate(-204.955 -24.639)" fill="#b55219"/>
            <path id="Path_10196" data-name="Path 10196" d="M270.041,31.776c-.162-.324-.357-.746-1.816-.746H242.611a7.952,7.952,0,0,0-.875.065,1.139,1.139,0,0,0-1.07,1.362c.032.454.1,1.167,1.945,1.2,2.918.032,5.8.032,8.722.032H267.8c1.394,0,1.783-.162,2.043-.519A1.167,1.167,0,0,0,270.041,31.776Z" transform="translate(-240.658 -31.03)" fill="#b55219"/>
            <path id="Path_10197" data-name="Path 10197" d="M254.085,31.04a1.227,1.227,0,0,0-.908.389,1.252,1.252,0,0,0,.032,1.783,1.331,1.331,0,0,0,.908.357,1.26,1.26,0,0,0,.908-.422,1.3,1.3,0,0,0,.357-.843,1.273,1.273,0,0,0-1.3-1.265Z" transform="translate(-213.386 -31.008)" fill="#b55219"/>
            <path id="Path_10198" data-name="Path 10198" d="M257.845,31.04h0A1.22,1.22,0,0,0,256.58,32.3a1.227,1.227,0,0,0,.389.908,1.253,1.253,0,0,0,.875.357h.032a1.319,1.319,0,0,0,.908-.422,1.21,1.21,0,0,0,.389-.875,1.367,1.367,0,0,0-1.329-1.232Z" transform="translate(-204.955 -31.008)" fill="#b55219"/>
            <path id="Path_10199" data-name="Path 10199" d="M270.041,31.776c-.162-.324-.357-.746-1.816-.746H242.611a7.952,7.952,0,0,0-.875.065,1.139,1.139,0,0,0-1.07,1.362c.032.454.1,1.167,1.945,1.2,2.918.032,5.8.032,8.722.032H267.8c1.394,0,1.783-.162,2.043-.519A1.167,1.167,0,0,0,270.041,31.776Z" transform="translate(-240.658 -31.03)" fill="#b55219"/>
            <path id="Path_10200" data-name="Path 10200" d="M254.085,31.04a1.227,1.227,0,0,0-.908.389,1.252,1.252,0,0,0,.032,1.783,1.331,1.331,0,0,0,.908.357,1.26,1.26,0,0,0,.908-.422,1.3,1.3,0,0,0,.357-.843,1.273,1.273,0,0,0-1.3-1.265Z" transform="translate(-213.386 -31.008)" fill="#b55219"/>
            <path id="Path_10201" data-name="Path 10201" d="M257.845,31.04h0A1.22,1.22,0,0,0,256.58,32.3a1.227,1.227,0,0,0,.389.908,1.253,1.253,0,0,0,.875.357h.032a1.319,1.319,0,0,0,.908-.422,1.21,1.21,0,0,0,.389-.875,1.367,1.367,0,0,0-1.329-1.232Z" transform="translate(-204.955 -31.008)" fill="#b55219"/>
          </g>
          <g id="Group_2216" data-name="Group 2216" transform="translate(74.547 114.08)">
            <path id="Path_10202" data-name="Path 10202" d="M270.041,43.406c-.162-.324-.357-.746-1.816-.746H242.611a7.952,7.952,0,0,0-.875.065,1.139,1.139,0,0,0-1.07,1.362c.032.454.1,1.167,1.945,1.2,2.918.032,5.8.032,8.722.032H267.8c1.394,0,1.783-.162,2.043-.519A1.167,1.167,0,0,0,270.041,43.406Z" transform="translate(-240.658 -33.452)" fill="#b55219"/>
            <path id="Path_10203" data-name="Path 10203" d="M254.085,42.67a1.227,1.227,0,0,0-.908.389,1.252,1.252,0,0,0,.032,1.783,1.331,1.331,0,0,0,.908.357,1.26,1.26,0,0,0,.908-.422,1.3,1.3,0,0,0,.357-.843,1.273,1.273,0,0,0-1.3-1.265Z" transform="translate(-213.386 -33.429)" fill="#b55219"/>
            <path id="Path_10204" data-name="Path 10204" d="M257.845,42.67h0a1.22,1.22,0,0,0-1.264,1.265,1.227,1.227,0,0,0,.389.908,1.253,1.253,0,0,0,.875.357h.032a1.319,1.319,0,0,0,.908-.422,1.21,1.21,0,0,0,.389-.875,1.367,1.367,0,0,0-1.329-1.232Z" transform="translate(-204.955 -33.429)" fill="#b55219"/>
            <path id="Path_10205" data-name="Path 10205" d="M270.041,40.566c-.162-.324-.357-.746-1.816-.746H242.611a7.95,7.95,0,0,0-.875.065,1.139,1.139,0,0,0-1.07,1.362c.032.454.1,1.167,1.945,1.2,2.918.032,5.8.032,8.722.032H267.8c1.394,0,1.783-.162,2.043-.519A1.167,1.167,0,0,0,270.041,40.566Z" transform="translate(-240.658 -39.82)" fill="#b55219"/>
            <path id="Path_10206" data-name="Path 10206" d="M254.085,39.83a1.227,1.227,0,0,0-.908.389A1.252,1.252,0,0,0,253.209,42a1.331,1.331,0,0,0,.908.357,1.26,1.26,0,0,0,.908-.422,1.3,1.3,0,0,0,.357-.843,1.273,1.273,0,0,0-1.3-1.265Z" transform="translate(-213.386 -39.798)" fill="#b55219"/>
            <path id="Path_10207" data-name="Path 10207" d="M257.845,39.84h0A1.22,1.22,0,0,0,256.58,41.1a1.227,1.227,0,0,0,.389.908,1.253,1.253,0,0,0,.875.357h.032a1.319,1.319,0,0,0,.908-.422,1.21,1.21,0,0,0,.389-.875,1.341,1.341,0,0,0-1.329-1.232Z" transform="translate(-204.955 -39.775)" fill="#b55219"/>
            <path id="Path_10208" data-name="Path 10208" d="M270.041,40.566c-.162-.324-.357-.746-1.816-.746H242.611a7.95,7.95,0,0,0-.875.065,1.139,1.139,0,0,0-1.07,1.362c.032.454.1,1.167,1.945,1.2,2.918.032,5.8.032,8.722.032H267.8c1.394,0,1.783-.162,2.043-.519A1.167,1.167,0,0,0,270.041,40.566Z" transform="translate(-240.658 -39.82)" fill="#b55219"/>
            <path id="Path_10209" data-name="Path 10209" d="M254.085,39.83a1.227,1.227,0,0,0-.908.389A1.252,1.252,0,0,0,253.209,42a1.331,1.331,0,0,0,.908.357,1.26,1.26,0,0,0,.908-.422,1.3,1.3,0,0,0,.357-.843,1.273,1.273,0,0,0-1.3-1.265Z" transform="translate(-213.386 -39.798)" fill="#b55219"/>
            <path id="Path_10210" data-name="Path 10210" d="M257.845,39.84h0A1.22,1.22,0,0,0,256.58,41.1a1.227,1.227,0,0,0,.389.908,1.253,1.253,0,0,0,.875.357h.032a1.319,1.319,0,0,0,.908-.422,1.21,1.21,0,0,0,.389-.875,1.341,1.341,0,0,0-1.329-1.232Z" transform="translate(-204.955 -39.775)" fill="#b55219"/>
          </g>
        </g>
      </g>
      <g id="Group_2220" data-name="Group 2220" transform="translate(139.629 575.657)">
        <g id="Group_2219" data-name="Group 2219">
          <path id="Path_10211" data-name="Path 10211" d="M111.585,189.216c0-4.474-2.561-7.036-7.036-7.036H55.526c-4.6,0-7.166,2.529-7.166,7.166V290.668c0,4.6,2.529,7.166,7.166,7.166h48.927c4.6,0,7.166-2.529,7.166-7.166ZM51.667,291.057V188.924a3.077,3.077,0,0,1,3.372-3.437H69.305l.454,1.751c.357,1.394.681,2.756,1.038,4.118.324,1.264.778,1.621,2.108,1.621H87.073c1.3,0,1.751-.357,2.075-1.654.357-1.329.681-2.659,1.005-3.988l.454-1.751.422-.032a3.53,3.53,0,0,1,.584-.032h13.229c2.27,0,3.469,1.2,3.469,3.469V291.025c0,2.335-1.167,3.534-3.5,3.534H55.2C52.9,294.494,51.667,293.327,51.667,291.057ZM86.2,189.6H73.78l-1.005-4.085H87.2Z" transform="translate(-48.36 -182.18)"/>
          <path id="Path_10212" data-name="Path 10212" d="M65.629,215.16H57.491c-.713,0-1.881.195-1.881,1.459s1.2,1.459,1.881,1.459c4.118.032,8.268.032,12.386,0a2.265,2.265,0,0,0,1.427-.422,1.224,1.224,0,0,0,.422-1.038c0-1.264-1.2-1.459-1.881-1.459C68.482,215.128,67.055,215.16,65.629,215.16Z" transform="translate(-32.103 -108.261)"/>
        </g>
        <line id="Line_34" data-name="Line 34" x2="35.99" transform="translate(13.618 24.577)" fill="none" stroke="#000" stroke-linecap="round" stroke-width="2"/>
        <line id="Line_35" data-name="Line 35" x2="35.99" transform="translate(13.618 36.93)" fill="none" stroke="#000" stroke-linecap="round" stroke-width="2"/>
        <line id="Line_36" data-name="Line 36" x2="35.99" transform="translate(13.618 49.251)" fill="none" stroke="#000" stroke-linecap="round" stroke-width="2"/>
        <line id="Line_37" data-name="Line 37" x2="35.99" transform="translate(13.618 61.604)" fill="none" stroke="#000" stroke-linecap="round" stroke-width="2"/>
      </g>
    </g>
    <g id="Group_2223" data-name="Group 2223" transform="translate(473.2 565.638)">
      <g id="Group_2222" data-name="Group 2222">
        <path id="Path_10213" data-name="Path 10213" d="M340.527,213.585h-184a5.286,5.286,0,0,1-5.285-5.285V208.1a5.286,5.286,0,0,1,5.285-5.285h184Z" transform="translate(-151.24 -125.88)" fill="none" stroke="#000" stroke-width="2"/>
        <path id="Path_10214" data-name="Path 10214" d="M221.584,220.528l-11.964-2.3V203.992l11.964-2.432Z" transform="translate(-20.333 -128.705)" fill="none" stroke="#000" stroke-linecap="round" stroke-linejoin="round" stroke-width="2"/>
        <path id="Path_10215" data-name="Path 10215" d="M227.122,200.655h6.517a8.015,8.015,0,0,1,5.22,2.853c3.08,3.664,9.695,11.251,7.133,12.84a9.368,9.368,0,0,0-3.956,9.565c.811,3.567,33.785,49.835,33.785,49.835s2.075,8.495-5.09,13.1c-5.674,3.664-12.061,2.01-16.017-4.183s-41.4-58.621-41.4-58.621V204.352a5.116,5.116,0,0,1,5.09-3.761C222.551,200.655,227.122,200.655,227.122,200.655Z" transform="translate(-12.059 -130.881)" fill="none" stroke="#000" stroke-width="2"/>
        <path id="Path_10216" data-name="Path 10216" d="M213.332,207.686s.843-11.186,10.213-11.186c9.176,0,9.176,11.316,9.176,11.316l-.065,24.544s.778,4.766-3.729,4.928-11.932.032-11.932.032-3.7-1.329-3.7-4.961S213.332,207.686,213.332,207.686Z" transform="translate(-12.081 -140.051)" fill="none" stroke="#000" stroke-width="2"/>
        <path id="Path_10217" data-name="Path 10217" d="M230.315,179.382a1.614,1.614,0,0,0-.94-.292h-14.2a1.661,1.661,0,0,0-1.654,1.654v54.828a1.661,1.661,0,0,0,1.654,1.654h14.2a1.689,1.689,0,0,0,.94-.292c.357-.227,3.437-2.529,3.534-5.966.065-2.2-1.1-4.28-3.469-6.128a1.653,1.653,0,0,0-1.005-.357h-4.41V191.865h4.41a1.584,1.584,0,0,0,1.005-.357c2.367-1.848,3.534-3.923,3.469-6.128C233.785,181.911,230.672,179.641,230.315,179.382Zm-1.3,8.949-.227.227h-5.447a1.66,1.66,0,0,0-1.654,1.654v35.925a1.66,1.66,0,0,0,1.654,1.654h5.447l.227.227a4.107,4.107,0,0,1,1.556,2.853,4.6,4.6,0,0,1-1.524,2.853l-.227.227h-12V182.43h12l.227.227a4.6,4.6,0,0,1,1.524,2.853A3.816,3.816,0,0,1,229.018,188.331Z" transform="translate(-11.588 -179.09)"/>
      </g>
    </g>
    <g id="Group_2225" data-name="Group 2225" transform="translate(746.171 503.126)">
      <path id="Path_10218" data-name="Path 10218" d="M270.415,159.811H243.536c-.486,0-3.145-.162-3.145,4.215v5.48s-4.961-.584-4.961,2.14c0,1.1.227,2.659,4.961,2.594l.324,237.987v3.6s.324,3.048,12.483,3.372,12.386.227,12.386.227h4.831" transform="translate(-235.43 -159.81)" fill="none" stroke="#000" stroke-width="2"/>
      <path id="Path_10219" data-name="Path 10219" d="M246.22,159.811H273.1c.486,0,3.145-.162,3.145,4.215v5.48s4.961-.584,4.961,2.14c0,1.1-.227,2.659-4.961,2.594l-.324,237.987v3.6s-.324,3.048-12.483,3.372-12.386.227-12.386.227H246.22" transform="translate(-211.235 -159.81)" fill="none" stroke="#000" stroke-width="2"/>
      <line id="Line_38" data-name="Line 38" x2="60.048" transform="translate(4.961 8.301)" fill="none" stroke="#000" stroke-width="2"/>
      <line id="Line_39" data-name="Line 39" x2="30.218" transform="translate(19.875 32.003)" fill="none" stroke="#000" stroke-width="2"/>
      <path id="Path_10220" data-name="Path 10220" d="M237.67,162.56s1.135,8.009,5.382,11.77,7.23,5.642,7.23,8.787v210.07s-1.1,6.906,5.026,7.068,10.084,0,10.084,0" transform="translate(-230.407 -153.643)" fill="none" stroke="#000" stroke-width="2"/>
      <path id="Path_10221" data-name="Path 10221" d="M273.942,162.56s-1.135,8.009-5.382,11.77-7.23,5.642-7.23,8.787v210.07s1.1,6.906-5.026,7.068-10.084,0-10.084,0" transform="translate(-211.235 -153.643)" fill="none" stroke="#000" stroke-width="2"/>
      <rect id="Rectangle_127" data-name="Rectangle 127" width="19.778" height="10.991" transform="translate(25.096 15.369)" fill="none" stroke="#000" stroke-width="2"/>
      <g id="Group_2224" data-name="Group 2224" transform="translate(27.56 18.871)">
        <path id="Path_10222" data-name="Path 10222" d="M249.41,170.526h-5.48l1.524-.746h2.659Zm.843-4.9-1.524.746H246.07l-1.3-.746Zm-1.589,2.075.648.357-.778.357h-3.015l-.648-.357.746-.357Zm1.329.778L249.7,170.4l-1.3-.746.162-1.005.973-.454Zm-1.232-1.005.162-1.005,1.524-.713-.324,1.913-.584.292Z" transform="translate(-243.93 -165.63)"/>
        <path id="Path_10223" data-name="Path 10223" d="M246.34,167.605l.324-1.913,1.3.746-.162,1.005-.973.454Zm4.507.032.648.357-.778.357H247.7l-.648-.357.746-.357Zm1.329.778-.292,1.913-1.3-.746.162-1.005.973-.454Zm-1.232-1.005.162-1.005,1.524-.746-.324,1.913-.584.292Z" transform="translate(-238.526 -165.563)"/>
      </g>
      <circle id="Ellipse_718" data-name="Ellipse 718" cx="5.933" cy="5.933" r="5.933" transform="translate(29.051 88.062)" fill="none" stroke="#000" stroke-width="2"/>
      <circle id="Ellipse_719" data-name="Ellipse 719" cx="3.372" cy="3.372" r="3.372" transform="translate(31.613 58.038)" fill="none" stroke="#000" stroke-width="2"/>
      <circle id="Ellipse_720" data-name="Ellipse 720" cx="2.788" cy="2.788" r="2.788" transform="translate(32.196 69.192)"/>
      <circle id="Ellipse_721" data-name="Ellipse 721" cx="2.788" cy="2.788" r="2.788" transform="translate(32.196 75.255)"/>
      <circle id="Ellipse_722" data-name="Ellipse 722" cx="5.933" cy="5.933" r="5.933" transform="translate(29.051 101.55)" fill="none" stroke="#000" stroke-width="2"/>
    </g>
    <path id="Path_10224" data-name="Path 10224" d="M633.039,125.95v15.109a18.39,18.39,0,0,1-18.384,18.384H85.962A27.869,27.869,0,0,0,58.11,187.295v48.44" transform="translate(113.132 267.391)" fill="none" stroke="#000" stroke-linecap="round" stroke-width="2" stroke-dasharray="2.747"/>
    <path id="Path_10225" data-name="Path 10225" d="M267.73,125.95v15.109a18.39,18.39,0,0,0,18.384,18.384H736.538a27.869,27.869,0,0,1,27.852,27.852V287.385" transform="translate(583.168 267.391)" fill="none" stroke="#000" stroke-linecap="round" stroke-width="2" stroke-dasharray="2.747"/>
    <path id="Path_10226" data-name="Path 10226" d="M535.131,125.95v29.862a27.869,27.869,0,0,1-27.852,27.852H140.7a27.869,27.869,0,0,0-27.852,27.852v24.22" transform="translate(235.877 267.391)" fill="none" stroke="#000" stroke-linecap="round" stroke-width="2" stroke-dasharray="2.747"/>
    <path id="Path_10227" data-name="Path 10227" d="M260.21,125.95v29.862a27.869,27.869,0,0,0,27.852,27.852h259a27.869,27.869,0,0,1,27.852,27.852v75.838" transform="translate(566.306 267.391)" fill="none" stroke="#000" stroke-linecap="round" stroke-width="2" stroke-dasharray="2.747"/>
    <path id="Path_10228" data-name="Path 10228" d="M251.23,125.95v63.582a27.557,27.557,0,0,0,27.56,27.56h88.937a27.557,27.557,0,0,1,27.56,27.56v39.329" transform="translate(546.17 267.391)" fill="none" stroke="#000" stroke-linecap="round" stroke-width="2" stroke-dasharray="2.747"/>
  </g>
</svg>
