<svg xmlns="http://www.w3.org/2000/svg" width="647" height="944" viewBox="0 0 647 944"><g transform="translate(-4004 889)"><rect width="647" height="916" rx="323.5" transform="translate(4004 -889)" fill="#b55219"/><g transform="translate(4004 -889)" fill="none" stroke="#1f2d16" stroke-width="1"><rect width="647" height="944" rx="323.5" stroke="none"/><rect x="0.5" y="0.5" width="646" height="943" rx="323" fill="none"/></g><g transform="translate(4098.822 -699.903)" opacity="0.21"><path d="M551.711,736.042c.388-7.825.469-15.663.938-23.461.322-5.467-.013-11,1.032-16.454.268-1.42.831-3.577-1.661-4.167-1-3.256-3.792-2.264-6.056-2.559-3.578-.469-7.128-1.166-10.719-1.393-4.033-.255-7.946-1.273-11.965-1.594-3.243-.254-6.458-.884-9.7-1.313-2.077-.281-4.14-.563-6.23-.724a2.581,2.581,0,0,1-2.532-1.782c-.509-1.3-.9-2.439.268-3.658,4.046-4.261,8.079-8.548,12.045-12.876,4.529-4.931,19.4-20.446,19.4-22.121s-15.342-16.9-21.371-23.3c-3.363-3.564-6.445-7.369-9.982-10.773-1.193-1.139-.938-2.278-.415-3.631a2.738,2.738,0,0,1,2.68-1.9c4.783-.375,9.5-1.367,14.256-1.809,4.02-.375,7.919-1.447,11.978-1.608a77.542,77.542,0,0,0,10.5-1.393c2-.362,4.033,0,6.016-.576.75-.228,1.233-.255,1.286-1.152.027-.375.295-.951.6-1.045,2.707-.965,1.514-3.109,1.447-4.824-.08-2.01-.6-4.006-.536-6,.188-5.185-.322-10.357-.563-15.516-.295-6.2,0-12.448-.8-18.624-.228-1.715.523-2.519,1.889-3.31a2.878,2.878,0,0,1,3.457.335c6.431,4.381,13.184,8.267,19.669,12.541,4.636,3.042,9.62,5.6,13.908,9.192.9.75,2.037,1.219,3,1.9.523.362.724.067,1.018-.228.348-.348.817-.817,1.259-.643,2.4.964,3.283-1.032,4.06-2.358,2.184-3.779,5.2-6.887,7.745-10.357,3.618-4.931,7.4-9.768,11.161-14.6a92.415,92.415,0,0,0,5.8-7.691,2.485,2.485,0,0,1,2.894-1.112c1.326.228,2.479.59,2.867,2.037,2.144,7.959,5.078,15.676,7.383,23.555,1.554,5.279,3.779,10.384,4.649,15.9.2,1.3.348,3.618,2.894,3.35a.411.411,0,0,1,.362.188c1.045,2.264,2.854,1.259,4.3.831,4.448-1.34,9.1-1.849,13.519-3.162,4.475-1.326,9.1-1.8,13.573-3.028,4.328-1.193,8.843-1.675,13.131-3.068a2.409,2.409,0,0,1,2.787.938c.8,1,1.728,1.956,1.018,3.363-2.586,5.078-4.395,10.491-6.659,15.717-2.264,5.2-4.207,10.531-6.378,15.77-1.246,3-2.666,5.936-4.02,8.9-.255.549-.67,1.032.268,1.393.442.174.938.656.8,1.139-.656,2.4,1.461,2.854,2.706,3.39,7.959,3.444,15.4,7.892,23.153,11.724,4.609,2.278,8.991,5,13.694,7.075,1.259.563,1.554,1.568,1.554,2.907a2.793,2.793,0,0,1-1.568,2.907c-7.276,3.484-14.256,7.5-21.411,11.175-5.654,2.908-11.228,5.989-17.043,8.575-.844.375-1.273.643-1.032,1.621.094.375.067,1.032-.161,1.193-2.479,1.728-.389,3.5.255,4.81,2.707,5.547,4.8,11.362,7.222,17.016,2.814,6.552,5.266,13.278,8.24,19.777.657,1.447.871,2.613-.348,4.006-1.193,1.367-2.278,1.353-3.872.965-7.329-1.8-14.738-3.256-22.121-4.823-4.047-.858-8.093-1.822-12.126-2.827-2.546-.63-5.1-1.246-7.651-1.916-.563-.147-.9-.241-1.085.456-.147.563-.6,1.166-1.139,1.112-2.479-.241-2.505,1.956-2.8,3.216-1.929,8.441-5.078,16.507-7.49,24.8-1.447,4.971-3.39,9.794-4.609,14.846-.348,1.474-1.608,1.755-2.907,2a2.583,2.583,0,0,1-2.867-1.179c-4.663-6.445-9.754-12.555-14.5-18.919-3.363-4.5-7.2-8.682-10.089-13.559-.737-1.246-1.447-3.6-3.966-2.465a.42.42,0,0,1-.4-.04c-1.862-1.97-3.35-.134-4.555.737-7.021,5.132-14.6,9.392-21.813,14.216-4.154,2.774-8.575,5.145-12.622,8.106a2.7,2.7,0,0,1-3.3-.08c-1.139-.683-1.9-1.393-1.688-2.8C551.671,736.887,551.684,736.458,551.711,736.042Zm161.857-91.674c-3.9-2.144-7.49-4.368-11.309-6.15-3.042-1.42-5.8-3.323-8.843-4.676-6.257-2.8-12.1-6.458-18.45-9.057a2.6,2.6,0,0,1-1.782-3,.891.891,0,0,0-.255-.938c-1.661-1.514-1.018-3.108-.228-4.757,1.514-3.189,3.176-6.338,4.395-9.634,2.01-5.467,4.542-10.706,6.632-16.132,1.688-4.368,3.5-8.682,5.293-13.117a94.959,94.959,0,0,0-11.965,2.4c-8.91,2.1-17.927,3.752-26.757,6.2-2.412.67-5.346,2.653-7.5-.764-.054-.08-.268-.067-.4-.067-2.184-.067-2.68-1.715-3.122-3.376-.536-2.063-.978-4.154-1.554-6.217-1.139-3.993-2.573-7.878-3.752-11.871-2.211-7.45-4.743-14.819-7.316-22.791a7.591,7.591,0,0,1-.509,1.1c-3.256,4.261-6.539,8.521-9.808,12.782-3.51,4.582-7.034,9.165-10.491,13.787-1.742,2.331-3.35,4.77-5.091,7.1-.858,1.152-1.916,2.117-3.564,1.541a1.161,1.161,0,0,0-1.152.214c-1.541,1.032-2.894.456-4.234-.482-3.524-2.452-6.981-5.011-10.692-7.209-4.422-2.613-8.642-5.587-12.983-8.347-3.966-2.519-7.972-4.984-12.032-7.5,0,2.3-.081,4.448.013,6.592.362,8.441.951,16.882,1.072,25.337.027,2,.308,3.979.4,5.962.147,3.216,1.969,6.793-1.876,9.218-.04.027-.054.121-.067.188-.59,2-2.144,2.291-3.926,2.425a99.079,99.079,0,0,0-10.572,1.032c-5.467.978-11.014,1.246-16.494,2.251-4.877.9-9.835,1.286-14.913,1.916,5.239,5.869,10.183,11.737,15.489,17.271,4.676,4.877,9,10.089,14.028,14.618a2.847,2.847,0,0,1,.777,3.457,1.575,1.575,0,0,0,0,1.407,3.1,3.1,0,0,1-.925,3.618c-3.5,3.484-6.981,6.994-10.263,10.692-5.092,5.748-10.411,11.295-15.609,16.949-1.192,1.3-2.291,2.693-3.6,4.234,2.546-.147,4.69.643,6.9.791,6.11.415,12.1,1.661,18.182,2.291,5.855.6,11.684,1.568,17.566,1.97,2.09.147,5.641,3.591,5.735,5.721a20.573,20.573,0,0,1-.107,4.81c-1.152,5.775-.67,11.63-1.085,17.445-.362,5.011-.563,10.049-.71,15.074-.067,2.171-.013,4.341-.013,6.713,7.624-4.823,15.074-9.54,22.523-14.256,2.814-1.782,5.561-3.671,8.441-5.346,3.068-1.782,5.239-6.07,9.875-3.711.094.04.254-.08.388-.121a2.864,2.864,0,0,1,3.256,1.393c2.908,4.06,5.882,8.08,8.857,12.086,4.395,5.936,9.191,11.563,13.412,17.633,1.179,1.688,2.64,3.189,3.926,4.716,1.487-4.408,2.988-8.723,4.381-13.064,1.8-5.6,3.511-11.228,5.212-16.856,1.018-3.363,2.023-6.74,2.867-10.143.536-2.171,4.569-5.681,6.78-5.587a3.305,3.305,0,0,1,.616.107c4.823,1.273,9.634,2.613,14.551,3.6,7.4,1.487,14.712,3.363,22.081,5.011,1.862.415,3.752.656,5.721.991-1.608-4.127-3.015-8.2-4.77-12.1-3.631-8.079-6.632-16.427-10.438-24.453-1.072-2.264-3.524-4.824-.536-7.557.054-.053-.013-.268-.04-.4-.308-1.822.858-2.733,2.264-3.323,6.338-2.653,12.26-6.11,18.423-9.125C700.477,651.657,706.855,647.973,713.568,644.368Z" transform="translate(-380.24 -412.441)" fill="#fff"/><path d="M492.86,548.676c.656,3.149-4.355,10.129-8.816,11.094-1.621.348-3.162,1.139-4.891.9-1.26-.174-1.836.871-2.251,1.581-1.742,3.042-4.69,4.958-6.753,7.677a48.784,48.784,0,0,1-10.451,9.955c-2.278,1.661-2.439,3.778-1.862,5.976,1.5,5.748,1.608,11.577,1.648,17.445.013,2.345.576,4.663.054,7.048a2.013,2.013,0,0,0,.643,2c4.02,3.738,5.855,8.173,4.716,13.868-.965,4.8-4.154,7.021-8.24,8.495-2.733.992-5.614,2.1-8.508,1.568-3.752-.7-7.905-5.842-6.673-11.094.322-1.38.188-2.921,1.407-4.06,1.769-1.648,5.641-2.077,8.066-.75,2.385,1.3,4.006,4.676,3.35,7.142-.375,1.42-1.313,2.465-2.894,2.077a2.075,2.075,0,0,1-1.621-3.028c.536-1.554-.335-2.385-1.715-2.706-1.621-.389-2.4.308-2.559,2.01a6.618,6.618,0,0,0,2.519,5.869c1.152,1.059,2.117.094,3.149.054a14.538,14.538,0,0,0,7.517-2.747c2.653-1.769,3.108-7.45,1.434-10.183-.858-1.393-1.581-2.907-3.377-3.524a2.3,2.3,0,0,1-1.5-2.546c.817-5.56-.188-11.108-.08-16.655.08-4.529-1.206-8.91-2.13-13.305a3.813,3.813,0,0,1,1.447-4.073,84.744,84.744,0,0,0,14.457-13.6c2.3-2.693,4.7-5.293,6.766-8.187a2.359,2.359,0,0,1,2.64-.871c5.1,1.568,10.866-4.086,10.223-8.816a14.11,14.11,0,0,0-3.685-7.142c-2.707-3.122-6.083-2.733-8.441.831-.63.951-1.487,2.063.281,2.827,1.313.563,2.586,1.152,3.47-.724.9-1.9,2.8-2.13,3.953-.523a2.069,2.069,0,0,1,.281,2.157c-1.085,2.733-5.038,4.73-7.771,3.685a13.009,13.009,0,0,1-3.417-1.983c-2-1.595-2.291-4.033-1.045-6.338,1.809-3.35,4.167-5.681,8.28-6.163,2.747-.308,4.77.241,6.485,2.318C489.845,539.712,492.606,543.182,492.86,548.676Z" transform="translate(-401.675 -412.964)" fill="#fff"/><path d="M488.559,711.467c.107-4.542-5.225-9.513-10.036-8.187a2.817,2.817,0,0,1-3.216-1.353,122.007,122.007,0,0,0-13.586-15.315,50.446,50.446,0,0,0-7.262-5.962,3.475,3.475,0,0,1-1.5-3.671,83.446,83.446,0,0,0,2.4-20.46c.013-3.242.161-6.472-.107-9.714a2.846,2.846,0,0,1,1.715-2.867,8.369,8.369,0,0,0,3.979-8.656c-1.059-4.663-4.288-7.262-9.593-7.677-1.434-.107-2.814-.737-4.14.817a6.945,6.945,0,0,0-1.675,5.386c.121,1.661,1.126,2.09,2.559,1.769a2.015,2.015,0,0,0,1.769-2.546c-.375-2,.2-3.1,1.755-3.269,1.42-.174,2.6,1.058,2.747,2.8.442,5.252-4.663,8.294-9.366,7.007-2.037-.563-2.894-2.13-3.363-4.314-.951-4.408.362-7.718,3.6-10.639,1.916-1.728,3.939-1.742,6.2-1.233,3.939.871,7.932,1.621,10.84,4.77a12.8,12.8,0,0,1,1.045,15.087c-.965,1.447-1.755,3.068-3.31,4.006a1.5,1.5,0,0,0-.482,1.849c.831,2.948-.241,5.828-.121,8.736a47.891,47.891,0,0,1-1.594,15.543c-.991,3.363.67,5.561,3.162,7.289,4.381,3.028,7.611,7.168,11.121,11.081,1.849,2.063,3.953,3.912,5.493,6.244a1.923,1.923,0,0,0,1.769.8c6.271.255,11.443,3.926,13.144,9.808a11.324,11.324,0,0,1-1.755,9.379,28.085,28.085,0,0,1-3.108,4.435c-4.623,4.837-11.349,4.006-14.739-1.836-1.862-3.216-1.943-5.038-.281-7.021a8.055,8.055,0,0,1,8.347-2.278,6.459,6.459,0,0,1,3.323,3.283c.817,1.474.04,2.479-1.166,3.1a1.882,1.882,0,0,1-2.881-1.152,1.758,1.758,0,0,0-2.01-1.367,2.769,2.769,0,0,0-2.465,1.3c-.469.777.308,1.434.683,2.01a6.894,6.894,0,0,0,4.77,3.055c1.809.335,2.425-1.018,3.363-2C486.656,717.376,488.506,713.651,488.559,711.467Z" transform="translate(-401.648 -382.627)" fill="#fff"/><path d="M537.3,591.678c-6.391-.308-12.622.7-18.865,1.97-2.358.482-4.85.174-7.289.523-5.829.858-11.751.9-17.552,2.036a2.451,2.451,0,0,1-2.76-1.018,2.9,2.9,0,0,1,.013-3.363,86.179,86.179,0,0,0,5.587-9.218c1.648-3.39,3.39-6.753,4.931-10.21,1.742-3.926,3.591-7.8,5.306-11.737a14.43,14.43,0,0,1,6.512-6.887c3.752-2.05,6.94-4.877,10.424-7.289,4.328-2.988,8.709-5.882,12.38-9.741,1.058-1.112,2.559-1.862,3.7-3a2.955,2.955,0,0,1,3.35-.375c.991.429,1.192,1.42,1.206,2.479.147,7.7.871,15.368,1.621,23.032.375,3.886.094,7.825.348,11.751.308,4.743,1.38,9.326,2.077,13.988.255,1.7,1.1,3.7-1.407,4.6-1,3.524-3.912,2.3-6.23,2.465C539.552,591.745,538.427,591.678,537.3,591.678Zm2.546-52.684c-3.4,2.72-5.936,5.695-9.3,7.758-3.846,2.358-7.316,5.292-11,7.905-3.229,2.278-7.128,3.805-8.924,7.664-1.849,3.966-3.51,8.012-5.52,11.9-2.532,4.9-4.3,10.223-7.677,14.7a3.662,3.662,0,0,0-.938,2.358c.442,0,.857.027,1.26,0,4.837-.429,9.714-.643,14.511-1.393,2.224-.348,4.435-.054,6.646-.5a74.252,74.252,0,0,1,16.132-1.9c3.149.054,6.3.013,9.674.013C540.758,571.62,542.3,555.394,539.847,538.994Z" transform="translate(-385.004 -413.238)" fill="#fff"/><path d="M541.385,716.333a2.229,2.229,0,0,1-1.8-.656c-2.157-2.278-4.757-4.073-7.088-6.15-3.135-2.774-6.887-4.837-10.143-7.477-3.846-3.122-8.267-5.4-12.1-8.548-2.546-2.09-3.792-4.944-5-7.852-2.238-5.373-5.185-10.424-7.409-15.743-1.514-3.631-4.368-6.4-5.494-10.17-.228-.75-1-1.326-1.46-2.037a2.915,2.915,0,0,1,.027-3.537,2.528,2.528,0,0,1,3-.791c3.845,1.032,7.838.925,11.764,1.38,6.619.75,13.291,1.045,19.843,2.318,5.561,1.072,11.148.643,16.722.71a5.774,5.774,0,0,1,4.783,2.264c1.742,1.889,1.5,3.3,1.152,5.159a111.111,111.111,0,0,0-2.278,20.085c.013,8.012-1.112,15.945-1.648,23.917-.107,1.514,0,3.055-.027,4.582C544.2,715.663,543.354,716.44,541.385,716.333Zm-45.02-58.057a5.67,5.67,0,0,0,.456,1.393,52.133,52.133,0,0,1,5.306,9.379c2.251,5.145,5.078,10.009,7.141,15.234,1.045,2.639,2.3,5.172,4.649,6.833,3.4,2.425,6.954,4.622,10.277,7.168,4.569,3.5,9.727,6.217,13.68,10.531a2.656,2.656,0,0,0,2.037,1.125c2.345-15.864.857-32.09,4.77-47.954-1.233,0-2.278.04-3.323-.013-4.113-.188-8.227.094-12.367-.281-5.065-.456-9.955-2.09-15.114-1.876-1.7.067-3.43-.63-5.145-.616C504.632,659.241,500.639,657.781,496.365,658.276Z" transform="translate(-385.001 -372.392)" fill="#fff"/><path d="M653.129,741.147c-.938-6.5,7.034-12.541,12.742-11.952,1.782.188,3.658-.188,5.346.791.75.429,1.42-.161,1.876-.549,2.251-2,5.172-2.693,7.664-4.234a81.64,81.64,0,0,1,16.119-7.222,2.915,2.915,0,0,0,2.184-2.653c.9-6.766,2.988-13.238,5.091-19.7A25.363,25.363,0,0,1,706,690.58a3.536,3.536,0,0,0-.04-3.5c-2.706-5.735-1.822-11.174,2.278-15.918a8.4,8.4,0,0,1,6.257-2.921,37.573,37.573,0,0,1,8.495.4,8.76,8.76,0,0,1,6.632,10.29,17.291,17.291,0,0,1-2.492,5.266,4.079,4.079,0,0,1-4.221,1.728c-4.783-.549-8.307-5.145-5.976-9.955.764-1.581,2.358-2.157,3.631-1.273,1.34.925,1.474,2.037.429,3.39-1.085,1.393-.308,2.385.951,3.2s2.023.442,2.626-.844a8.216,8.216,0,0,0,.965-3.363,4.082,4.082,0,0,0-3.484-4.274c-3.377-.817-6.9-1.353-9.875.616-3.711,2.465-5.065,8.669-1.742,12.434a2.891,2.891,0,0,1,.643,3.3c-2.559,5.185-3.779,10.826-5.695,16.226-1.434,4.046-1.809,8.347-2.358,12.595a3.732,3.732,0,0,1-2.546,3.283,88.037,88.037,0,0,0-18.316,7.838c-3.042,1.688-6.11,3.31-8.991,5.266a2.675,2.675,0,0,1-3.149.04,6.925,6.925,0,0,0-6.539-.764c-5.132,2.01-6.954,4.328-6.029,9.794.268,1.541.978,3.055,1.327,4.556.576,2.439,2.345,2.573,4.073,2.747,2.023.214,3.618-1,4.891-2.4.817-.9-.268-1.755-.844-2.291-.75-.7-1.8-1.233-2.787-.2-.482.509-.9,1.072-1.688,1.139a2.287,2.287,0,0,1-2.238-1.286,2.042,2.042,0,0,1,.228-2.532c2.452-3,7.785-2.412,9.46-.08.951,1.34,2.3,2.412,2.291,4.328-.027,2.814-3.2,6.271-6.512,7.168-2.653.723-5.078.121-7.49-.777-2.586-.965-2.948-3.551-3.738-5.708A20.765,20.765,0,0,1,653.129,741.147Z" transform="translate(-329.69 -367.3)" fill="#fff"/><path d="M531.484,745.936c4.462-.335,9.272.924,14.176,1.5a66.645,66.645,0,0,1,8,1.233,1.288,1.288,0,0,0,1.273-.375c5.158-4.006,11.51-4.5,16.856-.991a8.683,8.683,0,0,1,3.846,5.735c.523,2.8,1.246,5.52,1.125,8.414a8.6,8.6,0,0,1-7.517,8.066,13.661,13.661,0,0,1-7.463-1.541,3.948,3.948,0,0,1-2.144-3.417c-.322-4.582,2.881-8.923,8.16-8.066a4.164,4.164,0,0,1,1.367.482,2.18,2.18,0,0,1,1.059,3.175,1.959,1.959,0,0,1-2.975.965c-1.675-.938-2.465-.107-3.175,1.393-.871,1.822.255,2.09,1.568,2.519a5.78,5.78,0,0,0,6.324-1.5c1.38-1.434.549-3.457.536-5.212-.013-1.085-.67-2.157-.67-3.242-.027-4.917-7.316-6.981-10.84-5.427-1.447.643-2.961,1.085-3.845,2.666a2.159,2.159,0,0,1-2.586.9c-5.761-1.688-11.751-2-17.633-2.907-3.912-.6-7.972-.214-11.965-.121a4.265,4.265,0,0,1-4.395-2.72,90.238,90.238,0,0,0-10.88-16.333c-2.1-2.586-4.234-5.145-6.5-7.6a2.428,2.428,0,0,1-.656-2.492c1.554-5.024.04-8.99-4.435-11.483-2.291-1.273-4.569-.268-6.793.415a21.19,21.19,0,0,0-4.971,2.6c-.978.616-1.313,3.551-.563,5.025a9.126,9.126,0,0,0,1.849,2.519c.844.8,1.635,1.407,2.586.161.884-1.139,1.313-2.385.161-3.524-1.635-1.621-1.889-2.653-.656-3.765,1.152-1.045,2.72-.683,4.006.737,3.39,3.738.978,10.036-3.47,11.335a4.026,4.026,0,0,1-3.912-.7c-2.68-2.05-4.77-4.341-5.145-7.959-.429-4.328,1.434-6.994,5.2-8.789a27.954,27.954,0,0,1,7.825-2.747,8.714,8.714,0,0,1,7.034,1.849c2.76,2.278,5.145,4.649,5.869,8.334a19.547,19.547,0,0,1,.188,5.225,3.364,3.364,0,0,0,1.032,2.827c3.189,2.894,5.051,6.833,8,9.9,3.189,3.336,4.8,7.664,7.329,11.416a2.774,2.774,0,0,0,2.841,1.568A45.794,45.794,0,0,1,531.484,745.936Z" transform="translate(-388.124 -354.871)" fill="#fff"/><path d="M719.243,668.781a6.9,6.9,0,0,1,3.886,1.126c3.055,2.412,2.76,3.537,1.327,8.4-1.1,3.725-4.261,5.373-7.7,6.364-1.889.549-3.511-.683-5.025-1.621-3.725-2.3-7.369-4.7-8.883-9.218-.536-1.581-.107-2.988-.013-4.5.362-5.668,3.845-8.924,8.508-11.2a3.713,3.713,0,0,0,2.01-2.385c2.238-6.565,4.3-13.3,8.173-19.066,3.015-4.475,3.4-8.12-.027-12.354-2.613-3.229-3.631-7.342-5.1-11.148-1.1-2.827-2.841-5.413-3.3-8.508a2.43,2.43,0,0,0-1.688-1.849,15.624,15.624,0,0,1-7.53-6.713,11.534,11.534,0,0,1,2.184-13.908,38.458,38.458,0,0,1,7.4-5.373c3.1-1.916,8.924,1.3,10.5,4.556a26.18,26.18,0,0,1,1.554,5.8,2.732,2.732,0,0,1-.59,1.97c-1.246,2.1-4.944,3.564-7.544,2.988a7.134,7.134,0,0,1-5.2-5.413,2.356,2.356,0,0,1,2.01-2.948c1.474-.255,2.371.469,2.559,2.05a2.485,2.485,0,0,0,3.671,1.956,1.268,1.268,0,0,0,.777-1.126c.067-2.532-2.519-5.855-4.944-6.257-1.219-.2-1.943.764-2.773,1.26-2.64,1.608-5.534,3.162-6.445,6.431-1.193,4.328,1.661,10.1,6.753,10.772a2.527,2.527,0,0,1,2.4,1.742c1.353,5.56,4.006,10.612,5.976,15.931,1.554,4.207,4.114,7.838,6.431,11.617a3.8,3.8,0,0,1,.147,4.328,80.006,80.006,0,0,0-8.682,16.99,104.372,104.372,0,0,0-3.845,10.732,2.45,2.45,0,0,1-2.345,1.809c-5.386.456-8.736,7.838-6.458,11.871a14.888,14.888,0,0,0,6.137,5.427c1.407.777,2.559,1.621,4.341.469a6.681,6.681,0,0,0,3.1-4.636c.255-1.206.174-2.09-1.313-2.157-1.273-.054-2.72-.12-2.907,1.581-.134,1.233-.362,2.238-1.688,2.559a2.263,2.263,0,0,1-2.291-.737c-.951-1.032-.737-2.144-.241-3.323A6.644,6.644,0,0,1,719.243,668.781Z" transform="translate(-312.907 -398.547)" fill="#fff"/><path d="M507.207,530.324c.656,7.021-2.666,10.853-7.249,13.72-3.135,1.956-6.565,1.018-9.835-.148a38.64,38.64,0,0,1-6.311-3.175c-3.3-1.889-3.189-8.2-1.474-11.094a15.472,15.472,0,0,1,4.6-4.542,3.447,3.447,0,0,1,2.827-.429,6.869,6.869,0,0,1,5.2,4.73,6.431,6.431,0,0,1-1.42,7.021c-1.3,1.246-2.8,1.474-3.886.415-1.166-1.152-.978-2.251.643-3.618,1-.858.911-2.492-.134-3.685-1.072-1.206-1.8-.415-2.6.308a6.7,6.7,0,0,0-2.09,6.257c.2,1.514,1.648,1.661,2.586,2.171,2.76,1.514,5.56,3.135,8.95,2.331,2.626-.616,5.962-4.3,6.11-7.007.08-1.554.536-3.176-.482-4.676a1.9,1.9,0,0,1,.5-2.479c4.127-4.087,7.289-8.964,10.987-13.4,2.76-3.3,4.448-7.235,6.539-10.907.911-1.608,2.117-2.506,3.779-2.425a102.517,102.517,0,0,0,22.081-1.487c2.586-.442,5.159-.978,7.731-1.474a2.926,2.926,0,0,1,3.028.871,9.167,9.167,0,0,0,12.179,1.568,4.883,4.883,0,0,0,1.943-2.64,23.217,23.217,0,0,0,1.233-6.954c-.094-3.7-2.573-5.761-6.271-4.931-1.085.241-3.135.107-2.425,2.425.563,1.849,1.528,2.291,3.591,1.528a2,2,0,0,1,2.76,1.192,2.222,2.222,0,0,1-1.179,3.149,6.745,6.745,0,0,1-7.637-1.675c-1.5-1.862-2.787-5.319-1.112-7.972,1.152-1.836,3.1-2.037,4.824-2.613,4.623-1.554,10.813,1.621,11.51,5.962a19.774,19.774,0,0,1-.657,8.481c-.5,1.755-.59,3.631-1.983,5.159-5.6,6.1-12.742,5.721-18.343,1.889a4,4,0,0,0-3.765-.656c-3.5,1.112-7.168.79-10.679,1.608-5.1,1.192-10.29.764-15.449.831a1.649,1.649,0,0,0-1.688.951c-.335.683-.938,1.233-1.246,1.929-3.028,6.619-8.28,11.7-12.206,17.686a2.635,2.635,0,0,1-.656.817C507.8,526.773,506.738,528.716,507.207,530.324Z" transform="translate(-388.112 -431.164)" fill="#fff"/><path d="M653.124,514.294a26.691,26.691,0,0,1,2.492-10.116c.991-2.278,5.735-4.154,8.508-3.658,2.814.5,4.957,2.09,6.981,3.9a4.257,4.257,0,0,1,.857,4.716c-1.595,4.649-6.806,7.034-11,3.658-1.219-.992-1.581-2.184-.482-3.457,1.072-1.246,2.264-1.273,3.39,0,1.246,1.407,2.3.737,3.336-.308,1.139-1.166.764-1.916-.442-2.841a6.386,6.386,0,0,0-6.472-.965c-1.34.469-1.286,1.755-1.648,2.733-1.085,2.921-1.943,5.882-.992,9.1.764,2.559,6.043,5.829,8.522,5.185,1.367-.348,2.827-.241,4.1-1.286.911-.737,2.171-.308,3.3.4A110.091,110.091,0,0,0,698.934,533.8c1.862.6,3.618,1.219,3.912,3.135.228,1.554.6,3.1.75,4.663a58.489,58.489,0,0,0,3.39,13.479c1.273,3.725,2.238,7.544,4.006,11.094a2.742,2.742,0,0,1-.509,3.309c-3.631,3.564-1.7,11.483,2.626,13.1a14.566,14.566,0,0,0,8.4.268,5.121,5.121,0,0,0,2.586-8.642c-.965-1.072-1.836-.335-2.559.241-.9.71-1.528,1.675-.656,2.814a2.33,2.33,0,0,1,.683,2.278,2.469,2.469,0,0,1-1.836,1.568,2.207,2.207,0,0,1-2.358-1c-1.822-2.2-1.38-6.793.911-8.535a15.211,15.211,0,0,1,3.068-1.769,4.828,4.828,0,0,1,6.163,2.037c1.809,3.068,2.934,6.056,1.528,9.848-1.514,4.087-4.408,5.212-8.187,5.507a51.162,51.162,0,0,1-6.874,0,7.532,7.532,0,0,1-5.2-2.385c-3.216-3.564-5.346-7.664-3.979-12.756a16.368,16.368,0,0,1,1.541-4.515c.683-1.1-.161-1.983-.469-2.921-2.224-6.914-5.185-13.6-6.029-20.915a39.759,39.759,0,0,0-.965-4.475,2.021,2.021,0,0,0-1.514-1.541c-7.45-2.211-14.055-6.284-21.023-9.54a7.45,7.45,0,0,1-1.929-1.246,4.289,4.289,0,0,0-4.663-.978,14.211,14.211,0,0,1-14.913-5.2A9.079,9.079,0,0,1,653.124,514.294Z" transform="translate(-329.685 -424.313)" fill="#fff"/><path d="M578.91,744.1c4.984-.5,8.414,2.653,11.349,6.458a3.153,3.153,0,0,0,2.492,1.5c4.1.04,7.8,1.943,11.8,2.345,4.9.5,9.245,2.881,13.895,4.194a2.2,2.2,0,0,0,2.465-.375A93.5,93.5,0,0,1,639.9,744.961c3.685-2,5.158-4.7,6.525-8.053,2.05-4.958,9.727-8.388,14.779-6.472,3.377,1.286,5.775,4.047,8.294,6.592,3.028,3.068,2.639,6.418.978,9.768-1.648,3.323-4.824,4.676-8.281,5.346a3.887,3.887,0,0,1-3.725-1.528c-3.042-3.631-3.068-8.79,1.675-11.268a4.078,4.078,0,0,1,1.192-.348,2.2,2.2,0,0,1,2.774,1.889c.268,1.273-.375,2.077-1.688,2.465-1.836.549-2.224,1.541-1.594,3.269.75,2.05,2.13,1.206,3.189.6a5.518,5.518,0,0,0,2.854-2.64c.683-1.728.938-3.135-.523-4.743-1.889-2.1-3.765-4.328-6.351-5.319-4.288-1.648-10.464,1.688-10.84,6.9-.228,3.189-1.8,4.167-3.912,5.333-7.275,3.993-14.377,8.214-20.594,13.814-1.661,1.5-3.256,3.926-6,2.733-1.527-.67-3.149-1.059-4.623-1.782-6.016-2.948-12.756-3.175-19.053-5.065a20.934,20.934,0,0,0-5.158-.536,2.948,2.948,0,0,1-2.974-2.224,7.336,7.336,0,0,0-5.949-5.212c-2.492-.522-5.507-.871-7.436,1.461a17.331,17.331,0,0,0-3.631,6.472c-.389,1.461-1.166,2.666.08,4.234a6.341,6.341,0,0,0,4.837,2.412c1.219.094,2.452.214,2.318-1.715-.107-1.527-.5-2.64-2.291-2.506a2.257,2.257,0,0,1-2.13-.59,2.181,2.181,0,0,1-.5-2.345,2.583,2.583,0,0,1,2.01-1.661c2.666-.5,6.833,2.546,7.034,5.306a9.088,9.088,0,0,1-.281,4.355c-1.246,2.988-3.926,4.073-7.946,3.283-3.845-.764-6.177-3.242-7.811-6.579-.871-1.782-.107-3.417.536-5.011,1.634-4.14,3.336-8.2,7.557-10.6C575.011,744.023,576.739,744.211,578.91,744.1Z" transform="translate(-359.7 -346.326)" fill="#fff"/><path d="M577.675,494.7c4.877-.147,7.892-1.688,9.285-5.761a2.741,2.741,0,0,1,2.546-1.9c6.19-.362,12.126-2.144,18.129-3.444a56.523,56.523,0,0,0,10.692-3.9,3.7,3.7,0,0,1,4.14.563,71.815,71.815,0,0,0,13.854,10.679c3.671,2.09,7.035,4.743,11,6.351a2.6,2.6,0,0,1,1.688,2.854c-.4,5.493,6.338,9.982,10.665,8.32a15.538,15.538,0,0,0,7.731-7.048c1.166-2.023-3.122-6.847-5.44-6.391-1.125.228-1.233,1.326-1.38,2.13a1.8,1.8,0,0,0,1.286,2.278c1.206.268,2.171.657,2.264,2.05a2.192,2.192,0,0,1-1.273,2.238,3.435,3.435,0,0,1-3.35-.523c-4.971-2.894-3.283-9.7-.013-11.751,2.532-1.581,4.757-.268,6.887.724,3.631,1.715,5.038,4.984,5.373,8.816.228,2.479-1.621,3.926-2.934,5.547a22.13,22.13,0,0,1-6.217,5.266,9.229,9.229,0,0,1-7.007.938c-6.163-1.514-9.674-5.386-10.974-11.5-.255-1.179-1.487-1.353-2.331-1.889-6.11-3.859-12.675-7.034-18.035-12.019-1.166-1.085-2.532-1.97-3.792-2.974-.737-.59-1.407-.281-2.144.027-7.262,3.055-14.966,4.73-22.644,6.029-3.671.63-5.735,2.331-7.905,4.69-3.511,3.819-8.12,4.381-12.756,3.51-3.524-.657-5.6-3.618-7.316-6.686a36.779,36.779,0,0,1-2.747-6.485c-.764-2.345,1.38-6.4,4.033-8.146a12.175,12.175,0,0,1,8.24-1.621,4.381,4.381,0,0,1,3.564,3.216c1.608,4.475-.817,9.245-5.748,9.754a2.557,2.557,0,0,1-3.068-2.4c.067-1.621.992-2.372,2.64-2.2,1.943.2,2.318-1,2.385-2.613.094-2.023-1.3-1.594-2.425-1.594a5.913,5.913,0,0,0-5.333,3.4c-.844,1.487.415,2.68.75,3.939a15.251,15.251,0,0,0,3.35,5.695C574.62,494.382,576.456,495.079,577.675,494.7Z" transform="translate(-359.684 -432.766)" fill="#fff"/><path d="M480.255,627c-.241-3.577,1.7-6.605,2.345-9.928.911-4.69,2.144-9.339,3.457-13.881,1.152-3.966.884-8.146,2.479-11.952a8.6,8.6,0,0,0,.161-2.063,2.816,2.816,0,0,1,2.117-2.586,2.394,2.394,0,0,1,2.76,1.018c2.452,3.618,5.989,6.2,8.857,9.446,3.658,4.113,7.972,7.624,11.416,11.965a68.1,68.1,0,0,0,13.908,13.01c2.733,1.956,2.425,4.475,2.505,6.994.04,1.192-1.38,1.876-2.278,2.613-4.1,3.39-8.414,6.579-11.8,10.706a153.532,153.532,0,0,1-12.019,12.836c-2.76,2.666-4.971,5.869-8.106,8.173a11.991,11.991,0,0,0-2.358,2.907,2.554,2.554,0,0,1-2.908,1.166,2.835,2.835,0,0,1-2.1-2.6,93.62,93.62,0,0,0-1.809-11.054c-.911-3.51-1.862-7.075-2.653-10.612C483.029,637.715,480.577,632.6,480.255,627Zm4.274-.067a10.839,10.839,0,0,0,.469,3.658c2.532,8.173,4.6,16.467,6.472,24.815.308,1.38.027,2.787.469,4.154.322,1,.549,1.286,1.5.576a28.153,28.153,0,0,0,3.417-3.39c3.618-3.792,7.6-7.275,11-11.215a119.715,119.715,0,0,1,17.231-16.842c1.956-1.514,2.01-1.929.04-3.35-9.245-6.646-15.837-15.985-24-23.716-2.439-2.318-4.448-5.025-6.994-7.222-1.715-1.474-2.09-1.353-2.358.777a68.2,68.2,0,0,1-1.635,8.923c-1.3,4.931-2.6,9.888-3.765,14.873C485.762,621.664,484.3,624.169,484.529,626.93Z" transform="translate(-388.427 -395.069)" fill="#fff"/><path d="M695.1,623.042c-.724,3.564-1.5,6.941-2.05,10.344-.442,2.693-.63,5.427-.884,8.16-.563,6.083-1.072,12.179-1.648,18.263-.321,3.363-2.157,6.056-4.288,8.441-2.572,2.881-4.355,6.284-6.565,9.406-3.068,4.328-6.284,8.575-8.4,13.533-.536,1.246-1.608,2.358-2.2,3.7A2.885,2.885,0,0,1,666,696.614c-1.193-.121-1.782-1.072-2.1-2.3-.965-3.711-3.015-6.994-4.556-10.464-3-6.766-6.2-13.452-8.79-20.406-1.929-5.2-5.172-9.687-7.8-14.511-.657-1.206-.871-2.184.161-3.2.147-.148.4-.335.375-.469-.375-2.881,1.889-3.2,3.752-3.819,7.477-2.465,14.417-6.029,21.384-9.714a194.293,194.293,0,0,1,19.174-9.071,17.373,17.373,0,0,0,3.015-1.822,2.768,2.768,0,0,1,2.948-.4C694.684,620.992,694.844,622.157,695.1,623.042Zm-5.051,3.216c-4.006.764-7.034,3.3-10.572,4.743a64.837,64.837,0,0,0-9.2,4.328,112.519,112.519,0,0,1-21.92,10.049c-2.412.831-2.506.938-1.166,2.948,6.324,9.526,9.473,20.513,14.431,30.67,1.581,3.242,2.586,6.74,4.515,9.821.7,1.112,1.166,1.032,1.688-.04a59.325,59.325,0,0,1,5.266-8.923c3.35-4.609,6.257-9.553,9.768-14.042,1.916-2.452,3.738-5.078,3.752-8.2.013-5.815.965-11.536,1.5-17.3.228-2.452.08-4.944.683-7.4C689.284,630.746,690.249,628.656,690.048,626.257Z" transform="translate(-333.38 -383.624)" fill="#fff"/><path d="M692.963,615.843c-.858,2.505.241,4.783.911,7.075.6,2.077.255,4.274,1.139,6.338a2.707,2.707,0,0,1-1.152,2.948,2.249,2.249,0,0,1-2.733.08c-4.877-2.948-10.129-5.145-15.261-7.57-5.346-2.519-10.558-5.279-15.743-8.093-4.6-2.506-9.674-3.805-14.5-5.735-1.367-.549-2.452-1.032-2.278-2.733.013-.134.067-.348,0-.415-2.492-2.331-.4-4.194.7-6.029a104.673,104.673,0,0,0,9.567-20.326c1.179-3.5,3.176-6.753,4.649-10.2,1.876-4.395,4.247-8.562,5.721-13.131a2.377,2.377,0,0,1,2.05-1.862,2.993,2.993,0,0,1,3.055,1.782c1.193,2.72,2.881,5.185,4.3,7.771,2.1,3.859,5.051,7.262,7.329,11.041,2.586,4.3,6.11,7.945,8.562,12.327a12.638,12.638,0,0,1,1.595,5.989,124.362,124.362,0,0,0,2.037,20.313C692.936,615.561,692.949,615.7,692.963,615.843Zm-2.693,10.813c-.7-4.3-1.809-8.213-1.983-12.327-.241-5.547-1.527-11.041-1.514-16.615a16.375,16.375,0,0,0-3.309-9.875c-5.453-7.624-11.3-14.98-15.449-23.461-.844-1.715-1.367-1.206-2.144.067-1.595,2.626-2.291,5.628-3.7,8.361a77.206,77.206,0,0,0-4.623,9.982,108.112,108.112,0,0,1-10.531,21.947c-.978,1.568-.724,2.2.991,2.68,11.067,3.108,20.567,9.647,30.964,14.189C682.646,623.2,685.942,625.664,690.27,626.656Z" transform="translate(-333.388 -405.367)" fill="#fff"/><path d="M583.227,565.364a1.33,1.33,0,0,0-1.219.335c-1.112.831-2.144.388-3.028-.4-6.431-5.842-13.6-10.6-20.942-15.221a172.922,172.922,0,0,1-17.472-12.126,15,15,0,0,0-2.76-1.447c-1.058-.536-1.956-1.313-1.769-2.586a3.069,3.069,0,0,1,2.184-2.586c3.47-1.126,7.128-1.9,10.371-3.5,3.269-1.608,6.646-2.974,9.942-4.489,4.274-1.969,8.468-4.113,12.769-6.043,3.31-1.487,6.659-1.152,10.062-.657a52.159,52.159,0,0,0,5.561.724c3,.094,5.976.75,8.923.75,3.912,0,7.812.75,11.737.188a36.84,36.84,0,0,1,5.44-.04,2.855,2.855,0,0,1,2.72,1.621,2.314,2.314,0,0,1-.335,2.573c-3.4,3.886-6.1,8.28-9.151,12.421-3.631,4.931-7.088,10-11.081,14.672-3.6,4.221-5.9,9.272-8.736,13.975C585.719,564.668,585.049,565.833,583.227,565.364Zm-40.263-31c1.983,2.546,4.944,3.537,7.356,5.292,3.377,2.439,6.579,5.212,10.21,7.209a111.967,111.967,0,0,1,20.38,14.618c1.233,1.1,1.5.63,2.171-.469,2.479-4.033,4.341-8.455,7.4-12.112,6.07-7.289,11.148-15.342,17.043-22.764a9.411,9.411,0,0,0,1.929-3.752,120.073,120.073,0,0,1-13.211-.2c-3.939-.389-7.905-.63-11.858-.871-3.564-.214-7.1-1.487-10.719-.281-4.689,1.554-8.856,4.274-13.439,6.07-4.556,1.782-8.763,4.368-13.493,5.775C545.455,533.248,544.089,533.328,542.963,534.36Z" transform="translate(-369.47 -418.948)" fill="#fff"/><path d="M611.409,727.75c-3.216.107-6.512-.6-9.607-.228-3.363.4-6.766.067-10.049.764-2.76.589-5.574.027-8.307.683-1.139.268-2.358.2-3.5.469-4.207,1.032-8.053,0-11.617-2.144-3.417-2.05-7.142-3.363-10.732-5-4.931-2.251-9.714-4.85-15.087-6.07-1.474-.335-2.921-1.179-4.448-1.648A2.963,2.963,0,0,1,536,711.886a2.565,2.565,0,0,1,1.742-2.4c3.872-1.943,7.2-4.716,10.746-7.142,6.029-4.113,12.086-8.187,18.343-11.965,4.274-2.586,7.771-6.15,11.617-9.272,1.206-.978,2.3-.858,3.832-.858,3.953-.014,4.556,2.961,5.842,5.266a114.87,114.87,0,0,0,12.26,17.418c2.546,3.082,4.663,6.565,6.994,9.862,2.372,3.35,4.756,6.686,7.289,9.9.844,1.072,1.648,2.037,1.085,3.336a3.02,3.02,0,0,1-3.3,1.7C612.106,727.736,611.758,727.75,611.409,727.75Zm-68.588-16.025c3.417,1.862,7.075,2.372,10.384,4.033,5.547,2.787,11.443,4.917,16.949,7.838,2.4,1.273,5.011,2.224,7.557,1.849,5.507-.817,11.041-1.045,16.561-1.461,4.328-.321,8.656-.924,13.024-.456a3.216,3.216,0,0,0,2.251-.281c-8.522-13.787-20.085-25.283-27.427-40.129-8.763,9.205-19.924,14.39-29.638,21.585C549.36,707.035,545.622,708.5,542.821,711.725Z" transform="translate(-369.475 -363.201)" fill="#fff"/><path d="M605.731,519.63c1.742,1.045,4.194,1.206,6.257,2.291,3.966,2.09,8.334,2.8,12.555,4.033,3.457,1,6.914,1.983,10.344,3,1.929.576,3.953.643,5.869,1.326a16.7,16.7,0,0,1,7.651,5.614c2.452,3.189,5.681,5.547,8.455,8.388,3.7,3.805,7.356,7.651,11.818,10.665,1.139.777,2.117,1.916,3.3,2.787a2.968,2.968,0,0,1,1.206,3.149,2.5,2.5,0,0,1-2.318,1.822c-4.77.817-9.379,2.291-14.069,3.457-6.927,1.715-13.895,3.216-20.862,4.8-4.622,1.045-8.923,3.028-13.358,4.6-1.42.509-2.371-.094-3.711-.576-4.448-1.594-3.457-5.493-3.979-8.454a109.308,109.308,0,0,0-5.051-18.2c-1.474-4.087-2.264-8.414-3.51-12.595-1.179-3.966-1.916-8.066-3.457-11.925C601.872,521.332,602.9,519.563,605.731,519.63Zm15.06,52.134c.107-.04.429-.174.737-.308,10.665-4.716,22.282-6.016,33.389-9.125,3.47-.978,6.967-1.809,10.438-2.747,1.273-.348,1.393-1.032.281-1.755-4.355-2.827-7.838-6.592-11.416-10.277-2.948-3.055-6.364-5.628-9.044-8.991a13.031,13.031,0,0,0-5.279-3.953c-3.363-1.393-7.021-1.568-10.424-2.787-6.512-2.318-13.519-3.095-19.763-6.324-.455-.241-1.058-.7-1.527-.241-.4.4-.2,1.058-.067,1.608,1.648,6.338,3.242,12.729,5.306,18.892a145.759,145.759,0,0,1,6.351,25.136C619.866,571.39,619.786,571.926,620.791,571.765Z" transform="translate(-346.874 -417.791)" fill="#fff"/><path d="M673.314,687.277a3.688,3.688,0,0,1-1.42,2.814c-2.64,1.9-5.1,4.033-7.61,6.1-3.015,2.465-5.467,5.627-8.441,8.16-3.993,3.417-7.061,7.745-11.188,11.014a14.841,14.841,0,0,1-7.45,2.961c-3.765.482-7.182,2.023-10.826,2.867a80.526,80.526,0,0,0-12.233,3.711c-2.559,1.045-5.292,1.661-7.758,2.974a2.809,2.809,0,0,1-3.3-.643,2.41,2.41,0,0,1-.456-2.747c2.546-7.825,4.6-15.784,6.766-23.716,1.125-4.127,3.042-8.053,4.046-12.233.938-3.912,1.434-7.919,2.184-11.871.295-1.527.322-3.377,2.653-3.323.389.013.563-.308.777-.6.817-1.166,1.809-1.152,3.122-.7,5.882,2.05,11.576,4.716,17.82,5.6,8.039,1.139,15.636,4.113,23.608,5.547,2.613.469,5.132,1.608,7.838,1.97A2.191,2.191,0,0,1,673.314,687.277Zm-65.238,33.685c-.107,1.326.013,2.077,1.313,1.42a52.889,52.889,0,0,1,11.121-3.966c4.087-1.058,8.16-2.2,12.206-3.376,3.283-.965,6.887-.991,9.714-3.377,3.738-3.149,6.74-7.034,10.424-10.25,3.805-3.323,6.914-7.383,11.108-10.317.938-.656,2.6-1.152,2.345-2.331-.134-.67-1.943-1.206-3.055-1.393-7.878-1.286-15.341-4.368-23.26-5.493-6.445-.924-12.38-3.51-18.45-5.654-1.233-.429-1.514-.415-1.8,1.032-.951,4.823-1.34,9.768-2.894,14.457-1.193,3.618-2.8,7.128-3.671,10.813-1.085,4.569-2.412,9.058-3.711,13.573C608.973,717.826,608.478,719.541,608.076,720.962Z" transform="translate(-346.901 -366.088)" fill="#fff"/><path d="M589.447,476.111c-6.244-.335-11.362-2.506-14.4-8.468a13.629,13.629,0,0,1-1.393-9.232c.791-3.993,1.487-7.838,4.7-10.853a15.364,15.364,0,0,1,16.815-2.465A37.607,37.607,0,0,1,607.75,455.3c2.318,2.827,2.532,6.525,3.417,9.928,1.166,4.448-.134,8.723-.992,12.97a10.863,10.863,0,0,1-3.5,6.083c-4.127,3.35-8.2,6.927-13.412,8.642-1.836.6-3.564-.255-5.346-.308-.67-.013-1.085-.831-1.125-1.594a1.807,1.807,0,0,1,1.1-1.876,3.356,3.356,0,0,1,2.439-.415c2.157.791,3.9-.268,5.373-1.447a31.74,31.74,0,0,1,4.636-3.2c4.18-2.278,5.735-6.1,6.659-10.5,1.018-4.931-.054-9.54-1.635-14.069-.991-2.854-3.47-4.8-5.708-6.579-3.269-2.613-6.74-5.225-11.349-5.159-5.561.08-9.272,3.35-10.022,8.857-.188,1.367-.71,2.707-.777,4.087a11.073,11.073,0,0,0,7.785,10.652c.6.174,1.206.322,1.809.482,2.559.67,3.658.255,4.864-1.836a5.132,5.132,0,0,0-.429-5.855,1.95,1.95,0,0,0-2.171-.214c-1.112.389-2.184.9-3.3,1.313a1.961,1.961,0,0,1-2.787-1.072,1.913,1.913,0,0,1,1.072-2.613,17.063,17.063,0,0,1,5.252-1.956c4.047-.6,8.039,3.939,7.436,8.294a15.4,15.4,0,0,1-3.135,6.766C592.877,476.111,591.122,476,589.447,476.111Z" transform="translate(-356.771 -443.623)" fill="#fff"/><path d="M588.776,769.856c6.123-.054,10.129,6.659,7.289,12.219-2.506,4.9-7.677,5.815-12.019,2.117a2.011,2.011,0,0,1,1.742-3.564,25.267,25.267,0,0,1,2.532.978c2.921,1.112,4.3.214,4.5-2.908a4.307,4.307,0,0,0-5.292-4.636c-5.172.938-8.91,3.859-9.687,8.991-.643,4.261-.147,8.776,3.323,12.206a10.565,10.565,0,0,0,11.911,2.01,32.528,32.528,0,0,0,11.523-9.191c1.46-1.769,1.594-4.113,2.13-6.244a20.954,20.954,0,0,0-2.439-16.615,6.17,6.17,0,0,0-1.675-1.849c-2.385-1.688-4.971-3.042-7.249-4.931a4.992,4.992,0,0,0-5.038-1.193,3.251,3.251,0,0,1-2.439-.456,1.792,1.792,0,0,1-1.018-2.1,1.849,1.849,0,0,1,1.541-1.527,11.711,11.711,0,0,1,10.317,2.546A17.449,17.449,0,0,0,601.961,758c5.989,3.162,8.28,8.508,9.339,14.886.871,5.266-.563,10.036-1.889,14.913-.482,1.8-1.836,3.068-3.015,4.462a28.854,28.854,0,0,1-13.385,9.326c-7.986,2.479-14.819-.482-17.928-8.227-1.568-3.926-2.747-8.428-1.125-12.622C576.624,773.862,580.978,770.472,588.776,769.856Z" transform="translate(-356.837 -338.515)" fill="#fff"/><path d="M493.887,741.415c.308-.884-.161-1.42-.777-1.983-5.159-4.623-14.149-3.859-17.271,2.613-.9,1.849-2.371,3.363-2.653,5.587-.764,6.163,1.648,9.861,7.544,11.925,4.877,1.7,10.009,1.353,15.033.456,2.01-.362,3.484-2,5.145-3.135a21.6,21.6,0,0,0,9.339-15.154c.214-1.394-.442-2.733-.858-4.046a60.807,60.807,0,0,1-1.7-6.217,5.336,5.336,0,0,0-2.72-4.02,2.691,2.691,0,0,1-.643-.536c-1.018-.978-2.331-2.01-1.1-3.537,1.286-1.581,2.506-.523,3.805.335,3.162,2.1,4.462,5.091,5.038,8.709.4,2.506,1.7,4.824,2.077,7.4a15.146,15.146,0,0,1-1.26,8.495,30.559,30.559,0,0,1-11.2,13.211c-3.109,2.05-6.378,2.653-9.808,3.149a27.014,27.014,0,0,1-13.68-1.715c-8.763-3.39-11.965-12.863-7.209-20.768A45.45,45.45,0,0,1,473.36,738c5.9-7.624,17.552-7.476,23.756-.389,2.251,2.559.817,5.293.147,7.892-.978,3.752-4.422,4.515-7.436,5.654a3.236,3.236,0,0,1-2.6-.59c-2.68-1.514-3.765-4.18-4.757-6.874a1.771,1.771,0,0,1,1.233-2.345,1.868,1.868,0,0,1,2.358.884c.509.75.884,1.581,1.353,2.372.549.911.858,2.586,2.077,2.238,1.42-.4,3.162-.858,3.819-2.626A6.077,6.077,0,0,0,493.887,741.415Z" transform="translate(-392.317 -348.823)" fill="#fff"/><path d="M493.9,502.729c-.107-2.974-1.34-4.529-4.073-5.426-1.045-.348-1.42.362-1.8.978-.656,1.058-1.166,2.211-1.8,3.309-.576,1-1.407,1.635-2.6,1.152a1.954,1.954,0,0,1-1.085-2.787,16.469,16.469,0,0,1,2.894-5.051c1.876-2.13,3.979-2.09,6.592-1.179,4.864,1.675,5.815,5.534,6.257,9.835a4.269,4.269,0,0,1-1.8,3.618c-4.6,4.06-9.727,5.855-15.9,3.859a13.82,13.82,0,0,1-8.642-7.329c-1.233-2.479-2.747-4.73-3.068-7.651-.951-8.562,5.44-14.431,12.126-15.784a43.439,43.439,0,0,1,4.716-.831c6.833-.536,13.1.549,18.731,5.118a30.776,30.776,0,0,1,8.575,11.684c1.34,2.988,2.036,6.512.67,9.928-1.461,3.658-1.554,7.731-3.618,11.228-1.059,1.809-2.774,2.706-4.328,3.846a1.784,1.784,0,0,1-2.6-.523,1.814,1.814,0,0,1,.161-2.492,6.917,6.917,0,0,1,1.7-1.554,5.581,5.581,0,0,0,2.68-4.06A31.782,31.782,0,0,1,509.2,507c1.621-4.06.723-7.7-1.126-11.509-2.385-4.944-6.512-7.892-10.826-10.786-1.407-.951-2.988-.616-4.462-.871a22.729,22.729,0,0,0-15.1,2.224c-5.011,2.747-6.043,9.781-3.068,13.948.884,1.246,1.38,2.787,2.372,3.926,4.314,4.958,11.577,4.877,16.333.6A1.737,1.737,0,0,0,493.9,502.729Z" transform="translate(-392.317 -431.492)" fill="#fff"/><path d="M534.69,503.275c-6.1-1.836-13.131-1.393-17.82-6.873a30.348,30.348,0,0,1-7.074-15.69c-.817-5.52.764-10.3,3.31-14.752,3.551-6.2,8.28-11.483,16.105-11.885a12.987,12.987,0,0,1,11.215,5.534c2.05,2.787,4.261,5.761,4.622,9.446.348,3.631.107,7.276-2.1,10.344a16.681,16.681,0,0,1-6.981,6.137c-4.623,1.943-6.793,1.353-10.1-2.4-2.586-2.948-2.157-6.217-1.286-9.433.643-2.372,2.988-3.028,5.185-3.243a22.233,22.233,0,0,1,4.6.308,1.82,1.82,0,0,1,1.728,2.2,1.857,1.857,0,0,1-2.037,1.729c-.831.04-1.675-.147-2.505-.134-1.072.013-2.613-.415-2.975.817-.415,1.42-1,2.988.188,4.6,1.728,2.331,3.443,2.961,5.962,1.621,5.8-3.108,8.374-10.5,4.6-15.971-1.7-2.465-3.015-4.931-5.989-6.4-4.14-2.05-7.557-.737-10.625,1.608-4.556,3.5-7.142,8.522-8.87,13.908-.737,2.291.054,4.77.4,7.075a20.978,20.978,0,0,0,7.945,13.734c1.688,1.34,3.712,1.474,5.628,1.956,1.541.389,3.055.844,4.582,1.273a7.028,7.028,0,0,0,5.132-.241,7.893,7.893,0,0,1,2.144-.764,1.953,1.953,0,0,1,2.331,1.353,1.785,1.785,0,0,1-1.059,2.425C538.937,502.337,537.115,503.757,534.69,503.275Z" transform="translate(-378.454 -440.077)" fill="#fff"/><path d="M640.055,760.669c6.994.067,12.233,2.72,14.806,8.816,2.465,5.842,3.028,12.032-.817,17.713-2.144,3.162-5.52,4.743-9.111,5.4-5.2.938-10.089-.563-14.98-2.385-6.659-2.479-10.706-7.61-13.024-13.653-2.961-7.678-3.537-15.65,2.948-22.39,1.688-1.755,2.546-4.127,4.422-5.815,1.836-1.661,4.087-2.01,6.257-2.653a1.733,1.733,0,0,1,1.889,1.072,1.872,1.872,0,0,1-.375,2.318,4.273,4.273,0,0,1-2.412,1.139,5.936,5.936,0,0,0-4.207,3.162,26.235,26.235,0,0,1-3.242,4.6c-3.3,3.712-3.363,7.919-2.666,12.514a23.3,23.3,0,0,0,5.869,11.778c2.814,3.283,6.887,4.891,11.081,5.694,2.747.523,5.48,1.353,8.428.523a10.231,10.231,0,0,0,7.436-11.965c-.683-2.961-.75-5.989-3.242-8.334-3.524-3.31-7.517-3.993-11.938-2.774-2.385.657-3.35,4.288-1.849,6.324,2.037,2.774,2.707,2.827,5.279.416a10.945,10.945,0,0,1,1.728-1.528,1.981,1.981,0,0,1,2.68.308,1.75,1.75,0,0,1,.08,2.492c-1.822,1.9-3.537,3.966-6.324,4.609a3.415,3.415,0,0,1-2.425-.094c-3.417-1.782-6.606-5.1-5.695-9.379C631.842,762.732,634.388,760.7,640.055,760.669Z" transform="translate(-342.69 -340.971)" fill="#fff"/><path d="M640.493,484.717a14.619,14.619,0,0,1-7.061-1.809c-3-1.407-2.586-4.422-3.028-6.9-.5-2.8,2.76-7.544,5.427-8.508a5.366,5.366,0,0,1,4.971.7,30.49,30.49,0,0,1,3.805,3.3,1.935,1.935,0,0,1,.282,2.974c-1,1.085-2.171.817-3.176-.067a22.076,22.076,0,0,0-3.2-2.707,1.128,1.128,0,0,0-1.742.281c-1.219,1.447-2.506,2.573-2.157,4.89a3.7,3.7,0,0,0,3.457,3.457c5.748.925,10.759-.71,13.05-6.4,1.661-4.127,2.358-8.709-.362-13.037-1.461-2.331-6.807-4.824-9.9-4.328-4.462.71-8.79,1.755-12.729,4.18a15.46,15.46,0,0,0-3.765,3.524,23.988,23.988,0,0,0-5.386,13.948,11.732,11.732,0,0,0,2.586,8.575,36.03,36.03,0,0,1,3.778,5.252,5.919,5.919,0,0,0,4.207,3.149,4.5,4.5,0,0,1,2.265.991,1.857,1.857,0,0,1,.509,2.452,1.882,1.882,0,0,1-2.1,1.045,11.572,11.572,0,0,1-8.321-5.386,21.571,21.571,0,0,0-2.492-3.6c-4.823-5.225-5.118-11.322-3.778-17.927a26.392,26.392,0,0,1,7.007-12.836c3.658-3.912,8.669-5.761,13.975-6.82,4.5-.911,8.7-.791,12.93,1.353,3.966,2.01,5.855,5.4,6.753,9.285a18.85,18.85,0,0,1-2.144,13.452c-2.063,3.685-5.266,6.512-9.781,7.048C643,484.422,641.672,485.079,640.493,484.717Z" transform="translate(-342.645 -440.586)" fill="#fff"/><path d="M532.675,771.333a10.92,10.92,0,0,1,1.648-.107,1.957,1.957,0,0,1,.455,3.819,12.856,12.856,0,0,1-7.048-.054c-2.425-.871-2.961-2.3-3.551-4.837-1.179-5.011,1.755-7.677,5.092-10.277a4.154,4.154,0,0,1,3.591-.59,15.236,15.236,0,0,1,10.96,8.642c1.876,4.02,2.439,8.709-.134,13.024-.683,1.139-1.326,2.278-2,3.43-4.8,8.173-14.457,9.808-21.84,3.752-5.1-4.18-8.24-9.821-10.009-16.119-.938-3.35-.054-6.833.63-10.143a24.947,24.947,0,0,1,9.928-15.422,1.975,1.975,0,0,1,.536-.308c5.185-1.487,10.237-3.6,15.77-3.39,1.715.067,3.1,1.166,4.6,1.862a1.653,1.653,0,0,1,.59,2.4,2.019,2.019,0,0,1-2.854.951c-2.09-.951-4.314-1.635-6.471-.857a47.535,47.535,0,0,1-6.418,1.661c-3.805.8-6.2,3.242-8.361,6.364-2.827,4.1-3.792,8.629-4.02,13.385-.2,4.368,2.063,8,4.288,11.536a26.675,26.675,0,0,0,3.417,3.979c5.252,5.44,13.131,4.69,16.936-2.09,1.822-3.256,3.162-6.3,2.345-10.223-.67-3.189-5.212-7.677-8.388-8.24-1.7-.295-4.556,2.974-4.3,4.877C528.508,771.32,528.6,771.4,532.675,771.333Z" transform="translate(-378.502 -341.962)" fill="#fff"/><path d="M749.985,580.361c4.288-.858,8,1.152,11.416,3.872,2.64,2.1,3.51,5.2,3.872,8.307.831,7.088-2.157,12.984-6.378,18.356-5.252,6.7-12.488,8.857-20.634,8.816a22.921,22.921,0,0,1-6.15-.844c-3.886-1.085-6.445-3.725-8.9-6.619-1.568-1.849-3.725-3.108-4.957-5.346a12.347,12.347,0,0,1-1.367-6.257,1.73,1.73,0,0,1,1.407-1.836,1.913,1.913,0,0,1,2.291,1.032,1.1,1.1,0,0,1,.188.589c-.281,5.226,4.194,7.383,6.954,10.6,4.757,5.52,10.893,5.333,17.271,3.832a29.276,29.276,0,0,0,2.948-.992c8.6-3.108,11.764-10.371,13.506-18.383,1.166-5.333-4.127-11.054-9.607-11.04a25.391,25.391,0,0,1-3.778-.027c-4.489-.71-9.955,4.006-10.518,9.057a13.443,13.443,0,0,0-.375,2.452c.161,1.742.054,3.6,2.479,4.207s4.931.241,6.11-1.407a1.61,1.61,0,0,0-.214-1.93c-.724-1.112-1.42-2.237-2.063-3.4a2.012,2.012,0,0,1,2.693-2.8c2.586,1.259,4.676,7.49,3.377,10-1.554,2.988-6.579,4.917-10.022,3.832-5.628-1.755-7.557-6.378-5.936-12.608a16.559,16.559,0,0,1,7.4-9.942C743.567,580.187,746.622,580.093,749.985,580.361Z" transform="translate(-307.994 -397.218)" fill="#fff"/><path d="M749.505,663.015c-5.534,1.206-9.607-1.715-13.184-5.44-1.849-1.929-2.425-4.663-2.921-7.235a17.766,17.766,0,0,1-.241-4.328c.362-6.23,5.292-7.731,9.9-7.155,4.783.6,9.781,4.823,5.507,10.706-.576.791-.938,1.715-1.514,2.492a2.048,2.048,0,0,1-2.948.7c-1.152-.737-1.139-1.836-.509-2.948.415-.723.871-1.42,1.3-2.144,1.461-2.479.255-4.783-2.68-4.743-3.805.054-5.44,1.058-4.877,5.869.549,4.676,2.76,8.361,7.1,9.62,4.9,1.42,10.277,1.648,14.31-2.479,2.733-2.8,3.242-6.512,2.251-10.3a30.276,30.276,0,0,0-7.141-12.8c-1.769-1.956-4.408-2.639-6.766-3.577a19.882,19.882,0,0,0-15.261-.147,7.679,7.679,0,0,0-2.586,1.675c-2,1.943-3.725,4.154-5.869,5.962a5.7,5.7,0,0,0-2.291,4.917,4.44,4.44,0,0,1-.4,1.608,1.867,1.867,0,0,1-2.278,1.38c-1.152-.2-1.514-1.018-1.554-2.144a10.424,10.424,0,0,1,3.376-8.481c2.238-2.023,4.1-4.381,6.338-6.391a15.691,15.691,0,0,1,10.076-3.845,42,42,0,0,1,6.083.134,27.166,27.166,0,0,1,13.01,5.145,22.127,22.127,0,0,1,6.592,8.522c1.487,3.1,3.055,6.324,3.122,9.862.094,4.837-.75,9.352-5.105,12.528C757.1,662.358,753.686,663.751,749.505,663.015Z" transform="translate(-308.01 -382.41)" fill="#fff"/><path d="M437.527,574.477c-9.326-.683-15.368,4.529-19.964,11.7-3.752,5.842-.991,12.8,5.52,15.02a19.474,19.474,0,0,1,2.144.791c7.048,3.283,14.444-2.787,15.167-9.513.174-1.608-2.814-3.885-4.81-3.738-3.055.241-3.685,1.139-2.961,4.207.174.737.4,1.474.509,2.238a1.973,1.973,0,0,1-1.367,2.318,1.81,1.81,0,0,1-2.439-1.058,13.041,13.041,0,0,1-.938-7.57c.536-2.264,2.331-3.055,4.515-3.752,3.309-1.059,5.815-.308,8.495,1.7,4.221,3.162,3.578,4.743,2.439,8.924-1.782,6.565-6.659,10.009-13.091,11.375a9.085,9.085,0,0,1-3.725-.295c-6.043-1.34-11.617-3.7-14.2-9.768-2.184-5.1-.951-10.116,2.171-14.618a34.467,34.467,0,0,1,11.684-10.277,12.181,12.181,0,0,1,3.5-1.273,28.742,28.742,0,0,1,20.232,2.867c2.814,1.541,5.493,3.658,6.646,6.981,1.179,3.417,3.309,6.4,4.234,9.928.616,2.345.054,4.555-.616,6.753a1.792,1.792,0,0,1-2.09,1.353,1.819,1.819,0,0,1-1.688-2.036,8.052,8.052,0,0,1,.2-2.063,6.183,6.183,0,0,0-.59-5.212,28.964,28.964,0,0,1-2.439-5.279,12.1,12.1,0,0,0-8.079-7.785C443.221,575.442,440.6,573.995,437.527,574.477Z" transform="translate(-411.714 -400.607)" fill="#fff"/><path d="M728,550.322c2.157.147,4.408-.938,6.5-2.8,2.291-2.037,4.7-3.738,5.373-7.128a11.155,11.155,0,0,0-4.73-11.416,32.79,32.79,0,0,0-13.519-5.038c-2.331-.335-4.6.831-6.847,1.5a20.841,20.841,0,0,0-12.139,9.54,7.763,7.763,0,0,0-1.206,4.341,29.967,29.967,0,0,1-.683,7.477,5.185,5.185,0,0,0,.951,4.14,9.235,9.235,0,0,1,1.273,2.157,2.013,2.013,0,0,1-.991,2.841c-1.166.522-1.93-.094-2.666-1-2.72-3.377-3.1-7.1-2.184-11.215.523-2.371-.2-4.89.523-7.289a16.575,16.575,0,0,1,4.69-7.932c.523-.469,1.059-.911,1.554-1.42,4.7-4.77,10.8-6.592,17.11-7.262,2.934-.308,6.217.79,9.057,1.956,4.422,1.809,8.964,3.752,11.684,8.053,3.9,6.177,3.953,10.8-.442,16.976a17.98,17.98,0,0,1-9.781,7.222,15.529,15.529,0,0,1-18.906-10.585c-.71-2.573,1.393-4.408,2.693-6.284,2.3-3.323,5.869-3.082,9.312-2.747a3.715,3.715,0,0,1,2.438,1.849c1.447,2.1,1.5,4.582,1.728,6.981a1.944,1.944,0,0,1-1.889,2.318c-1.367.107-1.956-.911-2.238-2.09-.188-.8-.107-1.648-.322-2.479-.63-2.425-2.72-3.35-4.877-2.063-2.358,1.407-3.2,4.355-1.5,6.418C720.366,548.232,723.234,550.523,728,550.322Z" transform="translate(-314.86 -417.746)" fill="#fff"/><path d="M438.091,668.46a23.5,23.5,0,0,0,13.05-5.132c1.581-1.313,2.251-3.149,2.975-4.944a37.79,37.79,0,0,1,2.278-4.9,6.277,6.277,0,0,0,.643-5.4,7.094,7.094,0,0,1-.188-1.862,1.851,1.851,0,0,1,1.528-2.184,1.944,1.944,0,0,1,2.372,1.554c1.032,3.015,1.246,6.11-.255,8.923s-2.479,5.9-4.046,8.669a14.257,14.257,0,0,1-7.423,6.418c-3.537,1.367-6.981,2.894-10.987,3.015-9.232.268-16.159-3.685-21.786-10.679a21.467,21.467,0,0,1-4.314-9.527c-1.206-5.775,3.711-12.22,7.49-13.828,3.149-1.327,6.3-2.921,9.942-2.84a14.7,14.7,0,0,1,8.857,2.974,16.4,16.4,0,0,1,6.391,11.8,5.439,5.439,0,0,1-.469,2.666c-1.527,3.363-6.914,5.627-10.5,4.663-2.291-.616-4.542-1.139-5.212-3.805s-.013-5.252.911-7.758a1.78,1.78,0,0,1,2.465-.992,1.944,1.944,0,0,1,1.3,2.345c-.134.75-.4,1.474-.5,2.237-.161,1.139-.858,2.64.255,3.323a4.575,4.575,0,0,0,4.757.375c3.229-1.755,3.4-4.7.817-8.535a11.157,11.157,0,0,0-13.868-4.087c-2.506,1.219-5.078,1.969-6.74,4.555a10.687,10.687,0,0,0,.322,12.22,30.836,30.836,0,0,0,10.8,9.393C431.62,668.5,434.648,668.152,438.091,668.46Z" transform="translate(-411.702 -378.329)" fill="#fff"/><path d="M429.45,543.816a15.339,15.339,0,0,1,5.574-13.908,13.239,13.239,0,0,1,12.354-2.586,27.516,27.516,0,0,1,6.418,2.372,15.39,15.39,0,0,1,4.046,23.367c-2.1,2.479-4.917,1.608-7.463,1.38-3.805-.348-5.306-3.5-6.874-6.364a3.372,3.372,0,0,1,.134-2.84c1.059-2.747,3.4-4.18,5.654-5.681a1.832,1.832,0,0,1,2.626.549,1.983,1.983,0,0,1-.482,2.814c-.7.576-1.434,1.126-2.117,1.715-2.037,1.782-1.862,3.792.442,5.239,2.2,1.38,5.547.616,6.472-1.755,2.157-5.493,1.38-11.081-3.832-14.337-3.886-2.412-8.334-3.805-13.091-1.876-2.224.9-5.467,5.574-5.681,8.535a34,34,0,0,0,2.171,14.94,4.686,4.686,0,0,0,.67,1.058,25.512,25.512,0,0,0,15.06,9.875,12.731,12.731,0,0,0,9.982-2.01,17.676,17.676,0,0,1,3.752-1.742,6.57,6.57,0,0,0,4.328-3.939,5.886,5.886,0,0,1,1.032-1.568,2,2,0,0,1,3.4,2.1,11.791,11.791,0,0,1-7.5,7.3,11.666,11.666,0,0,0-2.626,1.206c-5.306,3.35-10.692,3.685-16.722,1.648a27.189,27.189,0,0,1-14.189-10.866A22.541,22.541,0,0,1,429.45,543.816Z" transform="translate(-405.727 -415.353)" fill="#fff"/><path d="M727.1,692.351c-4.3.134-7.436,2.318-9.634,5.882-1.26,2.037.737,5.788,3.175,5.869,3.484.107,2.908,1.219,3.725-2.613.174-.817.147-1.675.348-2.479.281-1.085.911-2,2.171-1.889a1.986,1.986,0,0,1,1.9,2.318,16.817,16.817,0,0,1-1.018,5.721c-1.447,3.537-7.785,4.556-11.014,1.889-1.943-1.608-3.028-3.792-4.14-5.976a2.418,2.418,0,0,1-.08-1.836,14.874,14.874,0,0,1,11.536-10.705c4.556-1.032,9.419-.442,13.064,3.484,1.367,1.474,3.3,2.358,4.475,4.073,5.587,8.079,2.157,17.1-5.011,21.559-4.609,2.881-9.62,4.167-14.765,5.346a5.861,5.861,0,0,1-2.466-.335c-5.976-1.058-11.416-3.122-15.985-7.436-4.18-3.926-6.525-8.388-6.15-14.176.161-2.506-.737-4.917-.509-7.477s1.661-4.381,2.974-6.311a1.729,1.729,0,0,1,2.613-.348,2.156,2.156,0,0,1,.576,2.827c-.63,1.514-2.01,2.64-2.09,4.475a7.4,7.4,0,0,0-.013,2.037,12.151,12.151,0,0,1,.576,3.484c-.254,3.819.08,7.6,2.774,10.4a26.973,26.973,0,0,0,10.585,7.2c6.726,2.358,12.528.7,18.41-2.492a13.333,13.333,0,0,0,6.847-7.745c1.112-3.417-.148-6.5-2.144-9.1a21.824,21.824,0,0,0-5.118-4.3A8.772,8.772,0,0,0,727.1,692.351Z" transform="translate(-314.859 -361.085)" fill="#fff"/><path d="M694.107,483.183a14.6,14.6,0,0,1,13.372,8.656,34.433,34.433,0,0,1,3.135,13.921c-.094,7.731-3.631,13.479-9.111,18.356a21.691,21.691,0,0,1-6.552,4.381,18.17,18.17,0,0,1-9.848.7c-2.8-.456-5.681-.161-8.455-1.166-2.117-.764-3.39-2.4-4.877-3.832a1.708,1.708,0,0,1-.054-2.318,2.205,2.205,0,0,1,3.149-.241c3.055,4.02,7.664,3.041,11.724,3.591,8.749,1.192,13.479-4.381,17.526-10.853.8-1.286,1.193-2.827,1.929-4.154.911-1.621.174-3.269.322-4.89.362-4.127-.978-7.838-2.6-11.456-2.653-5.949-8.455-8.535-14.229-5.493-4.542,2.385-8.4,6.07-8.106,11.925a11.517,11.517,0,0,0,5.091,9.125c1.193.831,4.944-.884,5.373-2.519.817-3.216,1.983-3.135-2.09-4.542a22.75,22.75,0,0,1-2.532-.924,1.866,1.866,0,0,1-1.1-2.077,1.961,1.961,0,0,1,1.675-1.661c2.814-.59,8.253,2.8,8.964,5.574.8,3.082-1.929,7.852-5.2,9.366-5.534,2.573-8.414,1.206-12.246-5.266-3.376-5.708-3.149-11.791,1.246-16.856C684.192,486.439,688.346,482.647,694.107,483.183Z" transform="translate(-323.491 -430.195)" fill="#fff"/><path d="M429.412,699.8c-.656-4.18,1.42-8.428,2.854-12.729.817-2.479,3.216-4.02,5.065-5.829a25.106,25.106,0,0,1,19.308-7.329,1.94,1.94,0,0,1,.63.04c4.917,2.2,10.156,3.765,14.337,7.383,1.38,1.192,1.728,2.974,2.519,4.5a1.674,1.674,0,0,1-.723,2.2,1.879,1.879,0,0,1-2.345-.107c-.161-.134-.375-.268-.442-.442-1.5-3.765-4.917-5-8.187-6.793-4.663-2.546-8.964-3.216-14.082-1.461a25.239,25.239,0,0,0-11.952,9.1,14.789,14.789,0,0,0-2.452,7.423c-.469,4.8-1.3,9.7,2.144,14.028,2.358,2.961,7.222,4.609,10.8,3.256a20.9,20.9,0,0,1,3.122-1.166c4.944-.978,8.321-7.369,7.088-12.715-.121-.536-.188-1.085-.322-1.621-.59-2.358-1.916-3.444-4.167-3.417-2.345.013-4.5,1.5-4.984,3.39-.188.764.348,1.179.8,1.581.992.884,2.05,1.7,3.055,2.559a1.966,1.966,0,0,1,.456,2.814,1.938,1.938,0,0,1-2.814.456,17.384,17.384,0,0,1-4.6-3.966c-1.661-2.265-1.313-3.9,0-6.324,2.372-4.395,6.177-4.984,10.518-4.716a4.123,4.123,0,0,1,2.841,1.581,13.873,13.873,0,0,1,3.5,7.664c.844,6.1-1.085,11.375-6.2,14.739-5.44,3.577-11.59,5.413-17.941,2.3-3.953-1.93-6.056-5.628-7.356-9.741C429.237,704.465,429.452,702.429,429.412,699.8Z" transform="translate(-405.742 -365.361)" fill="#fff"/><path d="M693.957,762.036c-4.154.375-7.383-2.17-10.8-4.743a14.292,14.292,0,0,1-5.842-12.93,14.75,14.75,0,0,1,8.079-12.635c2.479-1.286,4.569.348,6.713,1.166,3.805,1.474,4.314,5.051,4.783,8.4.241,1.7-1.045,3.189-2.519,4.113a17.681,17.681,0,0,1-5.842,2.117,1.91,1.91,0,0,1-2.291-1.407,1.952,1.952,0,0,1,1.34-2.505c.831-.362,1.7-.6,2.546-.9,2.532-.871,3.108-3.5,1.193-5.426a4.592,4.592,0,0,0-6.565-.107c-3.685,3.591-4.489,10.451-1.26,14.5,3.055,3.832,6.9,6.994,12.206,6.324,3.5-.442,6.123-2.787,7.825-5.989,2.492-4.69,3.068-9.821,3.042-14.953-.013-2.385-1.608-4.556-2.747-6.686A21.148,21.148,0,0,0,691.961,720.1a7.543,7.543,0,0,0-3.457-.322,65.718,65.718,0,0,1-7.075.643A6.636,6.636,0,0,0,676,722.6a6.529,6.529,0,0,1-1.474,1.152,1.909,1.909,0,0,1-2.8-.375c-.764-.991-.415-1.889.348-2.814a11.711,11.711,0,0,1,8.95-4.274c2.023-.094,4.033-.268,6.043-.536,6.445-.884,11.188,2.331,15.663,6.364,4.047,3.644,6.244,8.4,7.637,13.425.7,2.506.188,5.373.067,8.08-.349,8.093-5.761,15.891-12.367,18.128A13.574,13.574,0,0,1,693.957,762.036Z" transform="translate(-323.488 -351.182)" fill="#fff"/><path d="M541.492,502.93a9.286,9.286,0,0,1,8.95,9.553,5.047,5.047,0,0,1-4.127,4.381,23.416,23.416,0,0,0-2.841.63,1.9,1.9,0,0,1-2.559-1.179,2.106,2.106,0,0,1,1.045-2.693,6.742,6.742,0,0,1,2.613-.63c1.38-.228,2.01-.844,1.367-2.479-1.286-3.309-3.363-3.7-6.11-3.283a6.286,6.286,0,0,0-5.386,5.534c-.268,4.274,4.676,10.263,8.91,10.773,2.505.295,5-.415,7.4-1.058a33.681,33.681,0,0,0,15.9-8.843,1.859,1.859,0,0,1,2.492-.322,1.922,1.922,0,0,1,.844,2.532,3.384,3.384,0,0,1-1.179,1.7c-2.653,1.621-4.971,3.711-7.691,5.306-4.891,2.881-10.21,3.805-15.556,4.77-3.685.67-6.941-.831-9.513-3.283a18.959,18.959,0,0,1-4.261-5.4c-2.907-6.1-1.675-11.523,4.381-14.953A12.963,12.963,0,0,1,541.492,502.93Z" transform="translate(-371.415 -423.467)" fill="#fff"/><path d="M608.5,728.906c-.268-5.721,2.077-9.808,7.209-12.541,3.189-1.7,6.364-3.591,9.808-4.475a37.43,37.43,0,0,1,12.97-1.5c1.474.147,2.693.858,2.626,2.439-.08,1.742-1.38,1.9-2.907,1.809a36.165,36.165,0,0,0-9.111.858c-4.542.844-8.455,2.894-12.367,5.091a7.67,7.67,0,0,0-4.02,7.075c-.027,2.425-.2,4.837,1.166,7.115,1.514,2.519,3.658,3.229,6.364,2.988,1.97-.174,4.756-2.331,5.185-4.288a5.267,5.267,0,0,0-1-4.1c-.509-.737-1.072-.348-1.648-.08-.992.469-1.822,1.286-3.028,1.313a2.03,2.03,0,0,1-2.291-1.434,1.878,1.878,0,0,1,1.139-2.412c1.058-.523,2.09-1.1,3.149-1.635,2.358-1.192,4.984-.027,6.579,2.613,4.556,7.53-2.438,13.64-8.173,14.2-7.115.7-11.429-5.185-11.643-11.148C608.482,730.165,608.5,729.536,608.5,728.906Z" transform="translate(-344.841 -352.996)" fill="#fff"/><path d="M541.4,736.8c-4.77-.2-8.334-2.144-10.424-6.659a9.224,9.224,0,0,1,.094-7.517c2.063-5.158,5.453-9.138,11.228-10.478,2.854-.67,5.52.415,8.24.817,4.864.71,9.218,2.867,13.359,5.4a44.132,44.132,0,0,1,5.1,3.966,4.324,4.324,0,0,1,1,1.568,1.886,1.886,0,0,1-.871,2.519,1.817,1.817,0,0,1-2.479-.375,29.006,29.006,0,0,0-9.647-6.713,31.7,31.7,0,0,0-9.969-2.8c-6.284-.71-11.081,2.626-12.461,8.816-.549,2.439.523,4.663,3.015,6.324,1.809,1.206,5.1,1.3,6.7.094a5.736,5.736,0,0,0,1.916-3.6c.255-1.219-.965-1.246-1.675-1.407a8.536,8.536,0,0,1-2.425-.576,2.132,2.132,0,0,1-1.166-2.814,1.886,1.886,0,0,1,2.586-1.112,26.58,26.58,0,0,0,3.256.71c2.68.469,3.979,3.216,3.283,6.579C549.075,734.252,545.846,736.958,541.4,736.8Z" transform="translate(-371.441 -352.433)" fill="#fff"/><path d="M635.618,531.084c-8.294-.134-15.609-2.988-22.336-7.53a10.917,10.917,0,0,1-4.743-8.83c-.228-3.7-.067-7.276,2.037-10.679a10.324,10.324,0,0,1,12.126-3.939c2.4,1,4.689,2.264,5.949,4.944,1.5,3.176,1.112,7.852-1.407,10.371a4.478,4.478,0,0,1-4.435,1.286,22.182,22.182,0,0,1-4.824-2.4,1.624,1.624,0,0,1-.509-2.09,1.982,1.982,0,0,1,1.728-1.327,4.78,4.78,0,0,1,3.269,1.166c1.3.831,1.9.415,2.506-.9,1.916-4.261-1.836-6.967-4.824-7.369-4.649-.643-6.807,2.358-7.356,6.137a15.389,15.389,0,0,0,.295,6.431,6.979,6.979,0,0,0,2.814,4.02,35.125,35.125,0,0,0,11.027,5.266c3.7.951,7.557,1.8,11.469,1.233,1.367-.2,2.506.107,2.693,1.594.2,1.621-.938,2.412-2.4,2.613A26.256,26.256,0,0,1,635.618,531.084Z" transform="translate(-344.846 -424.649)" fill="#fff"/><path d="M487.649,599.982c.362,7.61-2.063,14.457-5.708,20.969a6.47,6.47,0,0,1-1.206,1.434,1.977,1.977,0,0,1-2.988.134,1.915,1.915,0,0,1-.107-2.827c2.425-3.122,3.6-6.847,4.837-10.478.75-2.184.724-4.649.951-6.994a30.883,30.883,0,0,0,.013-3.149c0-6.565-4.877-11.148-11.536-10.826a5.575,5.575,0,0,0-5.091,4.261c-.63,2.264-.59,4.649,1.259,6.418a5.18,5.18,0,0,0,3.725,1.112c1.139-.013,1.085-.817,1.125-1.608.04-1.032-.228-2.1.362-3.082a2.167,2.167,0,0,1,2.626-1.193,1.824,1.824,0,0,1,1.286,2.13c-.04.764-.067,1.541-.08,2.3-.013,3.725-2,5.628-5.654,5.668-8.053.094-10.545-8.039-8.374-13.653,2.894-7.5,11.282-7.905,16.6-4.676,3.7,2.251,6.833,4.743,7.758,9.232A32.447,32.447,0,0,1,487.649,599.982Z" transform="translate(-394.508 -395.91)" fill="#fff"/><path d="M487.594,643.219c.161,2.841.067,5.52-1.233,8.053-2.532,4.9-11.054,9.821-17.485,7.57-3.055-1.072-6.431-5.56-6.485-8.83a12.9,12.9,0,0,1,1.273-6.633c1.809-3.4,4.73-4.06,7.972-4.221,3.4-.161,5.467,1.969,5.48,5.373,0,.844.027,1.688.067,2.519.067,1.112-.281,1.956-1.434,2.224a2.164,2.164,0,0,1-2.452-1.193,4.359,4.359,0,0,1-.375-2.867c.188-1.943-.911-2.117-2.345-1.809-2.707.59-4.274,2.05-4.02,5.976.174,2.626,2.224,5.266,4.649,5.708,4.288.777,11.282-3.135,12.005-7.423a31.5,31.5,0,0,0,.147-7.53,34.129,34.129,0,0,0-2.814-11.174,36.711,36.711,0,0,0-2.8-5.078c-.75-1.166-1.032-2.211.094-3.162,1.152-.965,2.264-.482,3.149.5a20.865,20.865,0,0,1,3.484,6.137C486.59,632.407,488.01,637.713,487.594,643.219Z" transform="translate(-394.493 -383.61)" fill="#fff"/><path d="M681.936,649.634c-.255-6.605,1.541-12.769,4.1-18.691,1.635-3.779,4.77-5.842,8.95-6.619,3.43-.643,6.579-.9,9.982.4,4.556,1.755,6.941,7.865,5.708,12.086a11.612,11.612,0,0,1-5.038,6.874c-3.1,1.983-9.138.469-10.679-2.827-.643-1.353.268-6.431,1.34-7.463a1.821,1.821,0,0,1,1.943-.469,2.037,2.037,0,0,1,1.487,1.836,6.482,6.482,0,0,1-.75,3.2c-.281.683-.362,1.353.388,1.836,1.983,1.273,5.6.121,6.579-2.1,2.412-5.507-.6-10.17-6.646-9.862-3.792.188-7.677.924-9.54,4.85a33.37,33.37,0,0,0-2.975,9.7,32.145,32.145,0,0,0,.589,13.921,1.878,1.878,0,0,1-1.085,2.6,2.009,2.009,0,0,1-2.867-1.327C682.767,654.98,682.405,652.287,681.936,649.634Z" transform="translate(-319.882 -382.388)" fill="#fff"/><path d="M584.221,521.01c-5.373.214-10.183-1.085-14.913-2.76a3.914,3.914,0,0,1-1.876-1.3,2.056,2.056,0,0,1-.08-2.546,1.766,1.766,0,0,1,2.412-.63c5.453,2.68,11.282,3.336,17.231,3a29.18,29.18,0,0,0,6.94-1.259c4.917-1.528,8.079-9.754,5.52-14.176-2.1-3.631-7.852-3.9-10.545-.549a4.511,4.511,0,0,0-.5,3.953c.241.9.643,1.206,1.675.9a9.277,9.277,0,0,1,3.109-.174,1.816,1.816,0,0,1,1.675,1.621,1.84,1.84,0,0,1-.777,2.023c-1.434.992-6.7.67-8.106-.415a5.148,5.148,0,0,1-1.755-3.618c-1.072-6.271,2.774-9.821,8.093-10.545,9.366-1.273,13.975,6.686,11.55,14.806-1.407,4.7-3.685,8.924-8.8,10.223C591.483,520.474,587.758,521.372,584.221,521.01Z" transform="translate(-358.955 -426.366)" fill="#fff"/><path d="M699.391,618.789c-5.2-.6-10.706-1.434-13.385-7.289a49.794,49.794,0,0,1-3.484-11.081c-.965-4.891-.295-9.754.442-14.591a2.632,2.632,0,0,1,1.983-2.452c1.688-.362,2.76.817,2.412,2.613a45.1,45.1,0,0,0-.924,9.446c.094,4.555,1.353,8.656,2.733,12.823a7.288,7.288,0,0,0,4.381,4.958c3.175,1.206,6.324,2.037,9.674.549,2.479-1.1,3.457-3.109,3.6-5.641.121-2.09-1.782-5.373-3.524-5.949a5.869,5.869,0,0,0-4.06.5c-.844.348-.523,1.166-.255,1.822a5.731,5.731,0,0,1,.67,3.216,2.055,2.055,0,0,1-1.595,1.742,1.831,1.831,0,0,1-1.9-.6c-1.219-1.34-1.836-6.271-1.058-7.865a4.08,4.08,0,0,1,2.8-2.318c3-.71,5.936-1.8,8.83.79a11.362,11.362,0,0,1,4.033,9.875C710.4,615.855,704.455,618.629,699.391,618.789Z" transform="translate(-319.838 -396.147)" fill="#fff"/><path d="M528.237,710.55c-.791,4.8-2.09,9.312-6.244,12.474-4.1,3.122-9.232,2.519-13.024-.844a11.722,11.722,0,0,1-3.845-8.722c-.08-1.809,3.484-6.257,5.708-7.074,2.023-.75,4.006.04,5.788,2.211a17.138,17.138,0,0,0,1.474,1.487,1.9,1.9,0,0,1,.362,2.8,2.067,2.067,0,0,1-3,.415,7.572,7.572,0,0,1-2.13-2.291,1,1,0,0,0-1.581-.362,5.216,5.216,0,0,0-1.34,6.967c3.658,4.783,8.8,4.381,11.7-1.072,1.648-3.1,2.921-6.485.965-9.9a29,29,0,0,0-4.288-5.4,38.71,38.71,0,0,0-8.736-6.619,29.46,29.46,0,0,0-6.351-2.519c-1.193-.349-2.157-.858-2-2.264.174-1.487,1.219-1.8,2.586-1.836,2.077-.04,3.765,1.1,5.467,1.862a37.3,37.3,0,0,1,17.271,15.409A9.089,9.089,0,0,1,528.237,710.55Z" transform="translate(-381.139 -360.567)" fill="#fff"/><path d="M582.549,719.114a46.663,46.663,0,0,1,13.814,2.023c5.681,1.782,8.8,11.483,8.039,15.864-.951,5.386-4.261,8-9.339,8.937-3.055.563-8.964-2.264-10.411-5-1.5-2.841-.442-8.227,1.943-9.915,1.126-.791,6.566-.7,7.61.147a1.842,1.842,0,0,1,.67,1.876,1.821,1.821,0,0,1-1.621,1.688,7.545,7.545,0,0,1-3.109-.134c-1.34-.469-1.635.268-1.889,1.192a4.926,4.926,0,0,0,3.832,5.695c6.485.978,9.848-3.671,7.637-10.076-1.7-4.917-5-7.075-10-7.651-6.914-.8-13.56-.308-19.924,2.653a1.807,1.807,0,0,1-2.425-.563,2.053,2.053,0,0,1,0-2.546,3.968,3.968,0,0,1,2.037-1.42C574.189,720.253,579,718.94,582.549,719.114Z" transform="translate(-358.958 -349.997)" fill="#fff"/><path d="M666.254,524.381c4.649-.643,9.567,3.912,10.679,7.45,1.661,5.266-1.635,10.518-5.52,12.863A30.8,30.8,0,0,1,666.8,547.1c-3.618,1.42-7.061.858-10.424-1.058a53.306,53.306,0,0,1-9.714-6.753,37.654,37.654,0,0,1-4.89-5.708c-.9-1.219-1.461-2.68-2.412-3.912a3.718,3.718,0,0,1-.7-2.988,1.805,1.805,0,0,1,1.5-1.554,1.729,1.729,0,0,1,2.144.911,28.612,28.612,0,0,0,6.672,9.527c3.564,3.51,7.557,6.753,12.515,8,3.845.965,10.706-3.2,11.644-7.637a6.624,6.624,0,0,0-8.039-7.275,5.53,5.53,0,0,0-2.68,2.572c-.523.858.054,1.42.8,1.822a6.592,6.592,0,0,1,2.4,1.635,2.154,2.154,0,0,1,.054,2.881,1.782,1.782,0,0,1-2.787.148c-1.46-1.407-3.966-1.541-4.556-4.02-.375-1.568-.549-3.028.442-4.381C660.707,526.725,662.342,523.6,666.254,524.381Z" transform="translate(-334.602 -416.217)" fill="#fff"/><path d="M666.728,715.023c-5.467,0-9.915-5.373-8.227-9.647.992-2.505,3.564-3.1,5.654-4.207.63-.335,1.393.2,1.742.871a2.317,2.317,0,0,1-.188,2.572,5.232,5.232,0,0,1-2.2,1.568c-1.487.683-1.527,1.5-.549,2.747a4.789,4.789,0,0,0,6.485,1.259c3.042-1.715,4.381-4.515,3.524-7.235a9.225,9.225,0,0,0-4.381-5.118c-6.967-4.14-8.95-1.635-15.06,2.184-2.666,1.661-4.7,4.073-6.833,6.351a29.177,29.177,0,0,0-3.979,6.137c-.71,1.286-1.34,2.238-2.841,1.635-1.621-.656-1.594-2.2-.978-3.39a36.823,36.823,0,0,1,3.725-6.043c3.631-4.663,8.414-7.892,13.278-11.188,7.811-5.306,19.723,1.527,21.277,9a10.071,10.071,0,0,1-3.564,9.875C671.605,713.991,669.341,715.625,666.728,715.023Z" transform="translate(-334.633 -359.331)" fill="#fff"/><path d="M692.906,686.245a11.822,11.822,0,0,1-5.226,8.615,9.84,9.84,0,0,1-11.2-.308c-4.033-2.653-7.061-6.271-7.825-11.349a9.942,9.942,0,0,1,.456-4.542,44.454,44.454,0,0,1,5.333-11.9,41.212,41.212,0,0,1,8.87-9.379,3.78,3.78,0,0,1,1.5-.71,2.012,2.012,0,0,1,2.439,1.166,1.936,1.936,0,0,1-.817,2.546c-7.008,4.931-11.041,11.9-13.546,19.884a6.467,6.467,0,0,0,1,5.4c1.916,3.162,4.127,5.989,8.187,6.445a5.568,5.568,0,0,0,5.319-2.693c1.326-1.876,1.916-4.167.777-6.311a5.177,5.177,0,0,0-3.31-2.345c-.683-.174-1,.2-1.219.791a15.864,15.864,0,0,1-.992,2.519c-.63,1.139-1.634,1.809-2.961,1.219-1.393-.616-1.42-1.728-.858-2.988.456-1,.831-2.063,1.286-3.082a4.751,4.751,0,0,1,5.748-2.465C690.775,678.42,692.919,681.167,692.906,686.245Z" transform="translate(-324.42 -371.232)" fill="#fff"/><path d="M528.218,531.718a12.9,12.9,0,0,1-2.733,8.361,48.208,48.208,0,0,1-8.428,8.655,32.414,32.414,0,0,1-7.343,4.288,26.314,26.314,0,0,0-3.082,1.219,4.971,4.971,0,0,1-3.042.549,1.925,1.925,0,0,1-1.889-1.9,1.794,1.794,0,0,1,1.474-2.01,32.582,32.582,0,0,0,15.194-8.95c2.8-2.867,6.338-5.695,5.52-10.464-.576-3.39-1.769-6.632-4.837-8.656a5.493,5.493,0,0,0-6.485.255c-1.969,1.367-3.4,3.256-3.082,5.761a5.712,5.712,0,0,0,2.171,3.269c.71.6,1.219.321,1.728-.348a12.074,12.074,0,0,1,1.983-2.144,2.032,2.032,0,0,1,3.015.255c.884,1.032.63,2.063-.362,2.948a11.392,11.392,0,0,0-1.326,1.34c-2.707,3.3-5.4,3.376-8.495.456-5.735-5.4-2.144-12.447,2.706-15.341,6.833-4.087,13.787.925,15.636,6.753C527.186,528.087,528.593,530.017,528.218,531.718Z" transform="translate(-381.133 -418.423)" fill="#fff"/><path d="M692.9,558.448A9.189,9.189,0,0,1,684.986,567a4.609,4.609,0,0,1-4.529-2.09,21.083,21.083,0,0,1-1.876-4.408,1.763,1.763,0,0,1,.965-2.291,2.079,2.079,0,0,1,2.774.737,6.214,6.214,0,0,1,.992,2.278c.5,2,1.635,1.675,2.921.9a4.5,4.5,0,0,0,2.184-5.654c-1.125-3.457-3.363-5.279-6.217-5.1a8.1,8.1,0,0,0-5.654,2.854,15.6,15.6,0,0,0-3.43,5.159,6.129,6.129,0,0,0-.188,3.912,40.313,40.313,0,0,0,8.937,16,26.588,26.588,0,0,0,4.288,3.644c1.179.831,1.715,1.728.951,2.974a2.029,2.029,0,0,1-3.122.576A37.908,37.908,0,0,1,668.734,562.7c-.657-3.309.63-6.257,2.707-8.883,2.2-2.773,4.569-5.078,8.146-6.217a10.171,10.171,0,0,1,12.1,5.828A11.629,11.629,0,0,1,692.9,558.448Z" transform="translate(-324.42 -408.427)" fill="#fff"/><path d="M486.566,579.969c-4.194-.469-8.28-1.219-11.456-4.609a10.031,10.031,0,0,1-.5-12.983c1.434-1.742,2.774-3.35,5.172-3.966a9.846,9.846,0,0,1,9.875,2.974,5.15,5.15,0,0,1,.08,5.681c-.724.951-1.447,1.889-2.144,2.854a1.881,1.881,0,0,1-2.733.67,2.1,2.1,0,0,1-.858-2.747,8.814,8.814,0,0,1,1.755-2.331c.75-.9.6-1.568-.322-2.264-3.738-2.814-7.061-.281-8.334,3.122-1.9,5.1,2.13,8.093,6.15,8.91a12.035,12.035,0,0,0,5.373.268,8.322,8.322,0,0,0,4.154-2.184,34.807,34.807,0,0,0,7.008-9.848,27.894,27.894,0,0,0,3.1-11.067c.04-1.313.563-2.224,1.916-2.278a1.99,1.99,0,0,1,2.171,2.278,28.314,28.314,0,0,1-1.568,8.16,41.009,41.009,0,0,1-9.352,15.341C493.172,579.045,490.653,579.782,486.566,579.969Z" transform="translate(-391.067 -407.412)" fill="#fff"/><path d="M490.543,676.737c.228,2.01-1.139,3.175-2.586,4.355-4.435,3.6-9.513,2.077-12.541-1.461-2.948-3.457-3.953-7.329-2.05-11.416,1.929-4.14,5.708-6.083,10.17-6.806,3.35-.536,6.646-.67,9.634,1.192,3.35,2.09,5.48,5.373,7.758,8.455a35.672,35.672,0,0,1,4.113,8.093,40.794,40.794,0,0,1,1.983,8.709c.228,1.407-.187,2.827-1.916,2.921-1.7.094-1.916-1.072-2.184-2.613a41.37,41.37,0,0,0-2.331-8.575,40.6,40.6,0,0,0-7.463-11.643c-2.2-2.506-4.958-2.988-8.146-2.506-2.479.375-4.73.965-6.579,2.774a5.632,5.632,0,0,0-1.259,6.539,6.11,6.11,0,0,0,5.038,4.194,4.912,4.912,0,0,0,3.859-1.782c.683-.71.04-1.3-.362-1.836a9.558,9.558,0,0,1-1.621-2.171,2.077,2.077,0,0,1,.8-2.76,1.779,1.779,0,0,1,2.72.63C488.6,672.891,490.892,674.057,490.543,676.737Z" transform="translate(-391.091 -369.723)" fill="#fff"/><path d="M473.314,512.4c-4.944-.523-10.478-1.059-16-1.688-1.5-.174-1.862.04-1.353,1.635,1.5,4.663,3.015,9.379,4.046,14.122a100.987,100.987,0,0,0,5.145,16.413,3.421,3.421,0,0,1-.2,3.229,1.914,1.914,0,0,1-1.97.911,1.9,1.9,0,0,1-1.675-1.42c-.911-4.288-3.135-8.16-4.046-12.42-1.594-7.5-4.207-14.739-5.949-22.2-.724-3.082.415-4.73,3.524-4.5,5.333.4,10.665.764,15.958,1.554,2.68.4,5.44.147,8.16.482,4.06.509,8.026,1.541,12.139,1.8a1.78,1.78,0,0,1,1.621,2.1,2.106,2.106,0,0,1-2.264,2c-2.465.134-4.8-.71-7.2-1.045C480.147,512.92,477.092,512.022,473.314,512.4Z" transform="translate(-398.328 -422.269)" fill="#fff"/><path d="M472.689,735.569c-4.154.456-9.741,1.086-15.342,1.661a18.747,18.747,0,0,1-3.778.027c-1.836-.188-2.908-2.077-2.385-4.14.616-2.479,1.38-4.917,2.023-7.383,1.313-5.011,2.921-9.928,4.046-14.993a84.909,84.909,0,0,1,3.484-10.21,11.479,11.479,0,0,0,.509-2,1.933,1.933,0,0,1,2.211-1.782c1.206.107,1.769.911,1.956,2.1.322,1.969-.911,3.484-1.541,5.132-3.457,9.071-4.917,18.691-8.039,27.842-.375,1.085.147,1.407,1.139,1.273,7.517-.992,15.087-1.42,22.63-2.13,2.881-.268,5.708-1.059,8.575-1.541a8.825,8.825,0,0,1,2.72-.04,2.017,2.017,0,0,1,1.849,1.956,1.812,1.812,0,0,1-1.635,2.1C485.4,733.787,479.9,735.6,472.689,735.569Z" transform="translate(-398.345 -357.595)" fill="#fff"/><path d="M444.709,599.261a2.157,2.157,0,0,1,1.836,1.192,2.241,2.241,0,0,1-.389,2.358c-1,1.581-2.84,1.97-4.3,2.84a133.648,133.648,0,0,0-11.6,7.771c-3.939,2.908-8.093,5.628-12.273,8.24-1.152.723-1.407.992-.08,1.929,5.386,3.805,11.094,7.155,16.239,11.322a54.129,54.129,0,0,0,9.848,5.828,6.419,6.419,0,0,1,1.822,1.38c.9.951,1.42,2.023.415,3.149-1.072,1.206-2.077.737-3.283-.094-2.171-1.487-4.489-2.773-6.78-4.073-2.934-1.661-5.44-3.886-8.2-5.761-3.149-2.144-6.3-4.341-9.526-6.378a62.185,62.185,0,0,1-5.44-3.845,3.043,3.043,0,0,1,.094-5.025c4.5-3.242,9-6.512,13.8-9.352a21.8,21.8,0,0,0,3.149-2.412c3.551-3.109,7.852-5.038,11.831-7.45C442.793,600.333,443.4,599.168,444.709,599.261Z" transform="translate(-411.715 -390.728)" fill="#fff"/><path d="M752.66,682.573a3.215,3.215,0,0,1-2.613,2.854c-5.292,1.38-10.585,2.8-15.9,4.047a40.1,40.1,0,0,0-3.953,1.3c-5.078,1.742-10.491,1.983-15.636,3.417a1.758,1.758,0,0,1-2.144-.938,1.953,1.953,0,0,1,.4-2.492A4.086,4.086,0,0,1,715,689.607a117.151,117.151,0,0,0,17.19-3.886,120.1,120.1,0,0,1,13.693-3.363c1.514-.268,1.983-.67.9-2.2-3.913-5.493-8.133-10.759-11.657-16.547-1.8-2.948-4.355-5.453-6.673-8.066a6.387,6.387,0,0,1-1.675-3.055,1.943,1.943,0,0,1,1.179-2.224,1.772,1.772,0,0,1,2.412.643c2.974,4.636,7.074,8.388,10.036,13.091,3.443,5.467,7.4,10.6,11.134,15.864A5.755,5.755,0,0,1,752.66,682.573Z" transform="translate(-309.61 -373.468)" fill="#fff"/><path d="M714.183,550.467c3.135.589,6.3,1.045,9.392,1.809,6.512,1.608,13,3.363,19.482,5.065,2.345.616,4.716,1.126,7.008,1.876,2.653.871,3.363,2.773,1.782,5.051a144.242,144.242,0,0,1-9.62,13.144,16.354,16.354,0,0,0-1.661,2.881c-2.492,4.247-5.869,7.8-8.964,11.576a6.08,6.08,0,0,0-.938,1.353,1.872,1.872,0,0,1-2.733,1.125c-1.192-.576-1.393-1.608-1-2.841.67-2.1,2.438-3.363,3.752-4.958a74.687,74.687,0,0,0,7.209-9.982,102.109,102.109,0,0,1,6.257-8.615c.951-1.286,1.862-2.626,2.841-3.886.683-.871.817-1.326-.536-1.608-4.609-.938-9.084-2.465-13.734-3.323-2.961-.536-5.681-2.171-8.75-2.6-2.948-.415-5.869-1.005-8.816-1.5a4.466,4.466,0,0,1-2.519-1.367,1.9,1.9,0,0,1-.308-2.157A1.623,1.623,0,0,1,714.183,550.467Z" transform="translate(-309.615 -407.32)" fill="#fff"/><path d="M675.471,754.631c.884-4.542.884-11.175.75-17.807a4.575,4.575,0,0,1,.737-2.358,1.924,1.924,0,0,1,2.372-.858,1.807,1.807,0,0,1,1.407,2.077c-.67,3.484-.214,6.981-.295,10.464-.054,2.6-.59,5.118-.831,7.664-.469,4.971-.683,9.969-1.018,14.94a28.049,28.049,0,0,1-.362,3.524c-.469,2.345-2.318,3.51-4.515,2.505a154.463,154.463,0,0,1-14.739-7.208,18.785,18.785,0,0,0-3.1-1.166c-4.529-1.688-8.535-4.341-12.715-6.659a24.271,24.271,0,0,0-2.238-1.058,1.841,1.841,0,0,1-1.179-2.385A2.006,2.006,0,0,1,642,754.792a7.661,7.661,0,0,1,2.72.938,77.091,77.091,0,0,0,14,7.276c3.631,1.313,6.981,3.363,10.464,5.091,1.246.616,2.532,1.152,3.738,1.822s1.541.094,1.528-.965C674.439,764.828,675.2,760.768,675.471,754.631Z" transform="translate(-334.252 -345.104)" fill="#fff"/><path d="M676.236,501.144c-.107-8.079-1.3-16.078-1.715-24.131-.013-.348-.04-.7-.054-1.045-.053-2.613.013-2.465-2.358-1.447-5.668,2.439-10.96,5.641-16.762,7.8-3.778,1.407-7.128,3.752-10.572,5.829a11.162,11.162,0,0,1-1.675.777c-1.514.576-2.76.308-3.283-1.179-.576-1.621.6-2.157,1.983-2.774a66.579,66.579,0,0,0,6.512-3.7c2.988-1.782,6.324-2.867,9.419-4.355,3.3-1.594,6.632-3.149,9.875-4.877a55.672,55.672,0,0,1,6-2.827c2.506-.991,4.435.268,4.69,3.028.388,4.1.683,8.2.978,12.313.523,7.343,1.621,14.645,1.166,22.027a2.411,2.411,0,0,0,.121,1.032,1.868,1.868,0,0,1-1.34,2.76c-1.38.375-2.211-.375-2.626-1.728C675.807,506.169,676.531,503.637,676.236,501.144Z" transform="translate(-334.24 -435.039)" fill="#fff"/><path d="M583.5,479.68a4.882,4.882,0,0,1-3.042-1.97,61.758,61.758,0,0,0-7.8-9c-4.864-4.3-9.084-9.218-13.667-13.774-.991-.978-1.38-1.018-1.983.308-2.814,6.1-5.239,12.354-8.441,18.276a52.749,52.749,0,0,0-3.832,10.263,5.667,5.667,0,0,1-1.715,2.827,1.93,1.93,0,0,1-2.506.228,1.825,1.825,0,0,1-.75-2.4c2.385-4.85,3.645-10.13,6.137-14.966,3-5.828,5.493-11.938,8.321-17.86,1.594-3.336,3.591-3.685,6.177-1.072,3.779,3.805,7.557,7.61,11.175,11.563,2.438,2.666,5.427,4.783,7.745,7.637a57.387,57.387,0,0,0,5.8,6.579,1.891,1.891,0,0,1,.321,2.331A1.755,1.755,0,0,1,583.5,479.68Z" transform="translate(-368.258 -441.86)" fill="#fff"/><path d="M557.4,794.217a3.041,3.041,0,0,1-2.908-2.117c-2.3-4.958-4.569-9.942-6.673-14.98a21.036,21.036,0,0,0-1.514-2.707c-2.532-4.288-3.738-9.1-5.641-13.64a11.226,11.226,0,0,0-.643-1.5,1.994,1.994,0,0,1,.509-2.948c1.179-.8,2.117-.2,2.961.643,1.152,1.152,1.206,2.76,1.742,4.18a135.278,135.278,0,0,0,5.936,13.479c2.13,4.221,4.047,8.642,5.788,13.077.657,1.675,1.112,1.407,2.2.348,4.368-4.288,8.28-9,12.93-13.023,3.229-2.787,5.735-6.271,8.4-9.58a6.291,6.291,0,0,1,1.5-1.42c1.058-.67,2.278-1.058,3.189.134.925,1.219.375,2.171-.683,3.229-1.97,1.969-3.6,4.261-5.534,6.271-6.137,6.364-12.354,12.662-18.557,18.959A3.872,3.872,0,0,1,557.4,794.217Z" transform="translate(-368.253 -337.473)" fill="#fff"/><path d="M662.67,485.228a9.1,9.1,0,0,0-3.618,1.675c-2.733,2.331-6.284,2.8-9.339,4.395a1.794,1.794,0,0,1-2.492-.858,1.841,1.841,0,0,1,.576-2.586,12.848,12.848,0,0,1,4.69-2.13c2.921-.978,5.212-3.122,8.039-4.328,4.073-1.728,6.311-.4,6.525,3.953a128.393,128.393,0,0,0,.791,13.024c.214,1.434-.134,2.814-1.916,2.854-1.742.027-2.05-1.367-2.211-2.76-.295-2.546-.965-5.118-.75-7.624A24.68,24.68,0,0,0,662.67,485.228Z" transform="translate(-331.782 -431.035)" fill="#fff"/><path d="M667.835,740.884c.322,1.112-.268,2.224-.456,3.376-.482,2.961-.027,5.936-.281,8.91-.375,4.488-2.506,5.855-6.659,4.02-2.559-1.126-4.743-2.854-7.262-4.046-1.5-.71-3.229-.737-4.609-1.836-1.058-.831-2.157-1.527-1.393-3.015.8-1.554,2.037-1.166,3.417-.63a51.794,51.794,0,0,1,10.371,5.105c1.514,1.018,1.809.442,2.063-1.152.4-2.412-.482-4.783.12-7.222a15.128,15.128,0,0,0,.59-3.685c-.013-1.608.161-3.363,2.278-3.269C668.09,737.521,667.876,739.3,667.835,740.884Z" transform="translate(-331.775 -343.764)" fill="#fff"/><path d="M557.984,467.1c-1.9,2.2-1.648,5.266-3.176,7.624-1.045,1.621-1.836,3.43-2.72,5.145a1.936,1.936,0,0,1-2.573,1.179c-1.26-.482-1.487-1.487-1.233-2.747.375-1.769,1.594-3.055,2.4-4.582,1.353-2.586,1.862-5.48,3.135-8.093,1.956-3.979,4.489-4.435,7.57-1.313,2.827,2.867,4.944,6.418,8.388,8.682a3.987,3.987,0,0,1,.8.951c.844,1.085,1.353,2.3.121,3.336s-2.278.335-3.269-.683a24.73,24.73,0,0,0-3.43-3.055C561.575,471.8,560.57,468.717,557.984,467.1Z" transform="translate(-365.33 -437.289)" fill="#fff"/><path d="M557.924,771.166c2.666-1.715,3.671-4.716,6.083-6.472a45.466,45.466,0,0,0,3.872-3.5,2.014,2.014,0,0,1,2.841-.281c.965.777.831,1.769.281,2.827-.965,1.822-2.908,2.586-4.194,4.06-1.782,2.05-3.564,4.086-5.4,6.083-3,3.242-5.628,2.76-7.53-1.246-1.742-3.671-2.425-7.811-4.958-11.134a5.991,5.991,0,0,1-.5-1.353c-.523-1.313-.268-2.4,1.072-2.948,1.407-.576,2.171.348,2.8,1.487a69.074,69.074,0,0,1,5.038,11.335A10.32,10.32,0,0,0,557.924,771.166Z" transform="translate(-365.337 -337.105)" fill="#fff"/><path d="M465.773,519.2a26.962,26.962,0,0,0,1.876,5.6,16.968,16.968,0,0,1,1.3,5,16.516,16.516,0,0,0,.6,3.042,1.868,1.868,0,0,1-1.233,2.666c-1.273.415-2.05-.281-2.653-1.42-1-1.916-.683-4.1-1.393-6.056-.925-2.532-1.9-5.065-2.64-7.651-1.045-3.658,1.34-6.016,5.091-5.319a90.334,90.334,0,0,0,9.259,1.42c1.326.107,2.666-.335,4.087.054s2.452.965,2.157,2.519a2.037,2.037,0,0,1-2.908,1.581c-1.286-.482-2.506.134-3.725-.147-1.621-.389-3.3.12-4.958-.536A20.32,20.32,0,0,0,465.773,519.2Z" transform="translate(-394.833 -419.385)" fill="#fff"/><path d="M725.127,674.065a18.545,18.545,0,0,0,4.006-.858c1.032-.255.576-.8.255-1.367-1.286-2.251-3.591-3.658-4.783-6-.817-1.594-1.916-3.055-2.854-4.6a1.931,1.931,0,0,1,.415-2.8c.992-.723,1.956-.4,2.827.429,1.246,1.179,1.769,2.814,2.747,4.14,1.715,2.345,3.591,4.569,5.386,6.86a6.1,6.1,0,0,1,1.434,2.988c.268,2.171-.938,3.658-3.644,4.288-2.814.643-5.668,1.139-8.508,1.728-1.755.362-3.3,1.46-5.118,1.608-1.259.094-2.264-.295-2.573-1.608a1.867,1.867,0,0,1,1.487-2.4c2.519-.536,4.837-1.648,7.289-2.358A2.117,2.117,0,0,1,725.127,674.065Z" transform="translate(-308.755 -370.749)" fill="#fff"/><path d="M465.914,719.572a98.168,98.168,0,0,1,13.8-1.648,2.121,2.121,0,0,1,2.519,1.715c.255,1.34-.59,2.023-1.782,2.439-1.621.563-3.283.04-4.9.241-3.1.375-6.177.965-9.272,1.407-3.6.509-5.668-2-4.582-5.627.844-2.841,1.809-5.654,2.787-8.468.549-1.568.241-3.283,1.085-4.85.656-1.219,1.34-2.05,2.72-1.621,1.527.482,1.568,1.675,1.179,3.055a30.043,30.043,0,0,0-1.032,4.85C468.111,714,465.914,716.316,465.914,719.572Z" transform="translate(-394.827 -355.453)" fill="#fff"/><path d="M425.28,619.607c.027-1.688,1.179-2.733,2.479-3.564,2.452-1.568,4.984-3.015,7.45-4.556,1.474-.924,2.452-2.465,4.14-3.162,1.273-.523,2.385-.657,3.082.63.67,1.246.027,2.13-1.059,3a58.071,58.071,0,0,1-10,6.686c-1.38.683-1.3,1.46.013,2.13a57.342,57.342,0,0,1,9.835,6.552c1.112.9,1.956,1.769,1.193,3.135-.777,1.407-2,1.085-3.283.523-1.594-.71-2.519-2.211-3.939-3.082-2.479-1.528-5.011-2.974-7.45-4.556C426.446,622.5,425.293,621.443,425.28,619.607Z" transform="translate(-407.104 -387.773)" fill="#fff"/><path d="M730.195,566.332a19.372,19.372,0,0,0-5.507-1.206,18.646,18.646,0,0,1-4.957-1.326,22.95,22.95,0,0,0-3.363-1.1,1.9,1.9,0,0,1-1.648-2.479,2.087,2.087,0,0,1,2.6-1.554c1.728.228,3.256,1.152,4.917,1.554,2.814.67,5.681,1.1,8.495,1.742,4.006.911,5.038,3.644,2.613,6.967-1.755,2.4-3.671,4.689-5.52,7.021-.951,1.193-1.3,2.733-2.439,3.859-1,1-1.983,1.8-3.229.831-1.38-1.059-.656-2.265.04-3.511A71.45,71.45,0,0,1,730.195,566.332Z" transform="translate(-308.757 -404.534)" fill="#fff"/><path d="M490.949,552.954a1.955,1.955,0,0,1-1.9,2.037c-1.742.067-2.251-1.326-2.345-2.666a1.962,1.962,0,0,1,2.05-2.184C490.386,550.1,490.8,551.306,490.949,552.954Z" transform="translate(-386.231 -407.421)" fill="#fff"/><path d="M573.319,501.38a2.608,2.608,0,0,1,2.452,2.586,1.733,1.733,0,0,1-1.929,1.983,2.616,2.616,0,0,1-2.68-2.439C571.055,502.2,571.926,501.487,573.319,501.38Z" transform="translate(-357.526 -423.993)" fill="#fff"/><path d="M650.742,524.108c-.027,1.621-.523,2.68-2.023,2.666-1.554-.013-2.117-1.125-2.2-2.532a1.952,1.952,0,0,1,1.916-2.291A2.161,2.161,0,0,1,650.742,524.108Z" transform="translate(-331.912 -417.003)" fill="#fff"/><path d="M490.961,681.815c-.174,1.3-.389,2.613-2.05,2.706a1.952,1.952,0,0,1-2.211-2.01c-.013-1.353.469-2.76,2.171-2.841C490.224,679.591,490.8,680.582,490.961,681.815Z" transform="translate(-386.229 -363.399)" fill="#fff"/><path d="M573.374,733.222c-1.5-.161-2.345-.9-2.211-2.2a2.62,2.62,0,0,1,2.733-2.385,1.746,1.746,0,0,1,1.876,2.037A2.657,2.657,0,0,1,573.374,733.222Z" transform="translate(-357.527 -346.754)" fill="#fff"/><path d="M646.531,709.92a2.093,2.093,0,0,1,2.117-2.05c1.487-.054,2.063.951,2.063,2.331,0,1.5-.777,2.492-2.224,2.492C647.255,712.694,646.451,711.85,646.531,709.92Z" transform="translate(-331.909 -353.813)" fill="#fff"/><path d="M629.916,515.741c-1.34-.027-2.224-.724-2.1-2.037.147-1.568,1.367-2.224,2.814-2.224a1.844,1.844,0,0,1,1.97,2C632.583,515.151,631.377,515.647,629.916,515.741Z" transform="translate(-338.273 -420.561)" fill="#fff"/><path d="M629.767,718.781c1.7.08,2.867.643,2.841,2.318a1.858,1.858,0,0,1-2.037,1.929c-1.447-.04-2.666-.724-2.76-2.291A1.743,1.743,0,0,1,629.767,718.781Z" transform="translate(-338.271 -350.106)" fill="#fff"/><path d="M502.515,700.435a2.007,2.007,0,0,1-2.3-2.13,2.085,2.085,0,0,1,2.425-2.063c1.286.054,2.4.616,2.425,2.077C505.074,699.939,503.949,700.421,502.515,700.435Z" transform="translate(-381.638 -357.767)" fill="#fff"/><path d="M685.32,668.323c-1.032-.161-1.97-.63-2.01-1.916-.054-1.7,1.219-2.331,2.573-2.492a1.9,1.9,0,0,1,2.2,2.01C688.12,667.6,686.834,668.1,685.32,668.323Z" transform="translate(-319.407 -368.759)" fill="#fff"/><path d="M688.134,568.619c-.214,1.259-.938,2.157-2.251,2-1.367-.161-2.626-.817-2.573-2.505a1.833,1.833,0,0,1,2.117-1.849C686.848,566.341,688.013,566.944,688.134,568.619Z" transform="translate(-319.407 -401.943)" fill="#fff"/><path d="M554.651,727.33c-.08,1.608-.9,2.318-2.171,2.224-1.634-.121-2.2-1.38-2.211-2.8a1.761,1.761,0,0,1,2.01-1.9A2.634,2.634,0,0,1,554.651,727.33Z" transform="translate(-364.624 -348.044)" fill="#fff"/><path d="M550.24,507.757c.228-1.541.817-2.733,2.452-2.707a1.807,1.807,0,0,1,1.916,2.2c-.174,1.46-.938,2.519-2.532,2.492A1.8,1.8,0,0,1,550.24,507.757Z" transform="translate(-364.634 -422.746)" fill="#fff"/><path d="M502.772,538.3c-1.554-.121-2.573-.791-2.573-2.157a2.029,2.029,0,0,1,2.345-2.09c1.353.027,2.412.482,2.505,1.943C505.144,537.627,503.9,538.03,502.772,538.3Z" transform="translate(-381.641 -412.89)" fill="#fff"/><path d="M471.527,628.066c-.08,1.42-.764,2.2-1.983,2.13a2.562,2.562,0,0,1-2.693-2.412,1.881,1.881,0,0,1,2.077-2.1A2.742,2.742,0,0,1,471.527,628.066Z" transform="translate(-392.977 -381.748)" fill="#fff"/><path d="M469.329,604.36c1.38.04,2.184.643,2.157,1.9a2.57,2.57,0,0,1-2.479,2.64,1.885,1.885,0,0,1-2.157-2.037C466.877,605.284,468.069,604.668,469.329,604.36Z" transform="translate(-392.976 -388.993)" fill="#fff"/><path d="M690.78,588.682c.161-1.326.71-2.466,2.358-2.492a1.792,1.792,0,0,1,1.97,2.13,2.432,2.432,0,0,1-2.492,2.532C691.356,590.866,690.807,590.022,690.78,588.682Z" transform="translate(-316.868 -395.169)" fill="#fff"/><path d="M695.142,646.189c-.067,1.434-.7,2.291-2.037,2.238-1.608-.067-2.264-1.179-2.3-2.653a1.734,1.734,0,0,1,1.849-2.023C694.257,643.777,694.874,644.9,695.142,646.189Z" transform="translate(-316.862 -375.606)" fill="#fff"/><path d="M576.735,594.847a2,2,0,0,1-1.876-1.125c-3.242-5.386-6.1-10.974-9.084-16.507-1.233-2.3-1.809-4.931-3.7-6.927-.844-.9-.161-2.023.75-2.693a2.135,2.135,0,0,1,3.162.389,53.4,53.4,0,0,1,8.495,14.846,56.121,56.121,0,0,0,3.417,6.914,10.8,10.8,0,0,1,.9,2.747A2.056,2.056,0,0,1,576.735,594.847Z" transform="translate(-360.741 -401.668)" fill="#fff"/><path d="M578.8,647.406c-.281,3.068-1.97,4.877-2.908,7.034a141.949,141.949,0,0,1-6.19,13.171c-1.085,1.929-2.934,3.256-4.1,5.172-.656,1.072-2.05.777-2.974-.04a1.962,1.962,0,0,1-.482-2.8c2.827-4.06,4.8-8.589,6.9-13,1.42-2.974,3.39-5.534,5.025-8.321a10.054,10.054,0,0,0,.737-1.7,1.874,1.874,0,0,1,2.358-1.246A1.994,1.994,0,0,1,578.8,647.406Z" transform="translate(-360.724 -374.974)" fill="#fff"/><path d="M578.66,590.765c1.112-6.726.831-13.613,2.157-20.3.375-1.863,1.42-3.564,1.849-5.493a1.925,1.925,0,0,1,2.573-1.233c1.152.362,2.291,1.313,1.7,2.452-1.179,2.264-.536,4.663-.992,6.967-.724,3.671-.911,7.463-1.407,11.188-.388,2.934-1.675,5.681-1.822,8.709-.067,1.447-2.358,1.728-3.35.482A3.541,3.541,0,0,1,578.66,590.765Z" transform="translate(-354.988 -402.838)" fill="#fff"/><path d="M579.521,658.745a38.963,38.963,0,0,0-.737-7.061,5.152,5.152,0,0,1,.335-3.658,1.921,1.921,0,0,1,2.291-1.045,2.071,2.071,0,0,1,1.474,1.809c1.42,6.646,2.184,13.4,3.189,20.1.322,2.1-.121,4.247.858,6.351.522,1.139-.737,2.037-1.916,2.278a2.113,2.113,0,0,1-2.492-1.474A57.151,57.151,0,0,1,579.521,658.745Z" transform="translate(-354.992 -374.536)" fill="#fff"/><path d="M556.639,618.933c1.594-.094,2.773.348,2.907,1.916.121,1.541-.911,2.037-2.358,2.345a13.2,13.2,0,0,0-4.207,1.635c-3.068,1.876-6.753,2.01-10.022,3.35-3.189,1.313-6.686,1.675-9.808,3.256-1.259.643-2.3.027-2.921-1.233a2,2,0,0,1,.925-2.854,52.4,52.4,0,0,1,16.454-5.922c2.439-.482,4.8-1.353,7.182-2.077C555.459,619.12,556.076,618.745,556.639,618.933Z" transform="translate(-371.528 -384.057)" fill="#fff"/><path d="M556.724,617.733c-1.152.147-2.117-.509-3.162-.844-5.453-1.782-11.175-2.6-16.588-4.569-2.171-.791-3.832-2.412-6.016-3.189-1.112-.388-1.313-1.729-.6-2.894a2.121,2.121,0,0,1,2.867-.992,114.785,114.785,0,0,0,15.181,4.824c2.733.71,4.971,2.425,7.664,3.082a7.365,7.365,0,0,0,1.166.375c1.5.107,2.452.817,2.291,2.358C559.363,617.452,558.158,617.814,556.724,617.733Z" transform="translate(-371.533 -388.767)" fill="#fff"/><path d="M598.381,568.97c-.174-1.5.429-2.452,2-2.519,1.648-.067,2.412.764,2.425,2.425a49.34,49.34,0,0,1-3.176,17.137,61.623,61.623,0,0,0-1.849,7.677,4.7,4.7,0,0,1-1.072,2.2,1.915,1.915,0,0,1-2.425.63,2.08,2.08,0,0,1-1.139-2.452c.978-6,2.224-11.938,3.591-17.861C597.269,573.807,598.22,571.462,598.381,568.97Z" transform="translate(-350.069 -401.879)" fill="#fff"/><path d="M634.05,591.136c-.04.107-.04.7-.308.871-1.983,1.273-2.854,3.537-4.623,5.025-4.984,4.167-10.853,7.088-15.744,11.375a3.509,3.509,0,0,1-2.358.71,1.951,1.951,0,0,1-1.956-1.286,1.847,1.847,0,0,1,.616-2.251c5.681-4.81,11.442-9.486,17.485-13.828,1.112-.8,2.412-1.326,3.162-2.653.509-.9,1.595-.817,2.479-.442C633.728,589.019,634.144,589.823,634.05,591.136Z" transform="translate(-344.697 -394.421)" fill="#fff"/><path d="M598.414,671.449c-.375-2-1.3-4.314-1.755-6.767-.67-3.671-1.862-7.249-2.465-10.933a64.9,64.9,0,0,0-1.059-7.155,1.738,1.738,0,0,1,1.166-2.023,1.8,1.8,0,0,1,2.13.362,4.367,4.367,0,0,1,1.353,2.506c.951,5.4,2.814,10.558,4.247,15.824.857,3.162.388,6.3.723,9.419.147,1.447-1.005,2.077-2.385,1.97C598.7,674.53,598.106,673.512,598.414,671.449Z" transform="translate(-350.075 -375.395)" fill="#fff"/><path d="M610.871,629.582a4.058,4.058,0,0,1,2.787.925c4.154,3.644,8.977,6.365,13.479,9.513,2.639,1.849,4.167,4.609,6.552,6.632a2.018,2.018,0,0,1-.321,3,1.939,1.939,0,0,1-2.854.121,52.986,52.986,0,0,0-9.165-7.168c-4.181-2.827-7.477-6.646-11.617-9.473a1.8,1.8,0,0,1-.7-2.224A1.775,1.775,0,0,1,610.871,629.582Z" transform="translate(-344.698 -380.424)" fill="#fff"/><path d="M566.6,640.354c-.147,1.42-1.434,2.171-1.929,3.417-1.929,4.89-5.44,8.856-7.945,13.4-1.34,2.425-3.524,4.288-4.368,7.061-.348,1.166-1.635,1.447-2.84.777a2.2,2.2,0,0,1-1.152-2.988,50.326,50.326,0,0,1,8.991-15.087,38.661,38.661,0,0,0,3.752-5.761,8.854,8.854,0,0,1,2.05-2.345,2.06,2.06,0,0,1,2.358-.174A2.084,2.084,0,0,1,566.6,640.354Z" transform="translate(-365.342 -377.435)" fill="#fff"/><path d="M564.985,601.859A3.293,3.293,0,0,1,561.743,600c-3.216-5.547-7.57-10.317-10.853-15.81-1.193-1.983-1.326-4.341-2.573-6.337-.7-1.112.322-2.278,1.568-2.747a1.959,1.959,0,0,1,2.626,1.085,96.915,96.915,0,0,0,8,12.662c1.822,2.586,2.841,5.534,4.435,8.2.4.67.991,1.152,1.34,1.849A1.949,1.949,0,0,1,564.985,601.859Z" transform="translate(-365.364 -398.994)" fill="#fff"/><path d="M638.887,627.714c-3.671,1.246-7.41.348-11.134.362-2.251,0-4.395-.563-6.606-.764-2.09-.188-4.18-.322-6.271-.322a4.251,4.251,0,0,1-2.506-.857,1.9,1.9,0,0,1-.7-2.412,1.719,1.719,0,0,1,1.943-1.273c2.452.791,4.85-.228,7.235-.054,5.494.415,11.014.121,16.494.871a5.122,5.122,0,0,0,1.862-.013c1.943-.415,3.082.295,3.189,1.889.107,1.541-1.018,2.532-2.881,2.559A4.877,4.877,0,0,1,638.887,627.714Z" transform="translate(-343.813 -382.871)" fill="#fff"/><path d="M538.039,590.29c2.251,1.206,5.239.7,7.892,1.889,5.44,2.452,10.612,5.48,16.253,7.49a4.782,4.782,0,0,1,1.728,1.487,1.883,1.883,0,0,1,.013,2.506,1.863,1.863,0,0,1-2.251.616c-7.088-2.372-13.975-5.239-20.822-8.2a10.824,10.824,0,0,0-3.671-1.367,1.9,1.9,0,0,1-1.782-2.385A2.287,2.287,0,0,1,538.039,590.29Z" transform="translate(-369.691 -393.776)" fill="#fff"/><path d="M627.815,607.021c1.594-.134,3.2-.161,4.783-.429,2.6-.429,5.011.844,7.6.737a2.115,2.115,0,0,1,2.144,2.733c-.228,1.34-1.152,1.836-2.586,1.849-4.73.04-9.486-.013-14.176.482a69.175,69.175,0,0,1-9.138-.147,6.53,6.53,0,0,0-2.264.2,1.891,1.891,0,0,1-2.505-1.286,1.959,1.959,0,0,1,1.112-2.613,4.59,4.59,0,0,1,2.184-.6,58.19,58.19,0,0,0,11.617-1.072,9.483,9.483,0,0,1,1.233-.013C627.815,606.927,627.815,606.967,627.815,607.021Z" transform="translate(-343.809 -388.265)" fill="#fff"/><path d="M538.347,646.7c-1.956.121-2.733-.79-2.948-2.037a2.016,2.016,0,0,1,1.594-2.372,89.176,89.176,0,0,0,13.064-5.306,69.35,69.35,0,0,1,9.593-3.3c.764-.228,1.26-.817,2.023-.978a2.005,2.005,0,0,1,2.251.643,1.883,1.883,0,0,1-.04,2.506,4.873,4.873,0,0,1-1.728,1.474c-6.1,2.171-11.617,5.6-17.619,7.986C542.367,646.178,539.874,645.281,538.347,646.7Z" transform="translate(-369.69 -379.387)" fill="#fff"/><path d="M623.694,578.739a1.743,1.743,0,0,1-.737,1.648,113.306,113.306,0,0,0-12.166,11.067c-2.479,2.479-5.775,3.859-8.093,6.552-1,1.166-2.881.161-3.015-1.447a3.687,3.687,0,0,1,1.621-3.242,68.437,68.437,0,0,0,7.289-7.2,63.576,63.576,0,0,1,6.847-6.445c1.541-1.233,3.457-1.983,5.145-3.082C622.005,575.684,623.707,577,623.694,578.739Z" transform="translate(-347.834 -398.531)" fill="#fff"/><path d="M623.694,660.157a2.307,2.307,0,0,1-3.577,2.13,50.572,50.572,0,0,1-11.684-9.58,59.26,59.26,0,0,0-7.168-7.034,3.9,3.9,0,0,1-1.568-2.626,1.956,1.956,0,0,1,1.125-2.251,2.1,2.1,0,0,1,2.3.469c5.078,3.912,9.593,8.455,14.444,12.635,1.822,1.567,2.961,3.9,5.413,4.81A1.3,1.3,0,0,1,623.694,660.157Z" transform="translate(-347.834 -376.671)" fill="#fff"/><path d="M527.438,555.718c.469-1.728-.5-3.336-.08-5.038.335-1.407.965-2.4,2.492-2.278a2.169,2.169,0,0,1,2.037,2.666,69.372,69.372,0,0,0-.295,11.429,61.633,61.633,0,0,1-.094,7.865c-.281,3.631-3.484,5.788-6.378,6.364-4.958.978-10,1.393-14.94,2.505-.777.174-1.407.563-2.13.75-1.541.4-2.908,0-3.39-1.608s.536-2.613,2.01-2.827c4.515-.643,8.924-1.876,13.506-2.211,1.7-.121,3.35-.79,5.051-1.072,2.023-.335,2.331-1.929,2.331-3.39,0-2.974.375-5.976-.335-8.923C526.862,558.505,528.068,557.139,527.438,555.718Z" transform="translate(-380.166 -408.015)" fill="#fff"/><path d="M516.973,558.978c.013,1.648-2,3.818-3.537,3.818-1.367,0-3.256-1.809-3.216-3.068.04-1.327,2.251-3.644,3.524-3.7A3.437,3.437,0,0,1,516.973,558.978Z" transform="translate(-378.235 -405.42)" fill="#fff"/><path d="M531.9,675.2c-.134,1.728-.415,3.859-.415,5.976a72.113,72.113,0,0,0,.362,8.16c.214,2.01-.255,3.4-1.742,3.711-1.581.322-2.747-.6-2.666-2.841.147-4.127-.281-8.24.134-12.367a28.15,28.15,0,0,0-.268-6.619,2.021,2.021,0,0,0-1.635-1.849,56.313,56.313,0,0,0-8.937-1.728c-3.417-.509-6.82-1.072-10.21-1.755a2.106,2.106,0,0,1-1.863-2.773,2.333,2.333,0,0,1,3.162-1.675c5.252,1.929,10.826,2.171,16.239,3.135,5.373.951,7.905,3.912,7.677,9.165A9.067,9.067,0,0,0,531.9,675.2Z" transform="translate(-380.163 -369.65)" fill="#fff"/><path d="M513.489,672.34c1.527.04,3.537,2.264,3.484,3.886a3.529,3.529,0,0,1-3.082,2.894c-1.353.013-3.671-2.358-3.671-3.765C510.22,674.069,512.136,672.3,513.489,672.34Z" transform="translate(-378.236 -365.889)" fill="#fff"/><path d="M510,620.494c.871,4.221-2.05,6.7-4.314,9.285-2.506,2.867-5.011,5.748-7.423,8.709a8.827,8.827,0,0,0-.978,1.581c-.831,1.527-2.439,2.157-3.658,1.447-1.313-.764-1.514-2.278-.255-3.792,2.64-3.2,5.293-6.4,8.133-9.419,1.3-1.38,2.264-2.988,3.564-4.355a3.064,3.064,0,0,0,.013-4.328c-1.715-2.1-3.5-4.14-5.252-6.2-2.2-2.573-4.448-5.1-6.606-7.7-.978-1.179-1.1-2.492.268-3.47a2.279,2.279,0,0,1,3.457.777c3.015,5.065,7.463,8.937,11.014,13.546A11.35,11.35,0,0,1,510,620.494Z" transform="translate(-384.264 -389.88)" fill="#fff"/><path d="M489.42,617.483c.013-2.345.9-3.323,3.015-3.283,2.05.027,2.881,1.032,2.867,3.444-.013,2.331-.924,3.323-3.028,3.283C490.211,620.9,489.407,619.921,489.42,617.483Z" transform="translate(-385.305 -385.649)" fill="#fff"/><path d="M674.389,632.742a2.045,2.045,0,0,1,2.238,1.38,1.921,1.921,0,0,1-.7,2.412c-1.112.965-2.586,1.38-3.752,2.211-3.752,2.64-8.066,4.288-11.885,6.833-2.492,1.661-2.948,2.639-1.916,5.4,2.01,5.373,3.939,10.759,5.963,16.132.616,1.648.174,2.827-1.447,3.309s-2.64-.6-2.921-2c-1.139-5.668-3.725-10.826-5.668-16.212a7.867,7.867,0,0,1,3.872-10.25c4.261-2.318,8.414-4.837,12.648-7.182C672.058,634.1,672.728,632.381,674.389,632.742Z" transform="translate(-329.472 -379.364)" fill="#fff"/><path d="M664.762,649c.187-2.3,1.7-4.086,3.3-3.9,1.956.228,3.135,1.447,2.988,3.082-.2,2.238-1.608,3.966-3.135,3.832C666.035,651.856,664.628,650.5,664.762,649Z" transform="translate(-325.714 -375.151)" fill="#fff"/><path d="M674.437,610.3a2.292,2.292,0,0,1-1.594-.429c-4.542-3.711-10-5.882-14.953-8.91-3.671-2.251-5.159-5.761-3.6-10.049,1.648-4.556,3.725-8.937,5.051-13.613a18.051,18.051,0,0,0,.469-2.211c.295-1.715,1.728-2.948,3.015-2.533,1.728.563,2.157,1.742,1.5,3.47-1.487,3.872-2.733,7.838-4.381,11.63-.75,1.728-1.166,3.551-1.863,5.279A3.04,3.04,0,0,0,659.5,597c2.358,1.313,4.7,2.68,7.048,4.02,3,1.715,6.016,3.4,8.991,5.159a2.066,2.066,0,0,1,1.139,2.639A2.045,2.045,0,0,1,674.437,610.3Z" transform="translate(-329.479 -399.829)" fill="#fff"/><path d="M664.751,585.854c.067-1.393,1.809-2.76,3.444-2.693,1.474.054,2.934,2.251,2.854,4.288a3.235,3.235,0,0,1-3.377,2.693C666.278,590.047,664.67,587.7,664.751,585.854Z" transform="translate(-325.716 -396.199)" fill="#fff"/><path d="M591.471,528.384a2.321,2.321,0,0,1-.79,2.063c-4.435,3.685-7.409,8.642-11.161,12.9-3.1,3.51-6.632,4.382-10.786,1.9q-6.411-3.819-12.889-7.57c-.523-.308-1.206-.321-1.769-.59-1.38-.656-2.4-1.675-1.755-3.3.656-1.648,2-1.822,3.43-.951,3.658,2.238,7.637,3.966,11.094,6.525,1.528,1.139,3.323,1.675,4.877,2.747,1.514,1.045,3,.335,4.033-.884,1.956-2.331,3.912-4.663,5.788-7.075,1.943-2.506,4.06-4.931,6.19-7.316a2.155,2.155,0,0,1,2.519-.482A1.88,1.88,0,0,1,591.471,528.384Z" transform="translate(-363.994 -415.571)" fill="#fff"/><path d="M567.993,525.29c1.541-.014,2.6,1.259,2.613,3.135.027,1.943-1.5,3.068-4.113,3.041-1.541-.013-2.613-1.313-2.613-3.162C563.867,526.349,565.287,525.317,567.993,525.29Z" transform="translate(-359.998 -415.867)" fill="#fff"/><path d="M591.475,710.3a1.82,1.82,0,0,1-1.179,1.969,2.331,2.331,0,0,1-2.546-.4c-1.126-.965-1.742-2.358-2.747-3.39-3.269-3.336-5.775-7.289-8.9-10.732-1.273-1.407-2.76-2.13-4.529-1.152-2.425,1.326-4.743,2.84-7.128,4.234-2.867,1.675-5.761,3.31-8.642,4.971-1.461.844-2.774.75-3.47-.884-.683-1.608.281-2.773,1.7-3.323a56.809,56.809,0,0,0,10.33-5.654,38.381,38.381,0,0,1,7.557-3.886c1.983-.724,5.4.777,7.423,3.055,3.149,3.537,5.735,7.53,9.044,10.933a10.676,10.676,0,0,0,1.943,1.862A2.578,2.578,0,0,1,591.475,710.3Z" transform="translate(-363.998 -359.253)" fill="#fff"/><path d="M570.606,706.491c.013,1.876-1.032,3.175-2.546,3.2-2.64.04-4.167-1.032-4.18-2.948-.013-1.849,1.045-3.189,2.559-3.216C569.038,703.477,570.593,704.575,570.606,706.491Z" transform="translate(-359.998 -355.288)" fill="#fff"/><path d="M626.145,557.54c-3.135-.013-5.319-1.809-6.565-4.891a89.074,89.074,0,0,1-2.988-8.843,42.786,42.786,0,0,0-3.122-7.208c-.871-1.728-.75-3.242.643-4.033,1.353-.764,2.666-.241,3.323,1.755,1.367,4.207,3.323,8.2,4.355,12.528a41.867,41.867,0,0,0,1.929,4.81c.7,1.863,2.345,1.916,3.778,1.755,2.68-.322,5.306-1.005,7.972-1.487,3.256-.59,6.538-1.1,9.794-1.7a2.208,2.208,0,0,1,2.921,1.9c.254,1.273-1.327,2.76-2.894,2.707-3.9-.161-7.637.791-11.376,1.635A39.836,39.836,0,0,1,626.145,557.54Z" transform="translate(-343.331 -413.508)" fill="#fff"/><path d="M631.586,539.143a3.178,3.178,0,0,1-2.854,3.269c-1.782-.013-3.953-1.849-3.912-3.323a3.251,3.251,0,0,1,2.733-3.149C629.3,535.873,631.573,537.682,631.586,539.143Z" transform="translate(-339.286 -412.248)" fill="#fff"/><path d="M627.183,682.344c3.055.027,6.257.992,9.513,1.688a33.626,33.626,0,0,0,8.334,1.018c1.661-.067,3.4,1.273,3.175,2.626-.281,1.675-1.34,2.224-3.055,1.956-4.931-.764-9.848-1.635-14.725-2.706-1.273-.281-2.613-.174-3.9-.4-1.7-.281-2.492.791-2.974,2.023-1.1,2.841-2.01,5.748-3.028,8.615-1.045,2.921-2.09,5.842-3.2,8.736-.509,1.313-1.461,2.13-2.948,1.474a2.252,2.252,0,0,1-1.219-3.323c2.841-5.132,4.1-10.84,6.136-16.253a9.634,9.634,0,0,1,4.891-5.319C625.039,682.036,625.977,682.532,627.183,682.344Z" transform="translate(-343.364 -362.508)" fill="#fff"/><path d="M628.659,692.67a3.162,3.162,0,0,1,2.934,3.175c.027,1.42-1.97,3.162-3.738,3.269a3.086,3.086,0,0,1-3.015-3.055C624.747,694.573,626.837,692.724,628.659,692.67Z" transform="translate(-339.28 -358.979)" fill="#fff"/></g></g></svg>