<svg xmlns="http://www.w3.org/2000/svg" width="1640" height="903.846" viewBox="0 0 1640 903.846"><g transform="translate(-140 -4253)"><rect width="1640" height="903" rx="30" transform="translate(140 4253)" fill="#545e46"/><path d="M-2418.866,761.782c-6.1-4.317-11.808-9.166-17.712-13.763-.849-.65-1.84-1.158-3.708-2.346.735,5.422,1.48,10.788,2.132,16.108H-2451.1c-1.285-10.494-4.41-20.63-10.947-30.176-1.756,1.836-3.256,3.391-4.189,4.435,2.6,7.063,5.4,13.532,7.188,20.255a10.083,10.083,0,0,1-.441,5.486h-12.052c-.483-1.212-.875-2.519-1.261-3.677-1.272-3.87-2.066-7.911-3.481-13.589-5.15,2.684-8.97,5.311-13.188,6.724-4.047,1.328-8.462,1.638-12.764,1.95a28.58,28.58,0,0,1-4.693-.2c-2.9-.279-5.714-.558-7.392.735-1.448,1.094-1.474,4.725-.986,8.056h-13.7q-.048-1.3-.031-2.6c.057-3.674.708-7.346,1.189-11.668-1.614-.764-3.707-1.753-6.085-2.854A48.96,48.96,0,0,0-2536,761.782h-28.262a93.03,93.03,0,0,0,3.81-8.592c1.442-3.815,1.924-8,2.913-12.29h-6.452c-2.547,7.2-4.472,13.956-7.416,20.256a4.778,4.778,0,0,1-.357.626h-12.872c-.6-2.362.449-5.438,1.285-8,.737-2.26,2.52-4.123,3.425-6.328,2.123-5.169-2.52-11.016-8.179-10.4-7.131.763-11.659-2.4-15.226-8.5-1.613-2.741-5.292-4.238-9.028-7.062-2.716,3.9-5.661,7.372-7.754,11.3-2.631,4.971-6.169,6.723-10.557,4.35-4.244-2.288-5.291-6.921-1.924-11.3,4.273-5.564,9.085-10.734,14.065-16.5-.566-1.243-1.585-3.39-2.632-5.622-14.206,9.972-21.226,24.719-27.225,40.2-1.5,3.87-3.594,7.543-4.983,11.469a37.787,37.787,0,0,0-1.446,6.391h-14.347c4.5-17.847,13.006-34.682,21.058-52.239-4.5,1.468-8.943,3.164-13.471,4.35-9.284,2.4-18.989,3.644-27.877,7.035-5.353,2.036-10.668,1.666-15.97,1.3-2.078-.145-4.152-.289-6.228-.289a27.616,27.616,0,0,0-8.282,1.111c-4.11,12.495-1.786,25.412.128,38.735h-13.173c-.794-6.295-1.85-12.78-2.862-20.09-5.735,7.075-11.045,13.691-16.245,20.09H-2769.1c7.513-9.044,14.8-18.278,21.943-27.633,1.784-2.317,2.236-5.651,3.539-9.1-7.954-.961-16.1-4.182-22.84-2.288-6.628,1.859-12.89.909-19.111-.039-4.459-.68-8.9-1.361-13.434-1.006a50.354,50.354,0,0,1-17.067-1.554c-2.744-.763-5.489-4.435-6.536-7.4a9.681,9.681,0,0,1,1.641-8.306c7.98-8.673,16.387-16.949,24.9-25.085,4.841-4.606,10.33-8.588,15.312-13.052,3.934-3.5,7.527-7.373,11.291-11.074.085-.876.2-1.752.283-2.628-14.461-3.078-29.122-5.564-43.357-9.52a19.78,19.78,0,0,0-5.235-.779c-5.593,0-9.326,3.116-13.076,7.982-11.4,14.831-23.688,29.183-27.9,48.083-2.036,9.207-3.339,18.587-4.839,27.91-.17,1.159.084,2.966.849,3.644,12.991,11.187,24.508,24.692,41.886,29.437q4.613,1.254,9.26,2.406h-33.76c-6.664-4.529-13.3-8.967-19.112-14.3-6.679-6.13-15.537-11.611-12.17-24.1,3.482-12.909,4.868-26.385,7.076-39.154-29.009,2.177-50.942,16.838-65.149,44.72,4.02,2.374,8.264,5.482,12.99,7.487,4.586,1.977,7.925,3.955,6.454,9.661-.171.736-.114,2.091.311,2.346,6.751,4.145,3.992,8.695,1.278,13.339h-14.147c1.476-3.67,2.968-7.371,4.493-11.136-6.2-3.332-12.4-6.639-19.669-10.536-3.85,6.5-12.737,9.35-14.351,18.758a11.266,11.266,0,0,0-.159,2.914h-19.134a160.772,160.772,0,0,1,9.843-15.628c3.282-4.66,7.5-8.671,11.095-13.163,13.1-16.385,23.093-35.369,41.546-48.11-7.105-5.706-13.556-11.1-20.236-16.187-9.651-7.317-19.5-14.464-29.292-21.612-11.378-8.3-20.236-19.915-33.792-25.424-1.472-.593-2.179-3.079-3.254-4.689-.906-1.357-1.614-2.966-2.83-3.927-5.972-4.661-5.915-11.893.142-16.639,1.216-.961,1.7-2.8,2.773-3.984a47.587,47.587,0,0,1,5.858-5.594c1.867-1.441,4.331-2.174,6.2-3.615q28.358-21.907,56.574-43.986c6-4.689,11.66-9.8,16.1-13.532-7.443-8.927-14.434-17.006-21.028-25.4-13.557-17.2-28.669-33.279-39.621-52.46-2.973-5.2-2.688-10.566,2.122-13.335a53.919,53.919,0,0,1,13.782-5.734c7.472-1.808,15.169-2.486,22.7-4.013,20.632-4.151,40.527-12.259,62.092-10.932.4,0,.792-.367,1.727-.847-1.471-7.8-2.8-15.82-4.528-23.73-3.368-15.4-6.99-30.765-10.444-46.161-2.037-9.181-4.357-18.334-5.8-27.628-.99-6.384-.763-12.994-1.018-19.492-.028-.4.34-.819.566-1.187,2.519-4.1,16.528-9.605,21.056-8.3.226.056.424.225.623.254,3.171.621,6.367,1.666,9.565,1.723,5.6.091,11.217.07,16.832.051,8.194-.03,16.394-.059,24.573.26,16.98.677,33.932,2.089,51.479,3.248-.114-2.034-.142-2.853-.227-3.644-.876-7.43-2.631-14.859-2.489-22.261.311-16.244,1.443-32.516,2.518-48.759.594-8.927,1.443-17.854,2.8-26.7a8.2,8.2,0,0,1,9.763-7.063,71.233,71.233,0,0,1,18.425,6.61c12.678,6.471,25.073,13.5,37.5,20.483,11.6,6.5,23.066,13.219,34.925,20.028-.285.481.451-.564,1.132-1.526q19.995-37.2,39.988-74.438c1.756-3.277,4.671-6.5,4.953-9.917.68-8.615,9.482-10.565,12.622-16.95.057-.141.4-.169.594-.254,5.462-2.062,20.009,3.645,22.868,8.814a18.793,18.793,0,0,0,3.849,4.972c12.594,11.243,25.33,22.289,37.9,33.533,10.98,9.859,21.82,19.887,33.622,30.65,5.8-15.452,17.377-25.142,27.423-36.1,7.131-7.8,13.9-15.933,21.168-23.615a230.519,230.519,0,0,1,17.434-16.639c4.159-3.531,9.113-2.882,12.48,1.215a55.6,55.6,0,0,1,8.067,13.3c6.225,14.747,12.111,29.634,17.913,44.551,3.4,8.729,6.537,17.571,9.537,26.441,1.076,3.192,1.36,6.639,2.066,10.311,1.755-.593,2.6-.79,3.4-1.13,18.325-7.486,36.649-15.039,55.013-22.482v14.116c-4.749,2.017-9.379,4-14.006,5.994a3.349,3.349,0,0,0-1.755,2.344c-.254,13.5-1.783,27.121,3.282,40.511,3.37-1.808,6.567-3.248,9.51-5.112,1.079-.688,2.063-1.284,2.969-1.8v15.753a69.492,69.492,0,0,0-7.214,6.1c-12.367,12.318-24.734,24.663-36.366,37.686-8.915,9.972-16.528,21.1-25.019,31.47-5.689,6.95-11.858,13.5-18.565,21.1,9.426,0,17.687.537,25.838-.142,1.5-.127,2.841-.2,4.062-.2,6.675,0,9.635,2.171,13.344,9.55,3.849,7.6,7.981,15.085,12.707,24.012,4.076-11.7,7.528-22.092,11.292-32.318,2.407-6.553,5.887-12.769,7.981-19.407,4.175-13.275,7.981-26.673,11.94-40.012v50.985l-.11.016c-1.867.255-4.047,3.193-4.839,5.34-4.076,11.13-7.925,22.345-11.434,33.673-1.386,4.52-1.7,9.379-2.8,15.877,6.709-2.3,13.03-4.547,19.185-6.687v14.5q-3.774,1.223-7.552,2.441a55.083,55.083,0,0,0-6.708,2.288c-10.924,5.057-21.338,12.232-32.8,14.775-12.055,2.683-20.972,10.141-30.452,16.046-11.008,6.836-22.527,15.114-27.141,29.154,1.926.593,4.076,1.243,5.293,1.61,5.094-5.989,9.565-11.7,14.575-16.921,3.849-4.04,8.547-3.588,11.292.735,2.717,4.294,1.727,7.712-2.6,10.735-3.622,2.543-6.707,5.9-10.754,9.576,6.736,5.255,12.425,9.577,17.886,14.125,1.245,1.017,2.633,3.135,2.378,4.436-1.1,5.593,3.254,9.35,6.339,10.142,2.915.734,7.047-3.221,10.584-5.226,2.094-1.207,4.266-3.838,6.054-3.838a1.68,1.68,0,0,1,.285.024c2.6.451,6.029,2.768,6.792,5.057.737,2.2-.623,6.553-2.519,7.937-5.8,4.238-12.339,7.543-19.442,11.7,0,1.328,0,3.306-.028,5.961,8.914-2.515,16.866-5.763,23.235-12.6,7.02-7.515,14.434-14.662,21.764-21.895,3.9-3.842,7.357-7.344,9.2-13.193a31.3,31.3,0,0,1,4.327-8.294v26.891c-.866.768-1.718,1.547-2.515,2.365-9.679,10-19.329,20.057-29.4,30.509,10.66.467,21.31.736,31.919,1.838v13.737c-6.325-.509-12.646-1.024-18.958-1.648-10.5-1.044-20.66-.282-30.537,4.916,1.188,1.836,2.434,3.814,3.142,4.915,7.953-1.44,15.226-3.192,22.614-3.956,4.555-.451,7.669,2.629,7.669,7.317,0,4.577-2.6,7.459-7.528,7.4-2.208-.028-4.472-.764-6.594-.452-2.717.395-7.274,1.1-7.585,2.457-.763,3.305.651,7.034.907,10.593a137.456,137.456,0,0,1,.622,15.595c-.142,3.728-2.6,7.8-1.614,10.961.567,1.779,5.944,2.26,9.255,2.909a7.874,7.874,0,0,0,3-.2,11.034,11.034,0,0,1,2.262-.28c4.923.114,7.443,3.107,7.3,7.656-.17,4.633-3.311,7.6-7.924,7.063-7.16-.819-14.208-2.486-22.329-3.984-.765,1.131-1.982,2.91-3.481,5.113,8.716,3.333,16.81,6.216,26.263,4.943,7.782-1.047,15.645-1.564,23.515-2.036v13.447c-10.4,1.023-20.984,2.063-32.288,3.167,11.49,10.282,22.725,20.34,32.288,32.107v23.8c-1.781-3.164-3.549-6.337-5.345-9.5a7.182,7.182,0,0,0-.935-1.723c-8.093-8.361-16.187-16.724-24.366-25-7.7-7.768-16.161-14.323-27.594-16.469v5.876c6.537,3.813,12.876,6.976,18.537,11.044,2.037,1.469,3.509,5.114,3.4,7.713-.085,1.892-3,4.943-4.925,5.2-2.49.339-5.433-1.384-7.923-2.683-1.9-.99-3.283-2.853-5.1-4.068-5.49-3.672-11.63-.481-12.253,6.243-.624,6.779-4.388,10.679-10.811,13.079-3.171,1.188-5.463,4.577-9.141,7.854,3.622,3.363,6.623,6.837,10.329,9.379,4.329,2.966,5.49,6.3,2.83,10.651s-7.471,4.943-11.264.988c-5.009-5.226-9.481-10.96-14.632-17.006-1.1.282-3.2.847-5.772,1.526,4.273,7.967,8.633,15.368,16.584,20.481,10.133,6.526,19.726,13.842,29.576,20.792.325.223.65.458.98.683Zm-130.973-35.628c9.34,1.469,18.878,2.118,26.773,8.673,7.84,6.5,17.293,2.966,25.81,2.061,11.491-1.215,19.613-8.023,27.481-16.978a41.554,41.554,0,0,1,26.631-14.012c6.536-.65,13.216-1.525,17.716-8.107,4.529-6.611,10.9-11.951,15.255-18.646,2.321-3.559,2.064-8.784,2.971-13.248-.084-13.051,2.576-25.143,12.056-34.719,8.406-8.475,7.415-19.238,7.782-29.973.425-11.893-5.858-19.6-12.48-28.476-4.982-6.7-7.953-16.723-7.67-25.142.453-14.04-6.085-23.278-14.631-32.826-6.934-7.769-14.746-11.894-25.075-11.527a3.126,3.126,0,0,1-1.9-.48c-7.754-6.186-18.425-7.853-24.311-17.232-6.311-10.085-17.179-11.894-28.272-13.249-8.038-.989-16.132-2.543-22.642,3.024-8.32,7.118-18.734,6.44-28.243,8.418-5.859,1.215-12.481-1.385-18.792-2.2-1.217-.14-2.773-.508-3.706.029-8.718,4.915-17.916,9.238-25.755,15.34-3.877,3.023-5.235,9.322-7.584,14.181-.566,1.131-.17,2.967-.934,3.758-6.934,7.035-10.5,17.233-20.773,21.188-11.235,4.322-14.659,14.774-18.509,24.831-4.217,11.017-2.15,20.932,1.585,32.12,2.718,8.107,3.6,18.984-1.527,28-6.283,11.018-1.982,21.5,1.555,32.007,3.6,10.707,11.462,16.7,20.915,22.883,7.783,5.085,15.708,12.8,18.085,23.956,1.3,5.989,4.048,12.316,11.093,15.537,7.444,3.418,13.925,9.181,21.538,11.95,4.641,1.7,10.612-.34,15.989-.678,2.417-.17,4.881-.615,7.271-.615A15.016,15.016,0,0,1-2549.839,726.154Zm-137.373-105.682c-11.037,5.31-22.3,10.141-33.339,15.452-2.377,1.158-4.188,3.5-6.169,5.395-1.132,1.073-1.924,2.544-3.142,3.39-10.018,7.035-20.234,13.843-30.169,20.99-3.537,2.543-6.481,5.9-9.735,8.842-8.462,7.657-17.01,15.227-25.386,22.967-2.886,2.684-5.348,5.849-9.453,10.368,9.029.395,16.443.677,23.887,1.074,10.245.564,20.489,1.27,30.762,1.807,5.011.254,10.076.538,15.085.367,6.707-.226,13.415-.677,20.094-1.412,9.735-1.072,19.471-2.288,29.178-3.757,13.046-1.978,25.7-5.339,37.273-11.837,4.159-2.345,7.923-5.48,12.057-8.39-2.462-1.836-4.387-3.276-5.435-4.124-6.678,3.9-12.763,7.882-19.244,11.017-2.1,1.017-6.283.763-7.726-.678-1.812-1.779-2.688-5.594-2.208-8.221.341-1.779,3.539-3.249,5.689-4.435,2.066-1.158,4.5-1.61,6.622-2.655a7.454,7.454,0,0,0,.737-13.307c-6.113-3.841-6.821-9.378-6.454-15.876.2-3.447-1.074-6.976-1.925-11.808-4.868,1.469-9.282,2.4-13.414,4.068-5.122,2.09-8.942,1.017-10.924-3.757-1.811-4.351.51-8.616,5.943-9.831,6.623-1.5,13.387-2.458,21-3.813.312-.933,1.02-2.882,1.926-5.4-2.292-.17-4.532-.274-6.731-.274C-2674.99,616.638-2681.19,617.571-2687.212,620.472Zm-239.426,37.4c8.689,6.723,16.7,13.081,24.989,19.07,1.16.846,3.735.168,5.519-.34q18.338-5.213,36.593-10.735a7.623,7.623,0,0,0,3.48-2.882c5.266-7.571,10.417-15.2,15.85-23.222-15.651-4.068-31.669-8.22-48.226-12.515C-2897.545,641.461-2910.932,649.879-2926.638,657.874Zm-23.066-90.032c-6.879,5.932-13.953,11.639-22.047,18.39,3.679,2.4,6.65,4.8,9.99,6.443,5.292,2.57,10.555,6.3,9.424,12.034-.849,4.35-5.575,8.22-9.2,11.667-2.6,2.486-6.226,3.842-10.5,6.356,7.925,6.667,14.917,12.655,22.021,18.5,7.641,6.3,14.97,8.786,24.253,1.525,7.358-5.733,15.934-9.886,21.989-17.089-6.254-7.571-19.158-7.091-19.018-21.131.114-13.73,12.594-13.221,19.5-21.7-6.509-4.775-13.189-9.747-19.924-14.662-.877-.65-2.122-.819-2.915-1.525-3.67-3.326-7.218-4.766-10.694-4.764C-2941.2,561.891-2945.46,564.173-2949.7,567.841Zm172.352,34.776c-.678,1.215,0,3.785.877,5.255,4.162,7.006,8.095,14.238,13.1,20.594,3.736,4.775,9.058,8.3,14.632,13.25,4.075-4.1,8.462-9.125,13.5-13.391,2.746-2.289,6.708-3.108,9.991-4.832,5.632-2.966,11.01-6.468,16.783-9.068,7.386-3.3,15.056-5.932,23.886-9.323-3.538-1.891-6.056-3.361-8.66-4.576-10.7-5-21.141-10.707-32.208-14.634-10.244-3.644-14.829-13.786-24.451-17.937C-2762.211,576.457-2769.85,589.509-2777.351,602.617Zm-14.828-27.177c-12.991,2.177-26.039,4.1-38.971,6.583-10.528,2.006-20.914,4.717-31.386,7.062-11.547,2.572-23.206,4.775-34.669,7.712-3.905.988-7.471,3.56-10.925,5.82-.509.339.058,4.012.964,4.464,4.84,2.373,9.763,4.8,14.943,6.129,18.055,4.635,36.167,9.21,54.394,13.052,11.349,2.373,23.035,3.221,34.527,5.113,8.009,1.328,15.906,3.277,23.858,4.886,1.245.255,2.548.226,5.406.453-2.6-4.068-4.556-7.091-6.454-10.114-3.254-5.226-6.425-10.48-9.763-15.65-3.4-5.255-1.9-10,1.189-14.718,4.074-6.273,8.149-12.544,12.14-18.844a49.31,49.31,0,0,0,2.294-4.943C-2781.058,573.548-2786.6,574.508-2792.179,575.44Zm-198.646,29.014c9.425,12.684,7.385,11.836,20.264.423-4.889-5.792-7.525-8.667-10.19-8.667C-2983.365,596.211-2986.008,598.973-2990.825,604.454ZM-2761.3,499.278c-10.413.114-20.829.763-31.243,1.328-3.481.2-6.935.848-10.416,1.3-.254.649-.509,1.271-.763,1.921,8.065,7.09,16.188,14.067,24.112,21.272,7.7,6.95,14.858,14.549,22.952,21.018,7.98,6.384,16.867,11.668,25.3,17.515,1.585,1.1,2.886,2.683,4.386,3.956,2.577,2.174,5.01,4.6,7.868,6.3a130.467,130.467,0,0,0,16.3,8.672c12.9,5.367,25.555,12.149,40.838,9.606-.595-2.091-1.133-4.068-1.472-5.255-7.472-1.3-14.292-2.034-20.8-3.9-2.688-.791-5.489-3.7-6.594-6.328-.68-1.582,1.217-5.649,3-6.553,2.293-1.159,5.717-.706,8.491-.2,4.189.791,8.263,2.232,13.3,3.644,1.188-8.052,2.094-14.916,3.282-21.724.283-1.638,1.273-4.068,2.461-4.436a8.643,8.643,0,0,0,5.859-10.847c-1.1-3.052-6.652-5.141-10.64-6.356-4.02-1.214-6.368-2.8-6.368-7.09,0-5.961,5.065-9.437,10.415-6.7,6.424,3.305,12.538,7.175,19.357,11.131l6.481-4.661c-8.519-4.436-15.821-9.3-23.83-12.149-11.518-4.124-23.519-6.92-35.4-9.915-2.548-.65-5.491.2-8.237.452a25.862,25.862,0,0,1-3.226.565c-6.934-.4-14.235.34-20.716-1.611a49.274,49.274,0,0,0-14.476-1.906C-2747.834,498.333-2754.56,499.2-2761.3,499.278Zm-143.429,34.945c-7.3,5.2-14.066,11.187-21.594,17.317,15.254,7.91,28.924,16.244,37.9,30.51,16.387-4.266,32.546-8.447,48.226-12.514-5.293-7.826-9.99-15.283-15.255-22.318-1.5-2.006-4.414-3.3-6.962-4.124-11.064-3.588-22.131-7.119-33.366-10.113a12,12,0,0,0-2.939-.344A10.8,10.8,0,0,0-2904.734,534.224Zm121.271-93.76c-18.537,3.644-37.414,6.61-53.4,17.458-8.915,6.045-16.839,13.643-25.047,20.735a5.668,5.668,0,0,0-1.586,4.6c2.463,12.713,3.567,25.99,8.236,37.854,6.708,17.064,18.171,31.669,30.99,44.919,1.1,1.13,3.764,1.469,5.518,1.158,13.84-2.542,27.679-5.141,41.405-8.164,2.831-.621,5.321-2.966,9.056-5.169-10.1-8.7-19.725-16.583-28.837-25.029-8.322-7.684-16.388-15.706-23.914-24.181-1.784-2.034-2.094-6.837-.992-9.521,1.132-2.683,4.614-5.762,7.415-6.187,8.293-1.215,16.784-1.073,25.161-1.752,7.471-.621,14.432-2.683,22.527-.649,6.962,1.751,15.113-1.271,24.169-2.345-3.029-5.283-5.208-10.312-8.434-14.521-6.284-8.222-13.529-15.765-19.613-24.126-2.734-3.773-5.4-5.453-9.226-5.453A18,18,0,0,0-2783.463,440.463ZM-2889.2,427.383c-8.631,1.045-17.151,3.276-25.528,5.622-1.3.367-2.519,4.435-2.15,6.5.593,3.363,2.49,6.5,3.9,9.691.538,1.214,1.614,2.259,1.84,3.5.254,1.441.368,3.927-.368,4.322-6.255,3.447-.424,13.757-9.679,15.876-4.867,1.1-9.141,4.8-13.669,7.317,14.179,27.911,36.111,42.714,66.365,45.03-2.632-10.114-5.348-20.594-8.149-31.046-3.511-13.108,2.149-26.1,13.7-33.59,8.519-5.508,16.387-12.006,24.652-18.136-13.973-7.876-28.234-15.463-44.609-15.463A52.7,52.7,0,0,0-2889.2,427.383Zm220.888-50.115c.737,5.649,1.217,11.356,2.35,16.921,1.867,9.181,4.357,18.249,6.169,27.458,1.67,8.532,2.292,17.317,4.33,25.736,1.387,5.679,4.839,10.82,6.652,16.413A104.4,104.4,0,0,0-2631.573,496c2.83,3.645,5.887,7.119,9.453,11.385,1.953-3.956,2.972-5.99,3.678-7.43-4.81-5.565-9.734-10.623-13.81-16.3a10.113,10.113,0,0,1-1.075-8.389c.821-1.95,4.642-3.984,6.792-3.645,2.378.368,4.614,3.165,6.4,5.311,2.774,3.333,5.094,7.035,7.981,11.1,6.141-5.4,11.405-10.255,17.01-14.689,1.5-1.187,4.1-.9,6.084-1.582,3.282-1.13,6.99-1.978,9.537-4.1,1.018-.848-.2-4.915-1.019-7.289-.678-2.006-2.207-3.757-3.48-5.537-2.944-4.039-2.123-7.514,1.67-10.338a6.886,6.886,0,0,1,10.669,2.627c2.83,6.581,5.009,13.447,7.9,21.328,1.133.056,3.312.169,6.055.339-1.47-8.983-2.942-17.26-8.573-24.605-7.077-9.182-13.076-19.153-19.925-28.533-1.925-2.628-5.207-4.266-7.726-6.5q-8.618-7.585-17.122-15.284c-8.236-7.514-16.1-15.451-24.649-22.57-9.086-7.571-18.766-14.436-28.246-21.5-2.037-1.526-4.415-2.627-8.631-5.085C-2671.024,356.815-2669.666,367.041-2668.308,377.268Zm-8.291,114.356c9.565,2.683,19.16,5.169,30.112,8.136-12-22.855-23.574-44.578-25.527-69.382-17.151-2.177-31.811,4.408-47.941,10.028-.737,15.283-1.472,30.82-2.265,47.178a96.934,96.934,0,0,1,13.232-.911C-2697.525,486.672-2687.016,488.72-2676.6,491.624Zm211.551-48.478c5.348.4,7.7,3.787,6.311,8.7-2.01,7.119-4.784,14.039-7.444,21.7,1.1.622,3.084,1.752,5.039,2.881,9.4-13.56,11.178-30.227,10.781-47.516-.114-4.831,1.161-9.718.877-14.521a162.63,162.63,0,0,0-2.547-18.024c-2.943-17.091-2.6-34.634-8.888-51.33-3.848-10.255-4.951-21.554-7.329-32.374a33.091,33.091,0,0,0-1.868-4.294c-6.622,10.764-12.226,20.114-18,29.324-5.4,8.559-11.518,16.694-16.357,25.537-5.01,9.153-8.632,19.041-13.245,28.419-2.15,4.408-5.575,8.165-7.67,12.6-1.755,3.73-2.575,7.911-3.453,11.979-2.546,11.724-5.236,23.419-7.16,35.228-.623,3.954.906,8.249,1.558,13.22,2.461-.988,4.583-1.808,6.226-2.457,0-7.882-.141-15.2.057-22.515.141-4.972,3.481-7.12,8.037-6.667,4.9.48,7.274,4.915,5.858,9.859a36.065,36.065,0,0,0-1.272,5.707c-.849,7.515,4.612,11.5,11.6,8.475,6.114-2.628,11.236-.989,16.471,2.684,2.858,2,6.623,2.711,11.206,4.491,1.246-5.057,2.8-9.323,3.171-13.7.423-5.012,2.6-7.438,7.057-7.438C-2465.714,443.109-2465.388,443.121-2465.048,443.146Zm-485.364-2.513a9.341,9.341,0,0,0-5.263,14.916c3.876,4.8,8.461,9.041,12.82,13.645,7.1-3.842,13.471-7.261,19.555-10.51-2.688-6.666-5.349-13.361-8.292-20.65C-2937.535,438.824-2944.043,439.3-2950.412,440.632ZM-2819.18,355.6c.708,12.006,9.2,18.39,15,26.413,7.754,10.736,15.2,21.7,22.981,32.4,3.226,4.462,6.876,8.614,10.471,12.8q16.514,19.322,33.2,38.534c.254.281.82.253,1.755.536,1.471-9.746,3.17-19.069,4.217-28.447.679-5.961,3.878-9.068,9.2-10.763q12.227-3.9,24.453-7.826a28.889,28.889,0,0,0,3.368-1.752c-4.839-2.711-8.943-4.859-12.934-7.232-14.519-8.645-28.725-17.826-43.555-25.877-13.3-7.233-27.366-13.137-40.951-19.86-7.047-3.474-13.274-8.757-21.679-8.927-.6-.01-1.211-.012-1.821-.012C-2816.7,355.588-2817.934,355.6-2819.18,355.6Zm377.989,31.386c2.348,8.164,4.7,14.352,5.772,20.735.708,4.182-.622,8.674-.765,13.023-.169,5.65.312,11.357-.252,16.95-.737,7.2-2.266,14.324-3.4,21.47-.17,1.046-.113,2.148-.226,4.153,2.489-1.583,4.443-2.74,6.283-4.041q18-12.668,35.97-25.423a14.52,14.52,0,0,1,3.963-2.317c6.282-1.694,12.621-3.192,20.772-5.226-6.623-15.622-12.707-30-19.189-45.342C-2408.786,383-2424.182,384.9-2441.19,386.986Zm-127.326-32.771c-5.351,4.52-10.925,8.872-15.652,14.012-5.15,5.594-9.423,11.978-14.432,18.5,6.82,2.683,8.661,10.819,16.442,12.034,1.9.311,3.141,4.463,4.811,6.752,9.086,12.543,18.226,25.057,27.65,38,5.8-23.929,10.359-48.506,26.348-70.654-9.933-5.338-19.216-10.48-28.612-15.34a71.146,71.146,0,0,0-12.141-4.774,2.274,2.274,0,0,0-.649-.086A6.662,6.662,0,0,0-2568.516,354.215Zm-290.85,62.18c.2.875,1.925,1.525,3.055,2.033,12.169,5.452,24.34,10.961,36.623,16.131,1.726.706,4.217-.028,6.255-.537,8.235-2.118,16.442-4.407,25.159-6.751-8.066-11.527-16.387-23.42-24.735-35.257-2.548-3.616-4.98-5.452-10.359-3.926-13.669,3.87-27.422.848-42.62-2.486C-2863.7,396.477-2861.659,406.451-2859.366,416.395ZM-2713.7,305.258c-8.037,13.616-13.9,27.883-13.781,44.155.084,9.69-.991,19.379-1.076,29.1,0,2.231,1.273,5.536,3,6.553q18,10.468,36.536,20.058c2.774,1.44,6.312,1.413,11.095,2.373-2.123-13.136-4.471-25.482-5.944-37.911-1.074-9.069-.933-18.278-1.385-27.4a7.5,7.5,0,0,0-.624-3.08c-2.915-5.622.283-8.786,4.527-11.47,4.133-2.6,7.473-1.752,11.322,1.5,6.085,5.113,12.9,9.379,19.471,13.9,5.831,4.039,11.886,7.147,16.641,13.249,4.613,5.9,12.735,9.04,20.378,14.1.962-5.255,2.206-9.605,2.433-13.956.651-11.866,1.188-23.73,1.019-35.595-.029-2.882-2.179-7.035-4.586-8.334-12.736-6.921-25.357-14.689-39-19.125-10.952-3.56-23.292-2.74-35.038-3.842-.2,0-.451.169-.649.114a21.377,21.377,0,0,0-5.461-.767C-2704.65,288.871-2709.052,297.354-2713.7,305.258Zm-156.588,62.913c.311,1.3,1.5,3.276,2.489,3.417,12.623,1.639,25.275,3.023,37.925,4.38.679.084,1.471-.848,2.179-1.3-12.282-29.3,1.273-36.7,28.387-30.2-2.888-10.368-6.058-19.662-7.926-29.183-1.924-9.916-7.84-13.475-17.122-13.446-9.764.028-19.556,0-30.735,0,2.038,5.367,4.472,9.52,5.038,13.9.566,4.266.764,10.34-1.7,12.8-2.745,2.769-8.689,2.994-13.246,3.107-4.187.084-8.4-1.44-13.98-2.543C-2875.894,343.085-2873.178,355.657-2870.291,368.172Zm73.016-63.394c6.567,15.481,11.6,30.651,9.341,47.29,15.253,7.261,30.082,14.323,45.167,21.5.737-8.813.906-16.78,2.124-24.577,1.33-8.361-4.047-14.012-7.584-20.171-4.274-7.4-9.934-14.04-15.255-20.792-1.217-1.526-3.48-3.051-5.32-3.108-4.415-.148-8.836-.187-13.341-.187C-2787.054,304.732-2792.064,304.778-2797.275,304.778Zm333.3-14.266c2.406.678,4.951,3.842,5.773,6.414,2.687,8.559,4.528,17.374,6.848,26.046,1.642,6.214,3.935,11.921,3.85,18.87-.085,7.515,3.707,15.058,5.829,22.742,9.114-1.187,12.511-8.787,17.577-14.126,6.2-6.526,11.857-13.56,17.885-20.283,2.548-2.853,3.623-5.509,1.868-9.38-5.717-12.542-10.614-25.481-16.727-37.826-6.763-13.645-19.3-22.092-30.678-31.556-4.613-3.87-8.745-4.831-14.349-2.43-8.093,3.447-16.754,5.651-24.678,9.436-16.557,7.883-27.764,22.064-40.16,34.918-6.31,6.553-6.225,12.231-2.744,19.745,3.932,8.5,6.565,17.628,10.244,26.273,1.9,4.52,4.84,8.56,7.952,13.871,5.348-7.233,11.659-12.459,13.557-18.984,3.4-12.035,13.727-19.069,18.537-29.888a36.751,36.751,0,0,1,9.537-12.571c1.4-1.2,3.844-1.735,6.212-1.735A13.967,13.967,0,0,1-2463.973,290.512ZM-2595.12,244.1c-.227,13.193-1.19,26.386-1.445,39.578-.254,13.87,0,27.742,0,41.612v36.1c6.284-5.535,12.566-10.876,18.566-16.526,7.952-7.486,10.215-7.994,19.867-3.956,7.812,3.249,15.679,6.328,24.962,10.058-5.519-14.154-11.8-26.046-14.774-38.759-6.481-27.77-22.7-51.471-31.327-78.28-1.36-4.21-5.69-7.459-9.086-11.7C-2593.479,229.294-2594.979,236.357-2595.12,244.1Zm-140.968,76.925c4.669-9.83,9.255-20.17,14.378-30.2,6.31-12.345,18.791-17.458,35.659-15.538,8.745.99,17.518,1.5,25.839,2.176-7.585-28.957-25.586-48.449-55.7-57.347-1.443,3.9-3.423,8.446-4.754,13.192-1.3,4.69-2.291,9.266-8.689,8.814-.622-.029-1.7,0-1.838.311-3.822,8.955-10.275,4.8-16.3,3.418-3.567-.819-7.274-1.045-10.584-1.5C-2764.728,274.437-2758.105,300.033-2736.088,321.022Zm-144.788-17.544v12.938c5.15.282,10.246.538,16.046.848-.99-5.085-1.952-9.944-3.084-15.679C-2872.329,302.236-2876.518,302.858-2880.876,303.479Zm489.92-65.4c-2.265,1.017-4.416,4.039-5.124,6.553q-5.262,18.645-9.509,37.544c-.48,2.176.991,4.973,2.066,7.261,3.311,7.119,6.877,14.1,10.867,22.176,10.924-11.075,21.961-22.206,32.886-33.393.764-.791,1.584-2.57,1.217-3.3-7.161-14.577-7.529-30.143-6.454-46.725C-2374.231,231.638-2382.749,234.463-2390.956,238.08Zm-266.427,1.468a12.129,12.129,0,0,0,.028,9.125c5.264,11.61,11.094,22.967,16.811,34.381a6.047,6.047,0,0,0,2.632,2.683c8.746,3.954,17.546,7.8,26.66,11.837,1.16-16.216,2.319-32.63,3.451-48.591-6.678-4.633-13.782-8.7-19.781-13.984-6.084-5.366-11.064-11.978-16.867-18.391C-2648.836,224.209-2653.535,231.667-2657.383,239.548Zm94.3.48c7.021,15.283,13.925,30.426,20.01,43.674,6.763-5.792,13.952-11.61,20.632-17.967,1.613-1.5,2.038-4.6,2.378-7.063,1.669-12.628,3.168-25.312,4.583-37.967a4.609,4.609,0,0,0-1.613-3.221c-7.3-6.7-14.687-13.277-22.471-20.284C-2544.4,213.954-2550.547,228.673-2563.085,240.029Zm123.762,3.334c7.046,7.6,14.518,14.8,21.961,22.345,13.358-26.555,11.858-51.979-5.236-80.908-4.84,3.051-9.566,5.735-13.954,8.842-3.424,2.4-6.563,3.7-10.188.566-.763-.678-2.123-1.781-2.6-1.526-7.7,3.87-10.047-2.118-13.387-6.809-2.291-3.192-5.207-5.9-7.867-8.842-24.934,18.277-35.462,42.347-32.8,72.433,9.14-3.927,18.82-7.459,27.933-12.092a32.834,32.834,0,0,1,14.917-3.825C-2452.739,233.549-2445.371,236.823-2439.322,243.363Zm-318.811-30.256a72.744,72.744,0,0,0,.311,8.587c.283,2.825.849,5.622,1.331,8.786,6.707,1.44,13.7,2.938,21.112,4.519,2.378-7.09,4.584-13.7,6.962-20.989-4.812-3.165-9.707-6.922-15.084-9.775a12.179,12.179,0,0,0-5.683-1.549C-2754.164,202.689-2757.9,206.607-2758.134,213.107Zm124.27-19.69c-4.643,7.542-2.378,13.249,3.225,18.814,7.1,7.035,14.094,14.21,21.962,22.206,1.982-5.058,3.735-8.136,4.387-11.413,1.923-9.605,8.631-12.826,17.236-13a12.914,12.914,0,0,1,8.094,3.39c4.047,3.672,7.415,8.08,11.46,12.628,7.36-9.69,11.52-20.426,15.312-31.471,1.811-5.226,1.387-8.785-3.084-12.543-8.633-7.26-16.784-15.142-26.349-23.843-2.037,5.226-3.056,9.661-5.348,13.277-2.463,3.842-5.773,9.068-9.4,9.689-3.707.622-8.661-3.078-12.311-5.875-3.226-2.458-5.434-6.244-9-10.594C-2623.392,174.913-2628.289,184.376-2633.864,193.417Zm182.881-40.059c-3.708,4.294-6.877,9.068-10.274,13.588,4.755,5.933,9.454,11.724,14.009,17.374,6.028-3.729,12.339-7.656,18.848-11.723-1.529-5.058-2.914-10.538-4.867-15.821-1.967-5.32-5.4-8.1-9.178-8.1C-2445.25,148.679-2448.247,150.208-2450.983,153.358Zm-160.439.2c4.047,3.673,7.755,7.063,11.971,10.877,2.576-4.718,4.868-8.9,7.585-13.956-3.735-2.514-7.386-5-11.236-7.6C-2606.016,146.607-2608.648,150-2611.422,153.555Zm80.317,551.327c.114-4.013.114-8,.114-12.007.028-9.1-1.443-10.113-10.386-7.288-1.641,5.112-3.226,10.141-4.868,15.17-1.358,4.181-3.792,7.487-8.689,6.187-5.037-1.328-5.32-5.367-4.131-9.662,1.613-5.791,3.311-11.554,5.321-18.561-9.708,3.7-14.6.171-16.047-9.095-4.98,5.028-9.34,9.406-13.669,13.813-2.972,3.051-6.481,4.6-9.906,1.329-3.509-3.391-2.378-7.289.566-10.68,3.058-3.5,6.624-6.694,9.058-10.593,1.1-1.78.848-5.537-.37-7.26-.876-1.243-4.754-1.413-6.679-.621a63.938,63.938,0,0,0-11.489,6.666c-4.132,2.854-8.094,3.446-10.925-1.073-2.661-4.238-.171-7.486,3.623-9.943,4.952-3.193,9.821-6.5,14.915-9.86-9.481-7.148-9.481-7.148-6.085-18.392-6.4.933-12.452,1.95-18.537,2.629-4.386.478-8.376-.707-8.943-5.763-.48-4.464,2.152-6.752,6.736-7.289a78.214,78.214,0,0,0,14.264-2.74c1.98-.622,4.9-3.5,4.669-4.916-.34-2.09-2.774-4.69-4.924-5.48a48.722,48.722,0,0,0-12.906-2.627c-5.037-.4-8.574-2.346-7.754-7.6.9-5.764,5.6-6.018,10.416-5.283,5.546.819,11.093,1.526,17.065,2.346-3.707-11.611-3.707-11.611,6.311-18.25-5.236-3.475-9.99-6.668-14.83-9.635-4.019-2.543-6.82-5.847-3.876-10.394,2.915-4.492,6.99-3.532,11.007-.764a63.345,63.345,0,0,0,11.491,6.667c1.9.792,5.859.424,6.651-.819a8.39,8.39,0,0,0,.057-7.316c-2.093-3.589-5.237-6.583-8.15-9.635-3.538-3.671-5.293-7.767-1.218-11.609,4.161-3.9,7.868-.679,10.925,2.4,4.019,4.039,7.839,8.277,12.566,13.306,1.329-10.17,6.707-12.939,16.046-9.747-1.981-6.7-3.737-12.259-5.263-17.882-1.189-4.379-1.33-8.813,4.216-10.169,4.954-1.215,7.246,2.259,8.6,6.383,1.727,5.2,3.339,10.453,4.982,15.567,8.914,1.638,10.243.593,10.216-8.024-.029-4.237-.708-8.587.141-12.627.539-2.458,3.254-5.877,5.349-6.158,2.038-.282,5.4,2.429,6.594,4.661,1.359,2.543,1.02,6.017,1.274,9.1.311,3.9.48,7.8.736,12.061,10.16-4.718,10.16-4.718,18.792,3.446,2.632-6.073,5.067-12.062,7.812-17.911,1.868-3.954,5.518-6.271,9.113-3.53,2.066,1.555,3.142,6.074,2.66,8.927-.821,4.69-3.708,8.983-4.812,13.644-.481,2.063.708,5.932,2.236,6.668,1.755.847,5.462-.084,7.1-1.555,3.255-2.939,5.717-6.751,8.462-10.255,2.775-3.587,6.369-5.452,10.359-2.711,4.273,2.909,3.084,6.836.424,10.452-3.566,4.859-7.131,9.747-11.292,15.425,9.764.114,13.669,4.634,12.509,14.125,6.085-3.107,11.123-5.734,16.245-8.191,4.1-1.978,8.377-2.882,10.755,2.315,2.149,4.719-.793,7.373-4.727,9.407-3.906,2.034-8.037,3.9-11.4,6.64-1.756,1.44-3.283,4.971-2.718,6.892.51,1.667,4.188,3.446,6.367,3.305,5.491-.368,10.9-2.288,16.359-2.457,2.094-.084,5.858,2.683,6.057,4.463.253,2.316-1.982,5.226-3.764,7.317-.935,1.1-3.255,1.072-4.954,1.526-4.923,1.3-9.876,2.6-16.272,4.266,8.235,6.441,7.669,12.091-.057,18.418,7.187,1.667,12.934,2.853,18.565,4.379,3.99,1.1,7.981,2.854,6.849,8.108-1.189,5.538-5.6,5.595-10.047,4.8-4.357-.791-8.661-2.288-13.018-2.429-2.152-.084-5.463,1.722-6.255,3.56-.679,1.582.82,5.169,2.461,6.469,3.426,2.684,7.557,4.547,11.463,6.582,4.076,2.119,7.443,4.745,4.952,9.831-2.545,5.113-6.792,3.982-10.868,1.977-5.066-2.514-10.131-5.057-15.423-7.712-1.473,11.611-1.812,11.977-12.765,14.294,3.821,5.226,7.472,10.141,11.095,15.114,2.461,3.39,3.594,7.063-.255,10-3.933,3.023-7.528,1.384-10.415-2.118-2.971-3.617-5.491-7.656-8.886-10.763-1.586-1.441-5.265-2.148-7.189-1.3-2.037.875-4.414,3.191-2.264,6.892,2.179,3.786,3.115,8.221,4.9,12.26,1.839,4.21,1.867,8.108-2.547,10.284-4.614,2.287-7.67-.48-9.51-4.548-2.545-5.622-4.867-11.328-7.7-17.967-4.7,8.587-10.385,10.509-18,3.644-.481,3.5-.935,5.848-1.133,8.221-.339,4.209.227,8.645-1.046,12.515-.822,2.514-4.048,5.65-6.482,5.9a6.221,6.221,0,0,1-.633.033C-2529.273,712.062-2531.238,708.914-2531.1,704.882Zm9.85-33.307c9.4,3.362,16.1-1.328,24.141-4.8,9.99-4.294,17.4-12.6,27.763-15.962,1.1-.339,1.953-2.006,2.547-3.249,2.914-6.215,6.028-12.4,8.462-18.842,1.245-3.305.424-7.458,1.953-10.537,4.471-9.069,3.452-17.177.48-26.837-3.14-10.227-9.649-19.154-11.008-29.946-.17-1.242-2.152-2.373-3.453-3.305-5.463-3.87-10.81-7.966-16.556-11.356-3.424-2.034-7.726-2.485-11.237-4.408-6.989-3.813-13.073-7.514-22.243-4.745-11.18,3.362-23.207,3.956-34.867,5.734-.454.056-1.075-.056-1.3.2-5.83,6.327-11.886,12.486-17.292,19.152-4.781,5.932-8.828,12.458-12.538,17.77-.933,7.91-1.81,15.4-2.632,22.911a11.508,11.508,0,0,0-.113,2.4c.651,6.271,1.953,12.571,1.812,18.815-.056,3.107.368,4.775,2.406,7.146,4.131,4.746,7.273,10.369,11.178,15.341,1.529,1.92,4.387,2.769,6.056,4.6,3.256,3.616,5.972,7.712,9.2,11.328a10.745,10.745,0,0,0,5.037,2.967c6.255,1.78,12.538,3.559,18.905,4.718a28.784,28.784,0,0,0,5.868.232c.74-.021,1.476-.042,2.207-.042A15.431,15.431,0,0,1-2521.255,671.575Z" transform="translate(4113.999 4395.063)" fill="#fff" opacity="0.05"/><text transform="translate(278 4426)" fill="#fff" font-size="58" font-family="SourceSansPro-Bold, Source Sans Pro" font-weight="700"><tspan x="0" y="0">5 Things we value</tspan></text><rect width="261" height="472" rx="5" transform="translate(270 4522)" fill="#1f2d16"/><path d="M-138,271.967V145.288A130.5,130.5,0,0,1-7.5,14.788,130.5,130.5,0,0,1,123,145.288v126.68Z" transform="translate(408 4722.033)" fill="#fff" opacity="0.05"/><text transform="translate(299 4579)" fill="#fff" font-size="34" font-family="SourceSansPro-Bold, Source Sans Pro" font-weight="700"><tspan x="0" y="33">Respect </tspan><tspan x="0" y="81">all living </tspan><tspan x="0" y="129">beings</tspan></text><rect width="261" height="472" rx="5" transform="translate(550 4522)" fill="#b55219"/><path d="M0,128.876V5a5.008,5.008,0,0,1,.17-1.3c.158-.39.313-.769.473-1.157A5,5,0,0,1,5,0H256a5,5,0,0,1,5,5V196.607A166.8,166.8,0,0,1,155.5,234,167.565,167.565,0,0,1,0,128.876Z" transform="translate(810.999 4994) rotate(180)" fill="#fff" opacity="0.03"/><text transform="translate(579 4579)" fill="#fff" font-size="34" font-family="SourceSansPro-Bold, Source Sans Pro" font-weight="700"><tspan x="0" y="33">Transparency </tspan><tspan x="0" y="81">&amp; honesty</tspan></text><rect width="261" height="472" rx="5" transform="translate(830 4522)" fill="#1f2d16"/><path d="M-138,271.967V160.288A130.5,130.5,0,0,1-7.5,29.788,130.5,130.5,0,0,1,123,160.288V271.967Z" transform="translate(968 4722.033)" fill="#fff" opacity="0.05"/><text transform="translate(859 4579)" fill="#fff" font-size="34" font-family="SourceSansPro-Bold, Source Sans Pro" font-weight="700"><tspan x="0" y="33">Welfare of </tspan><tspan x="0" y="81">cattle</tspan></text><rect width="261" height="472" rx="5" transform="translate(1110 4522)" fill="#b55219"/><path d="M5,234a5,5,0,0,1-4.357-2.544c-.16-.388-.316-.768-.473-1.157A5.008,5.008,0,0,1,0,229V105.124A167.554,167.554,0,0,1,261,37.393V229a5,5,0,0,1-5,5Z" transform="translate(1110 4760)" fill="#fff" opacity="0.03"/><text transform="translate(1139 4579)" fill="#fff" font-size="34" font-family="SourceSansPro-Bold, Source Sans Pro" font-weight="700"><tspan x="0" y="33">Simplicity </tspan><tspan x="0" y="81">and </tspan><tspan x="0" y="129">accessibility</tspan></text><rect width="261" height="472" rx="5" transform="translate(1390 4522)" fill="#1f2d16"/><path d="M-138,271.967V166.054A130.527,130.527,0,0,1-8.5,51.788,130.5,130.5,0,0,1,122,182.288v89.68Z" transform="translate(1528 4722.033)" fill="#fff" opacity="0.05"/><text transform="translate(1419 4579)" fill="#fff" font-size="34" font-family="SourceSansPro-Bold, Source Sans Pro" font-weight="700"><tspan x="0" y="33">Thrive with </tspan><tspan x="0" y="81">innovation</tspan></text><path d="M39.417,1.917A14.413,14.413,0,0,0,27.031,9.349,14.413,14.413,0,0,0,14.645,1.917,15.314,15.314,0,0,0,.006,17.794c0,10.24,10.778,21.424,19.818,29.007a11.2,11.2,0,0,0,14.413,0c9.04-7.583,19.818-18.767,19.818-29.007A15.314,15.314,0,0,0,39.417,1.917ZM31.344,43.355a6.7,6.7,0,0,1-8.625,0C11.147,33.646,4.51,24.332,4.51,17.794A10.81,10.81,0,0,1,14.645,6.421,10.81,10.81,0,0,1,24.779,17.794a2.252,2.252,0,1,0,4.5,0A10.81,10.81,0,0,1,39.417,6.421,10.81,10.81,0,0,1,49.552,17.794c0,6.538-6.637,15.852-18.208,25.552Z" transform="translate(302.006 4905.083)" fill="#fff"/><rect width="60" height="60" transform="translate(299 4900)" fill="none"/><g transform="translate(280)"><rect width="60" height="60" transform="translate(299 4900)" fill="none"/><path d="M50.723,18.5A6.766,6.766,0,0,0,44.2,13.765H34.9l-2.824-8.8a6.868,6.868,0,0,0-13.081,0l-2.824,8.8h-9.3A6.868,6.868,0,0,0,2.823,26.178l7.569,5.534L7.514,40.624a6.87,6.87,0,0,0,10.608,7.65l7.409-5.453,7.411,5.447a6.868,6.868,0,0,0,10.606-7.643l-2.878-8.912,7.577-5.534A6.762,6.762,0,0,0,50.723,18.5Zm-4.987,4.238-8.82,6.447a2.128,2.128,0,0,0-.77,2.375L39.5,41.928a2.612,2.612,0,0,1-4.033,2.905l-8.673-6.385a2.128,2.128,0,0,0-2.52,0L15.6,44.834a2.612,2.612,0,0,1-4.044-2.905l3.363-10.365a2.128,2.128,0,0,0-.77-2.375l-8.82-6.447a2.612,2.612,0,0,1,1.541-4.719H17.722a2.128,2.128,0,0,0,2.026-1.477l3.3-10.282a2.612,2.612,0,0,1,4.972,0l3.3,10.282a2.128,2.128,0,0,0,2.026,1.477H44.2a2.612,2.612,0,0,1,1.541,4.719Z" transform="translate(302.991 4904.81)" fill="#fff"/></g><g transform="translate(560)"><rect width="60" height="60" transform="translate(299 4900)" fill="none"/><path d="M50.429,8.207a4.32,4.32,0,0,0-3.5-1.8H39.36C40.468,4.6,41.708.231,38.412,0a2.134,2.134,0,0,0-2.134,2.134A4.269,4.269,0,0,1,32.009,6.4H19.2a4.269,4.269,0,0,1-4.269-4.269A2.134,2.134,0,0,0,12.8,0c-3.3.233-2.053,4.593-.948,6.4H4.287A4.286,4.286,0,0,0,.206,11.983a14.727,14.727,0,0,0,6.23,7.524c0,.075,6.4,25.752,6.4,25.752A6.39,6.39,0,0,0,19.2,51.226H32.009a6.39,6.39,0,0,0,6.358-5.976s6.4-25.677,6.4-25.752a14.728,14.728,0,0,0,6.235-7.513,4.134,4.134,0,0,0-.576-3.778ZM39.223,16.994A10.9,10.9,0,0,0,27.74,27.747V38.42H23.471V27.747A10.9,10.9,0,0,0,11.988,16.994a21.041,21.041,0,0,1,5.81-6.343l15.581.021a20.943,20.943,0,0,1,5.844,6.322ZM4.287,10.672h7.088a25.991,25.991,0,0,0-3.415,4.741,10.051,10.051,0,0,1-3.673-4.741ZM12.8,21.344a6.348,6.348,0,0,1,2.2.414,3.217,3.217,0,0,0,3.786,3.786,6.348,6.348,0,0,1,.414,2.2V38.42a6.348,6.348,0,0,0-3.415,1.007L11.226,21.193a11.584,11.584,0,0,0,1.573.152Zm19.21,25.613H19.2a2.134,2.134,0,0,1,0-4.269H32.009a2.134,2.134,0,0,1,0,4.269Zm3.415-7.53a6.348,6.348,0,0,0-3.415-1.007V27.747a6.348,6.348,0,0,1,.414-2.2,3.217,3.217,0,0,0,3.786-3.786,16.6,16.6,0,0,1,3.776-.566ZM43.245,15.4A25.8,25.8,0,0,0,39.8,10.619l7.152-.011A10.2,10.2,0,0,1,43.245,15.4Z" transform="translate(302.993 4904)" fill="#fff"/></g><g transform="translate(840)"><rect width="60" height="60" transform="translate(299 4900)" fill="none"/><g transform="translate(304 4905)"><path d="M14.532,0H8.3A8.3,8.3,0,0,0,0,8.3v6.228a8.3,8.3,0,0,0,8.3,8.3h6.228a8.3,8.3,0,0,0,8.3-8.3V8.3A8.3,8.3,0,0,0,14.532,0Zm4.152,14.532a4.152,4.152,0,0,1-4.152,4.152H8.3a4.152,4.152,0,0,1-4.152-4.152V8.3A4.152,4.152,0,0,1,8.3,4.152h6.228A4.152,4.152,0,0,1,18.684,8.3Z" fill="#fff"/><path d="M27.532,0H21.3A8.3,8.3,0,0,0,13,8.3v6.228a8.3,8.3,0,0,0,8.3,8.3h6.228a8.3,8.3,0,0,0,8.3-8.3V8.3A8.3,8.3,0,0,0,27.532,0Zm4.152,14.532a4.152,4.152,0,0,1-4.152,4.152H21.3a4.152,4.152,0,0,1-4.152-4.152V8.3A4.152,4.152,0,0,1,21.3,4.152h6.228A4.152,4.152,0,0,1,31.684,8.3Z" transform="translate(13.988)" fill="#fff"/><path d="M14.532,13H8.3A8.3,8.3,0,0,0,0,21.3v6.228a8.3,8.3,0,0,0,8.3,8.3h6.228a8.3,8.3,0,0,0,8.3-8.3V21.3A8.3,8.3,0,0,0,14.532,13Zm4.152,14.532a4.152,4.152,0,0,1-4.152,4.152H8.3a4.152,4.152,0,0,1-4.152-4.152V21.3A4.152,4.152,0,0,1,8.3,17.152h6.228A4.152,4.152,0,0,1,18.684,21.3Z" transform="translate(0 13.988)" fill="#fff"/><path d="M27.532,13H21.3A8.3,8.3,0,0,0,13,21.3v6.228a8.3,8.3,0,0,0,8.3,8.3h6.228a8.3,8.3,0,0,0,8.3-8.3V21.3A8.3,8.3,0,0,0,27.532,13Zm4.152,14.532a4.152,4.152,0,0,1-4.152,4.152H21.3a4.152,4.152,0,0,1-4.152-4.152V21.3A4.152,4.152,0,0,1,21.3,17.152h6.228A4.152,4.152,0,0,1,31.684,21.3Z" transform="translate(13.988 13.988)" fill="#fff"/></g></g><g transform="translate(1120)"><rect width="60" height="60" transform="translate(299 4900)" fill="none"/><g transform="translate(297.001 4898.401)"><path d="M121.955,70.8a16.448,16.448,0,0,0-12.064-5.684A16.349,16.349,0,0,0,93.513,85.051a17.392,17.392,0,0,0,4.9,8.526,10.936,10.936,0,0,1,3.3,7.478c.02.514.03,1.038.03,1.542.01.756.01,1.532.071,2.308a4.787,4.787,0,0,0,4.858,4.545c.363.01.726.01,1.1.01h2.721c.675.01,1.381.01,2.076-.01a4.779,4.779,0,0,0,4.666-4.414c.06-.635.06-1.28.06-1.895v-1.109a13.512,13.512,0,0,1,.363-3.739,13.449,13.449,0,0,1,3.689-5.5,15.682,15.682,0,0,0,4.445-9.413A16.288,16.288,0,0,0,121.955,70.8ZM109.508,89.355l-.615-.917c-.877-1.32-1.723-2.59-2.58-3.87a.559.559,0,0,0,.081-.06,1.892,1.892,0,0,0,.242-.181h0c.2.191.4.393.595.595.222.232.454.464.7.685a2.051,2.051,0,0,0,3.124.02c.292-.282.585-.574.867-.857.141-.141.282-.292.433-.433l.02-.02a2.133,2.133,0,0,0,.242.2.554.554,0,0,1,.091.071c-.01.01-.01.02-.02.03-.857,1.25-1.693,2.5-2.57,3.83Zm-3.83,14.241h0a1.285,1.285,0,0,0,.2.01c.9-.01,1.8-.01,2.681-.01.665,0,1.33,0,2,.01.847.01,1.734.01,2.6-.02h.1c0,.03.01.081.01.151.01.806-.06,1.25-.252,1.431s-.6.262-1.371.272h-1.381c-1.109,0-2.268.01-3.4-.01a1.275,1.275,0,0,1-1.068-.655A1.365,1.365,0,0,1,105.678,103.6Zm7.76-5a3.748,3.748,0,0,1-.222.907,3.6,3.6,0,0,1-.917.1l-.181.01c-.5.02-.6-.04-.615-.05s-.06-.091-.01-.474a10.463,10.463,0,0,0,.04-1.683c-.01-.242-.01-.464-.01-.7v-.06l-.01-.06c-.464-2.056.312-3.669,1.723-5.624.524-.726,1.038-1.492,1.532-2.217a27.18,27.18,0,0,1,4.646-5.735,2.023,2.023,0,0,0,.746-1.471,1.948,1.948,0,0,0-.6-1.482,2.044,2.044,0,0,0-2.923.081,5.9,5.9,0,0,0-.625.705c-.232.282-.564.716-.746.7s-.544-.464-.776-.736a7.786,7.786,0,0,0-.6-.675,2.041,2.041,0,0,0-2.973-.01,5.444,5.444,0,0,0-.645.716c-.222.282-.564.705-.746.705-.161-.01-.564-.484-.776-.736a6.214,6.214,0,0,0-.595-.655,2.047,2.047,0,0,0-3.054.04l-.141.141a16.614,16.614,0,0,0-1.179,1.2h0a.139.139,0,0,1-.03-.04c-.383-.423-.806-.857-1.391-1.391A2.011,2.011,0,0,0,98.9,81.544a1.905,1.905,0,0,0,.675,1.4,32.974,32.974,0,0,1,5.634,7.166c.665,1.028,1.351,2.086,2.076,3.1a1.338,1.338,0,0,1,.262.816c-.02,1.915-.04,3.638.01,5.382a1.106,1.106,0,0,1-.01.212h-.181a5.778,5.778,0,0,0-.837.01,2.16,2.16,0,0,1-.917-.05,1.758,1.758,0,0,1-.1-.645,4.562,4.562,0,0,0-.081-.736,16.206,16.206,0,0,0-4.515-7.881,12.029,12.029,0,0,1-3.659-9.968,12.151,12.151,0,0,1,12.014-11.2c.2,0,.413.01.615.02,5.5.292,9.262,2.953,11.167,7.912a11.778,11.778,0,0,1-2.792,13.163C115.454,93.054,113.983,95.634,113.438,98.6Z" transform="translate(-77.413 -52.611)" fill="#fff"/><path d="M10.466,211.467c.151,0,.3,0,.464.01s.323.01.494.01q.317,0,.635-.03a1.893,1.893,0,0,0,1.8-1.955,1.847,1.847,0,0,0-1.8-1.985,26.434,26.434,0,0,0-3.225-.01,1.978,1.978,0,0,0-.06,3.941,8.008,8.008,0,0,0,1.2.02,1.352,1.352,0,0,0,.2-.01h.292Z" transform="translate(0 -180.619)" fill="#fff"/><path d="M442.016,207.581a26.162,26.162,0,0,0-3.326-.01,1.86,1.86,0,0,0-1.794,2,1.9,1.9,0,0,0,1.824,1.945q.317.03.635.03c.161,0,.333,0,.494-.01s.3-.01.464-.01h.484a7.979,7.979,0,0,0,1.2-.03,1.883,1.883,0,0,0,1.764-2A1.811,1.811,0,0,0,442.016,207.581Z" transform="translate(-386.57 -180.673)" fill="#fff"/><path d="M39.121,96.795A20.666,20.666,0,0,0,42.1,98.488a1.777,1.777,0,0,0,.746.161,1.923,1.923,0,0,0,.978-.282,2.062,2.062,0,0,0,.968-1.673v-.06a1.858,1.858,0,0,0-.756-1.552L43.7,94.87a25.025,25.025,0,0,0-2.691-1.522,1.819,1.819,0,0,0-2.459.907A1.894,1.894,0,0,0,39.121,96.795Z" transform="translate(-28.141 -77.839)" fill="#fff"/><path d="M410.748,98.75h.05a9.73,9.73,0,0,0,4.364-2.469,1.958,1.958,0,0,0-.2-2.237,1.812,1.812,0,0,0-2.248-.574,26.624,26.624,0,0,0-3.044,1.754,1.813,1.813,0,0,0-.625,2.227A1.947,1.947,0,0,0,410.748,98.75Z" transform="translate(-361.399 -77.95)" fill="#fff"/><path d="M43.13,307.5h-.05a6.6,6.6,0,0,0-2.439.968,5.763,5.763,0,0,0-2.016,1.582,1.979,1.979,0,0,0,.3,2.227,1.923,1.923,0,0,0,1.441.685,1.717,1.717,0,0,0,.816-.2,29.526,29.526,0,0,0,2.953-1.713,1.812,1.812,0,0,0,.655-2.207A1.933,1.933,0,0,0,43.13,307.5Z" transform="translate(-28.25 -270.57)" fill="#fff"/><path d="M414.686,309.142c-.151-.091-.3-.181-.464-.272-.7-.413-1.411-.836-2.137-1.219a1.96,1.96,0,0,0-2.661.766,2,2,0,0,0,.675,2.691,28.565,28.565,0,0,0,2.62,1.512,2.194,2.194,0,0,0,.957.232,1.949,1.949,0,0,0,1.048-.3,1.982,1.982,0,0,0,.907-1.723A1.885,1.885,0,0,0,414.686,309.142Z" transform="translate(-361.628 -270.492)" fill="#fff"/><path d="M123.828,12.364a1.746,1.746,0,0,0,1.482.786,2.087,2.087,0,0,0,.726-.131,2.066,2.066,0,0,0,1.361-2.1l.01-.161-.081-.141c-.151-.272-.292-.564-.443-.877a7.757,7.757,0,0,0-1.895-2.762,1.726,1.726,0,0,0-2.308.131,1.867,1.867,0,0,0-.554,2.328A24.439,24.439,0,0,0,123.828,12.364Z" transform="translate(-103.344 0)" fill="#fff"/><path d="M336.952,13.131a2.005,2.005,0,0,0,1.038.292,1.961,1.961,0,0,0,1.653-.927c.494-.766.937-1.572,1.371-2.348l.131-.232a2.065,2.065,0,0,0,.212-.625.643.643,0,0,1,.02-.091l.03-.091V9.019a1.979,1.979,0,0,0-1.411-2,1.853,1.853,0,0,0-2.237.8c-.574.907-1.1,1.8-1.552,2.671A1.937,1.937,0,0,0,336.952,13.131Z" transform="translate(-295.807 -0.283)" fill="#fff"/></g></g></g></svg>