
<svg xmlns="http://www.w3.org/2000/svg" width="26.178" height="26.172" viewBox="0 0 26.178 26.172">
  <path id="instagram-brands_1_" data-name="instagram-brands (1)" d="M13.017,38.2a6.71,6.71,0,1,0,6.71,6.71A6.7,6.7,0,0,0,13.017,38.2Zm0,11.073a4.363,4.363,0,1,1,4.363-4.363,4.37,4.37,0,0,1-4.363,4.363Zm8.55-11.347A1.565,1.565,0,1,1,20,36.361,1.562,1.562,0,0,1,21.567,37.926Zm4.444,1.589A7.746,7.746,0,0,0,23.9,34.031a7.8,7.8,0,0,0-5.484-2.114c-2.161-.123-8.637-.123-10.8,0a7.785,7.785,0,0,0-5.484,2.108A7.771,7.771,0,0,0,.017,39.509c-.123,2.161-.123,8.637,0,10.8a7.746,7.746,0,0,0,2.114,5.484,7.806,7.806,0,0,0,5.484,2.114c2.161.123,8.637.123,10.8,0A7.745,7.745,0,0,0,23.9,55.791a7.8,7.8,0,0,0,2.114-5.484C26.134,48.147,26.134,41.676,26.011,39.515ZM23.22,52.626a4.417,4.417,0,0,1-2.488,2.488c-1.723.683-5.811.526-7.715.526s-6,.152-7.715-.526a4.417,4.417,0,0,1-2.488-2.488c-.683-1.723-.526-5.811-.526-7.715s-.152-6,.526-7.715A4.417,4.417,0,0,1,5.3,34.709c1.723-.683,5.811-.526,7.715-.526s6-.152,7.715.526A4.417,4.417,0,0,1,23.22,37.2c.683,1.723.526,5.811.526,7.715S23.9,50.909,23.22,52.626Z" transform="translate(0.075 -31.825)" fill="#1f2d16"/>
</svg>
