
<svg xmlns="http://www.w3.org/2000/svg" width="24.475" height="24.475" viewBox="0 0 24.475 24.475">
  <path id="Icon_awesome-linkedin-in" data-name="Icon awesome-linkedin-in" d="M5.478,24.475H.4V8.135H5.478ZM2.939,5.906A2.953,2.953,0,1,1,5.877,2.939,2.963,2.963,0,0,1,2.939,5.906ZM24.47,24.475H19.406V16.521c0-1.9-.038-4.327-2.638-4.327-2.638,0-3.042,2.06-3.042,4.19v8.091H8.657V8.135h4.867v2.229h.071a5.332,5.332,0,0,1,4.8-2.639c5.135,0,6.079,3.382,6.079,7.774v8.976Z" transform="translate(0 -0.001)" fill="#1f2d16" opacity="0.6"/>
</svg>
