<svg xmlns="http://www.w3.org/2000/svg" width="557.264" height="565.155" viewBox="0 0 557.264 565.155">
  <g id="Group_2237" data-name="Group 2237" transform="translate(-411.715 -443.624)" opacity="0.2">
    <path id="Path_9809" data-name="Path 9809" d="M562.052,779.831c.473-9.532.571-19.081,1.143-28.581.392-6.66-.016-13.4,1.257-20.044.327-1.73,1.012-4.358-2.024-5.076-1.224-3.966-4.619-2.759-7.378-3.118-4.358-.571-8.683-1.42-13.058-1.7-4.913-.31-9.679-1.551-14.576-1.942-3.95-.31-7.867-1.077-11.818-1.6-2.53-.343-5.044-.685-7.59-.881a3.145,3.145,0,0,1-3.085-2.171c-.62-1.583-1.094-2.971.326-4.456,4.929-5.191,9.842-10.414,14.674-15.686,5.517-6.007,23.635-24.908,23.635-26.948,0-2.057-18.689-20.583-26.034-28.385-4.1-4.342-7.851-8.977-12.16-13.123-1.453-1.387-1.143-2.775-.506-4.423a3.336,3.336,0,0,1,3.264-2.318c5.827-.457,11.573-1.665,17.367-2.2,4.9-.457,9.646-1.763,14.592-1.959a94.421,94.421,0,0,0,12.8-1.7c2.432-.441,4.913,0,7.329-.7.914-.277,1.5-.31,1.567-1.4.033-.457.359-1.159.734-1.273,3.3-1.175,1.844-3.787,1.763-5.876-.1-2.448-.734-4.88-.653-7.312.229-6.317-.392-12.617-.686-18.9-.359-7.557,0-15.164-.979-22.688-.277-2.089.637-3.069,2.3-4.032,1.632-.947,2.84-.522,4.211.408,7.835,5.337,16.061,10.071,23.961,15.278,5.648,3.705,11.719,6.823,16.943,11.2,1.094.914,2.481,1.485,3.656,2.318.637.441.881.082,1.24-.277.424-.424,1-1,1.534-.783,2.922,1.175,4-1.257,4.946-2.873,2.661-4.6,6.333-8.39,9.434-12.617,4.407-6.007,9.01-11.9,13.6-17.792a112.579,112.579,0,0,0,7.068-9.369,3.027,3.027,0,0,1,3.526-1.355c1.616.277,3.02.718,3.493,2.481,2.612,9.7,6.186,19.1,8.994,28.695,1.893,6.431,4.6,12.65,5.664,19.375.245,1.583.424,4.407,3.526,4.081a.5.5,0,0,1,.441.229c1.273,2.758,3.477,1.534,5.24,1.012,5.419-1.632,11.083-2.253,16.469-3.852,5.452-1.616,11.083-2.187,16.535-3.689,5.272-1.453,10.773-2.04,16-3.738a2.934,2.934,0,0,1,3.4,1.143c.979,1.224,2.106,2.383,1.241,4.1-3.15,6.186-5.354,12.78-8.112,19.146-2.759,6.333-5.125,12.829-7.77,19.212-1.518,3.656-3.248,7.231-4.9,10.838-.31.669-.816,1.257.326,1.7.539.212,1.143.8.979,1.387-.8,2.922,1.779,3.477,3.3,4.13,9.7,4.195,18.755,9.614,28.205,14.282,5.615,2.775,10.952,6.088,16.682,8.618,1.534.685,1.893,1.91,1.893,3.542,0,1.649-.408,2.807-1.91,3.542-8.863,4.244-17.367,9.141-26.083,13.613-6.888,3.542-13.678,7.3-20.762,10.446-1.028.457-1.551.783-1.257,1.975.114.457.082,1.257-.2,1.453-3.02,2.106-.473,4.26.31,5.86,3.3,6.758,5.844,13.841,8.8,20.73,3.428,7.982,6.415,16.175,10.038,24.092.8,1.763,1.061,3.183-.424,4.88-1.453,1.665-2.775,1.649-4.717,1.175-8.928-2.187-17.955-3.966-26.948-5.876-4.929-1.045-9.859-2.22-14.772-3.444-3.1-.767-6.219-1.518-9.32-2.334-.686-.18-1.094-.294-1.322.555-.18.685-.734,1.42-1.387,1.355-3.02-.294-3.052,2.383-3.411,3.917-2.35,10.283-6.186,20.109-9.124,30.213-1.763,6.056-4.13,11.932-5.615,18.085-.424,1.8-1.959,2.138-3.542,2.432a3.147,3.147,0,0,1-3.493-1.436c-5.68-7.851-11.883-15.294-17.661-23.047-4.1-5.484-8.765-10.577-12.291-16.518-.9-1.518-1.763-4.391-4.832-3a.513.513,0,0,1-.49-.049c-2.269-2.4-4.081-.163-5.55.9-8.553,6.251-17.792,11.442-26.573,17.318-5.06,3.379-10.446,6.268-15.376,9.875-1.322.963-2.579.767-4.015-.1-1.387-.833-2.318-1.7-2.057-3.411C562,780.859,562.019,780.337,562.052,779.831ZM759.227,668.152c-4.75-2.612-9.124-5.321-13.776-7.492-3.705-1.73-7.068-4.048-10.773-5.7-7.623-3.411-14.739-7.867-22.476-11.034a3.171,3.171,0,0,1-2.171-3.656,1.085,1.085,0,0,0-.31-1.143c-2.024-1.844-1.24-3.787-.277-5.794,1.844-3.885,3.868-7.72,5.354-11.736,2.448-6.66,5.533-13.042,8.08-19.652,2.057-5.321,4.26-10.577,6.447-15.98a115.721,115.721,0,0,0-14.576,2.922c-10.854,2.563-21.839,4.57-32.6,7.557-2.938.816-6.513,3.232-9.141-.93-.065-.1-.327-.082-.49-.082-2.661-.082-3.264-2.089-3.8-4.113-.653-2.514-1.192-5.06-1.893-7.574-1.387-4.864-3.134-9.6-4.57-14.462-2.693-9.075-5.778-18.053-8.912-27.764a9.247,9.247,0,0,1-.62,1.338c-3.966,5.19-7.965,10.381-11.948,15.572-4.276,5.582-8.569,11.165-12.781,16.8-2.122,2.84-4.081,5.811-6.2,8.651-1.045,1.4-2.334,2.579-4.342,1.877a1.415,1.415,0,0,0-1.4.261c-1.877,1.257-3.526.555-5.158-.588-4.293-2.987-8.5-6.1-13.025-8.781-5.386-3.183-10.528-6.806-15.817-10.169-4.831-3.069-9.712-6.072-14.657-9.141,0,2.807-.1,5.419.016,8.031.441,10.283,1.159,20.566,1.306,30.866.033,2.432.375,4.848.49,7.263.18,3.917,2.4,8.276-2.285,11.23-.049.033-.065.147-.082.229-.718,2.432-2.611,2.791-4.782,2.954a120.67,120.67,0,0,0-12.878,1.257c-6.66,1.191-13.417,1.518-20.093,2.742-5.941,1.094-11.981,1.567-18.167,2.334,6.382,7.149,12.4,14.3,18.869,21.04,5.7,5.941,10.969,12.291,17.089,17.808a3.468,3.468,0,0,1,.947,4.211,1.919,1.919,0,0,0,0,1.714c.767,1.747.065,3.2-1.126,4.407-4.26,4.244-8.5,8.52-12.5,13.025-6.2,7-12.683,13.76-19.016,20.648-1.453,1.583-2.791,3.281-4.391,5.158,3.1-.18,5.713.783,8.406.963,7.443.506,14.739,2.024,22.15,2.791,7.133.735,14.233,1.91,21.4,2.4,2.546.179,6.872,4.374,6.986,6.97a25.087,25.087,0,0,1-.131,5.86c-1.4,7.035-.816,14.168-1.322,21.252-.441,6.1-.686,12.242-.865,18.363-.082,2.644-.016,5.288-.016,8.177,9.287-5.876,18.363-11.622,27.438-17.367,3.428-2.171,6.774-4.472,10.283-6.513,3.738-2.171,6.382-7.394,12.03-4.521.114.049.31-.1.473-.147,1.779-.522,3.052.424,3.966,1.7,3.542,4.946,7.166,9.842,10.789,14.723,5.354,7.231,11.2,14.086,16.339,21.48,1.436,2.057,3.215,3.885,4.782,5.745,1.812-5.37,3.64-10.626,5.338-15.914,2.187-6.823,4.276-13.678,6.349-20.534,1.241-4.1,2.465-8.21,3.493-12.356.653-2.644,5.566-6.921,8.259-6.806a4.014,4.014,0,0,1,.751.131c5.876,1.551,11.736,3.183,17.726,4.391,9.01,1.812,17.922,4.1,26.9,6.1,2.269.506,4.57.8,6.97,1.208-1.959-5.027-3.672-9.989-5.811-14.739-4.423-9.842-8.08-20.011-12.715-29.788-1.306-2.759-4.293-5.876-.653-9.206.065-.065-.016-.326-.049-.49-.375-2.22,1.045-3.33,2.758-4.048,7.72-3.232,14.935-7.443,22.443-11.116C743.28,677.032,751.049,672.543,759.227,668.152Z" transform="translate(58.549 58.007)" fill="#1f2d16"/>
    <path id="Path_9810" data-name="Path 9810" d="M504.121,551.915c.8,3.836-5.3,12.34-10.74,13.515-1.975.424-3.852,1.387-5.958,1.094-1.534-.212-2.236,1.061-2.742,1.926-2.122,3.705-5.713,6.039-8.227,9.353a59.432,59.432,0,0,1-12.732,12.128c-2.775,2.024-2.971,4.6-2.269,7.28,1.828,7,1.959,14.1,2.008,21.252.016,2.856.7,5.68.065,8.586a2.452,2.452,0,0,0,.784,2.432c4.9,4.554,7.133,9.957,5.745,16.894-1.175,5.843-5.06,8.553-10.038,10.348-3.33,1.208-6.839,2.563-10.365,1.91-4.57-.849-9.63-7.116-8.129-13.515.392-1.681.229-3.558,1.714-4.946,2.155-2.008,6.872-2.53,9.826-.914,2.905,1.583,4.88,5.7,4.081,8.7-.457,1.73-1.6,3-3.526,2.53-1.812-.441-2.677-1.681-1.975-3.689.653-1.893-.408-2.905-2.089-3.3-1.975-.473-2.922.375-3.118,2.448-.294,3.02.914,5.191,3.069,7.149,1.4,1.289,2.579.114,3.836.065a17.71,17.71,0,0,0,9.157-3.346c3.232-2.155,3.787-9.075,1.747-12.405-1.045-1.7-1.926-3.542-4.113-4.293a2.8,2.8,0,0,1-1.828-3.1c1-6.774-.229-13.531-.1-20.289.1-5.517-1.469-10.854-2.6-16.208a4.645,4.645,0,0,1,1.763-4.962,103.247,103.247,0,0,0,17.612-16.567c2.807-3.281,5.729-6.447,8.243-9.973a2.874,2.874,0,0,1,3.216-1.061c6.219,1.91,13.237-4.978,12.454-10.74-.457-3.346-2.334-6.2-4.489-8.7-3.3-3.8-7.41-3.33-10.283,1.012-.767,1.159-1.812,2.514.343,3.444,1.6.686,3.15,1.4,4.228-.881,1.094-2.318,3.411-2.6,4.815-.637a2.52,2.52,0,0,1,.343,2.628c-1.322,3.33-6.137,5.762-9.467,4.489a15.847,15.847,0,0,1-4.162-2.416c-2.432-1.942-2.791-4.913-1.273-7.72,2.2-4.081,5.076-6.921,10.087-7.508,3.346-.375,5.811.294,7.9,2.824C500.448,541,503.811,545.223,504.121,551.915Z" transform="translate(18.677 57.033)" fill="#1f2d16"/>
    <path id="Path_9811" data-name="Path 9811" d="M498.864,730.751c.131-5.533-6.366-11.589-12.225-9.973-1.632.457-2.889-.229-3.917-1.649a148.622,148.622,0,0,0-16.551-18.657,61.461,61.461,0,0,0-8.847-7.263,4.233,4.233,0,0,1-1.828-4.472,101.651,101.651,0,0,0,2.922-24.924c.016-3.95.2-7.884-.131-11.834a3.466,3.466,0,0,1,2.089-3.493,10.2,10.2,0,0,0,4.848-10.544c-1.289-5.68-5.223-8.847-11.687-9.353-1.747-.131-3.428-.9-5.044,1a8.461,8.461,0,0,0-2.04,6.562c.147,2.024,1.371,2.546,3.118,2.155a2.454,2.454,0,0,0,2.155-3.1c-.457-2.432.245-3.771,2.138-3.983,1.73-.212,3.167,1.289,3.346,3.411.539,6.4-5.68,10.1-11.409,8.537-2.481-.685-3.526-2.6-4.1-5.256-1.159-5.37.441-9.4,4.391-12.96,2.334-2.106,4.8-2.122,7.557-1.5,4.8,1.061,9.663,1.975,13.2,5.811,4.358,4.734,4.913,12.944,1.273,18.379-1.175,1.763-2.138,3.738-4.032,4.88a1.833,1.833,0,0,0-.588,2.252c1.012,3.591-.294,7.1-.147,10.642a58.34,58.34,0,0,1-1.942,18.934c-1.208,4.1.816,6.774,3.852,8.879,5.337,3.689,9.271,8.732,13.548,13.5,2.253,2.514,4.815,4.766,6.692,7.606a2.343,2.343,0,0,0,2.155.979c7.639.31,13.939,4.782,16.012,11.948,1.159,3.966.1,7.933-2.138,11.426a34.2,34.2,0,0,1-3.787,5.4c-5.631,5.892-13.825,4.88-17.955-2.236-2.269-3.917-2.367-6.137-.343-8.553a9.814,9.814,0,0,1,10.169-2.775c1.959.7,3.085,2.285,4.048,4,1,1.8.049,3.02-1.42,3.771a2.293,2.293,0,0,1-3.509-1.4,2.141,2.141,0,0,0-2.448-1.665,3.372,3.372,0,0,0-3,1.583c-.571.947.375,1.746.832,2.448a8.4,8.4,0,0,0,5.811,3.722c2.2.408,2.954-1.241,4.1-2.432C496.546,737.949,498.8,733.412,498.864,730.751Z" transform="translate(18.727 113.468)" fill="#1f2d16"/>
    <path id="Path_9812" data-name="Path 9812" d="M547.557,604.477c-7.786-.375-15.376.849-22.982,2.4-2.873.588-5.909.212-8.879.637-7.1,1.045-14.315,1.094-21.382,2.481a2.986,2.986,0,0,1-3.362-1.241,3.531,3.531,0,0,1,.016-4.1,104.947,104.947,0,0,0,6.806-11.23c2.008-4.13,4.13-8.226,6.007-12.438,2.122-4.782,4.374-9.5,6.464-14.3a17.579,17.579,0,0,1,7.933-8.39c4.57-2.5,8.455-5.941,12.7-8.879,5.272-3.64,10.61-7.166,15.082-11.866,1.289-1.355,3.118-2.269,4.505-3.656a3.6,3.6,0,0,1,4.081-.457c1.208.522,1.453,1.73,1.469,3.02.18,9.385,1.061,18.722,1.975,28.058.457,4.734.114,9.532.424,14.315.375,5.778,1.681,11.36,2.53,17.041.31,2.073,1.338,4.505-1.714,5.6-1.224,4.293-4.766,2.807-7.59,3C550.3,604.558,548.928,604.477,547.557,604.477Zm3.1-64.18c-4.146,3.313-7.231,6.937-11.328,9.451-4.685,2.873-8.912,6.447-13.4,9.63-3.934,2.775-8.684,4.636-10.871,9.336-2.253,4.831-4.276,9.761-6.725,14.494-3.085,5.974-5.24,12.454-9.353,17.906a4.462,4.462,0,0,0-1.143,2.873c.539,0,1.045.033,1.534,0,5.892-.522,11.834-.783,17.677-1.7,2.71-.424,5.4-.065,8.1-.6,6.48-1.306,12.993-2.448,19.652-2.318,3.836.065,7.672.016,11.785.016C551.768,580.042,553.645,560.276,550.658,540.3Z" transform="translate(49.687 56.523)" fill="#1f2d16"/>
    <path id="Path_9813" data-name="Path 9813" d="M552.529,730.108a2.715,2.715,0,0,1-2.187-.8c-2.628-2.775-5.794-4.962-8.635-7.492-3.82-3.379-8.39-5.892-12.356-9.108-4.685-3.8-10.071-6.578-14.739-10.414-3.1-2.546-4.619-6.023-6.088-9.565-2.726-6.545-6.317-12.7-9.026-19.179-1.844-4.423-5.321-7.8-6.692-12.389-.278-.914-1.224-1.616-1.779-2.481a3.551,3.551,0,0,1,.033-4.309c.914-1.224,2.155-1.371,3.656-.963,4.685,1.257,9.549,1.126,14.331,1.681,8.063.914,16.192,1.273,24.174,2.824,6.774,1.306,13.58.783,20.37.865,2.465.033,3.917.686,5.827,2.759,2.122,2.3,1.828,4.015,1.4,6.284-1.469,8.1-2.791,16.192-2.775,24.467.016,9.761-1.355,19.424-2.008,29.135-.131,1.844,0,3.722-.033,5.582C555.957,729.292,554.928,730.239,552.529,730.108Zm-54.843-70.725a6.906,6.906,0,0,0,.555,1.7,63.508,63.508,0,0,1,6.464,11.426c2.742,6.268,6.186,12.193,8.7,18.559,1.273,3.215,2.807,6.3,5.664,8.324,4.146,2.954,8.471,5.631,12.519,8.733,5.566,4.26,11.85,7.574,16.665,12.829a3.235,3.235,0,0,0,2.481,1.371c2.856-19.326,1.045-39.092,5.811-58.418-1.5,0-2.775.049-4.048-.016-5.011-.229-10.022.114-15.066-.343-6.17-.555-12.128-2.546-18.412-2.285-2.073.082-4.179-.767-6.268-.751C507.756,660.558,502.892,658.779,497.685,659.383Z" transform="translate(49.694 132.506)" fill="#1f2d16"/>
    <path id="Path_9814" data-name="Path 9814" d="M653.146,757.067c-1.143-7.916,8.569-15.278,15.523-14.56,2.171.229,4.456-.229,6.513.963.914.522,1.73-.2,2.285-.669,2.742-2.432,6.3-3.281,9.336-5.158a99.458,99.458,0,0,1,19.636-8.8,3.55,3.55,0,0,0,2.661-3.232c1.094-8.243,3.64-16.127,6.2-23.994a30.912,30.912,0,0,1,2.253-6.154,4.308,4.308,0,0,0-.049-4.26c-3.3-6.986-2.22-13.613,2.775-19.391a10.234,10.234,0,0,1,7.623-3.558,45.774,45.774,0,0,1,10.348.49,10.671,10.671,0,0,1,8.08,12.536,21.064,21.064,0,0,1-3.036,6.415c-1.208,1.877-3.1,2.334-5.142,2.106-5.827-.669-10.12-6.268-7.28-12.128.93-1.926,2.873-2.628,4.423-1.551,1.632,1.126,1.8,2.481.522,4.13-1.322,1.7-.375,2.905,1.159,3.9s2.465.539,3.2-1.028a10.007,10.007,0,0,0,1.175-4.1c.049-2.758-1.518-4.554-4.244-5.207-4.113-1-8.406-1.649-12.03.751-4.521,3-6.17,10.561-2.122,15.147a3.522,3.522,0,0,1,.783,4.015c-3.118,6.317-4.6,13.189-6.937,19.766-1.747,4.929-2.2,10.169-2.873,15.343a4.546,4.546,0,0,1-3.1,4,107.251,107.251,0,0,0-22.313,9.549c-3.705,2.057-7.443,4.032-10.952,6.415a3.259,3.259,0,0,1-3.836.049,8.436,8.436,0,0,0-7.965-.93c-6.252,2.448-8.471,5.272-7.345,11.932.326,1.877,1.192,3.722,1.616,5.55.7,2.971,2.856,3.134,4.962,3.346,2.465.261,4.407-1.224,5.958-2.922,1-1.094-.326-2.138-1.028-2.791-.914-.849-2.187-1.5-3.4-.245-.588.62-1.094,1.306-2.057,1.387a2.786,2.786,0,0,1-2.726-1.567,2.488,2.488,0,0,1,.277-3.085c2.987-3.656,9.483-2.938,11.524-.1,1.159,1.632,2.807,2.938,2.791,5.272-.033,3.428-3.9,7.639-7.933,8.732-3.232.881-6.186.147-9.124-.947-3.15-1.175-3.591-4.325-4.554-6.953A25.3,25.3,0,0,1,653.146,757.067Z" transform="translate(152.585 141.979)" fill="#1f2d16"/>
    <path id="Path_9815" data-name="Path 9815" d="M542.473,754.922c5.435-.408,11.3,1.126,17.269,1.828a81.142,81.142,0,0,1,9.745,1.5,1.57,1.57,0,0,0,1.551-.457c6.284-4.88,14.021-5.484,20.534-1.208a10.578,10.578,0,0,1,4.685,6.986c.637,3.411,1.518,6.725,1.371,10.251a10.478,10.478,0,0,1-9.157,9.826,16.643,16.643,0,0,1-9.092-1.877,4.81,4.81,0,0,1-2.612-4.162c-.392-5.582,3.509-10.871,9.94-9.826a5.075,5.075,0,0,1,1.665.588c1.583.881,2.138,2.236,1.289,3.868-.767,1.485-2.008,2.073-3.624,1.175-2.04-1.143-3-.131-3.868,1.7-1.061,2.22.31,2.546,1.91,3.069a7.041,7.041,0,0,0,7.7-1.828c1.681-1.746.669-4.211.653-6.349-.016-1.322-.816-2.628-.816-3.95-.033-5.99-8.912-8.5-13.2-6.611-1.763.783-3.607,1.322-4.685,3.248a2.629,2.629,0,0,1-3.15,1.094c-7.019-2.057-14.315-2.432-21.48-3.542-4.766-.734-9.712-.261-14.576-.147-2.644.065-4.162-.947-5.354-3.313a109.92,109.92,0,0,0-13.254-19.9c-2.563-3.15-5.158-6.268-7.916-9.255a2.958,2.958,0,0,1-.8-3.036c1.893-6.121.049-10.952-5.4-13.988-2.791-1.551-5.566-.326-8.275.506a25.8,25.8,0,0,0-6.056,3.167c-1.192.751-1.6,4.325-.686,6.121a11.112,11.112,0,0,0,2.253,3.069c1.028.979,1.991,1.714,3.15.2,1.077-1.387,1.6-2.905.2-4.293-1.991-1.975-2.3-3.232-.8-4.587,1.4-1.273,3.313-.832,4.88.9,4.13,4.554,1.192,12.225-4.227,13.809a4.9,4.9,0,0,1-4.766-.849c-3.264-2.5-5.811-5.288-6.268-9.7-.522-5.272,1.747-8.52,6.333-10.708a34.052,34.052,0,0,1,9.532-3.346,10.614,10.614,0,0,1,8.569,2.252c3.362,2.775,6.268,5.664,7.149,10.153a23.815,23.815,0,0,1,.229,6.366,4.1,4.1,0,0,0,1.257,3.444c3.885,3.526,6.154,8.324,9.745,12.062,3.885,4.064,5.843,9.336,8.928,13.907.9,1.338,1.763,2.073,3.46,1.91A55.79,55.79,0,0,1,542.473,754.922Z" transform="translate(43.884 165.099)" fill="#1f2d16"/>
    <path id="Path_9816" data-name="Path 9816" d="M722.911,688.972a8.4,8.4,0,0,1,4.734,1.371c3.722,2.938,3.362,4.309,1.616,10.234-1.339,4.538-5.191,6.545-9.385,7.753-2.3.669-4.276-.832-6.121-1.975-4.538-2.807-8.977-5.729-10.822-11.23-.653-1.926-.131-3.64-.016-5.484.441-6.9,4.685-10.871,10.365-13.646a4.523,4.523,0,0,0,2.448-2.905c2.726-8,5.24-16.208,9.957-23.227,3.672-5.452,4.146-9.891-.033-15.049-3.183-3.934-4.423-8.945-6.219-13.58-1.338-3.444-3.46-6.594-4.015-10.365a2.961,2.961,0,0,0-2.057-2.253,19.031,19.031,0,0,1-9.173-8.178c-3.183-5.6-1.877-12.372,2.661-16.943a46.847,46.847,0,0,1,9.01-6.545c3.771-2.334,10.871,1.583,12.8,5.55,1.11,2.269,1.338,4.7,1.893,7.068a3.328,3.328,0,0,1-.718,2.4c-1.518,2.563-6.023,4.342-9.19,3.64a8.691,8.691,0,0,1-6.333-6.594,2.87,2.87,0,0,1,2.448-3.591c1.8-.31,2.889.571,3.118,2.5a3.027,3.027,0,0,0,4.472,2.383,1.545,1.545,0,0,0,.947-1.371c.082-3.085-3.069-7.133-6.023-7.623-1.485-.245-2.367.93-3.379,1.534-3.215,1.959-6.741,3.852-7.851,7.835-1.453,5.272,2.024,12.307,8.226,13.123,1.4.18,2.6.8,2.922,2.122,1.649,6.774,4.88,12.927,7.28,19.407,1.893,5.125,5.011,9.549,7.835,14.152a4.63,4.63,0,0,1,.18,5.272,97.465,97.465,0,0,0-10.577,20.7c-1.616,4.342-3.542,8.553-4.685,13.074a2.985,2.985,0,0,1-2.856,2.2c-6.562.555-10.642,9.549-7.867,14.462,1.681,2.971,4.472,4.962,7.476,6.611,1.714.947,3.118,1.975,5.288.571a8.139,8.139,0,0,0,3.771-5.648c.31-1.469.212-2.546-1.6-2.628-1.551-.065-3.313-.147-3.542,1.926-.163,1.5-.441,2.726-2.057,3.118a2.757,2.757,0,0,1-2.791-.9c-1.159-1.257-.9-2.612-.294-4.048A8.094,8.094,0,0,1,722.911,688.972Z" transform="translate(183.806 83.853)" fill="#1f2d16"/>
    <path id="Path_9817" data-name="Path 9817" d="M512.89,541.244c.8,8.553-3.248,13.221-8.83,16.714-3.819,2.383-8,1.241-11.981-.179a47.09,47.09,0,0,1-7.688-3.868c-4.015-2.3-3.885-9.989-1.8-13.515a18.848,18.848,0,0,1,5.6-5.533,4.2,4.2,0,0,1,3.444-.522,8.367,8.367,0,0,1,6.333,5.762c.947,2.807.865,6.072-1.73,8.553-1.583,1.518-3.411,1.8-4.733.506-1.42-1.4-1.192-2.742.783-4.407,1.224-1.045,1.11-3.036-.163-4.489-1.306-1.469-2.187-.506-3.167.375a8.168,8.168,0,0,0-2.546,7.623c.245,1.844,2.008,2.024,3.15,2.644,3.362,1.844,6.774,3.819,10.9,2.84,3.2-.751,7.263-5.24,7.443-8.537.1-1.893.653-3.868-.588-5.7a2.309,2.309,0,0,1,.6-3.02c5.027-4.978,8.879-10.92,13.384-16.322,3.362-4.015,5.419-8.814,7.965-13.287,1.11-1.959,2.579-3.052,4.6-2.954a124.9,124.9,0,0,0,26.9-1.812c3.15-.539,6.284-1.192,9.418-1.8a3.564,3.564,0,0,1,3.689,1.061,11.167,11.167,0,0,0,14.837,1.91,5.948,5.948,0,0,0,2.367-3.216,28.282,28.282,0,0,0,1.5-8.471c-.114-4.505-3.134-7.019-7.639-6.007-1.322.294-3.82.131-2.954,2.954.685,2.253,1.861,2.791,4.374,1.861a2.433,2.433,0,0,1,3.362,1.453A2.707,2.707,0,0,1,588.3,495.7a8.217,8.217,0,0,1-9.3-2.04c-1.828-2.269-3.4-6.48-1.355-9.712,1.4-2.236,3.77-2.481,5.876-3.183,5.631-1.893,13.172,1.975,14.021,7.263a24.089,24.089,0,0,1-.8,10.332c-.6,2.138-.718,4.423-2.416,6.284-6.823,7.427-15.523,6.97-22.345,2.3a4.873,4.873,0,0,0-4.587-.8c-4.26,1.355-8.732.963-13.009,1.959-6.219,1.453-12.536.93-18.82,1.012a2.008,2.008,0,0,0-2.057,1.159c-.408.832-1.143,1.5-1.518,2.35-3.689,8.063-10.087,14.25-14.87,21.546a3.214,3.214,0,0,1-.8,1C513.608,536.918,512.319,539.285,512.89,541.244Z" transform="translate(43.907 23.177)" fill="#1f2d16"/>
    <path id="Path_9818" data-name="Path 9818" d="M653.135,517.317a32.518,32.518,0,0,1,3.036-12.323c1.208-2.775,6.986-5.06,10.365-4.456,3.428.6,6.039,2.546,8.5,4.75,1.779,1.6,1.665,3.934,1.045,5.745-1.942,5.664-8.292,8.569-13.4,4.456-1.485-1.208-1.926-2.661-.588-4.211,1.306-1.518,2.759-1.551,4.13,0,1.518,1.714,2.807.9,4.064-.375,1.387-1.42.93-2.334-.539-3.46a7.78,7.78,0,0,0-7.884-1.175c-1.632.571-1.567,2.138-2.008,3.33-1.322,3.558-2.367,7.165-1.208,11.083.93,3.117,7.361,7.1,10.381,6.317,1.665-.424,3.444-.294,4.995-1.567,1.11-.9,2.644-.375,4.015.49a134.114,134.114,0,0,0,30.9,15.163c2.269.735,4.407,1.485,4.766,3.82.277,1.893.734,3.77.914,5.68.539,5.7,2.285,11.05,4.13,16.42,1.551,4.538,2.726,9.19,4.88,13.515a3.34,3.34,0,0,1-.62,4.032c-4.423,4.342-2.073,13.988,3.2,15.963a17.742,17.742,0,0,0,10.234.327c4.913-1.126,6.578-6.725,3.15-10.528-1.175-1.306-2.236-.408-3.118.294-1.094.865-1.861,2.04-.8,3.428.653.865,1.208,1.649.833,2.775a3.008,3.008,0,0,1-2.236,1.91,2.688,2.688,0,0,1-2.873-1.224c-2.22-2.677-1.681-8.276,1.11-10.4a18.531,18.531,0,0,1,3.738-2.155,5.881,5.881,0,0,1,7.508,2.481c2.2,3.738,3.575,7.378,1.861,12-1.844,4.978-5.37,6.349-9.973,6.708a62.313,62.313,0,0,1-8.373,0,9.177,9.177,0,0,1-6.333-2.906c-3.917-4.342-6.513-9.336-4.848-15.539a19.941,19.941,0,0,1,1.877-5.5c.833-1.339-.2-2.416-.571-3.558-2.709-8.422-6.317-16.567-7.345-25.479a48.455,48.455,0,0,0-1.175-5.452,2.463,2.463,0,0,0-1.844-1.877c-9.075-2.693-17.122-7.655-25.61-11.622a9.07,9.07,0,0,1-2.35-1.518,5.224,5.224,0,0,0-5.68-1.192c-6.366,1.926-14.233-.865-18.167-6.333A11.06,11.06,0,0,1,653.135,517.317Z" transform="translate(152.595 35.922)" fill="#1f2d16"/>
    <path id="Path_9819" data-name="Path 9819" d="M582,747.2c6.072-.6,10.251,3.232,13.825,7.867a3.841,3.841,0,0,0,3.036,1.828c4.995.049,9.5,2.367,14.38,2.856,5.974.6,11.263,3.509,16.926,5.109,1.191.343,2.04.441,3-.457A113.9,113.9,0,0,1,656.3,748.248c4.489-2.432,6.284-5.729,7.949-9.81,2.5-6.039,11.85-10.218,18-7.884,4.113,1.567,7.035,4.929,10.1,8.031,3.689,3.738,3.215,7.818,1.191,11.9-2.008,4.048-5.876,5.7-10.087,6.513a4.735,4.735,0,0,1-4.538-1.861c-3.705-4.423-3.738-10.708,2.04-13.727a4.966,4.966,0,0,1,1.453-.424,2.684,2.684,0,0,1,3.379,2.3c.326,1.551-.457,2.53-2.057,3-2.236.669-2.709,1.877-1.942,3.983.914,2.5,2.6,1.469,3.885.735,1.355-.767,2.807-1.518,3.477-3.216.832-2.105,1.143-3.819-.637-5.778-2.3-2.563-4.587-5.272-7.737-6.48-5.223-2.008-12.748,2.057-13.2,8.406-.277,3.885-2.187,5.076-4.766,6.5-8.863,4.864-17.514,10.006-25.088,16.828-2.024,1.828-3.966,4.782-7.312,3.33-1.861-.816-3.836-1.289-5.631-2.171-7.329-3.591-15.539-3.868-23.21-6.17a25.518,25.518,0,0,0-6.284-.653,3.591,3.591,0,0,1-3.624-2.709c-1.061-3.738-3.95-5.648-7.247-6.349-3.036-.637-6.708-1.061-9.059,1.779a21.114,21.114,0,0,0-4.423,7.884c-.473,1.779-1.42,3.248.1,5.158a7.725,7.725,0,0,0,5.892,2.938c1.485.114,2.987.261,2.824-2.089-.131-1.861-.6-3.215-2.791-3.052a2.75,2.75,0,0,1-2.6-.718,2.657,2.657,0,0,1-.6-2.856,3.147,3.147,0,0,1,2.448-2.024c3.248-.6,8.324,3.1,8.569,6.464.131,1.746.392,3.558-.343,5.3-1.518,3.64-4.782,4.962-9.679,4-4.685-.93-7.525-3.95-9.516-8.014-1.061-2.171-.131-4.162.653-6.1,1.991-5.044,4.064-9.989,9.206-12.911C577.248,747.106,579.354,747.334,582,747.2Z" transform="translate(96.76 180.995)" fill="#1f2d16"/>
    <path id="Path_9820" data-name="Path 9820" d="M580.484,498.879c5.941-.18,9.614-2.057,11.311-7.019a3.34,3.34,0,0,1,3.1-2.318c7.541-.441,14.772-2.612,22.084-4.195a68.856,68.856,0,0,0,13.025-4.75,4.509,4.509,0,0,1,5.044.686,87.486,87.486,0,0,0,16.877,13.009c4.472,2.546,8.569,5.778,13.4,7.737a3.171,3.171,0,0,1,2.057,3.477c-.49,6.692,7.72,12.16,12.993,10.136a18.93,18.93,0,0,0,9.418-8.586c1.42-2.465-3.8-8.341-6.627-7.786-1.371.278-1.5,1.616-1.681,2.6a2.2,2.2,0,0,0,1.567,2.775c1.469.326,2.644.8,2.759,2.5a2.671,2.671,0,0,1-1.551,2.726c-1.436.669-2.759.147-4.081-.637-6.056-3.526-4-11.817-.016-14.315,3.085-1.926,5.794-.326,8.39.881,4.423,2.089,6.137,6.072,6.545,10.74.277,3.02-1.975,4.782-3.575,6.758a26.952,26.952,0,0,1-7.574,6.415,11.243,11.243,0,0,1-8.537,1.143c-7.508-1.844-11.785-6.562-13.368-14-.31-1.436-1.812-1.649-2.84-2.3-7.443-4.7-15.441-8.569-21.97-14.641-1.42-1.322-3.085-2.4-4.619-3.624-.9-.718-1.714-.343-2.612.033-8.847,3.721-18.232,5.762-27.585,7.345-4.472.767-6.986,2.84-9.63,5.713-4.276,4.652-9.891,5.337-15.539,4.276-4.293-.8-6.823-4.407-8.912-8.145a44.822,44.822,0,0,1-3.346-7.9c-.93-2.856,1.681-7.8,4.913-9.924,3.118-2.04,6.545-2.334,10.038-1.975,2.236.229,3.624,1.926,4.342,3.917,1.959,5.452-1,11.262-7,11.883-2.057.212-3.819-1.11-3.738-2.922.082-1.975,1.208-2.889,3.215-2.677,2.367.245,2.824-1.224,2.905-3.183.114-2.465-1.583-1.942-2.954-1.942-3.02,0-5.076,1.632-6.5,4.146-1.028,1.812.506,3.264.914,4.8a18.581,18.581,0,0,0,4.081,6.937C576.762,498.487,579,499.336,580.484,498.879Z" transform="translate(96.789 20.198)" fill="#1f2d16"/>
    <path id="Path_9821" data-name="Path 9821" d="M480.26,635.837c-.294-4.358,2.073-8.047,2.856-12.095,1.11-5.713,2.612-11.377,4.211-16.91,1.4-4.831,1.077-9.924,3.02-14.56a10.476,10.476,0,0,0,.2-2.514,3.43,3.43,0,0,1,2.579-3.15,2.917,2.917,0,0,1,3.362,1.241c2.987,4.407,7.3,7.557,10.789,11.507,4.456,5.011,9.712,9.287,13.907,14.576a82.961,82.961,0,0,0,16.943,15.849c3.33,2.383,2.954,5.452,3.052,8.52.049,1.453-1.681,2.285-2.775,3.183-4.995,4.13-10.25,8.014-14.38,13.042a187,187,0,0,1-14.641,15.637c-3.362,3.248-6.056,7.149-9.875,9.957a14.61,14.61,0,0,0-2.873,3.542,3.111,3.111,0,0,1-3.542,1.42,3.454,3.454,0,0,1-2.563-3.167,114.079,114.079,0,0,0-2.2-13.466c-1.11-4.276-2.269-8.618-3.232-12.927C483.638,648.9,480.651,642.66,480.26,635.837Zm5.207-.082a13.21,13.21,0,0,0,.571,4.456c3.085,9.957,5.6,20.06,7.884,30.229.375,1.681.033,3.4.571,5.06.392,1.224.669,1.567,1.828.7a34.306,34.306,0,0,0,4.162-4.13c4.407-4.619,9.255-8.863,13.4-13.662a145.841,145.841,0,0,1,20.991-20.517c2.383-1.844,2.448-2.35.049-4.081-11.262-8.1-19.293-19.473-29.233-28.891-2.971-2.824-5.419-6.121-8.52-8.8-2.089-1.8-2.546-1.649-2.873.947a83.094,83.094,0,0,1-1.991,10.871c-1.583,6.007-3.167,12.046-4.587,18.118C486.968,629.341,485.189,632.393,485.467,635.756Z" transform="translate(43.321 90.322)" fill="#1f2d16"/>
    <path id="Path_9822" data-name="Path 9822" d="M706.643,623.671c-.881,4.342-1.828,8.455-2.5,12.6-.539,3.281-.767,6.611-1.077,9.94-.686,7.41-1.306,14.837-2.008,22.247-.392,4.1-2.628,7.378-5.223,10.283-3.134,3.509-5.3,7.655-8,11.458-3.738,5.272-7.655,10.446-10.234,16.486-.653,1.518-1.959,2.873-2.677,4.505a3.514,3.514,0,0,1-3.738,2.105c-1.453-.147-2.171-1.306-2.563-2.807-1.175-4.521-3.673-8.52-5.55-12.748-3.656-8.243-7.557-16.388-10.708-24.859-2.35-6.333-6.3-11.8-9.5-17.677-.8-1.469-1.061-2.661.2-3.9.18-.179.49-.408.457-.571-.457-3.509,2.3-3.9,4.57-4.652,9.108-3,17.563-7.345,26.051-11.834A236.689,236.689,0,0,1,697.5,623.2a21.142,21.142,0,0,0,3.672-2.22,3.372,3.372,0,0,1,3.591-.49C706.137,621.174,706.333,622.594,706.643,623.671Zm-6.154,3.917c-4.88.93-8.569,4.015-12.878,5.778a78.977,78.977,0,0,0-11.214,5.272,137.075,137.075,0,0,1-26.7,12.242c-2.938,1.012-3.052,1.143-1.42,3.591,7.7,11.605,11.54,24.99,17.579,37.362,1.926,3.95,3.15,8.21,5.5,11.964.849,1.355,1.42,1.257,2.057-.049a72.239,72.239,0,0,1,6.415-10.871c4.081-5.615,7.623-11.638,11.9-17.106,2.334-2.987,4.554-6.186,4.57-9.989.016-7.084,1.175-14.054,1.828-21.072.277-2.987.1-6.023.833-9.01C699.559,633.057,700.734,630.51,700.489,627.589Z" transform="translate(145.721 111.612)" fill="#1f2d16"/>
    <path id="Path_9823" data-name="Path 9823" d="M704.045,628.861c-1.045,3.052.294,5.827,1.11,8.618.735,2.53.31,5.207,1.387,7.72.522,1.224-.277,2.693-1.4,3.591a2.74,2.74,0,0,1-3.33.1c-5.941-3.591-12.34-6.268-18.591-9.222-6.513-3.069-12.862-6.431-19.179-9.859-5.6-3.052-11.785-4.636-17.661-6.986-1.665-.669-2.987-1.257-2.775-3.33.016-.163.082-.424,0-.506-3.036-2.84-.49-5.109.849-7.345a127.519,127.519,0,0,0,11.654-24.761c1.436-4.26,3.868-8.226,5.664-12.421,2.285-5.354,5.174-10.43,6.97-16a2.9,2.9,0,0,1,2.5-2.269,3.646,3.646,0,0,1,3.722,2.171c1.453,3.314,3.509,6.317,5.24,9.467,2.563,4.7,6.154,8.847,8.928,13.45,3.15,5.24,7.443,9.679,10.43,15.017a15.4,15.4,0,0,1,1.942,7.3,151.545,151.545,0,0,0,2.481,24.745C704.012,628.518,704.029,628.681,704.045,628.861Zm-3.281,13.172c-.849-5.24-2.2-10.006-2.416-15.017-.294-6.758-1.861-13.45-1.844-20.24a19.948,19.948,0,0,0-4.032-12.03c-6.643-9.287-13.76-18.248-18.82-28.581-1.028-2.089-1.665-1.469-2.612.082-1.942,3.2-2.791,6.855-4.505,10.185a94.068,94.068,0,0,0-5.631,12.16,131.686,131.686,0,0,1-12.829,26.736c-1.192,1.91-.881,2.677,1.208,3.264,13.482,3.787,25.055,11.752,37.721,17.286C691.477,637.822,695.492,640.825,700.764,642.033Z" transform="translate(145.707 71.166)" fill="#1f2d16"/>
    <path id="Path_9824" data-name="Path 9824" d="M593.529,576.087a1.62,1.62,0,0,0-1.485.408c-1.355,1.012-2.612.473-3.689-.49-7.835-7.117-16.567-12.911-25.512-18.542a210.633,210.633,0,0,1-21.284-14.772,18.268,18.268,0,0,0-3.362-1.763c-1.289-.653-2.383-1.6-2.155-3.15a3.739,3.739,0,0,1,2.661-3.15c4.228-1.371,8.684-2.318,12.634-4.26,3.983-1.959,8.1-3.624,12.111-5.468,5.207-2.4,10.316-5.011,15.555-7.361,4.032-1.812,8.112-1.4,12.258-.8a63.548,63.548,0,0,0,6.774.881c3.656.114,7.28.914,10.871.914,4.766,0,9.516.914,14.3.229a44.878,44.878,0,0,1,6.627-.049,3.479,3.479,0,0,1,3.314,1.975,2.82,2.82,0,0,1-.408,3.134c-4.146,4.734-7.427,10.087-11.148,15.131-4.423,6.007-8.635,12.177-13.5,17.873-4.391,5.142-7.182,11.3-10.642,17.024C596.565,575.238,595.749,576.658,593.529,576.087Zm-49.049-37.77c2.416,3.1,6.023,4.309,8.961,6.447,4.113,2.971,8.014,6.349,12.438,8.781a136.4,136.4,0,0,1,24.826,17.808c1.5,1.339,1.828.767,2.644-.571,3.02-4.913,5.288-10.3,9.01-14.755,7.394-8.879,13.58-18.689,20.762-27.732a11.464,11.464,0,0,0,2.35-4.57,146.267,146.267,0,0,1-16.094-.245c-4.8-.473-9.63-.767-14.445-1.061-4.342-.261-8.651-1.812-13.058-.343-5.713,1.893-10.789,5.207-16.371,7.394-5.55,2.171-10.675,5.321-16.437,7.035C547.516,536.962,545.852,537.06,544.48,538.317Z" transform="translate(78.586 45.903)" fill="#1f2d16"/>
    <path id="Path_9825" data-name="Path 9825" d="M627.865,738.115c-3.917.131-7.933-.734-11.7-.277-4.1.49-8.243.082-12.242.93-3.362.718-6.79.033-10.12.832-1.387.327-2.873.245-4.26.571-5.125,1.257-9.81,0-14.152-2.612-4.162-2.5-8.7-4.1-13.074-6.088-6.007-2.742-11.834-5.909-18.379-7.394-1.8-.408-3.558-1.436-5.419-2.008A3.61,3.61,0,0,1,536,718.79c-.1-1.387.9-2.318,2.122-2.922,4.717-2.367,8.765-5.745,13.091-8.7,7.345-5.011,14.723-9.973,22.345-14.576,5.207-3.15,9.467-7.492,14.151-11.3,1.469-1.192,2.807-1.045,4.668-1.045,4.815-.016,5.55,3.607,7.117,6.415a139.942,139.942,0,0,0,14.935,21.219c3.1,3.754,5.68,8,8.52,12.013,2.889,4.081,5.794,8.145,8.879,12.062,1.028,1.306,2.008,2.481,1.322,4.064-.7,1.665-2.253,2.187-4.015,2.073C628.714,738.1,628.29,738.115,627.865,738.115Zm-83.555-19.522c4.162,2.269,8.618,2.889,12.65,4.913,6.758,3.4,13.939,5.99,20.648,9.549,2.922,1.551,6.1,2.709,9.206,2.253,6.708-1,13.45-1.273,20.174-1.779,5.272-.392,10.544-1.126,15.865-.555a3.917,3.917,0,0,0,2.742-.343c-10.381-16.8-24.467-30.8-33.412-48.886-10.675,11.214-24.271,17.53-36.105,26.3C552.276,712.881,547.722,714.66,544.311,718.594Z" transform="translate(78.576 149.603)" fill="#1f2d16"/>
    <path id="Path_9826" data-name="Path 9826" d="M606.437,519.631c2.122,1.273,5.109,1.469,7.623,2.791,4.831,2.546,10.152,3.411,15.294,4.913,4.211,1.224,8.422,2.416,12.6,3.656,2.35.7,4.815.783,7.149,1.616a20.349,20.349,0,0,1,9.32,6.839c2.987,3.885,6.921,6.758,10.3,10.218,4.505,4.636,8.961,9.32,14.4,12.993,1.387.947,2.579,2.334,4.015,3.4a3.616,3.616,0,0,1,1.469,3.836,3.05,3.05,0,0,1-2.824,2.22c-5.811,1-11.426,2.791-17.139,4.211-8.439,2.089-16.926,3.917-25.414,5.844-5.631,1.273-10.871,3.689-16.273,5.6-1.73.62-2.889-.114-4.521-.7-5.419-1.942-4.211-6.692-4.848-10.3a133.143,133.143,0,0,0-6.154-22.166c-1.8-4.978-2.758-10.251-4.276-15.343-1.436-4.832-2.334-9.826-4.211-14.527C601.736,521.7,602.993,519.549,606.437,519.631Zm18.347,63.51c.13-.049.522-.212.9-.375,12.993-5.745,27.144-7.329,40.675-11.116,4.228-1.191,8.488-2.2,12.715-3.346,1.551-.424,1.7-1.257.343-2.138-5.3-3.444-9.549-8.031-13.907-12.519-3.591-3.722-7.753-6.855-11.018-10.952a15.873,15.873,0,0,0-6.431-4.815c-4.1-1.7-8.553-1.91-12.7-3.4-7.933-2.824-16.469-3.771-24.076-7.7-.555-.294-1.29-.849-1.861-.294-.49.49-.245,1.289-.082,1.959,2.008,7.72,3.95,15.506,6.464,23.015a177.555,177.555,0,0,1,7.737,30.621C623.657,582.684,623.559,583.337,624.783,583.141Z" transform="translate(120.62 48.054)" fill="#1f2d16"/>
    <path id="Path_9827" data-name="Path 9827" d="M688.785,690.664a4.494,4.494,0,0,1-1.73,3.428c-3.215,2.318-6.219,4.913-9.271,7.427-3.673,3-6.66,6.855-10.283,9.94-4.864,4.162-8.6,9.434-13.629,13.417a18.077,18.077,0,0,1-9.075,3.607c-4.587.588-8.749,2.465-13.189,3.493a98.087,98.087,0,0,0-14.9,4.521c-3.118,1.273-6.447,2.024-9.451,3.624a3.422,3.422,0,0,1-4.015-.783,2.936,2.936,0,0,1-.555-3.346c3.1-9.532,5.6-19.228,8.243-28.891,1.371-5.027,3.705-9.81,4.929-14.9,1.143-4.766,1.746-9.646,2.661-14.462.359-1.861.392-4.113,3.232-4.048.473.016.686-.375.947-.734,1-1.42,2.2-1.4,3.8-.849,7.166,2.5,14.1,5.745,21.709,6.823,9.793,1.387,19.048,5.011,28.76,6.757,3.183.571,6.252,1.959,9.549,2.4A2.669,2.669,0,0,1,688.785,690.664ZM609.311,731.7c-.13,1.616.016,2.53,1.6,1.73a64.425,64.425,0,0,1,13.548-4.831c4.978-1.289,9.94-2.677,14.87-4.113,4-1.175,8.39-1.208,11.834-4.113,4.554-3.836,8.21-8.569,12.7-12.487,4.636-4.048,8.422-8.994,13.531-12.568,1.143-.8,3.167-1.4,2.856-2.84-.163-.816-2.367-1.469-3.722-1.7-9.6-1.567-18.689-5.321-28.336-6.692-7.851-1.126-15.082-4.276-22.476-6.888-1.5-.522-1.844-.506-2.187,1.257-1.159,5.876-1.632,11.9-3.526,17.612-1.453,4.407-3.411,8.684-4.472,13.172-1.322,5.566-2.938,11.034-4.521,16.535C610.4,727.879,609.8,729.969,609.311,731.7Z" transform="translate(120.569 144.235)" fill="#1f2d16"/>
    <path id="Path_9828" data-name="Path 9828" d="M592.954,483.2c-7.606-.408-13.841-3.052-17.547-10.316a16.6,16.6,0,0,1-1.7-11.246c.963-4.864,1.812-9.549,5.729-13.221a18.716,18.716,0,0,1,20.485-3,45.812,45.812,0,0,1,15.327,12.438c2.824,3.444,3.085,7.949,4.162,12.095,1.42,5.419-.163,10.626-1.208,15.8a13.232,13.232,0,0,1-4.26,7.41c-5.027,4.081-9.989,8.439-16.339,10.528-2.236.735-4.342-.31-6.513-.375-.816-.016-1.322-1.012-1.371-1.942a2.2,2.2,0,0,1,1.339-2.285,4.088,4.088,0,0,1,2.971-.506c2.628.963,4.75-.326,6.545-1.763a38.674,38.674,0,0,1,5.648-3.9c5.093-2.775,6.986-7.427,8.112-12.8,1.241-6.007-.065-11.622-1.991-17.139-1.208-3.477-4.228-5.843-6.953-8.014-3.983-3.183-8.21-6.366-13.825-6.284-6.774.1-11.3,4.081-12.209,10.789-.229,1.665-.865,3.3-.947,4.978a13.49,13.49,0,0,0,9.483,12.976c.735.212,1.469.392,2.2.588,3.118.816,4.456.31,5.925-2.236,1.322-2.269,1.11-5.484-.522-7.133a2.376,2.376,0,0,0-2.644-.261c-1.355.473-2.661,1.094-4.015,1.6-1.5.555-2.742.212-3.4-1.306a2.331,2.331,0,0,1,1.306-3.183,20.782,20.782,0,0,1,6.4-2.383c4.929-.735,9.793,4.8,9.059,10.1a18.755,18.755,0,0,1-3.82,8.243C597.133,483.2,594.995,483.069,592.954,483.2Z" transform="translate(102.208)" fill="#1f2d16"/>
    <path id="Path_9829" data-name="Path 9829" d="M592.179,773.56c7.459-.065,12.34,8.112,8.879,14.886-3.052,5.974-9.353,7.084-14.641,2.579a2.449,2.449,0,0,1,2.122-4.342,30.819,30.819,0,0,1,3.085,1.191c3.558,1.355,5.24.261,5.484-3.542a5.247,5.247,0,0,0-6.447-5.648c-6.3,1.143-10.854,4.7-11.8,10.952-.783,5.19-.179,10.691,4.048,14.87a12.87,12.87,0,0,0,14.511,2.448,39.625,39.625,0,0,0,14.037-11.2c1.779-2.155,1.942-5.011,2.6-7.606a25.526,25.526,0,0,0-2.971-20.24,7.514,7.514,0,0,0-2.04-2.252c-2.905-2.057-6.056-3.705-8.83-6.007-1.665-1.371-3.722-2.318-6.137-1.453a3.962,3.962,0,0,1-2.971-.555,2.182,2.182,0,0,1-1.24-2.563,2.252,2.252,0,0,1,1.877-1.861,14.267,14.267,0,0,1,12.568,3.1,21.246,21.246,0,0,0,3.934,2.791c7.3,3.852,10.087,10.365,11.377,18.134,1.061,6.415-.686,12.225-2.3,18.167-.588,2.187-2.236,3.738-3.673,5.435-4.456,5.24-9.777,9.336-16.306,11.36-9.728,3.02-18.053-.588-21.839-10.022-1.91-4.782-3.346-10.267-1.371-15.376C577.375,778.441,582.68,774.311,592.179,773.56Z" transform="translate(102.085 195.526)" fill="#1f2d16"/>
    <path id="Path_9830" data-name="Path 9830" d="M499.364,745.531c.375-1.077-.2-1.73-.947-2.416-6.284-5.631-17.237-4.7-21.04,3.183-1.094,2.252-2.889,4.1-3.232,6.806-.93,7.508,2.008,12.013,9.19,14.527,5.941,2.073,12.193,1.649,18.314.555,2.448-.441,4.244-2.432,6.268-3.819,6.545-4.456,10.153-10.757,11.377-18.461.261-1.7-.539-3.33-1.045-4.929a74.023,74.023,0,0,1-2.073-7.574,6.5,6.5,0,0,0-3.313-4.9,3.273,3.273,0,0,1-.784-.653c-1.241-1.192-2.84-2.448-1.338-4.309,1.567-1.926,3.052-.637,4.636.408,3.852,2.563,5.435,6.2,6.137,10.61.49,3.052,2.073,5.876,2.53,9.01a18.452,18.452,0,0,1-1.534,10.349,37.228,37.228,0,0,1-13.646,16.094c-3.787,2.5-7.769,3.232-11.948,3.836a32.908,32.908,0,0,1-16.665-2.089c-10.675-4.13-14.576-15.669-8.781-25.3a55.4,55.4,0,0,1,2.889-5.093c7.182-9.287,21.382-9.108,28.94-.473,2.742,3.118,1,6.447.18,9.614-1.192,4.57-5.386,5.5-9.059,6.888-1.061.408-2.22-.2-3.167-.718-3.264-1.844-4.587-5.093-5.794-8.373a2.158,2.158,0,0,1,1.5-2.856,2.276,2.276,0,0,1,2.873,1.077c.62.914,1.077,1.926,1.649,2.889.669,1.11,1.045,3.15,2.53,2.726,1.73-.49,3.852-1.045,4.652-3.2A7.4,7.4,0,0,0,499.364,745.531Z" transform="translate(36.084 176.35)" fill="#1f2d16"/>
    <path id="Path_9831" data-name="Path 9831" d="M499.379,507.838c-.131-3.624-1.632-5.517-4.962-6.611-1.273-.424-1.73.441-2.187,1.192-.8,1.289-1.42,2.693-2.187,4.032-.7,1.224-1.714,1.991-3.167,1.4a2.38,2.38,0,0,1-1.322-3.4,20.063,20.063,0,0,1,3.526-6.154c2.285-2.6,4.848-2.546,8.031-1.436,5.925,2.04,7.084,6.741,7.623,11.981.2,1.893-.93,3.3-2.187,4.407-5.6,4.946-11.85,7.133-19.375,4.7a16.836,16.836,0,0,1-10.528-8.928c-1.5-3.02-3.346-5.762-3.738-9.32-1.159-10.43,6.627-17.579,14.772-19.228a52.891,52.891,0,0,1,5.745-1.012c8.324-.653,15.963.669,22.819,6.235a37.491,37.491,0,0,1,10.446,14.233c1.632,3.64,2.481,7.933.816,12.1-1.779,4.456-1.893,9.418-4.407,13.678-1.289,2.2-3.379,3.3-5.272,4.685a2.174,2.174,0,0,1-3.167-.637,2.209,2.209,0,0,1,.2-3.036,8.426,8.426,0,0,1,2.073-1.893,6.8,6.8,0,0,0,3.264-4.946,38.738,38.738,0,0,1,1.828-6.839c1.975-4.946.881-9.385-1.371-14.021-2.905-6.023-7.933-9.614-13.188-13.14-1.714-1.159-3.64-.751-5.435-1.061a27.689,27.689,0,0,0-18.4,2.71c-6.1,3.346-7.361,11.915-3.738,16.992,1.077,1.518,1.681,3.4,2.889,4.782,5.256,6.039,14.1,5.941,19.9.734A2.116,2.116,0,0,0,499.379,507.838Z" transform="translate(36.085 22.567)" fill="#1f2d16"/>
    <path id="Path_9832" data-name="Path 9832" d="M540.169,514.015c-7.427-2.236-16-1.7-21.709-8.373a36.969,36.969,0,0,1-8.618-19.114c-1-6.725.93-12.552,4.032-17.971,4.325-7.557,10.087-13.988,19.62-14.478a15.821,15.821,0,0,1,13.662,6.741c2.5,3.4,5.19,7.019,5.631,11.507.424,4.423.131,8.863-2.563,12.6-2.22,3.1-4.8,5.925-8.5,7.476-5.631,2.367-8.275,1.649-12.307-2.922-3.15-3.591-2.628-7.574-1.567-11.491.783-2.889,3.64-3.689,6.317-3.95a27.074,27.074,0,0,1,5.6.375,2.217,2.217,0,0,1,2.106,2.677,2.262,2.262,0,0,1-2.481,2.106c-1.012.049-2.04-.18-3.052-.163-1.306.016-3.183-.506-3.624,1-.506,1.73-1.224,3.64.229,5.6,2.106,2.84,4.195,3.607,7.263,1.975,7.068-3.787,10.2-12.8,5.6-19.456-2.073-3-3.673-6.007-7.3-7.8-5.044-2.5-9.206-.9-12.944,1.959-5.55,4.26-8.7,10.381-10.805,16.943-.9,2.791.065,5.811.49,8.618a25.556,25.556,0,0,0,9.679,16.731c2.057,1.632,4.521,1.8,6.855,2.383,1.877.473,3.722,1.028,5.582,1.551a8.562,8.562,0,0,0,6.252-.294,9.61,9.61,0,0,1,2.612-.93,2.379,2.379,0,0,1,2.84,1.649,2.175,2.175,0,0,1-1.289,2.954C545.343,512.872,543.124,514.6,540.169,514.015Z" transform="translate(61.874 6.596)" fill="#1f2d16"/>
    <path id="Path_9833" data-name="Path 9833" d="M645.565,763.945c8.52.082,14.9,3.313,18.036,10.74,3,7.117,3.689,14.658-1,21.578-2.612,3.852-6.725,5.778-11.1,6.578-6.333,1.143-12.291-.686-18.248-2.906-8.112-3.02-13.042-9.271-15.865-16.633-3.607-9.353-4.309-19.065,3.591-27.275,2.057-2.138,3.1-5.027,5.386-7.084,2.236-2.024,4.978-2.448,7.623-3.232a2.111,2.111,0,0,1,2.3,1.306,2.281,2.281,0,0,1-.457,2.824,5.206,5.206,0,0,1-2.938,1.387,7.231,7.231,0,0,0-5.125,3.852,31.964,31.964,0,0,1-3.95,5.6c-4.015,4.521-4.1,9.647-3.248,15.245.849,5.648,3.64,10.267,7.149,14.347,3.428,4,8.39,5.958,13.5,6.937,3.346.637,6.676,1.649,10.267.637a12.463,12.463,0,0,0,9.059-14.576c-.833-3.607-.914-7.3-3.95-10.152-4.293-4.032-9.157-4.864-14.543-3.379-2.905.8-4.081,5.223-2.252,7.7,2.481,3.379,3.3,3.444,6.431.506a13.332,13.332,0,0,1,2.106-1.861,2.414,2.414,0,0,1,3.264.375,2.131,2.131,0,0,1,.1,3.036c-2.22,2.318-4.309,4.832-7.7,5.615a4.161,4.161,0,0,1-2.954-.114c-4.162-2.171-8.047-6.219-6.937-11.426C635.56,766.459,638.661,763.978,645.565,763.945Z" transform="translate(128.402 190.957)" fill="#1f2d16"/>
    <path id="Path_9834" data-name="Path 9834" d="M646.07,491.735a17.81,17.81,0,0,1-8.6-2.2c-3.656-1.714-3.15-5.386-3.689-8.406-.6-3.411,3.362-9.19,6.611-10.365a6.536,6.536,0,0,1,6.056.849,37.169,37.169,0,0,1,4.636,4.015c1.143,1.061,1.485,2.4.343,3.624-1.224,1.322-2.644,1-3.868-.082a26.894,26.894,0,0,0-3.9-3.3,1.374,1.374,0,0,0-2.122.343c-1.485,1.763-3.052,3.134-2.628,5.958a4.509,4.509,0,0,0,4.211,4.211c7,1.126,13.107-.865,15.9-7.8,2.024-5.027,2.873-10.61-.441-15.882-1.779-2.84-8.292-5.876-12.062-5.272-5.435.865-10.708,2.138-15.506,5.093a18.837,18.837,0,0,0-4.587,4.293,29.221,29.221,0,0,0-6.562,16.992,14.291,14.291,0,0,0,3.15,10.446,43.9,43.9,0,0,1,4.6,6.4,7.211,7.211,0,0,0,5.125,3.836,5.487,5.487,0,0,1,2.759,1.208,2.262,2.262,0,0,1,.62,2.987,2.293,2.293,0,0,1-2.563,1.273c-4.276-.8-7.835-2.726-10.136-6.562A26.283,26.283,0,0,0,620.378,499c-5.876-6.366-6.235-13.792-4.6-21.839a32.151,32.151,0,0,1,8.537-15.637c4.456-4.766,10.561-7.019,17.024-8.308,5.484-1.11,10.593-.963,15.751,1.649,4.832,2.448,7.133,6.578,8.226,11.311a22.961,22.961,0,0,1-2.611,16.388c-2.514,4.489-6.415,7.933-11.915,8.586C649.122,491.375,647.506,492.175,646.07,491.735Z" transform="translate(128.485 5.649)" fill="#1f2d16"/>
    <path id="Path_9835" data-name="Path 9835" d="M537.746,777.573a13.3,13.3,0,0,1,2.008-.131,2.384,2.384,0,0,1,.555,4.652c-2.84.571-5.746.963-8.586-.065-2.954-1.061-3.607-2.807-4.325-5.892-1.436-6.1,2.138-9.353,6.2-12.519a5.061,5.061,0,0,1,4.374-.718,18.56,18.56,0,0,1,13.352,10.528c2.285,4.9,2.971,10.61-.163,15.865-.832,1.387-1.616,2.775-2.432,4.179-5.843,9.957-17.612,11.948-26.606,4.57-6.219-5.093-10.038-11.964-12.193-19.636-1.143-4.081-.065-8.324.767-12.356a30.392,30.392,0,0,1,12.095-18.787,2.411,2.411,0,0,1,.653-.375c6.317-1.812,12.47-4.391,19.211-4.13,2.089.082,3.771,1.42,5.6,2.269a2.014,2.014,0,0,1,.718,2.922,2.46,2.46,0,0,1-3.477,1.159c-2.546-1.159-5.256-1.991-7.884-1.045a57.911,57.911,0,0,1-7.818,2.024c-4.636.979-7.557,3.95-10.185,7.753-3.444,4.995-4.619,10.512-4.9,16.306-.245,5.321,2.514,9.744,5.223,14.054a32.511,32.511,0,0,0,4.162,4.848c6.4,6.627,16,5.713,20.632-2.546,2.22-3.966,3.852-7.672,2.856-12.454-.816-3.885-6.349-9.353-10.218-10.038-2.073-.359-5.55,3.624-5.24,5.941C532.669,777.557,532.784,777.655,537.746,777.573Z" transform="translate(61.784 189.114)" fill="#1f2d16"/>
    <path id="Path_9836" data-name="Path 9836" d="M757.207,580.4c5.223-1.045,9.744,1.4,13.907,4.717,3.215,2.563,4.276,6.333,4.717,10.12,1.012,8.635-2.628,15.816-7.769,22.362-6.4,8.161-15.213,10.789-25.137,10.74a27.924,27.924,0,0,1-7.492-1.028c-4.734-1.322-7.851-4.538-10.838-8.063-1.91-2.253-4.538-3.787-6.039-6.513a15.043,15.043,0,0,1-1.665-7.622,2.107,2.107,0,0,1,1.714-2.236,2.331,2.331,0,0,1,2.791,1.257,1.332,1.332,0,0,1,.229.718c-.343,6.366,5.109,8.994,8.471,12.911,5.795,6.725,13.27,6.5,21.04,4.668a35.685,35.685,0,0,0,3.591-1.208c10.479-3.787,14.331-12.634,16.453-22.394,1.42-6.5-5.027-13.466-11.7-13.45a30.91,30.91,0,0,1-4.6-.033c-5.468-.865-12.128,4.88-12.813,11.034a16.38,16.38,0,0,0-.457,2.987c.2,2.122.065,4.391,3.02,5.125s6.007.294,7.443-1.714a1.961,1.961,0,0,0-.261-2.35c-.881-1.355-1.73-2.726-2.514-4.146a2.451,2.451,0,0,1,3.281-3.411c3.15,1.534,5.7,9.124,4.113,12.177-1.893,3.64-8.014,5.99-12.209,4.668-6.855-2.138-9.206-7.769-7.231-15.359a20.172,20.172,0,0,1,9.01-12.111C749.388,580.192,753.11,580.078,757.207,580.4Z" transform="translate(192.945 86.325)" fill="#1f2d16"/>
    <path id="Path_9837" data-name="Path 9837" d="M756.633,671.586c-6.741,1.469-11.7-2.089-16.061-6.627-2.252-2.35-2.954-5.68-3.558-8.814a21.643,21.643,0,0,1-.294-5.272c.441-7.59,6.447-9.418,12.062-8.716,5.827.734,11.915,5.876,6.708,13.042-.7.963-1.143,2.089-1.844,3.036a2.5,2.5,0,0,1-3.591.849c-1.4-.9-1.387-2.236-.62-3.591.506-.881,1.061-1.73,1.583-2.612,1.779-3.02.31-5.827-3.265-5.778-4.636.065-6.627,1.29-5.941,7.149.669,5.7,3.362,10.185,8.651,11.719,5.974,1.73,12.519,2.008,17.432-3.02,3.33-3.411,3.95-7.933,2.742-12.552a36.883,36.883,0,0,0-8.7-15.588c-2.155-2.383-5.37-3.215-8.243-4.358a24.22,24.22,0,0,0-18.591-.18,9.355,9.355,0,0,0-3.15,2.04c-2.432,2.367-4.538,5.06-7.149,7.264a6.941,6.941,0,0,0-2.791,5.99,5.409,5.409,0,0,1-.49,1.959,2.275,2.275,0,0,1-2.775,1.681c-1.4-.245-1.844-1.24-1.893-2.612a12.7,12.7,0,0,1,4.113-10.332c2.726-2.465,4.995-5.337,7.72-7.786a19.116,19.116,0,0,1,12.275-4.685,51.19,51.19,0,0,1,7.41.163,33.093,33.093,0,0,1,15.849,6.268c3.558,2.546,6.121,6.431,8.031,10.381,1.812,3.77,3.722,7.7,3.8,12.013.114,5.892-.914,11.393-6.219,15.261C765.888,670.787,761.726,672.484,756.633,671.586Z" transform="translate(192.914 113.872)" fill="#1f2d16"/>
    <path id="Path_9838" data-name="Path 9838" d="M443.159,575.413c-11.36-.832-18.722,5.517-24.32,14.249-4.57,7.117-1.208,15.588,6.725,18.3a23.718,23.718,0,0,1,2.612.963c8.586,4,17.6-3.4,18.477-11.589.212-1.959-3.428-4.734-5.86-4.554-3.721.294-4.489,1.387-3.607,5.125.212.9.49,1.8.62,2.726a2.4,2.4,0,0,1-1.665,2.824,2.2,2.2,0,0,1-2.971-1.289c-1.11-2.971-1.877-6.072-1.143-9.222.653-2.758,2.84-3.722,5.5-4.57,4.032-1.289,7.084-.375,10.348,2.073,5.142,3.852,4.358,5.778,2.971,10.871-2.171,8-8.112,12.193-15.947,13.858a11.066,11.066,0,0,1-4.538-.359c-7.361-1.632-14.152-4.505-17.3-11.9-2.661-6.219-1.159-12.323,2.644-17.808a41.987,41.987,0,0,1,14.233-12.519,14.842,14.842,0,0,1,4.26-1.551,35.013,35.013,0,0,1,24.647,3.493c3.428,1.877,6.692,4.456,8.1,8.5,1.436,4.162,4.032,7.8,5.158,12.095.751,2.856.065,5.55-.751,8.226a2.183,2.183,0,0,1-2.546,1.649,2.217,2.217,0,0,1-2.057-2.481,9.815,9.815,0,0,1,.245-2.514,7.532,7.532,0,0,0-.718-6.349,35.277,35.277,0,0,1-2.971-6.431c-1.681-4.864-5.06-7.851-9.842-9.483C450.1,576.588,446.9,574.826,443.159,575.413Z" transform="translate(0.001 80.021)" fill="#1f2d16"/>
    <path id="Path_9839" data-name="Path 9839" d="M734.837,556.991c2.628.18,5.37-1.143,7.916-3.411,2.791-2.481,5.729-4.554,6.545-8.684a13.59,13.59,0,0,0-5.762-13.907,39.942,39.942,0,0,0-16.469-6.137c-2.84-.408-5.6,1.012-8.341,1.828A25.389,25.389,0,0,0,703.938,538.3a9.457,9.457,0,0,0-1.469,5.288,36.5,36.5,0,0,1-.832,9.108,6.316,6.316,0,0,0,1.159,5.044,11.251,11.251,0,0,1,1.551,2.628c.522,1.4.343,2.775-1.208,3.46-1.42.637-2.35-.114-3.248-1.224-3.313-4.113-3.771-8.651-2.661-13.662.637-2.889-.245-5.958.637-8.879a20.192,20.192,0,0,1,5.713-9.663c.637-.571,1.289-1.11,1.893-1.73,5.729-5.811,13.156-8.031,20.844-8.847,3.575-.375,7.574.963,11.034,2.383,5.386,2.2,10.92,4.57,14.233,9.81,4.75,7.525,4.815,13.156-.539,20.68-2.84,3.983-6.888,7.476-11.915,8.8A18.917,18.917,0,0,1,716.1,548.6c-.865-3.134,1.7-5.37,3.281-7.655,2.807-4.048,7.149-3.754,11.344-3.346a4.526,4.526,0,0,1,2.971,2.252c1.763,2.563,1.828,5.582,2.105,8.5a2.368,2.368,0,0,1-2.3,2.824c-1.665.131-2.383-1.11-2.726-2.546-.229-.979-.131-2.008-.392-3.02-.767-2.954-3.313-4.081-5.941-2.514-2.873,1.714-3.9,5.3-1.828,7.818C725.533,554.445,729.026,557.236,734.837,556.991Z" transform="translate(180.172 48.137)" fill="#1f2d16"/>
    <path id="Path_9840" data-name="Path 9840" d="M443.839,675.6a28.625,28.625,0,0,0,15.9-6.251c1.926-1.6,2.742-3.836,3.624-6.023a46.037,46.037,0,0,1,2.775-5.974,7.647,7.647,0,0,0,.784-6.578,8.643,8.643,0,0,1-.229-2.269,2.254,2.254,0,0,1,1.861-2.661c1.485-.31,2.4.473,2.889,1.893,1.257,3.672,1.518,7.443-.31,10.871-1.844,3.444-3.02,7.182-4.929,10.561a17.368,17.368,0,0,1-9.043,7.818c-4.309,1.665-8.5,3.526-13.384,3.673-11.246.326-19.685-4.489-26.54-13.009a26.151,26.151,0,0,1-5.256-11.605c-1.469-7.035,4.521-14.886,9.124-16.845,3.836-1.616,7.672-3.558,12.111-3.46A17.914,17.914,0,0,1,444,639.365a19.973,19.973,0,0,1,7.786,14.38,6.625,6.625,0,0,1-.571,3.248c-1.861,4.1-8.422,6.855-12.8,5.68-2.791-.751-5.533-1.387-6.349-4.636s-.016-6.4,1.11-9.451a2.168,2.168,0,0,1,3-1.208,2.369,2.369,0,0,1,1.583,2.856c-.163.914-.49,1.8-.6,2.726-.2,1.387-1.045,3.215.31,4.048a5.574,5.574,0,0,0,5.794.457c3.934-2.138,4.146-5.729,1-10.4-3.754-5.566-11.067-7.8-16.894-4.978-3.052,1.485-6.186,2.4-8.21,5.55a13.019,13.019,0,0,0,.392,14.886,37.564,37.564,0,0,0,13.156,11.442C435.955,675.65,439.644,675.225,443.839,675.6Z" transform="translate(0.023 121.463)" fill="#1f2d16"/>
    <path id="Path_9841" data-name="Path 9841" d="M429.475,547.528a18.687,18.687,0,0,1,6.79-16.943c4.276-3.64,9.565-4.57,15.049-3.15a33.531,33.531,0,0,1,7.818,2.889,18.749,18.749,0,0,1,4.929,28.466c-2.563,3.02-5.99,1.959-9.092,1.681-4.636-.424-6.464-4.26-8.373-7.753a4.107,4.107,0,0,1,.163-3.46c1.289-3.346,4.146-5.093,6.888-6.921a2.232,2.232,0,0,1,3.2.669,2.416,2.416,0,0,1-.588,3.428c-.849.7-1.747,1.371-2.579,2.089-2.481,2.171-2.269,4.619.539,6.382,2.677,1.681,6.758.751,7.884-2.138,2.628-6.692,1.681-13.5-4.668-17.465-4.734-2.938-10.153-4.636-15.947-2.285-2.71,1.094-6.659,6.79-6.921,10.4a41.42,41.42,0,0,0,2.644,18.2,5.709,5.709,0,0,0,.816,1.289,31.079,31.079,0,0,0,18.346,12.03,15.509,15.509,0,0,0,12.16-2.448,21.526,21.526,0,0,1,4.57-2.122c2.35-.865,4.374-2.236,5.272-4.8a7.164,7.164,0,0,1,1.257-1.91,2.4,2.4,0,0,1,3.411-.637c1.159.751,1.224,1.959.735,3.2a14.365,14.365,0,0,1-9.141,8.9,14.211,14.211,0,0,0-3.2,1.469c-6.464,4.081-13.025,4.489-20.37,2.008a33.122,33.122,0,0,1-17.285-13.237A27.46,27.46,0,0,1,429.475,547.528Z" transform="translate(11.139 52.589)" fill="#1f2d16"/>
    <path id="Path_9842" data-name="Path 9842" d="M733.741,693.634c-5.24.163-9.059,2.824-11.736,7.166-1.534,2.481.9,7.051,3.868,7.149,4.244.131,3.542,1.485,4.538-3.183.212-1,.18-2.04.424-3.02.343-1.322,1.11-2.432,2.644-2.3a2.419,2.419,0,0,1,2.318,2.824,20.482,20.482,0,0,1-1.24,6.97c-1.763,4.309-9.483,5.55-13.417,2.3-2.367-1.959-3.689-4.619-5.044-7.28a2.945,2.945,0,0,1-.1-2.236,18.12,18.12,0,0,1,14.054-13.042c5.55-1.257,11.475-.539,15.914,4.244,1.665,1.8,4.015,2.873,5.452,4.962,6.806,9.843,2.628,20.828-6.1,26.263-5.615,3.509-11.719,5.076-17.987,6.513a7.141,7.141,0,0,1-3-.408c-7.28-1.289-13.907-3.8-19.473-9.059-5.093-4.782-7.949-10.218-7.492-17.269.2-3.052-.9-5.99-.62-9.108.294-3.134,2.024-5.337,3.624-7.688a2.106,2.106,0,0,1,3.183-.424c1.24.914,1.224,2.171.7,3.444-.767,1.844-2.448,3.215-2.546,5.452a9.014,9.014,0,0,0-.016,2.481,14.8,14.8,0,0,1,.7,4.244c-.31,4.652.1,9.255,3.379,12.666a32.862,32.862,0,0,0,12.895,8.765c8.194,2.873,15.261.849,22.427-3.036,4.048-2.187,6.937-5.125,8.341-9.434,1.355-4.162-.18-7.916-2.612-11.083a26.592,26.592,0,0,0-6.235-5.24A10.684,10.684,0,0,0,733.741,693.634Z" transform="translate(180.175 153.54)" fill="#1f2d16"/>
    <path id="Path_9843" data-name="Path 9843" d="M699.086,483.194a17.781,17.781,0,0,1,16.29,10.544c2.253,5.4,3.9,10.871,3.82,16.959-.114,9.418-4.423,16.42-11.1,22.362a26.426,26.426,0,0,1-7.982,5.337,22.134,22.134,0,0,1-12,.849c-3.411-.555-6.921-.2-10.3-1.42-2.579-.93-4.13-2.922-5.941-4.668a2.081,2.081,0,0,1-.065-2.824,2.687,2.687,0,0,1,3.836-.294c3.722,4.9,9.336,3.705,14.282,4.374,10.659,1.453,16.42-5.337,21.35-13.221.979-1.567,1.453-3.444,2.35-5.06,1.11-1.975.212-3.983.392-5.958.441-5.027-1.192-9.549-3.167-13.956-3.232-7.247-10.3-10.4-17.334-6.692-5.533,2.905-10.234,7.394-9.875,14.527a14.029,14.029,0,0,0,6.2,11.116c1.453,1.012,6.023-1.077,6.545-3.069,1-3.917,2.416-3.819-2.546-5.533a27.737,27.737,0,0,1-3.085-1.126,2.274,2.274,0,0,1-1.339-2.53,2.389,2.389,0,0,1,2.04-2.024c3.428-.718,10.055,3.411,10.92,6.79.979,3.754-2.35,9.565-6.333,11.409-6.741,3.134-10.25,1.469-14.919-6.415-4.113-6.953-3.836-14.364,1.518-20.534C687.007,487.16,692.067,482.541,699.086,483.194Z" transform="translate(164.116 24.979)" fill="#1f2d16"/>
    <path id="Path_9844" data-name="Path 9844" d="M429.439,705.456c-.8-5.093,1.73-10.267,3.477-15.506,1-3.02,3.917-4.9,6.17-7.1a30.584,30.584,0,0,1,23.521-8.928,2.371,2.371,0,0,1,.767.049c5.99,2.677,12.372,4.587,17.465,8.994,1.681,1.453,2.106,3.624,3.069,5.484a2.039,2.039,0,0,1-.881,2.677,2.289,2.289,0,0,1-2.856-.131c-.2-.163-.457-.327-.539-.539-1.828-4.587-5.99-6.088-9.973-8.276-5.68-3.1-10.92-3.917-17.155-1.779-6.235,2.155-10.789,6.137-14.56,11.083-1.893,2.481-2.677,5.909-2.987,9.043-.571,5.844-1.583,11.817,2.612,17.089,2.873,3.607,8.8,5.615,13.156,3.966a25.475,25.475,0,0,1,3.8-1.42c6.023-1.192,10.136-8.977,8.635-15.49-.147-.653-.229-1.322-.392-1.975-.718-2.873-2.334-4.195-5.076-4.162-2.856.016-5.484,1.828-6.072,4.13-.229.93.424,1.436.979,1.926,1.208,1.077,2.5,2.073,3.721,3.118a2.4,2.4,0,0,1,.555,3.428,2.361,2.361,0,0,1-3.428.555,21.174,21.174,0,0,1-5.6-4.831c-2.024-2.759-1.6-4.75,0-7.7,2.889-5.354,7.525-6.072,12.813-5.746a5.024,5.024,0,0,1,3.46,1.926,16.9,16.9,0,0,1,4.26,9.336c1.028,7.427-1.322,13.858-7.557,17.955-6.627,4.358-14.119,6.594-21.856,2.807-4.815-2.35-7.378-6.855-8.961-11.866C429.227,711.137,429.488,708.656,429.439,705.456Z" transform="translate(11.11 145.586)" fill="#1f2d16"/>
    <path id="Path_9845" data-name="Path 9845" d="M698.9,772.167c-5.06.457-8.994-2.644-13.156-5.778a17.41,17.41,0,0,1-7.117-15.751,17.968,17.968,0,0,1,9.843-15.392c3.02-1.567,5.566.424,8.177,1.42,4.636,1.8,5.256,6.154,5.827,10.234.294,2.073-1.273,3.885-3.069,5.011a21.533,21.533,0,0,1-7.117,2.579,2.327,2.327,0,0,1-2.791-1.714c-.457-1.469.31-2.481,1.632-3.052,1.012-.441,2.073-.734,3.1-1.094,3.085-1.061,3.787-4.26,1.453-6.611a5.594,5.594,0,0,0-8-.131c-4.489,4.374-5.468,12.731-1.534,17.661,3.722,4.668,8.406,8.52,14.87,7.7,4.26-.539,7.459-3.4,9.532-7.3,3.036-5.713,3.738-11.964,3.705-18.216-.016-2.905-1.959-5.55-3.346-8.145a25.764,25.764,0,0,0-14.445-12.519,9.189,9.189,0,0,0-4.211-.392,80.1,80.1,0,0,1-8.618.783,8.085,8.085,0,0,0-6.611,2.661,7.946,7.946,0,0,1-1.8,1.4,2.325,2.325,0,0,1-3.411-.457c-.93-1.208-.506-2.3.424-3.428a14.266,14.266,0,0,1,10.9-5.207c2.465-.114,4.913-.326,7.361-.653,7.851-1.077,13.629,2.84,19.081,7.753,4.929,4.44,7.606,10.234,9.3,16.355.849,3.052.229,6.545.082,9.843-.424,9.859-7.019,19.358-15.066,22.084A16.533,16.533,0,0,1,698.9,772.167Z" transform="translate(164.122 171.962)" fill="#1f2d16"/>
    <path id="Path_9846" data-name="Path 9846" d="M543.937,502.93c5.99-.065,11.377,5.778,10.9,11.638a6.148,6.148,0,0,1-5.027,5.337,28.546,28.546,0,0,0-3.46.767,2.311,2.311,0,0,1-3.117-1.436,2.566,2.566,0,0,1,1.273-3.281,8.215,8.215,0,0,1,3.183-.767c1.681-.278,2.448-1.028,1.665-3.02-1.567-4.032-4.1-4.505-7.443-4a7.657,7.657,0,0,0-6.562,6.741c-.326,5.207,5.7,12.5,10.854,13.123,3.052.359,6.088-.506,9.01-1.289,7.329-1.942,13.988-5.256,19.375-10.773a2.265,2.265,0,0,1,3.036-.392,2.342,2.342,0,0,1,1.028,3.085,4.124,4.124,0,0,1-1.436,2.073c-3.232,1.975-6.056,4.521-9.369,6.464-5.958,3.509-12.438,4.636-18.95,5.811-4.489.816-8.455-1.012-11.589-4a23.1,23.1,0,0,1-5.191-6.578c-3.542-7.427-2.04-14.037,5.337-18.216C539.481,503.142,541.815,503.077,543.937,502.93Z" transform="translate(74.967 37.496)" fill="#1f2d16"/>
    <path id="Path_9847" data-name="Path 9847" d="M608.5,732.971c-.326-6.97,2.53-11.948,8.781-15.278,3.885-2.073,7.753-4.374,11.948-5.452,5.109-1.322,10.414-2.35,15.8-1.828,1.8.179,3.281,1.045,3.2,2.971-.1,2.122-1.681,2.318-3.542,2.2a44.055,44.055,0,0,0-11.1,1.045c-5.533,1.028-10.3,3.526-15.066,6.2a9.344,9.344,0,0,0-4.9,8.618c-.033,2.954-.245,5.892,1.42,8.667,1.844,3.069,4.456,3.934,7.753,3.64,2.4-.212,5.794-2.84,6.317-5.223a6.416,6.416,0,0,0-1.224-4.995c-.62-.9-1.306-.424-2.008-.1-1.208.571-2.22,1.567-3.689,1.6A2.473,2.473,0,0,1,619.4,733.3a2.287,2.287,0,0,1,1.387-2.938c1.289-.637,2.546-1.339,3.836-1.991,2.873-1.453,6.072-.033,8.014,3.183,5.55,9.173-2.971,16.616-9.957,17.3-8.667.849-13.923-6.317-14.184-13.58C608.483,734.506,608.5,733.738,608.5,732.971Z" transform="translate(124.4 168.589)" fill="#1f2d16"/>
    <path id="Path_9848" data-name="Path 9848" d="M543.838,742.224c-5.811-.245-10.152-2.612-12.7-8.112a11.236,11.236,0,0,1,.114-9.157c2.514-6.284,6.643-11.132,13.678-12.764,3.477-.816,6.725.506,10.038,1,5.925.865,11.23,3.493,16.273,6.578a53.747,53.747,0,0,1,6.219,4.831,5.268,5.268,0,0,1,1.224,1.91,2.3,2.3,0,0,1-1.061,3.069,2.213,2.213,0,0,1-3.02-.457c-3.248-3.689-7.476-6.154-11.752-8.177a38.612,38.612,0,0,0-12.144-3.411c-7.655-.865-13.5,3.2-15.18,10.74-.669,2.971.637,5.68,3.673,7.7,2.2,1.469,6.219,1.583,8.161.114A6.987,6.987,0,0,0,549.7,731.7c.31-1.485-1.175-1.518-2.04-1.714a10.4,10.4,0,0,1-2.954-.7,2.6,2.6,0,0,1-1.42-3.428,2.3,2.3,0,0,1,3.15-1.355,32.362,32.362,0,0,0,3.966.865c3.264.571,4.848,3.917,4,8.014C553.191,739.123,549.257,742.42,543.838,742.224Z" transform="translate(74.919 169.635)" fill="#1f2d16"/>
    <path id="Path_9849" data-name="Path 9849" d="M641.544,537.987c-10.1-.163-19.016-3.64-27.21-9.173-3.77-2.53-5.5-6.366-5.778-10.756-.277-4.505-.082-8.863,2.481-13.009a12.577,12.577,0,0,1,14.772-4.8c2.922,1.224,5.713,2.759,7.247,6.023,1.828,3.868,1.355,9.565-1.714,12.634a5.455,5.455,0,0,1-5.4,1.567,27.026,27.026,0,0,1-5.876-2.922,1.979,1.979,0,0,1-.62-2.546,2.415,2.415,0,0,1,2.106-1.616c1.6-.212,2.791.653,3.983,1.42,1.583,1.012,2.318.506,3.052-1.094,2.334-5.191-2.236-8.488-5.876-8.977-5.664-.784-8.292,2.873-8.961,7.476a18.75,18.75,0,0,0,.359,7.835,8.5,8.5,0,0,0,3.428,4.9,42.789,42.789,0,0,0,13.433,6.415c4.505,1.159,9.206,2.187,13.972,1.5,1.665-.245,3.052.131,3.281,1.942.245,1.975-1.143,2.938-2.922,3.183A32,32,0,0,1,641.544,537.987Z" transform="translate(124.392 35.297)" fill="#1f2d16"/>
    <path id="Path_9850" data-name="Path 9850" d="M493.171,603.467c.441,9.271-2.514,17.612-6.953,25.545a7.88,7.88,0,0,1-1.469,1.747c-1.143,1.077-2.432,1.306-3.64.163a2.333,2.333,0,0,1-.131-3.444c2.954-3.8,4.391-8.341,5.892-12.764.914-2.661.881-5.664,1.159-8.52a37.59,37.59,0,0,0,.016-3.836c0-8-5.941-13.58-14.054-13.188a6.792,6.792,0,0,0-6.2,5.19c-.767,2.759-.718,5.664,1.534,7.818a6.311,6.311,0,0,0,4.538,1.355c1.387-.016,1.322-1,1.371-1.959.049-1.257-.278-2.563.441-3.754a2.64,2.64,0,0,1,3.2-1.453,2.222,2.222,0,0,1,1.567,2.6c-.049.93-.082,1.877-.1,2.807-.016,4.538-2.432,6.855-6.888,6.9-9.81.114-12.846-9.793-10.2-16.633,3.526-9.141,13.743-9.63,20.224-5.7,4.505,2.742,8.324,5.778,9.451,11.246C493.367,599.566,493.025,601.525,493.171,603.467Z" transform="translate(32.009 88.757)" fill="#1f2d16"/>
    <path id="Path_9851" data-name="Path 9851" d="M493.1,648.243c.2,3.46.082,6.725-1.5,9.81-3.085,5.974-13.466,11.964-21.3,9.222-3.721-1.306-7.835-6.774-7.9-10.756a15.711,15.711,0,0,1,1.551-8.08c2.2-4.146,5.762-4.946,9.712-5.142,4.146-.2,6.659,2.4,6.676,6.545,0,1.028.033,2.057.082,3.069.082,1.355-.343,2.383-1.747,2.709a2.636,2.636,0,0,1-2.987-1.453,5.311,5.311,0,0,1-.457-3.493c.229-2.367-1.11-2.579-2.856-2.2-3.3.718-5.207,2.5-4.9,7.28.212,3.2,2.71,6.415,5.664,6.953,5.223.947,13.743-3.82,14.625-9.043a38.361,38.361,0,0,0,.18-9.173,41.576,41.576,0,0,0-3.428-13.613,44.71,44.71,0,0,0-3.411-6.186c-.914-1.42-1.257-2.693.114-3.852,1.4-1.175,2.758-.588,3.836.6a25.417,25.417,0,0,1,4.244,7.476C491.871,635.071,493.6,641.535,493.1,648.243Z" transform="translate(32.036 111.638)" fill="#1f2d16"/>
    <path id="Path_9852" data-name="Path 9852" d="M681.941,655.273c-.31-8.047,1.877-15.555,4.995-22.77,1.991-4.6,5.811-7.117,10.9-8.063,4.179-.783,8.014-1.094,12.16.49,5.55,2.138,8.455,9.581,6.953,14.723a14.145,14.145,0,0,1-6.137,8.373c-3.771,2.416-11.132.571-13.009-3.444-.783-1.649.327-7.835,1.632-9.092a2.218,2.218,0,0,1,2.367-.571,2.481,2.481,0,0,1,1.812,2.236,7.9,7.9,0,0,1-.914,3.9c-.343.832-.441,1.649.473,2.236,2.416,1.551,6.823.147,8.014-2.563,2.938-6.708-.735-12.389-8.1-12.013-4.619.229-9.353,1.126-11.622,5.909a40.649,40.649,0,0,0-3.624,11.817c-.8,5.664-.963,11.377.718,16.959.424,1.42.131,2.612-1.322,3.167a2.447,2.447,0,0,1-3.493-1.616C682.953,661.785,682.513,658.5,681.941,655.273Z" transform="translate(170.83 113.913)" fill="#1f2d16"/>
    <path id="Path_9853" data-name="Path 9853" d="M587.99,526.817c-6.545.261-12.4-1.322-18.167-3.362a4.769,4.769,0,0,1-2.285-1.583,2.5,2.5,0,0,1-.1-3.1,2.152,2.152,0,0,1,2.938-.767c6.643,3.265,13.743,4.064,20.991,3.656a35.549,35.549,0,0,0,8.455-1.534c5.99-1.861,9.842-11.883,6.725-17.269-2.563-4.423-9.565-4.75-12.846-.669a5.5,5.5,0,0,0-.6,4.815c.294,1.094.783,1.469,2.04,1.094a11.3,11.3,0,0,1,3.787-.212,2.213,2.213,0,0,1,2.04,1.975,2.242,2.242,0,0,1-.947,2.465c-1.747,1.208-8.161.816-9.875-.506-1.469-1.143-1.844-2.644-2.138-4.407-1.306-7.639,3.379-11.964,9.859-12.846,11.409-1.551,17.024,8.145,14.07,18.036-1.714,5.729-4.489,10.871-10.724,12.454C596.837,526.164,592.3,527.257,587.99,526.817Z" transform="translate(98.146 32.103)" fill="#1f2d16"/>
    <path id="Path_9854" data-name="Path 9854" d="M703.176,626.531c-6.333-.735-13.042-1.747-16.306-8.879a60.645,60.645,0,0,1-4.244-13.5c-1.175-5.958-.359-11.883.539-17.775a3.207,3.207,0,0,1,2.416-2.987c2.057-.441,3.362,1,2.938,3.183a54.93,54.93,0,0,0-1.126,11.507c.114,5.55,1.649,10.544,3.33,15.621a8.878,8.878,0,0,0,5.337,6.039c3.868,1.469,7.7,2.481,11.785.669,3.02-1.338,4.211-3.787,4.391-6.872.147-2.546-2.171-6.545-4.293-7.247a7.15,7.15,0,0,0-4.946.6c-1.028.424-.637,1.42-.31,2.22a6.98,6.98,0,0,1,.816,3.917,2.5,2.5,0,0,1-1.942,2.122,2.231,2.231,0,0,1-2.318-.734c-1.485-1.632-2.236-7.639-1.289-9.581a4.969,4.969,0,0,1,3.411-2.824c3.656-.865,7.231-2.187,10.757.963a13.841,13.841,0,0,1,4.913,12.03C716.593,622.956,709.346,626.335,703.176,626.531Z" transform="translate(170.913 88.317)" fill="#1f2d16"/>
    <path id="Path_9855" data-name="Path 9855" d="M534.033,715.471c-.963,5.843-2.546,11.344-7.606,15.2-4.995,3.8-11.246,3.069-15.865-1.028-3.216-2.84-4.489-6.48-4.685-10.626-.1-2.2,4.244-7.623,6.953-8.618,2.465-.914,4.88.049,7.051,2.693a20.877,20.877,0,0,0,1.8,1.812c1.077,1.028,1.4,2.2.441,3.411a2.518,2.518,0,0,1-3.656.506,9.224,9.224,0,0,1-2.6-2.791,1.224,1.224,0,0,0-1.926-.441c-2.6,1.567-3.477,6.056-1.632,8.488,4.456,5.827,10.724,5.337,14.25-1.306,2.008-3.771,3.558-7.9,1.175-12.062a35.324,35.324,0,0,0-5.223-6.578,47.153,47.153,0,0,0-10.642-8.063A35.888,35.888,0,0,0,504.13,693c-1.453-.424-2.628-1.045-2.432-2.758.212-1.812,1.485-2.187,3.15-2.236,2.53-.049,4.587,1.339,6.66,2.269a45.442,45.442,0,0,1,21.04,18.771C533.886,711.309,534,712.892,534.033,715.471Z" transform="translate(56.878 154.505)" fill="#1f2d16"/>
    <path id="Path_9856" data-name="Path 9856" d="M585.956,719.117a56.851,56.851,0,0,1,16.828,2.465c6.921,2.171,10.724,13.988,9.793,19.326-1.159,6.562-5.191,9.744-11.377,10.887-3.722.686-10.92-2.758-12.683-6.088-1.828-3.46-.539-10.022,2.367-12.079,1.371-.963,8-.849,9.271.18a2.245,2.245,0,0,1,.816,2.285A2.217,2.217,0,0,1,599,738.149a9.187,9.187,0,0,1-3.787-.163c-1.632-.571-1.991.327-2.3,1.453-.783,2.905,1.649,6.48,4.668,6.937,7.9,1.192,12-4.472,9.3-12.275-2.073-5.99-6.088-8.618-12.177-9.32-8.422-.979-16.518-.375-24.271,3.232a2.2,2.2,0,0,1-2.954-.686,2.5,2.5,0,0,1,0-3.1,4.833,4.833,0,0,1,2.481-1.73C575.77,720.5,581.63,718.905,585.956,719.117Z" transform="translate(98.14 174.167)" fill="#1f2d16"/>
    <path id="Path_9857" data-name="Path 9857" d="M672.288,524.407c5.664-.783,11.654,4.766,13.009,9.075,2.024,6.415-1.991,12.813-6.725,15.669a37.515,37.515,0,0,1-5.615,2.938c-4.407,1.73-8.6,1.045-12.7-1.289a64.936,64.936,0,0,1-11.834-8.227,45.877,45.877,0,0,1-5.958-6.953c-1.094-1.485-1.779-3.264-2.938-4.766a4.53,4.53,0,0,1-.849-3.64,2.2,2.2,0,0,1,1.828-1.893,2.107,2.107,0,0,1,2.612,1.11,34.852,34.852,0,0,0,8.129,11.605c4.342,4.276,9.206,8.226,15.245,9.744,4.685,1.175,13.042-3.9,14.184-9.3.588-2.791-.6-5.06-2.5-6.888a7.294,7.294,0,0,0-7.3-1.975c-1.4.424-2.448,1.828-3.264,3.134-.637,1.045.065,1.73.979,2.22a8.031,8.031,0,0,1,2.922,1.991,2.625,2.625,0,0,1,.065,3.509,2.171,2.171,0,0,1-3.4.18c-1.779-1.714-4.831-1.877-5.55-4.9-.457-1.91-.669-3.689.539-5.338C665.53,527.263,667.522,523.46,672.288,524.407Z" transform="translate(143.448 50.982)" fill="#1f2d16"/>
    <path id="Path_9858" data-name="Path 9858" d="M672.885,720.126c-6.66,0-12.079-6.545-10.022-11.752,1.208-3.052,4.342-3.771,6.888-5.125.767-.408,1.7.245,2.122,1.061a2.823,2.823,0,0,1-.229,3.134,6.375,6.375,0,0,1-2.677,1.91c-1.812.833-1.861,1.828-.669,3.346a5.834,5.834,0,0,0,7.9,1.534c3.705-2.089,5.338-5.5,4.293-8.814a11.239,11.239,0,0,0-5.338-6.235c-8.488-5.044-10.9-1.991-18.346,2.661-3.248,2.024-5.729,4.962-8.324,7.737a35.544,35.544,0,0,0-4.848,7.476c-.865,1.567-1.632,2.726-3.46,1.991-1.975-.8-1.942-2.677-1.192-4.13a44.835,44.835,0,0,1,4.538-7.361c4.423-5.68,10.25-9.614,16.175-13.629,9.516-6.464,24.027,1.861,25.92,10.969a12.269,12.269,0,0,1-4.342,12.03C678.827,718.869,676.068,720.861,672.885,720.126Z" transform="translate(143.389 156.803)" fill="#1f2d16"/>
    <path id="Path_9859" data-name="Path 9859" d="M698.219,692.71c-.6,4.015-2.383,7.965-6.366,10.5-4.554,2.889-9.418,2.416-13.646-.375-4.913-3.232-8.6-7.639-9.532-13.825a12.113,12.113,0,0,1,.555-5.533,54.156,54.156,0,0,1,6.5-14.494,50.2,50.2,0,0,1,10.805-11.426,4.606,4.606,0,0,1,1.828-.865,2.451,2.451,0,0,1,2.971,1.42,2.358,2.358,0,0,1-1,3.1c-8.537,6.007-13.45,14.494-16.5,24.223-.734,2.35,0,4.57,1.224,6.578,2.334,3.852,5.027,7.3,9.973,7.851,2.889.326,4.978-1.159,6.48-3.281,1.616-2.285,2.334-5.076.947-7.688a6.307,6.307,0,0,0-4.032-2.856c-.833-.212-1.224.245-1.485.963a19.334,19.334,0,0,1-1.208,3.069c-.767,1.387-1.991,2.2-3.607,1.485-1.7-.751-1.73-2.106-1.045-3.64.555-1.224,1.012-2.514,1.567-3.754a5.787,5.787,0,0,1,7-3C695.623,683.178,698.235,686.524,698.219,692.71Z" transform="translate(162.388 134.664)" fill="#1f2d16"/>
    <path id="Path_9860" data-name="Path 9860" d="M534.006,534.762a15.712,15.712,0,0,1-3.33,10.185,58.718,58.718,0,0,1-10.267,10.544,39.494,39.494,0,0,1-8.945,5.223,32.046,32.046,0,0,0-3.754,1.485,6.056,6.056,0,0,1-3.705.669,2.345,2.345,0,0,1-2.3-2.318,2.185,2.185,0,0,1,1.8-2.448,39.692,39.692,0,0,0,18.51-10.9c3.411-3.493,7.721-6.937,6.725-12.748-.7-4.13-2.155-8.08-5.892-10.544-2.628-1.73-5.4-1.4-7.9.31-2.4,1.665-4.146,3.966-3.754,7.019a6.959,6.959,0,0,0,2.644,3.983c.865.735,1.485.392,2.106-.424a14.708,14.708,0,0,1,2.416-2.612,2.476,2.476,0,0,1,3.673.31c1.077,1.257.767,2.514-.441,3.591a13.862,13.862,0,0,0-1.616,1.632c-3.3,4.015-6.578,4.113-10.348.555-6.986-6.578-2.612-15.164,3.3-18.689,8.324-4.978,16.8,1.126,19.048,8.226C532.749,530.339,534.463,532.689,534.006,534.762Z" transform="translate(56.889 46.878)" fill="#1f2d16"/>
    <path id="Path_9861" data-name="Path 9861" d="M698.217,560.907c-.033,4.766-4.195,9.744-9.646,10.414a5.614,5.614,0,0,1-5.517-2.546,25.679,25.679,0,0,1-2.285-5.37,2.147,2.147,0,0,1,1.175-2.791,2.532,2.532,0,0,1,3.379.9,7.568,7.568,0,0,1,1.208,2.775c.6,2.432,1.991,2.04,3.558,1.094,3.183-1.942,3.4-4.6,2.661-6.888-1.371-4.211-4.1-6.431-7.574-6.219a9.864,9.864,0,0,0-6.888,3.477,18.993,18.993,0,0,0-4.179,6.284,7.463,7.463,0,0,0-.229,4.766,49.108,49.108,0,0,0,10.887,19.489,32.383,32.383,0,0,0,5.223,4.44c1.436,1.012,2.089,2.106,1.159,3.624a2.472,2.472,0,0,1-3.8.7,46.182,46.182,0,0,1-18.575-28.972c-.8-4.032.767-7.623,3.3-10.822,2.677-3.379,5.566-6.186,9.924-7.574,5.909-1.893,12.8,1.779,14.739,7.1C697.368,556.516,698.3,558.164,698.217,560.907Z" transform="translate(162.389 65.474)" fill="#1f2d16"/>
    <path id="Path_9862" data-name="Path 9862" d="M489.643,586.472c-5.109-.571-10.087-1.485-13.956-5.615a12.22,12.22,0,0,1-.6-15.817c1.747-2.122,3.379-4.081,6.3-4.831,4.244-1.094,9.255.212,12.03,3.624a6.274,6.274,0,0,1,.1,6.921c-.881,1.159-1.763,2.3-2.612,3.477-.9,1.224-2.057,1.616-3.33.816a2.559,2.559,0,0,1-1.045-3.346,10.738,10.738,0,0,1,2.138-2.84c.914-1.094.735-1.91-.392-2.759-4.554-3.428-8.6-.343-10.153,3.8-2.318,6.219,2.6,9.859,7.492,10.854a14.661,14.661,0,0,0,6.545.326,10.135,10.135,0,0,0,5.06-2.661,42.4,42.4,0,0,0,8.537-12c1.975-4.179,3.64-8.684,3.77-13.482.049-1.6.686-2.709,2.334-2.775,1.8-.065,2.661,1.11,2.644,2.775a34.489,34.489,0,0,1-1.91,9.94A49.958,49.958,0,0,1,501.2,581.575C497.69,585.346,494.621,586.244,489.643,586.472Z" transform="translate(38.41 67.362)" fill="#1f2d16"/>
    <path id="Path_9863" data-name="Path 9863" d="M494.5,680.158c.278,2.448-1.387,3.868-3.15,5.3-5.4,4.391-11.589,2.53-15.278-1.779-3.591-4.211-4.815-8.928-2.5-13.907,2.35-5.044,6.953-7.41,12.389-8.292,4.081-.653,8.1-.816,11.736,1.453,4.081,2.546,6.676,6.545,9.451,10.3a43.452,43.452,0,0,1,5.011,9.859,49.7,49.7,0,0,1,2.416,10.61c.277,1.714-.229,3.444-2.334,3.558-2.073.114-2.334-1.306-2.661-3.183a50.4,50.4,0,0,0-2.84-10.446,49.462,49.462,0,0,0-9.092-14.184c-2.677-3.052-6.039-3.64-9.924-3.052-3.02.457-5.762,1.175-8.014,3.379-2.416,2.334-2.628,5.142-1.534,7.965a7.443,7.443,0,0,0,6.137,5.109,5.982,5.982,0,0,0,4.7-2.171c.832-.865.049-1.583-.441-2.236A11.643,11.643,0,0,1,486.6,675.8a2.531,2.531,0,0,1,.979-3.362,2.167,2.167,0,0,1,3.313.767C492.137,675.473,494.928,676.893,494.5,680.158Z" transform="translate(38.365 137.472)" fill="#1f2d16"/>
    <path id="Path_9864" data-name="Path 9864" d="M478.161,513.694c-6.023-.637-12.764-1.289-19.489-2.057-1.828-.212-2.269.049-1.649,1.991,1.828,5.68,3.673,11.426,4.929,17.2a123.028,123.028,0,0,0,6.268,19.995,4.168,4.168,0,0,1-.245,3.934,2.332,2.332,0,0,1-2.4,1.11,2.308,2.308,0,0,1-2.04-1.73c-1.11-5.223-3.819-9.94-4.929-15.131-1.942-9.141-5.125-17.955-7.247-27.046-.881-3.754.506-5.762,4.293-5.484,6.5.49,12.993.93,19.44,1.893,3.265.49,6.627.18,9.94.588,4.946.62,9.777,1.877,14.788,2.187a2.168,2.168,0,0,1,1.975,2.563,2.566,2.566,0,0,1-2.758,2.432c-3,.163-5.843-.865-8.765-1.273C486.485,514.331,482.763,513.237,478.161,513.694Z" transform="translate(24.903 39.724)" fill="#1f2d16"/>
    <path id="Path_9865" data-name="Path 9865" d="M477.41,744.041c-5.06.555-11.866,1.322-18.689,2.024a22.829,22.829,0,0,1-4.6.033c-2.236-.229-3.542-2.53-2.905-5.044.751-3.02,1.681-5.99,2.465-8.994,1.6-6.1,3.558-12.095,4.929-18.265.947-4.26,2.758-8.324,4.244-12.438a13.989,13.989,0,0,0,.62-2.432,2.354,2.354,0,0,1,2.693-2.171c1.469.131,2.155,1.11,2.383,2.563.392,2.4-1.11,4.244-1.877,6.252-4.211,11.05-5.99,22.77-9.793,33.918-.457,1.322.18,1.714,1.387,1.551,9.157-1.208,18.379-1.73,27.569-2.6,3.509-.327,6.953-1.29,10.446-1.877a10.748,10.748,0,0,1,3.313-.049,2.457,2.457,0,0,1,2.253,2.383,2.208,2.208,0,0,1-1.991,2.563C492.9,741.87,486.191,744.074,477.41,744.041Z" transform="translate(24.87 160.032)" fill="#1f2d16"/>
    <path id="Path_9866" data-name="Path 9866" d="M451.909,599.263a2.628,2.628,0,0,1,2.236,1.453,2.729,2.729,0,0,1-.473,2.873c-1.224,1.926-3.46,2.4-5.239,3.46a162.8,162.8,0,0,0-14.135,9.467c-4.8,3.542-9.859,6.855-14.951,10.038-1.4.881-1.714,1.208-.1,2.35,6.562,4.636,13.515,8.716,19.783,13.792,3.607,2.905,7.835,5.011,12,7.1a7.819,7.819,0,0,1,2.22,1.681c1.094,1.159,1.73,2.465.506,3.836-1.306,1.469-2.53.9-4-.114-2.644-1.812-5.468-3.379-8.259-4.962-3.575-2.024-6.627-4.734-9.989-7.019-3.836-2.612-7.672-5.288-11.605-7.769a75.727,75.727,0,0,1-6.627-4.685,3.707,3.707,0,0,1,.114-6.121c5.484-3.95,10.969-7.933,16.812-11.393a26.563,26.563,0,0,0,3.836-2.938c4.325-3.787,9.565-6.137,14.413-9.075C449.575,600.568,450.31,599.148,451.909,599.263Z" transform="translate(0 98.398)" fill="#1f2d16"/>
    <path id="Path_9867" data-name="Path 9867" d="M761.5,689.672a3.916,3.916,0,0,1-3.183,3.477c-6.447,1.681-12.895,3.411-19.375,4.929a48.859,48.859,0,0,0-4.815,1.583c-6.186,2.122-12.78,2.416-19.048,4.162a2.141,2.141,0,0,1-2.612-1.143,2.379,2.379,0,0,1,.49-3.036,4.977,4.977,0,0,1,2.661-1.4,142.725,142.725,0,0,0,20.942-4.734,146.331,146.331,0,0,1,16.682-4.1c1.844-.326,2.416-.816,1.094-2.677-4.766-6.692-9.908-13.107-14.2-20.158-2.187-3.591-5.3-6.643-8.129-9.826a7.78,7.78,0,0,1-2.04-3.722,2.367,2.367,0,0,1,1.436-2.709,2.159,2.159,0,0,1,2.938.783c3.624,5.648,8.618,10.218,12.225,15.947,4.195,6.66,9.01,12.911,13.564,19.326A7.01,7.01,0,0,1,761.5,689.672Z" transform="translate(189.938 130.505)" fill="#1f2d16"/>
    <path id="Path_9868" data-name="Path 9868" d="M714.633,550.474c3.819.718,7.672,1.273,11.442,2.2,7.933,1.959,15.833,4.1,23.733,6.17,2.856.751,5.745,1.371,8.537,2.285,3.232,1.061,4.1,3.379,2.171,6.154-3.771,5.435-7.345,11.018-11.719,16.012a19.927,19.927,0,0,0-2.024,3.509c-3.036,5.174-7.149,9.5-10.92,14.1a7.416,7.416,0,0,0-1.143,1.649c-.637,1.42-1.8,2.122-3.33,1.371-1.453-.7-1.7-1.959-1.224-3.46.816-2.563,2.971-4.1,4.57-6.039a90.994,90.994,0,0,0,8.781-12.16c2.171-3.722,5.06-7,7.623-10.5,1.159-1.567,2.269-3.2,3.46-4.734.832-1.061,1-1.616-.653-1.959-5.615-1.143-11.067-3-16.73-4.048-3.607-.653-6.921-2.644-10.659-3.167-3.591-.506-7.149-1.224-10.74-1.828a5.439,5.439,0,0,1-3.069-1.665,2.312,2.312,0,0,1-.375-2.628A1.977,1.977,0,0,1,714.633,550.474Z" transform="translate(189.93 67.533)" fill="#1f2d16"/>
    <path id="Path_9869" data-name="Path 9869" d="M683.291,759.243c1.077-5.533,1.077-13.613.914-21.693a5.573,5.573,0,0,1,.9-2.873,2.343,2.343,0,0,1,2.889-1.045,2.2,2.2,0,0,1,1.714,2.53c-.816,4.244-.261,8.5-.359,12.748-.065,3.167-.718,6.235-1.012,9.336-.571,6.056-.832,12.144-1.24,18.2a34.148,34.148,0,0,1-.441,4.293c-.571,2.856-2.824,4.276-5.5,3.052-6.056-2.775-12.209-5.37-17.955-8.781a22.9,22.9,0,0,0-3.771-1.42c-5.517-2.057-10.4-5.288-15.49-8.112a29.593,29.593,0,0,0-2.726-1.289,2.242,2.242,0,0,1-1.436-2.905,2.443,2.443,0,0,1,2.742-1.844,9.33,9.33,0,0,1,3.313,1.143c5.468,3.362,10.936,6.643,17.057,8.863,4.423,1.6,8.5,4.1,12.748,6.2,1.518.751,3.085,1.4,4.554,2.22s1.877.114,1.861-1.175C682.034,771.664,682.965,766.719,683.291,759.243Z" transform="translate(144.099 183.27)" fill="#1f2d16"/>
    <path id="Path_9870" data-name="Path 9870" d="M684.215,508.185c-.131-9.842-1.583-19.587-2.089-29.4-.016-.424-.049-.849-.065-1.273-.065-3.183.016-3-2.873-1.763-6.9,2.971-13.352,6.872-20.419,9.5-4.6,1.714-8.684,4.57-12.878,7.1a13.589,13.589,0,0,1-2.04.947c-1.844.7-3.362.375-4-1.436-.7-1.975.734-2.628,2.416-3.379a81.1,81.1,0,0,0,7.933-4.505c3.64-2.171,7.7-3.493,11.475-5.3,4.015-1.942,8.08-3.836,12.03-5.941a67.825,67.825,0,0,1,7.312-3.444c3.052-1.208,5.4.326,5.713,3.689.473,4.995.832,9.989,1.192,15,.637,8.945,1.975,17.84,1.42,26.834a2.932,2.932,0,0,0,.147,1.257,2.276,2.276,0,0,1-1.632,3.362c-1.681.457-2.693-.457-3.2-2.106C683.693,514.306,684.574,511.221,684.215,508.185Z" transform="translate(144.122 15.968)" fill="#1f2d16"/>
    <path id="Path_9871" data-name="Path 9871" d="M593.088,486.416a5.947,5.947,0,0,1-3.705-2.4,75.241,75.241,0,0,0-9.5-10.969c-5.925-5.24-11.067-11.23-16.649-16.779-1.208-1.192-1.681-1.241-2.416.375-3.428,7.427-6.382,15.049-10.283,22.264a64.257,64.257,0,0,0-4.668,12.5,6.9,6.9,0,0,1-2.089,3.444,2.351,2.351,0,0,1-3.052.278,2.223,2.223,0,0,1-.914-2.922c2.905-5.909,4.44-12.34,7.476-18.232,3.656-7.1,6.692-14.543,10.136-21.758,1.942-4.064,4.374-4.489,7.525-1.306,4.6,4.636,9.206,9.271,13.613,14.086,2.971,3.248,6.611,5.827,9.434,9.3a69.93,69.93,0,0,0,7.068,8.014,2.3,2.3,0,0,1,.392,2.84A2.139,2.139,0,0,1,593.088,486.416Z" transform="translate(80.839 3.28)" fill="#1f2d16"/>
    <path id="Path_9872" data-name="Path 9872" d="M561.282,802.568c-1.91.065-2.905-1.208-3.542-2.579-2.807-6.039-5.566-12.111-8.129-18.248a25.644,25.644,0,0,0-1.844-3.3c-3.085-5.223-4.554-11.083-6.872-16.616a13.685,13.685,0,0,0-.783-1.828,2.428,2.428,0,0,1,.62-3.591c1.436-.979,2.579-.245,3.607.783,1.4,1.4,1.469,3.362,2.122,5.093a164.863,164.863,0,0,0,7.231,16.42c2.6,5.142,4.929,10.528,7.051,15.931.8,2.04,1.355,1.714,2.677.424,5.321-5.223,10.087-10.969,15.751-15.865,3.934-3.4,6.986-7.639,10.234-11.671a7.662,7.662,0,0,1,1.828-1.73c1.289-.816,2.775-1.289,3.885.163,1.126,1.485.457,2.644-.832,3.934-2.4,2.4-4.391,5.191-6.741,7.639-7.476,7.753-15.049,15.425-22.607,23.1C563.926,801.687,562.833,802.666,561.282,802.568Z" transform="translate(80.849 197.465)" fill="#1f2d16"/>
    <path id="Path_9873" data-name="Path 9873" d="M666.111,486.225a11.085,11.085,0,0,0-4.407,2.04c-3.33,2.84-7.655,3.411-11.377,5.354-1.289.669-2.334.065-3.036-1.045-.783-1.224-.31-2.269.7-3.15,1.649-1.436,3.705-1.926,5.713-2.6,3.558-1.192,6.349-3.8,9.793-5.272,4.962-2.106,7.688-.49,7.949,4.815.261,5.288.163,10.593.963,15.865.261,1.747-.163,3.428-2.334,3.477-2.122.033-2.5-1.665-2.693-3.362-.359-3.1-1.175-6.235-.914-9.287A30.063,30.063,0,0,0,666.111,486.225Z" transform="translate(148.694 23.417)" fill="#1f2d16"/>
    <path id="Path_9874" data-name="Path 9874" d="M672.4,741.637c.392,1.355-.326,2.709-.555,4.113-.588,3.607-.033,7.231-.343,10.854-.457,5.468-3.052,7.133-8.112,4.9-3.118-1.371-5.778-3.477-8.847-4.929-1.828-.865-3.934-.9-5.615-2.236-1.289-1.012-2.628-1.861-1.7-3.672.979-1.893,2.481-1.42,4.162-.767a63.076,63.076,0,0,1,12.634,6.219c1.844,1.241,2.2.539,2.514-1.4.49-2.938-.588-5.827.147-8.8a18.424,18.424,0,0,0,.718-4.489c-.016-1.959.2-4.1,2.775-3.983C672.709,737.54,672.448,739.711,672.4,741.637Z" transform="translate(148.707 185.762)" fill="#1f2d16"/>
    <path id="Path_9875" data-name="Path 9875" d="M560.121,468.151c-2.318,2.677-2.008,6.415-3.868,9.287-1.273,1.975-2.236,4.179-3.313,6.268-.669,1.306-1.7,1.975-3.134,1.436-1.534-.588-1.812-1.812-1.5-3.346.457-2.155,1.942-3.722,2.922-5.582,1.649-3.15,2.269-6.676,3.82-9.859,2.383-4.848,5.468-5.4,9.222-1.6,3.444,3.493,6.023,7.818,10.218,10.577a4.852,4.852,0,0,1,.979,1.159c1.028,1.322,1.649,2.807.147,4.064-1.485,1.257-2.775.408-3.983-.832A30.14,30.14,0,0,0,567.45,476C564.5,473.881,563.271,470.126,560.121,468.151Z" transform="translate(86.286 11.784)" fill="#1f2d16"/>
    <path id="Path_9876" data-name="Path 9876" d="M560.052,774.251c3.248-2.089,4.472-5.746,7.41-7.884a55.277,55.277,0,0,0,4.717-4.26c1.077-1,2.3-1.273,3.46-.343,1.175.947,1.012,2.155.343,3.444-1.175,2.22-3.542,3.15-5.109,4.946-2.171,2.5-4.342,4.978-6.578,7.41-3.656,3.95-6.855,3.362-9.173-1.518-2.122-4.472-2.954-9.516-6.039-13.564a7.307,7.307,0,0,1-.6-1.649c-.637-1.6-.326-2.922,1.306-3.591,1.714-.7,2.644.424,3.411,1.812a84.131,84.131,0,0,1,6.137,13.809A12.6,12.6,0,0,0,560.052,774.251Z" transform="translate(86.274 198.148)" fill="#1f2d16"/>
    <path id="Path_9877" data-name="Path 9877" d="M466.73,520.131a32.853,32.853,0,0,0,2.285,6.823,20.666,20.666,0,0,1,1.583,6.088,20.121,20.121,0,0,0,.735,3.705c.539,1.6,0,2.758-1.5,3.248-1.551.506-2.5-.343-3.232-1.73-1.224-2.334-.832-4.995-1.7-7.378-1.126-3.085-2.318-6.17-3.216-9.32-1.273-4.456,1.632-7.329,6.2-6.48a110.059,110.059,0,0,0,11.279,1.73c1.616.13,3.248-.408,4.978.065,1.714.473,2.987,1.175,2.628,3.069a2.481,2.481,0,0,1-3.542,1.926c-1.567-.588-3.052.163-4.538-.179-1.975-.473-4.015.147-6.039-.653C470.876,520.327,468.836,520.409,466.73,520.131Z" transform="translate(31.404 45.089)" fill="#1f2d16"/>
    <path id="Path_9878" data-name="Path 9878" d="M727.414,677.562a22.587,22.587,0,0,0,4.88-1.045c1.257-.31.7-.979.31-1.665-1.567-2.742-4.374-4.456-5.827-7.312-1-1.942-2.334-3.722-3.477-5.6a2.352,2.352,0,0,1,.506-3.411c1.208-.881,2.383-.49,3.444.522,1.518,1.436,2.155,3.428,3.346,5.044,2.089,2.856,4.374,5.566,6.562,8.357a7.436,7.436,0,0,1,1.746,3.64c.327,2.644-1.143,4.456-4.44,5.223-3.428.783-6.9,1.387-10.365,2.105-2.138.441-4.015,1.779-6.235,1.959-1.534.114-2.758-.359-3.134-1.959a2.274,2.274,0,0,1,1.812-2.922c3.069-.653,5.892-2.008,8.879-2.873A2.579,2.579,0,0,1,727.414,677.562Z" transform="translate(191.529 135.564)" fill="#1f2d16"/>
    <path id="Path_9879" data-name="Path 9879" d="M466.9,723.179a119.6,119.6,0,0,1,16.812-2.008,2.584,2.584,0,0,1,3.069,2.089c.31,1.632-.718,2.465-2.171,2.971-1.975.686-4,.049-5.974.294-3.77.457-7.525,1.175-11.3,1.714-4.391.62-6.9-2.432-5.582-6.855,1.028-3.46,2.2-6.888,3.4-10.316.669-1.91.294-4,1.322-5.909.8-1.485,1.632-2.5,3.313-1.975,1.861.588,1.91,2.04,1.436,3.722a36.6,36.6,0,0,0-1.257,5.909C469.575,716.389,466.9,719.213,466.9,723.179Z" transform="translate(31.416 164.017)" fill="#1f2d16"/>
    <path id="Path_9880" data-name="Path 9880" d="M425.28,622.151c.033-2.057,1.436-3.33,3.02-4.342,2.987-1.91,6.072-3.673,9.075-5.55,1.8-1.126,2.987-3,5.044-3.852,1.551-.637,2.905-.8,3.754.767.816,1.518.033,2.6-1.289,3.656a70.739,70.739,0,0,1-12.177,8.145c-1.681.832-1.583,1.779.016,2.6a69.862,69.862,0,0,1,11.981,7.982c1.355,1.094,2.383,2.155,1.453,3.819-.947,1.714-2.432,1.322-4,.637-1.942-.865-3.069-2.693-4.8-3.754-3.02-1.861-6.1-3.624-9.075-5.55C426.7,625.677,425.3,624.387,425.28,622.151Z" transform="translate(8.576 103.894)" fill="#1f2d16"/>
    <path id="Path_9881" data-name="Path 9881" d="M733.588,568.012a23.6,23.6,0,0,0-6.708-1.469c-2.024-.065-4.048-.963-6.039-1.616a27.963,27.963,0,0,0-4.1-1.339,2.32,2.32,0,0,1-2.008-3.02c.392-1.583,1.632-2.089,3.167-1.893,2.106.277,3.966,1.4,5.99,1.893,3.428.816,6.921,1.338,10.348,2.122,4.88,1.11,6.137,4.44,3.183,8.488-2.138,2.922-4.472,5.713-6.725,8.553-1.159,1.453-1.583,3.33-2.971,4.7-1.224,1.224-2.416,2.187-3.934,1.012-1.681-1.29-.8-2.759.049-4.276C726.439,576.5,729.883,572.452,733.588,568.012Z" transform="translate(191.525 72.716)" fill="#1f2d16"/>
    <path id="Path_9882" data-name="Path 9882" d="M491.877,553.568a2.381,2.381,0,0,1-2.318,2.481c-2.122.082-2.742-1.616-2.856-3.248a2.391,2.391,0,0,1,2.5-2.661C491.191,550.091,491.7,551.561,491.877,553.568Z" transform="translate(47.406 67.344)" fill="#1f2d16"/>
    <path id="Path_9883" data-name="Path 9883" d="M573.792,501.38a3.178,3.178,0,0,1,2.987,3.15,2.111,2.111,0,0,1-2.35,2.416,3.187,3.187,0,0,1-3.264-2.971C571.034,502.376,572.095,501.511,573.792,501.38Z" transform="translate(100.804 36.516)" fill="#1f2d16"/>
    <path id="Path_9884" data-name="Path 9884" d="M651.664,524.579c-.033,1.975-.637,3.265-2.465,3.248-1.893-.016-2.579-1.371-2.677-3.085a2.378,2.378,0,0,1,2.334-2.791A2.633,2.633,0,0,1,651.664,524.579Z" transform="translate(148.451 49.52)" fill="#1f2d16"/>
    <path id="Path_9885" data-name="Path 9885" d="M491.891,682.284c-.212,1.583-.473,3.183-2.5,3.3a2.378,2.378,0,0,1-2.693-2.448c-.016-1.649.571-3.362,2.644-3.46C490.993,679.574,491.695,680.782,491.891,682.284Z" transform="translate(47.409 149.237)" fill="#1f2d16"/>
    <path id="Path_9886" data-name="Path 9886" d="M573.86,734.223c-1.828-.2-2.856-1.094-2.693-2.677a3.192,3.192,0,0,1,3.33-2.906,2.128,2.128,0,0,1,2.285,2.481A3.237,3.237,0,0,1,573.86,734.223Z" transform="translate(100.801 180.199)" fill="#1f2d16"/>
    <path id="Path_9887" data-name="Path 9887" d="M646.533,710.368a2.549,2.549,0,0,1,2.579-2.5c1.812-.065,2.514,1.159,2.514,2.84,0,1.828-.947,3.036-2.709,3.036C647.414,713.747,646.435,712.719,646.533,710.368Z" transform="translate(148.458 167.067)" fill="#1f2d16"/>
    <path id="Path_9888" data-name="Path 9888" d="M630.378,516.671c-1.632-.033-2.709-.881-2.563-2.481.18-1.91,1.665-2.71,3.428-2.71a2.246,2.246,0,0,1,2.4,2.432C633.626,515.952,632.157,516.556,630.378,516.671Z" transform="translate(136.62 42.902)" fill="#1f2d16"/>
    <path id="Path_9889" data-name="Path 9889" d="M630.2,718.781c2.073.1,3.493.783,3.46,2.824a2.264,2.264,0,0,1-2.481,2.35c-1.763-.049-3.248-.881-3.362-2.791A2.123,2.123,0,0,1,630.2,718.781Z" transform="translate(136.622 173.964)" fill="#1f2d16"/>
    <path id="Path_9890" data-name="Path 9890" d="M503.018,701.351c-1.763.016-2.856-.947-2.807-2.6a2.54,2.54,0,0,1,2.954-2.514c1.567.065,2.922.751,2.954,2.53C506.136,700.747,504.765,701.335,503.018,701.351Z" transform="translate(55.95 159.713)" fill="#1f2d16"/>
    <path id="Path_9891" data-name="Path 9891" d="M685.759,669.289c-1.257-.2-2.4-.767-2.448-2.334-.065-2.073,1.485-2.84,3.134-3.036a2.316,2.316,0,0,1,2.677,2.448C689.171,668.407,687.6,669.011,685.759,669.289Z" transform="translate(171.713 139.266)" fill="#1f2d16"/>
    <path id="Path_9892" data-name="Path 9892" d="M689.187,569.135c-.261,1.534-1.143,2.628-2.742,2.432-1.665-.2-3.2-1-3.134-3.052a2.233,2.233,0,0,1,2.579-2.253C687.62,566.36,689.04,567.095,689.187,569.135Z" transform="translate(171.713 77.534)" fill="#1f2d16"/>
    <path id="Path_9893" data-name="Path 9893" d="M555.608,727.872c-.1,1.959-1.094,2.824-2.644,2.709-1.991-.147-2.677-1.681-2.693-3.411a2.146,2.146,0,0,1,2.448-2.318C554.645,725.016,555.33,726.452,555.608,727.872Z" transform="translate(87.6 177.801)" fill="#1f2d16"/>
    <path id="Path_9894" data-name="Path 9894" d="M550.24,508.347c.277-1.877,1-3.33,2.987-3.3a2.2,2.2,0,0,1,2.334,2.677c-.212,1.779-1.143,3.069-3.085,3.036A2.2,2.2,0,0,1,550.24,508.347Z" transform="translate(87.582 38.836)" fill="#1f2d16"/>
    <path id="Path_9895" data-name="Path 9895" d="M503.334,539.224c-1.893-.147-3.134-.963-3.134-2.628,0-1.632,1.094-2.579,2.856-2.546,1.649.033,2.938.588,3.052,2.367C506.223,538.408,504.7,538.9,503.334,539.224Z" transform="translate(55.944 57.171)" fill="#1f2d16"/>
    <path id="Path_9896" data-name="Path 9896" d="M472.549,628.587c-.1,1.73-.93,2.677-2.416,2.6a3.12,3.12,0,0,1-3.281-2.938,2.291,2.291,0,0,1,2.53-2.563A3.34,3.34,0,0,1,472.549,628.587Z" transform="translate(34.856 115.102)" fill="#1f2d16"/>
    <path id="Path_9897" data-name="Path 9897" d="M469.87,604.36c1.681.049,2.661.783,2.628,2.318a3.131,3.131,0,0,1-3.02,3.215,2.3,2.3,0,0,1-2.628-2.481C466.883,605.486,468.336,604.735,469.87,604.36Z" transform="translate(34.859 101.625)" fill="#1f2d16"/>
    <path id="Path_9898" data-name="Path 9898" d="M690.78,589.226c.2-1.616.865-3,2.873-3.036a2.183,2.183,0,0,1,2.4,2.6c-.147,1.763-1.094,3.069-3.036,3.085C691.482,591.887,690.813,590.858,690.78,589.226Z" transform="translate(176.437 90.136)" fill="#1f2d16"/>
    <path id="Path_9899" data-name="Path 9899" d="M696.089,646.721c-.082,1.747-.849,2.791-2.481,2.726-1.959-.082-2.759-1.436-2.807-3.232a2.113,2.113,0,0,1,2.253-2.465C695.012,643.783,695.763,645.154,696.089,646.721Z" transform="translate(176.449 126.529)" fill="#1f2d16"/>
    <path id="Path_9900" data-name="Path 9900" d="M580.018,600.909a2.43,2.43,0,0,1-2.285-1.371c-3.95-6.562-7.427-13.368-11.067-20.109-1.5-2.807-2.2-6.007-4.505-8.439-1.028-1.094-.2-2.465.914-3.281a2.6,2.6,0,0,1,3.852.473,65.052,65.052,0,0,1,10.349,18.085,68.378,68.378,0,0,0,4.162,8.422,13.149,13.149,0,0,1,1.094,3.346A2.5,2.5,0,0,1,580.018,600.909Z" transform="translate(94.823 78.046)" fill="#1f2d16"/>
    <path id="Path_9901" data-name="Path 9901" d="M582.516,647.8c-.343,3.738-2.4,5.941-3.542,8.569a172.89,172.89,0,0,1-7.541,16.045c-1.322,2.35-3.575,3.966-4.995,6.3-.8,1.306-2.5.947-3.624-.049a2.39,2.39,0,0,1-.588-3.411c3.444-4.946,5.843-10.463,8.406-15.833,1.73-3.624,4.13-6.741,6.121-10.136a12.231,12.231,0,0,0,.9-2.073,2.283,2.283,0,0,1,2.873-1.518A2.43,2.43,0,0,1,582.516,647.8Z" transform="translate(94.855 127.703)" fill="#1f2d16"/>
    <path id="Path_9902" data-name="Path 9902" d="M578.669,596.687c1.355-8.194,1.012-16.583,2.628-24.729.457-2.269,1.73-4.342,2.253-6.692a2.345,2.345,0,0,1,3.134-1.5c1.4.441,2.791,1.6,2.073,2.987-1.436,2.759-.653,5.68-1.208,8.488-.881,4.472-1.11,9.092-1.714,13.629-.473,3.575-2.04,6.921-2.22,10.61-.082,1.763-2.873,2.105-4.081.588A4.313,4.313,0,0,1,578.669,596.687Z" transform="translate(105.525 75.87)" fill="#1f2d16"/>
    <path id="Path_9903" data-name="Path 9903" d="M579.72,661.33a47.473,47.473,0,0,0-.9-8.6,6.277,6.277,0,0,1,.408-4.456A2.34,2.34,0,0,1,582.022,647a2.524,2.524,0,0,1,1.8,2.2c1.73,8.1,2.661,16.322,3.885,24.484.392,2.563-.147,5.174,1.045,7.737.637,1.387-.9,2.481-2.334,2.775a2.574,2.574,0,0,1-3.036-1.8A69.62,69.62,0,0,1,579.72,661.33Z" transform="translate(105.518 128.519)" fill="#1f2d16"/>
    <path id="Path_9904" data-name="Path 9904" d="M562.461,618.944c1.942-.114,3.379.424,3.542,2.334.147,1.877-1.11,2.481-2.873,2.856a16.078,16.078,0,0,0-5.125,1.991c-3.738,2.285-8.226,2.448-12.209,4.081-3.885,1.6-8.145,2.04-11.948,3.966-1.534.783-2.807.033-3.558-1.5a2.441,2.441,0,0,1,1.126-3.477,63.844,63.844,0,0,1,20.044-7.214c2.971-.588,5.844-1.649,8.749-2.53C561.025,619.172,561.776,618.716,562.461,618.944Z" transform="translate(74.756 110.806)" fill="#1f2d16"/>
    <path id="Path_9905" data-name="Path 9905" d="M562.568,620.507c-1.4.18-2.579-.62-3.852-1.028-6.643-2.171-13.613-3.167-20.207-5.566-2.644-.963-4.668-2.938-7.329-3.885-1.355-.473-1.6-2.106-.734-3.526a2.584,2.584,0,0,1,3.493-1.208,139.838,139.838,0,0,0,18.493,5.876c3.33.865,6.056,2.954,9.336,3.754a8.99,8.99,0,0,0,1.42.457c1.828.131,2.987,1,2.791,2.873C565.784,620.164,564.315,620.6,562.568,620.507Z" transform="translate(74.747 102.045)" fill="#1f2d16"/>
    <path id="Path_9906" data-name="Path 9906" d="M599.535,569.52c-.212-1.828.522-2.987,2.432-3.069,2.008-.082,2.938.93,2.954,2.954a60.1,60.1,0,0,1-3.868,20.876,75.076,75.076,0,0,0-2.253,9.353,5.728,5.728,0,0,1-1.306,2.677,2.333,2.333,0,0,1-2.954.767,2.534,2.534,0,0,1-1.387-2.987c1.191-7.312,2.709-14.543,4.374-21.758C598.18,575.413,599.339,572.556,599.535,569.52Z" transform="translate(114.676 77.654)" fill="#1f2d16"/>
    <path id="Path_9907" data-name="Path 9907" d="M639.538,591.735c-.049.131-.049.849-.375,1.061-2.416,1.551-3.477,4.309-5.631,6.121-6.072,5.076-13.221,8.635-19.179,13.858a4.275,4.275,0,0,1-2.873.865,2.377,2.377,0,0,1-2.383-1.567,2.249,2.249,0,0,1,.751-2.742c6.921-5.86,13.939-11.556,21.3-16.845,1.355-.979,2.938-1.616,3.852-3.232.62-1.094,1.942-1,3.02-.539C639.146,589.156,639.652,590.136,639.538,591.735Z" transform="translate(124.668 91.529)" fill="#1f2d16"/>
    <path id="Path_9908" data-name="Path 9908" d="M599.58,677.357c-.457-2.432-1.583-5.256-2.138-8.243-.816-4.472-2.269-8.83-3-13.319-.473-2.889-.49-5.86-1.289-8.716a2.118,2.118,0,0,1,1.42-2.465,2.19,2.19,0,0,1,2.6.441,5.322,5.322,0,0,1,1.649,3.052c1.159,6.578,3.428,12.862,5.174,19.277,1.045,3.852.473,7.672.881,11.475.18,1.763-1.224,2.53-2.905,2.4C599.922,681.111,599.2,679.871,599.58,677.357Z" transform="translate(114.664 126.921)" fill="#1f2d16"/>
    <path id="Path_9909" data-name="Path 9909" d="M611.3,629.585a4.943,4.943,0,0,1,3.4,1.126c5.06,4.44,10.936,7.753,16.42,11.589,3.216,2.253,5.076,5.615,7.982,8.08,1.077.93.751,2.612-.392,3.656-1.045.963-2.465,1.224-3.477.147-3.281-3.477-7.28-6.1-11.165-8.733-5.093-3.444-9.108-8.1-14.151-11.54a2.19,2.19,0,0,1-.849-2.709A2.162,2.162,0,0,1,611.3,629.585Z" transform="translate(124.667 117.565)" fill="#1f2d16"/>
    <path id="Path_9910" data-name="Path 9910" d="M570.622,640.788c-.18,1.73-1.747,2.644-2.35,4.162-2.35,5.958-6.627,10.789-9.679,16.323-1.632,2.954-4.293,5.223-5.321,8.6-.424,1.42-1.991,1.763-3.46.947a2.682,2.682,0,0,1-1.4-3.64A61.3,61.3,0,0,1,559.359,648.8a47.1,47.1,0,0,0,4.57-7.019,10.786,10.786,0,0,1,2.5-2.856,2.51,2.51,0,0,1,2.873-.212A2.539,2.539,0,0,1,570.622,640.788Z" transform="translate(86.264 123.125)" fill="#1f2d16"/>
    <path id="Path_9911" data-name="Path 9911" d="M568.672,607.734a4.013,4.013,0,0,1-3.95-2.269C560.8,598.708,555.5,592.9,551.5,586.2c-1.453-2.416-1.616-5.288-3.134-7.721-.849-1.355.392-2.775,1.91-3.346a2.387,2.387,0,0,1,3.2,1.322,118.059,118.059,0,0,0,9.744,15.425c2.22,3.15,3.46,6.741,5.4,9.989.49.816,1.208,1.4,1.632,2.253C571.137,605.841,570.092,607.669,568.672,607.734Z" transform="translate(86.223 83.022)" fill="#1f2d16"/>
    <path id="Path_9912" data-name="Path 9912" d="M644.862,628.88c-4.472,1.518-9.026.424-13.564.441-2.742,0-5.354-.685-8.047-.93-2.546-.229-5.093-.392-7.639-.392a5.179,5.179,0,0,1-3.052-1.045,2.315,2.315,0,0,1-.849-2.938,2.094,2.094,0,0,1,2.367-1.551c2.987.963,5.909-.277,8.814-.065,6.692.506,13.417.147,20.093,1.061a6.237,6.237,0,0,0,2.269-.016c2.367-.506,3.754.359,3.885,2.3.131,1.877-1.24,3.085-3.509,3.117A5.944,5.944,0,0,1,644.862,628.88Z" transform="translate(126.314 113.014)" fill="#1f2d16"/>
    <path id="Path_9913" data-name="Path 9913" d="M538.624,590.291c2.742,1.469,6.382.849,9.614,2.3,6.627,2.987,12.927,6.676,19.8,9.124a5.823,5.823,0,0,1,2.106,1.812,2.293,2.293,0,0,1,.016,3.052,2.27,2.27,0,0,1-2.742.751c-8.635-2.889-17.024-6.382-25.365-9.989-1.469-.637-2.742-1.551-4.472-1.665a2.32,2.32,0,0,1-2.171-2.905C535.637,591.368,536.485,590.242,538.624,590.291Z" transform="translate(78.175 92.728)" fill="#1f2d16"/>
    <path id="Path_9914" data-name="Path 9914" d="M631.373,607.134c1.942-.163,3.9-.2,5.827-.522,3.167-.522,6.1,1.028,9.255.9,1.828-.082,2.954,1.4,2.612,3.33-.277,1.632-1.4,2.236-3.15,2.253-5.762.049-11.556-.016-17.269.588-3.771.392-7.427-.082-11.132-.179a7.954,7.954,0,0,0-2.758.245,2.3,2.3,0,0,1-3.052-1.567,2.387,2.387,0,0,1,1.355-3.183,5.591,5.591,0,0,1,2.661-.735c4.782.245,9.467-.6,14.152-1.306a11.544,11.544,0,0,1,1.5-.016C631.373,607.02,631.373,607.069,631.373,607.134Z" transform="translate(126.32 102.98)" fill="#1f2d16"/>
    <path id="Path_9915" data-name="Path 9915" d="M539,649.773c-2.383.147-3.33-.963-3.591-2.481a2.456,2.456,0,0,1,1.942-2.889,108.667,108.667,0,0,0,15.914-6.464,84.476,84.476,0,0,1,11.687-4.015c.93-.277,1.534-1,2.465-1.191a2.442,2.442,0,0,1,2.742.783,2.294,2.294,0,0,1-.049,3.052,5.936,5.936,0,0,1-2.106,1.8c-7.427,2.644-14.152,6.823-21.464,9.728C543.9,649.136,540.859,648.043,539,649.773Z" transform="translate(78.175 119.494)" fill="#1f2d16"/>
    <path id="Path_9916" data-name="Path 9916" d="M628.936,579.272a2.123,2.123,0,0,1-.9,2.008,138.05,138.05,0,0,0-14.821,13.482c-3.02,3.02-7.035,4.7-9.859,7.982-1.224,1.42-3.509.2-3.673-1.763a4.491,4.491,0,0,1,1.975-3.95,83.365,83.365,0,0,0,8.879-8.765,77.445,77.445,0,0,1,8.341-7.851c1.877-1.5,4.211-2.416,6.268-3.754C626.879,575.551,628.952,577.15,628.936,579.272Z" transform="translate(118.834 83.882)" fill="#1f2d16"/>
    <path id="Path_9917" data-name="Path 9917" d="M628.936,664.421a2.811,2.811,0,0,1-4.358,2.6,61.611,61.611,0,0,1-14.233-11.671,72.188,72.188,0,0,0-8.732-8.569,4.756,4.756,0,0,1-1.91-3.2,2.383,2.383,0,0,1,1.371-2.742,2.555,2.555,0,0,1,2.807.571c6.186,4.766,11.687,10.3,17.6,15.392,2.22,1.91,3.607,4.75,6.594,5.86A1.578,1.578,0,0,1,628.936,664.421Z" transform="translate(118.834 124.547)" fill="#1f2d16"/>
    <path id="Path_9918" data-name="Path 9918" d="M532.435,557.317c.571-2.106-.6-4.064-.1-6.137.408-1.714,1.175-2.922,3.036-2.775a2.643,2.643,0,0,1,2.481,3.248,84.5,84.5,0,0,0-.359,13.923,75.054,75.054,0,0,1-.114,9.581c-.343,4.423-4.244,7.051-7.769,7.753-6.039,1.192-12.177,1.7-18.2,3.052-.947.212-1.714.686-2.6.914-1.877.49-3.542,0-4.13-1.959s.653-3.183,2.448-3.444c5.5-.783,10.871-2.285,16.453-2.693,2.073-.147,4.081-.963,6.154-1.306,2.465-.408,2.84-2.35,2.84-4.13,0-3.624.457-7.28-.408-10.871C531.733,560.712,533.2,559.047,532.435,557.317Z" transform="translate(58.688 66.24)" fill="#1f2d16"/>
    <path id="Path_9919" data-name="Path 9919" d="M518.447,559.622c.016,2.008-2.432,4.652-4.309,4.652-1.665,0-3.966-2.2-3.917-3.738.049-1.616,2.742-4.44,4.293-4.505A4.187,4.187,0,0,1,518.447,559.622Z" transform="translate(62.279 71.068)" fill="#1f2d16"/>
    <path id="Path_9920" data-name="Path 9920" d="M537.866,678.243c-.163,2.105-.506,4.7-.506,7.28a87.907,87.907,0,0,0,.441,9.94c.261,2.448-.31,4.146-2.122,4.521-1.926.392-3.346-.735-3.248-3.46.179-5.027-.343-10.038.163-15.066a34.281,34.281,0,0,0-.326-8.063,2.462,2.462,0,0,0-1.991-2.252,68.563,68.563,0,0,0-10.887-2.106c-4.162-.62-8.308-1.306-12.438-2.138-1.665-.326-2.807-1.534-2.269-3.379a2.843,2.843,0,0,1,3.852-2.04c6.4,2.35,13.189,2.644,19.783,3.82,6.545,1.159,9.63,4.766,9.353,11.165A11.038,11.038,0,0,0,537.866,678.243Z" transform="translate(58.693 137.608)" fill="#1f2d16"/>
    <path id="Path_9921" data-name="Path 9921" d="M514.2,672.34c1.861.049,4.309,2.759,4.244,4.734a4.3,4.3,0,0,1-3.754,3.526c-1.649.016-4.472-2.873-4.472-4.587C510.22,674.446,512.554,672.291,514.2,672.34Z" transform="translate(62.279 144.604)" fill="#1f2d16"/>
    <path id="Path_9922" data-name="Path 9922" d="M513.828,624.585c1.061,5.142-2.5,8.161-5.256,11.311-3.052,3.493-6.1,7-9.043,10.61a10.763,10.763,0,0,0-1.192,1.926c-1.012,1.861-2.971,2.628-4.456,1.763-1.6-.93-1.844-2.775-.31-4.619,3.216-3.9,6.447-7.8,9.908-11.475,1.583-1.681,2.758-3.64,4.342-5.3a3.733,3.733,0,0,0,.016-5.272c-2.089-2.563-4.26-5.044-6.4-7.557-2.677-3.134-5.419-6.219-8.047-9.385-1.192-1.436-1.338-3.036.326-4.228a2.776,2.776,0,0,1,4.211.947c3.673,6.17,9.092,10.887,13.417,16.5A13.83,13.83,0,0,1,513.828,624.585Z" transform="translate(51.065 99.975)" fill="#1f2d16"/>
    <path id="Path_9923" data-name="Path 9923" d="M489.42,618.2c.016-2.856,1.094-4.048,3.673-4,2.5.033,3.509,1.257,3.493,4.195-.016,2.84-1.126,4.048-3.689,4C490.383,622.362,489.4,621.17,489.42,618.2Z" transform="translate(49.129 107.845)" fill="#1f2d16"/>
    <path id="Path_9924" data-name="Path 9924" d="M678.905,632.753a2.491,2.491,0,0,1,2.726,1.681,2.34,2.34,0,0,1-.849,2.938c-1.355,1.175-3.15,1.681-4.57,2.693-4.57,3.215-9.826,5.223-14.478,8.324-3.036,2.024-3.591,3.216-2.334,6.578,2.448,6.545,4.8,13.107,7.264,19.652.751,2.008.212,3.444-1.763,4.032-1.959.588-3.215-.735-3.558-2.432-1.387-6.9-4.538-13.189-6.9-19.75-1.877-5.191-.163-9.826,4.717-12.487,5.191-2.824,10.25-5.892,15.408-8.749C676.065,634.4,676.881,632.313,678.905,632.753Z" transform="translate(152.99 119.538)" fill="#1f2d16"/>
    <path id="Path_9925" data-name="Path 9925" d="M664.764,649.856c.229-2.807,2.073-4.978,4.015-4.75,2.383.277,3.819,1.763,3.64,3.754-.245,2.726-1.959,4.831-3.82,4.668C666.315,653.333,664.6,651.684,664.764,649.856Z" transform="translate(159.982 127.376)" fill="#1f2d16"/>
    <path id="Path_9926" data-name="Path 9926" d="M678.967,618.559a2.793,2.793,0,0,1-1.942-.522c-5.533-4.521-12.177-7.166-18.216-10.854-4.472-2.742-6.284-7.019-4.391-12.242,2.008-5.55,4.538-10.887,6.154-16.583a21.966,21.966,0,0,0,.571-2.693c.359-2.089,2.105-3.591,3.672-3.085,2.106.685,2.628,2.122,1.828,4.228-1.812,4.717-3.33,9.549-5.338,14.168-.914,2.106-1.42,4.326-2.269,6.431a3.7,3.7,0,0,0,1.73,4.946c2.873,1.6,5.729,3.265,8.586,4.9,3.656,2.089,7.329,4.146,10.952,6.284,1.159.685,1.942,1.73,1.387,3.215A2.492,2.492,0,0,1,678.967,618.559Z" transform="translate(152.977 81.468)" fill="#1f2d16"/>
    <path id="Path_9927" data-name="Path 9927" d="M664.751,586.442c.082-1.7,2.2-3.362,4.195-3.281,1.8.065,3.575,2.742,3.477,5.223-.065,1.763-2.106,3.4-4.113,3.281C666.612,591.551,664.653,588.694,664.751,586.442Z" transform="translate(159.978 88.22)" fill="#1f2d16"/>
    <path id="Path_9928" data-name="Path 9928" d="M600.057,528.869a2.828,2.828,0,0,1-.963,2.514c-5.4,4.489-9.026,10.528-13.6,15.719-3.771,4.276-8.08,5.337-13.14,2.318q-7.81-4.652-15.7-9.222c-.637-.375-1.469-.392-2.155-.718-1.681-.8-2.922-2.04-2.138-4.015.8-2.008,2.432-2.22,4.178-1.159,4.456,2.726,9.3,4.832,13.515,7.949,1.861,1.387,4.048,2.04,5.941,3.346,1.844,1.273,3.656.408,4.913-1.077,2.383-2.84,4.766-5.68,7.051-8.618,2.367-3.052,4.946-6.007,7.541-8.912a2.626,2.626,0,0,1,3.069-.588A2.291,2.291,0,0,1,600.057,528.869Z" transform="translate(88.772 52.184)" fill="#1f2d16"/>
    <path id="Path_9929" data-name="Path 9929" d="M568.891,525.29c1.877-.016,3.167,1.534,3.183,3.819.033,2.367-1.828,3.738-5.011,3.705-1.877-.016-3.183-1.6-3.183-3.852C563.864,526.58,565.594,525.323,568.891,525.29Z" transform="translate(96.205 51.633)" fill="#1f2d16"/>
    <path id="Path_9930" data-name="Path 9930" d="M600.064,714.318a2.217,2.217,0,0,1-1.436,2.4,2.84,2.84,0,0,1-3.1-.49c-1.371-1.175-2.122-2.873-3.346-4.13-3.983-4.064-7.035-8.879-10.838-13.074-1.551-1.714-3.362-2.6-5.517-1.4-2.954,1.616-5.778,3.46-8.684,5.158-3.493,2.04-7.019,4.032-10.528,6.056-1.779,1.028-3.379.914-4.228-1.077-.832-1.959.343-3.379,2.073-4.048a69.215,69.215,0,0,0,12.585-6.888,46.754,46.754,0,0,1,9.206-4.734c2.416-.881,6.578.947,9.043,3.722,3.836,4.309,6.986,9.173,11.018,13.319a13.01,13.01,0,0,0,2.367,2.269A3.141,3.141,0,0,1,600.064,714.318Z" transform="translate(88.765 156.948)" fill="#1f2d16"/>
    <path id="Path_9931" data-name="Path 9931" d="M572.074,707.138c.016,2.285-1.257,3.868-3.1,3.9-3.215.049-5.076-1.257-5.093-3.591-.016-2.253,1.273-3.885,3.118-3.917C570.164,703.466,572.058,704.8,572.074,707.138Z" transform="translate(96.205 164.323)" fill="#1f2d16"/>
    <path id="Path_9932" data-name="Path 9932" d="M629.031,563.063c-3.82-.016-6.48-2.2-8-5.958a108.493,108.493,0,0,1-3.64-10.773,52.11,52.11,0,0,0-3.8-8.781c-1.061-2.105-.914-3.95.783-4.913,1.649-.93,3.248-.294,4.048,2.138,1.665,5.125,4.048,9.989,5.3,15.261.473,2.024,1.616,3.885,2.35,5.86.849,2.269,2.856,2.334,4.6,2.138,3.265-.392,6.464-1.224,9.712-1.812,3.966-.718,7.965-1.338,11.932-2.073,1.991-.375,3.183.441,3.558,2.318.31,1.551-1.616,3.362-3.526,3.3-4.75-.2-9.3.963-13.858,1.991A48.522,48.522,0,0,1,629.031,563.063Z" transform="translate(127.209 56.021)" fill="#1f2d16"/>
    <path id="Path_9933" data-name="Path 9933" d="M633.063,539.842c.033,2.073-1.649,4-3.477,3.983-2.171-.016-4.815-2.253-4.766-4.048.033-1.91,1.665-3.787,3.33-3.836C630.272,535.859,633.047,538.063,633.063,539.842Z" transform="translate(134.734 58.366)" fill="#1f2d16"/>
    <path id="Path_9934" data-name="Path 9934" d="M630.317,682.356c3.722.033,7.623,1.208,11.589,2.057a40.976,40.976,0,0,0,10.153,1.24c2.024-.082,4.146,1.551,3.868,3.2-.343,2.04-1.632,2.709-3.722,2.383-6.007-.93-12-1.991-17.938-3.3-1.551-.343-3.183-.212-4.75-.49-2.073-.343-3.036.963-3.624,2.465-1.338,3.46-2.448,7-3.689,10.5-1.273,3.558-2.546,7.117-3.9,10.642-.62,1.6-1.779,2.6-3.591,1.8a2.744,2.744,0,0,1-1.485-4.048c3.46-6.251,4.995-13.2,7.476-19.8a11.735,11.735,0,0,1,5.958-6.48C627.706,681.981,628.848,682.585,630.317,682.356Z" transform="translate(127.148 150.894)" fill="#1f2d16"/>
    <path id="Path_9935" data-name="Path 9935" d="M629.493,692.671c1.828-.065,3.542,1.8,3.575,3.868.033,1.73-2.4,3.852-4.554,3.983a3.76,3.76,0,0,1-3.673-3.722C624.727,694.989,627.274,692.736,629.493,692.671Z" transform="translate(134.746 157.457)" fill="#1f2d16"/>
  </g>
</svg>
