<svg xmlns="http://www.w3.org/2000/svg" width="100" height="100" viewBox="0 0 100 100">
  <g id="Group_2295" data-name="Group 2295" transform="translate(-1271 -3491)">
    <rect id="Rectangle_742" data-name="Rectangle 742" width="100" height="100" transform="translate(1271 3491)" fill="none"/>
    <g id="Group_2289" data-name="Group 2289" transform="translate(1232.514 3452.5)">
      <path id="Path_10255" data-name="Path 10255" d="M123.967,114.095c1.819-.987,3.589-2.079,5.772-1.723a6.709,6.709,0,0,1,5.6,5.234,6.536,6.536,0,0,1-3.128,6.982c-4.511,2.686-9.078,5.275-13.621,7.9-6.217,3.592-12.457,7.143-18.641,10.792a4.248,4.248,0,0,1-3.581.445c-8.035-2.192-16.079-4.32-24.122-6.464-1.067-.283-4.77,1.068-5.335,1.942-.275.421-.016.817.024,1.222a3.511,3.511,0,0,1-1.851,3.64c-1.875,1.092-3.743,2.209-5.651,3.244a3.451,3.451,0,0,1-5.093-1.424q-5.663-9.7-11.22-19.448a3.445,3.445,0,0,1,1.31-5.121c1.851-1.133,3.759-2.184,5.634-3.276a3.227,3.227,0,0,1,4.042.218c.849.785,1.4.518,2.175.073,5.594-3.228,11.22-6.391,16.79-9.659a4.153,4.153,0,0,1,3.581-.421c7.664,2.168,15.351,4.215,23.007,6.415a4.336,4.336,0,0,0,3.856-.526c3.031-1.869,6.152-3.584,9.232-5.372C118.381,105.511,122.859,107.6,123.967,114.095Zm-18.528,8.567c.008-2.2-1.277-3.77-3.759-4.466-8.432-2.338-16.863-4.652-25.294-7a2.79,2.79,0,0,0-2.369.3q-8.149,4.733-16.354,9.336c-1.051.582-1.164,1.035-.558,2.047,2.207,3.673,4.317,7.41,6.459,11.123,1.6,2.775,1.673,2.888,4.3,1.189a6.3,6.3,0,0,1,5.61-.712c7.664,2.16,15.376,4.142,23.055,6.262a3,3,0,0,0,2.538-.34q15.509-9,31.034-17.951c2.3-1.327,3.04-3.341,2-5.266-1.083-1.99-3.314-2.451-5.626-1.116q-6.439,3.7-12.853,7.435a67.42,67.42,0,0,0-7.3,4.36c-2.595,1.99-5.2,2.645-8.278,1.586-1.027-.348-2.1-.55-3.153-.833-5.828-1.561-11.649-3.139-17.485-4.684-1-.267-1.738-.76-1.463-1.885s1.213-1.205,2.191-.963c.234.057.453.162.687.227,6.993,1.861,13.985,3.754,20.994,5.566A4.353,4.353,0,0,0,105.438,122.662Zm-47.832,22.3c.137-.065.307-.129.469-.218q2.668-1.529,5.343-3.058c.792-.453.647-1,.251-1.666q-5.444-9.4-10.849-18.825c-.412-.728-.849-.922-1.593-.485-1.657.987-3.322,1.966-5.02,2.9-.849.461-.865.955-.4,1.747q5.42,9.307,10.792,18.647C56.83,144.4,56.992,144.9,57.606,144.957Zm47.59-28.444a7.566,7.566,0,0,1,3.137,5.606c.057,1.173.631.688,1.164.372,3.185-1.844,6.4-3.632,9.555-5.533a3.656,3.656,0,0,0-3.565-6.383C112.067,112.468,108.721,114.475,105.2,116.513Z" transform="translate(0 -12.396)" fill="#070707"/>
      <path id="Path_10256" data-name="Path 10256" d="M125.949,55.382a5.745,5.745,0,0,1-4.082-1.7,1.352,1.352,0,0,0-1.875-.291q-5.966,2.815-12,5.525a1.475,1.475,0,0,0-.978,1.634,6.311,6.311,0,0,1-8.876,6.075,1.446,1.446,0,0,0-1.851.388q-6.2,6.128-12.448,12.191a1.561,1.561,0,0,0-.485,1.99A6.4,6.4,0,0,1,75.1,89.505a6.052,6.052,0,0,1-4.114-5.841c-.024-1-.445-1.311-1.245-1.626-3.209-1.238-6.4-2.5-9.571-3.835a1.987,1.987,0,0,0-2.5.453,6.15,6.15,0,0,1-7.55.663,6.433,6.433,0,1,1,9.28-7.952,2.892,2.892,0,0,1,.372,1.383c-.364,2.273,1.213,2.734,2.829,3.333,2.773,1.027,5.5,2.136,8.229,3.276a1.557,1.557,0,0,0,2.029-.38,5.951,5.951,0,0,1,6.992-1.367,1.531,1.531,0,0,0,2-.493q6.123-6.079,12.3-12.086a1.577,1.577,0,0,0,.461-2.006,6.337,6.337,0,0,1,2.417-7.661,6.251,6.251,0,0,1,7.857.631,1.545,1.545,0,0,0,2.029.259c3.767-1.772,7.534-3.535,11.333-5.234a2.072,2.072,0,0,0,1.5-2.217,6.35,6.35,0,0,1,6.774-6.278,6.514,6.514,0,0,1,6.095,6.65A6.432,6.432,0,0,1,125.949,55.382ZM57.055,73.851a3.55,3.55,0,0,0-7.1-.146,3.55,3.55,0,1,0,7.1.146ZM129.74,49a3.549,3.549,0,1,0-7.1,0,3.549,3.549,0,0,0,7.1,0Zm-29.027,8.179a3.544,3.544,0,1,0,3.427,3.657A3.523,3.523,0,0,0,100.713,57.178ZM77.36,87.054a3.55,3.55,0,0,0,.194-7.095,3.549,3.549,0,1,0-.194,7.095Z" transform="translate(-0.869 -0.003)" fill="#b55219"/>
      <path id="Path_10257" data-name="Path 10257" d="M66.67,55.444A12.915,12.915,0,1,1,79.581,68.323,12.871,12.871,0,0,1,66.67,55.444ZM79.533,65.4A10,10,0,1,0,69.59,55.339,9.926,9.926,0,0,0,79.533,65.4Z" transform="translate(-4.639 0)" fill="#b55219"/>
      <path id="Path_10258" data-name="Path 10258" d="M77.085,59.744c-.032-1.06.307-1.715,1.254-1.853a1.4,1.4,0,0,1,1.61,1.133,5.466,5.466,0,0,0,.388,1.181,1.378,1.378,0,0,0,1.6.566,1.5,1.5,0,0,0,1.141-1.464,1.2,1.2,0,0,0-.938-1.359c-.639-.186-1.294-.316-1.925-.51a3.96,3.96,0,0,1-3.074-3.22,4.426,4.426,0,0,1,1.723-4.5c.623-.469,1.246-.809,1.335-1.739a1.183,1.183,0,0,1,1.319-1.011c.769.008,1.359.388,1.383,1.141.032.833.558,1.092,1.124,1.456A4.249,4.249,0,0,1,86,53.062a1.339,1.339,0,0,1-1.165,1.578A1.315,1.315,0,0,1,83.193,53.6a5.158,5.158,0,0,0-.307-1.044,1.4,1.4,0,0,0-1.658-.793,1.478,1.478,0,0,0-1.213,1.4,1.223,1.223,0,0,0,1.019,1.464c.7.186,1.408.356,2.087.607a4.322,4.322,0,0,1,1.327,7.435c-.712.6-1.464.987-1.683,2.128a1.287,1.287,0,0,1-2.378.065c-.3-1.222-1.189-1.683-1.95-2.386A4.16,4.16,0,0,1,77.085,59.744Z" transform="translate(-6.628 -0.854)" fill="#b55219"/>
    </g>
  </g>
</svg>
