<svg xmlns="http://www.w3.org/2000/svg" width="100" height="100" viewBox="0 0 100 100">
  <g id="Group_2296" data-name="Group 2296" transform="translate(-1271 -3491)">
    <rect id="Rectangle_742" data-name="Rectangle 742" width="100" height="100" transform="translate(1271 3491)" fill="none"/>
    <g id="Group_2297" data-name="Group 2297" transform="translate(934.354 3452.518)">
      <path id="Path_10259" data-name="Path 10259" d="M354.192,90.841a29.765,29.765,0,0,0,4.467,16.674c1.174,1.877,1.189,3.406-.2,5.072a25.445,25.445,0,0,0-1.76,2.605c-.782,1.222-1.627,1.3-2.668.307-1.69-1.61-3.215-1.772-4.428-.542-1.291,1.311-1.127,2.921.5,4.749,1.189,1.335,2.355,2.686,3.568,3.988,1.307,1.391,2.989,1.529,4.178.4,1.213-1.149,1.213-2.759,0-4.336-1.252-1.618-1.048-1.885.595-3.187,3.067-2.435,5.57-2.629,8.9.105,5.007,4.118,11.149,5.461,17.548,5.291,2.472-.065,2.887.21,3.716,2.6.266.76.5,1.537.8,2.281.587,1.48,1.056,2.807-1,3.6-.923.356-.79,1.5-.54,2.338.266.89,1.048.663,1.69.534,1.416-.291,2.84-.591,4.248-.93a1.618,1.618,0,0,0,1.4-1.869,1.439,1.439,0,0,0-1.666-1.343c-1.369.1-1.721-.7-1.839-1.95-.54-5.7-.563-5.7,4.444-8.13a30.038,30.038,0,0,0,7.753-5.453c1.831-1.764,2.441-1.812,4.632-.5.626.372,1.252.752,1.878,1.125.829.493,1.486,1.06,1.22,2.225a1.427,1.427,0,0,0,.821,1.7,1.506,1.506,0,0,0,1.925-.574c.383-.485.775-.955,1.142-1.456a1.521,1.521,0,0,0,.07-1.909,1.271,1.271,0,0,0-1.745-.51c-1.142.647-1.925.162-2.684-.712a22.6,22.6,0,0,0-1.666-1.715,3,3,0,0,1-.54-4.174,27.594,27.594,0,0,0,2.762-6.278,2.736,2.736,0,0,1,3.129-2.192c.845.057,1.69.1,2.535.089,1.627-.008,3.27-.17,3.161,2.378-.023.591.61,1.044,1.306,1.084a1.32,1.32,0,0,0,1.549-1c.376-1.828.681-3.673.931-5.525.094-.72-.407-1.141-1.08-1.27-.782-.146-1.62.016-1.846.8-.587,2-1.823,1.812-3.262,1.27-.454-.17-.923-.291-1.385-.429-3.521-1.076-3.794-1.5-3.607-5.267.047-.922.29-1.658,1.26-1.715,1.1-.065,1.557.752,1.4,1.715-.29,1.8.657,2.37,2.1,2.694a1.638,1.638,0,0,0,1.737-.526,4.521,4.521,0,0,1,5.343-.906c1.635.858,2.269,2.362,1.948,4.789-.2,1.545-.43,3.09-.728,4.619a4.3,4.3,0,0,1-3.724,3.576,3.76,3.76,0,0,1-4.178-2.3c-.7-1.78-2.019-1.141-3.161-1.278-1.2-.146-.97,1.019-1.275,1.658-.688,1.448-1.283,2.953-1.995,4.393a2.14,2.14,0,0,0,1.948,3.285c3.106.024,5.015,1.909,4.8,4.716-.235,2.929-3.716,6.043-6.235,5.566a4.264,4.264,0,0,1-3.474-3.39c-.618-2.314-2.2-2.84-3.92-1.262a4.57,4.57,0,0,1-.555.485c-1.541.955-2.363,1.99-.642,3.624a1.354,1.354,0,0,1-.063,2.136,1.279,1.279,0,0,1-2.12-.542c-.955-2.055-2.191-1.974-3.763-.809a4.752,4.752,0,0,1-1.8.849c-1.737.38-2.136,1.424-1.784,3.1.141.655.227,1.036.931,1.351a4.255,4.255,0,0,1,2.754,4.555,4.5,4.5,0,0,1-3.747,4c-1.354.316-2.723.55-4.068.906a3.706,3.706,0,0,1-4.475-1.5,4.652,4.652,0,0,1,.321-5.582c1.346-1.335.329-2.354.047-3.519-.329-1.367-1.377-.591-2.1-.72a13.534,13.534,0,0,0-1.987-.057c-.853-.016-1.839-.388-1.9,1.165-.023.55-.712.785-1.314.712-.618-.073-1.142-.461-1.087-1.044.149-1.48-.8-1.586-1.784-1.747-.18-.032-.344-.121-.516-.17-2.793-.777-2.817-.793-4.154,1.909-.423.858-.994,1.311-1.862.963-.931-.364-.923-1.189-.673-2.047.289-.987,1.361-2,.853-2.888-.454-.793-1.69-1.084-2.558-1.65a22.136,22.136,0,0,1-2.832-2.014,1.537,1.537,0,0,0-2.2-.162c-.978.6-1.314.979-.79,2.241a5.633,5.633,0,0,1-2.1,6.747,5.269,5.269,0,0,1-6.838-.607c-1.69-1.7-3.286-3.5-4.811-5.356a5.778,5.778,0,0,1-.18-7.241,5.426,5.426,0,0,1,6.846-1.634c.462.21,1.033,1.036,1.471.073.407-.89,1.885-1.472.837-2.856a13,13,0,0,1-.994-1.78c-.642-1.214-.939-3.05-2.957-1.448-.524.421-1.291.1-1.659-.647s-.149-1.553.5-1.747c2.214-.688,1.784-2.136,1.267-3.762-.336-1.06-.172-2.484-.814-3.187-.712-.777-2.011.121-3.075.121-.9,0-1.627-.218-1.737-1.205-.1-.963.509-1.383,1.408-1.586,1.041-.235,2.511.178,3.036-.7.493-.817.266-2.184.156-3.293-.086-.809.767-1.877-.532-2.451-1.22-.534-2.261-1.06-3.536.2-1.252,1.238-3.888,1.06-5.265,0a3.9,3.9,0,0,1-1.275-4.514c.4-1.5.649-3.05,1.048-4.547a4.331,4.331,0,0,1,3.967-3.519,3.952,3.952,0,0,1,4.209,2.856c.6,1.65,1.925.858,2.887,1.214.947.356,1.017-.607,1.307-1.165.657-1.262,1.33-2.516,1.917-3.81.289-.647,1.354-1.165.516-2.087-.806-.882-1.267-2.184-3.012-1.634-1.706.542-3.192-.348-4.209-1.853a4.432,4.432,0,0,1,.133-5.089,45.872,45.872,0,0,1,3.466-4.077,3.882,3.882,0,0,1,4.686-.841,3.806,3.806,0,0,1,2.457,4.158c-.282,1.836,1.041,2.144,1.964,2.9,1.041.849,1.455-.372,2.112-.728a14.1,14.1,0,0,0,1.33-.971c2.5-1.756,2.5-1.756,1.056-4.611l-.422-.825a1.314,1.314,0,0,1,.532-1.917c.728-.421,1.361-.138,1.854.6.8,1.214.954,3.3,2.285,3.56,1.228.243,2.691-.858,4.068-1.294.923-.291,1.885-.437,2.809-.72.774-.235,1.956.324,2.167-1.1.188-1.254.579-2.395-.884-3.382A3.962,3.962,0,0,1,377.8,49.5a3.9,3.9,0,0,1,3.591-2.961,43.423,43.423,0,0,1,5.43,0,3.956,3.956,0,0,1,3.661,3.123,3.9,3.9,0,0,1-1.463,4.636c-1.58,1.027-.767,2.273-.759,3.446,0,1.27,1.15.841,1.8,1.06.947.307,2.034.445,1.776,1.836-.266,1.44-1.393,1.108-2.331.963-3.255-.518-3.513-.793-4.006-4.158-.133-.922-.2-1.861-.344-2.783-.2-1.173.094-1.934,1.361-2.144a1.509,1.509,0,0,0,1.361-1.853c-.149-1.068-.876-1.4-1.831-1.391-1.267.008-2.543.032-3.81-.008a1.657,1.657,0,0,0-1.9,1.343,1.51,1.51,0,0,0,1.338,1.885c1.416.218,1.58,1.108,1.424,2.289-.023.186-.016.38-.047.558-.861,4.87.516,5.315-5.594,6.367a26.44,26.44,0,0,0-12.3,6.035c-1.815,1.5-2.55,1.513-4.506.154-.751-.526-1.463-1.108-2.253-1.569-1.3-.76-1.917-1.642-.97-3.155a1.392,1.392,0,0,0-.532-1.942,1.262,1.262,0,0,0-1.823.089c-1.127,1.213-2.206,2.484-3.239,3.786a1.5,1.5,0,0,0,.1,2.047,1.321,1.321,0,0,0,1.956.218c1.283-1.108,2.12-.542,3.028.558,3.732,4.514,4.021,3.778.962,8.842a18.156,18.156,0,0,0-.978,2.006c-1.479,3.309-1.705,3.446-5.234,3.042-.72-.081-1.44-.235-2.159-.267-1.228-.057-1.964-.542-1.87-1.933a1.5,1.5,0,0,0-1.252-1.772c-.986-.162-1.58.429-1.815,1.408-.344,1.456-.7,2.9-1.017,4.361-.156.728-.4,1.545.6,1.861.868.267,1.839.251,2.214-.7.735-1.869,1.917-1.521,3.239-.947.274.121.563.227.845.332C354.5,85.768,354.5,85.768,354.192,90.841Z" transform="translate(0 -0.802)" fill="#080808"/>
      <path id="Path_10260" data-name="Path 10260" d="M422.108,84.878c-5.61,0-11.22-.04-16.83.016-2.945.032-5.363-.87-6.831-3.527-1.46-2.641-1-5.155.6-7.653,3.176-4.98,6.232-10.031,9.345-15.05.351-.567.646-1.221,1.428-1.325a1.285,1.285,0,0,1,1.285.567,1.576,1.576,0,0,1-.136,1.883c-1.66,2.665-3.3,5.339-4.956,8-1.62,2.617-3.28,5.2-4.86,7.844-1.9,3.168-.128,6.448,3.535,6.456q17.476.06,34.953,0c3.679-.008,5.53-3.28,3.607-6.408q-8.69-14.149-17.508-28.233c-1.827-2.921-5.2-2.889-7.086,0-1.349,2.059-2.633,4.158-3.91,6.264-.535.878-1.181,1.572-2.218.966-1.061-.622-.726-1.516-.176-2.386,1.38-2.179,2.681-4.421,4.11-6.576a6.7,6.7,0,0,1,11.443-.048q9.085,14.34,17.891,28.856c2.873,4.732-.3,10.191-5.937,10.3-5.905.136-11.826.04-17.748.048Z" transform="translate(-13.225)" fill="#b55219"/>
      <path id="Path_10261" data-name="Path 10261" d="M423.636,53.665C418.592,61.8,413.645,69.769,408.53,78h2.011c6.161,0,12.321.008,18.482-.008,1.069,0,2.123.088,2.139,1.4.008,1.213-1,1.373-2,1.373-7.517-.008-15.034.016-22.552-.016-1.955-.008-2.466-.942-1.444-2.594q8.427-13.658,16.91-27.276c1.069-1.716,2.059-1.692,3.144.048q8.427,13.55,16.806,27.124c1.1,1.788.63,2.649-1.444,2.7-1.54.04-3.08.008-4.62,0-.934-.008-1.62-.439-1.6-1.389.016-.934.662-1.389,1.62-1.373.8.016,1.6,0,2.753,0C433.659,69.833,428.711,61.837,423.636,53.665Z" transform="translate(-14.658 -1.441)" fill="#b55219"/>
      <path id="Path_10262" data-name="Path 10262" d="M370.915,89.321a9.827,9.827,0,0,0,7.789,9.7,8.27,8.27,0,0,0,1.452.255c1,.032,1.756.391,1.684,1.484-.088,1.261-1.053,1.293-2.043,1.245a12.8,12.8,0,1,1,8.531-23.174c.152.112.3.223.439.335.79.614,1.436,1.325.63,2.306-.71.862-1.5.543-2.266-.048a10.019,10.019,0,0,0-16.215,7.9Z" transform="translate(-6.062 -6.361)" fill="#080808"/>
      <path id="Path_10263" data-name="Path 10263" d="M379.07,120.515a8.357,8.357,0,1,1,8.283,8.571A8.372,8.372,0,0,1,379.07,120.515Zm8.227,5.722a5.579,5.579,0,1,0-5.5-5.554A5.608,5.608,0,0,0,387.3,126.237Z" transform="translate(-8.44 -13.192)" fill="#080808"/>
      <path id="Path_10264" data-name="Path 10264" d="M417.685,110.048a4.91,4.91,0,1,1-4.892-4.948A4.861,4.861,0,0,1,417.685,110.048Zm-6.975-.1a1.975,1.975,0,0,0,2.019,2.131,2.084,2.084,0,0,0,.128-4.166A1.958,1.958,0,0,0,410.71,109.944Z" transform="translate(-14.67 -11.905)" fill="#080808"/>
      <path id="Path_10265" data-name="Path 10265" d="M390.722,104.575a1.358,1.358,0,0,1-1.3-.862,1.233,1.233,0,0,1,.527-1.612,11.432,11.432,0,0,0,4.668-5.323,1.2,1.2,0,0,1,1.54-.686,1.3,1.3,0,0,1,1,1.189C397.362,99.253,392.669,104.591,390.722,104.575Z" transform="translate(-10.602 -10.188)" fill="#080808"/>
      <path id="Path_10266" data-name="Path 10266" d="M426.738,66.189c0-1.109.008-2.21,0-3.32-.016-.926.367-1.636,1.317-1.66.934-.024,1.4.606,1.4,1.564-.008,2.338-.008,4.668,0,7.006.008.966-.479,1.588-1.4,1.564-.95-.024-1.341-.726-1.325-1.66C426.746,68.528,426.738,67.354,426.738,66.189Z" transform="translate(-18.679 -3.559)" fill="#b55219"/>
      <path id="Path_10267" data-name="Path 10267" d="M429.449,79.091c.088,1.069-.1,2.091-1.421,2.059-1.2-.032-1.317-1.037-1.309-2.027.008-1.029.008-2.155,1.357-2.163C429.393,76.944,429.529,78.013,429.449,79.091Z" transform="translate(-18.677 -6.581)" fill="#b55219"/>
    </g>
  </g>
</svg>
