<svg xmlns="http://www.w3.org/2000/svg" width="100" height="100" viewBox="0 0 100 100">
  <g id="Group_2298" data-name="Group 2298" transform="translate(-1271 -3490)">
    <rect id="Rectangle_742" data-name="Rectangle 742" width="100" height="100" transform="translate(1271 3490)" fill="none"/>
    <g id="Group_2299" data-name="Group 2299" transform="translate(632.44 3451.5)">
      <path id="Path_10268" data-name="Path 10268" d="M642.56,135.5V75.608h61.752c-1.352-1.8-2.4-3.308-3.562-4.715a17.868,17.868,0,0,1-4.153-12.5,16.561,16.561,0,0,1,33.094-.016,19.6,19.6,0,0,1-.8,6.437,17.107,17.107,0,0,1-3.228,5.92c-1.174,1.439-2.267,2.952-3.611,4.715H735.56V135.5Zm72.1-38.631c0,2.151.016,4.391,0,6.639-.024,3.308-1.789,5.071-5.124,5.079q-6.861.024-13.714,0c-3.465-.008-5.2-1.731-5.222-5.168-.016-2.006-.016-4,0-6.009.008-1.14-.089-2.313-1.546-2.272s-1.49,1.245-1.457,2.361c.008.437,0,.873,0,1.31q0,12.858-.008,25.708c-.008,3.065-1.854,5.111-4.542,5.095s-4.461-2.062-4.477-5.16c-.016-2.378,0-4.755,0-7.133-.008-2.564-.413-2.911-3.092-2.539a10.982,10.982,0,0,1-5.343,7.521,1.238,1.238,0,0,0-.55.857c-.04,3.105-.024,6.211-.024,9.332h62.99V78.552h-9.714c-2.785,0-3.214.421-3.473,3.494a7.736,7.736,0,0,1,1.441.307c2.331,1,4.873,1.723,6.914,3.162,2.817,1.981,2.68,5.151-.089,7.246a14.169,14.169,0,0,1-4.469,2.281C720.47,95.809,717.685,96.238,714.658,96.869ZM669.8,78.552a2.391,2.391,0,0,0-.227.7q-.024,11.73,0,23.46a1.45,1.45,0,0,0,.453,1.092,11.083,11.083,0,0,1,5.448,7.642c5.23.566,6.1,1.561,6.1,6.8,0,2.127-.122,4.262.073,6.373.065.7.947,1.31,1.457,1.957a18.058,18.058,0,0,0,1.441-2.022c.186-.34.032-.857.032-1.294,0-8.758-.016-17.516.008-26.275.008-2.911,1.9-4.925,4.533-4.917,2.615.016,4.452,2.03,4.485,4.965q.036,3.287,0,6.567c-.008,1.31.567,1.981,1.91,1.981,4.76-.008,9.52,0,14.28,0,1.117,0,1.822-.5,1.83-1.658.032-2.426.008-4.844.008-6.874-3.6-.922-6.978-1.585-10.208-2.669-2.4-.809-4.7-2.248-4.752-5.2-.057-3.049,2.3-4.415,4.711-5.451,1.813-.776,3.756-1.262,5.918-1.973-1.044-.987-.227-3.186-2.485-3.186C693.164,78.544,681.515,78.552,669.8,78.552Zm-12.289,53.972c0-3.882.032-7.618-.032-11.354a3.174,3.174,0,0,0-.745-1.617,10.435,10.435,0,0,1-.016-12.883c.291-.388.737-.825.745-1.237.065-2.911.032-5.823.032-8.71H645.588v35.8Zm69.167-73.09a13.571,13.571,0,0,0-13.447-13.926c-7.658-.032-13.568,6.089-13.633,13.95-.032,4.286,1.846,7.675,4.493,10.812A30.592,30.592,0,0,1,710.351,81.9a37.81,37.81,0,0,0,.955,3.995c.267.671,1.19,1.569,1.749,1.52a3.073,3.073,0,0,0,1.935-1.553,10.03,10.03,0,0,0,.631-2.717c1.2-5.386,4.023-9.915,7.513-14.079A14.138,14.138,0,0,0,726.679,59.434Zm-60.295,42.95V78.665h-5.91v8.993H645.6V93.61h14.936v9.648C662.548,102.958,664.434,102.675,666.385,102.384Zm41.5-17.581a36.182,36.182,0,0,0-5.278,1.706,14.753,14.753,0,0,0-2.947,2.6c.988.873,1.846,2.054,3,2.555a26.171,26.171,0,0,0,13.981,1.682,34.952,34.952,0,0,0,7.4-1.868c1.028-.372,1.741-1.593,2.6-2.426a11.752,11.752,0,0,0-2.663-2.4,46.763,46.763,0,0,0-5.594-1.836c-.486,3.316-1.813,5.677-5.173,5.709C709.76,90.553,708.408,88.135,707.882,84.8Zm-42.808,20.792a7.5,7.5,0,1,0,7.472,7.537A7.528,7.528,0,0,0,665.073,105.594Zm-19.429-26.97v5.839H657.4V78.624Zm15.017,44.325v9.575h5.772v-8.7C664.434,123.515,662.539,123.232,660.661,122.949Z" transform="translate(0)"/>
      <path id="Path_10269" data-name="Path 10269" d="M731.71,134.591V131.77h15.071v2.821Z" transform="translate(-17.247 -17.109)" fill="#b55219"/>
      <path id="Path_10270" data-name="Path 10270" d="M746.781,142.078H731.76V139.2h15.021Z" transform="translate(-17.256 -18.705)" fill="#b55219"/>
      <path id="Path_10271" data-name="Path 10271" d="M734.61,146.62v2.837h-2.87V146.62Z" transform="translate(-17.014 -20.041)" fill="#b55219"/>
      <path id="Path_10272" data-name="Path 10272" d="M742.027,149.51H739.19v-2.87h2.837Z" transform="translate(-18.594 -20.045)" fill="#b55219"/>
      <path id="Path_10273" data-name="Path 10273" d="M749.4,149.554H746.64V146.66H749.4Z" transform="translate(-19.935 -20.048)" fill="#b55219"/>
      <path id="Path_10274" data-name="Path 10274" d="M727.411,71.25A10.655,10.655,0,1,1,738.07,60.6,10.678,10.678,0,0,1,727.411,71.25Zm-.057-3.05a7.605,7.605,0,1,0-7.544-7.666A7.634,7.634,0,0,0,727.354,68.2Z" transform="translate(-14.555 -1.34)" fill="#b55219"/>
      <path id="Path_10275" data-name="Path 10275" d="M673.885,128.853a4.565,4.565,0,1,1-4.551-4.633A4.588,4.588,0,0,1,673.885,128.853Zm-2.46.025c-.9-.73-1.476-1.541-1.935-1.476-.607.082-1.115.853-1.665,1.328.508.517.951,1.328,1.542,1.459C669.818,130.288,670.466,129.525,671.426,128.877Z" transform="translate(-4.252 -15.732)" fill="#b55219"/>
    </g>
  </g>
</svg>
