<svg xmlns="http://www.w3.org/2000/svg" width="100" height="100" viewBox="0 0 100 100">
  <g id="Group_2302" data-name="Group 2302" transform="translate(-1271 -3490)">
    <rect id="Rectangle_742" data-name="Rectangle 742" width="100" height="100" transform="translate(1271 3490)" fill="none"/>
    <g id="Group_2303" data-name="Group 2303" transform="translate(329.2 3451.502)">
      <path id="Path_10276" data-name="Path 10276" d="M971.05,49.995a3.971,3.971,0,0,0,.106-.472c-.366-5.819,1.6-7.243,7.267-7,4.1.179,8.212.033,12.321.033,4.061,0,5.477,1.44,5.51,5.55v1.888c1.668,0,3.15-.016,4.639,0,5.794.057,9.774,4.037,9.758,9.937-.024,11.475-.13,22.95-.2,34.425-.008.773,0,1.554,0,2.393,1.082.317,2.083.578,3.06.9a19.692,19.692,0,0,1-.692,37.68,19.517,19.517,0,0,1-21.973-8.317,3.414,3.414,0,0,0-3.394-1.864c-6.844.1-13.7.057-20.541.033-6.226-.016-10.132-3.923-10.108-10.165q.122-27.674.3-55.356a9.353,9.353,0,0,1,9.611-9.66C968.128,49.979,969.552,49.995,971.05,49.995Zm36.443,46.494c0-12.6.081-25.041-.049-37.485-.033-3.475-2.824-5.794-6.356-5.86-1.953-.041-3.914-.033-5.868,0-1.481.024-2.149-.675-2.116-2.14a17.039,17.039,0,0,0-.065-3.7c-.122-.6-.944-1.514-1.465-1.522-5.217-.114-10.433-.065-15.65-.073-1.18,0-1.62.6-1.6,1.717.024,1.237-.008,2.474.008,3.719.016,1.392-.676,2.018-2.051,2.01-1.823-.016-3.654-.024-5.477,0-3.931.049-6.551,2.58-6.576,6.462q-.183,27.772-.3,55.552c-.016,4.386,2.523,6.885,6.942,6.893,6.063.016,12.126.008,18.189.008h3.361c-.268-1.2-.48-2.132-.708-3.166-6.039,0-11.963.008-17.888,0-4.386-.008-6.453-2.075-6.453-6.47q-.012-24.842,0-49.684c0-4.4,2.067-6.47,6.445-6.478q13.892-.012,27.776,0c4.4,0,6.486,2.067,6.486,6.437q.012,16.04,0,32.081v2.124C1005.255,96.757,1006.158,96.651,1007.493,96.489Zm-.163,36.476a16.6,16.6,0,1,0-16.545-16.586A16.66,16.66,0,0,0,1007.33,132.964Zm-40.805-61.9h34.409c0-3.174.049-6.226-.016-9.278a2.265,2.265,0,0,0-2.539-2.376q-14.673-.024-29.347,0a2.208,2.208,0,0,0-2.474,2.222C966.46,64.741,966.525,67.858,966.525,71.065Zm34.327,3.418H966.607V85.608h34.246ZM1000.942,89H966.663v11.125a6.785,6.785,0,0,0,.732.106c8.659.008,17.318-.122,25.969.1,2.881.073,5.062-1.343,7.1-2.7.846-.562.391-3.109.464-4.761C1000.982,91.646,1000.942,90.409,1000.942,89Zm-8.6,14.567H966.509c0,3.288-.016,6.413.008,9.538a2.385,2.385,0,0,0,2.694,2.637c2.669.016,5.347.008,8.016.008H987.6A20.934,20.934,0,0,1,992.34,103.569Z" transform="translate(0 0)"/>
      <path id="Path_10298" data-name="Path 10298" d="M8.166-9.582a9.227,9.227,0,0,1-4.186-.857,10.912,10.912,0,0,1-2.828-1.988l1.713-2.392a11.206,11.206,0,0,0,2.1,1.535,5.393,5.393,0,0,0,2.715.663,4.055,4.055,0,0,0,2.845-1.034,3.743,3.743,0,0,0,1.131-2.909,3.778,3.778,0,0,0-1.034-2.845,3.781,3.781,0,0,0-2.748-1,4.5,4.5,0,0,0-1.681.275,9.758,9.758,0,0,0-1.616.889L2.8-20.378l.614-10.15h10.99v3.136H6.647l-.42,4.978a7.275,7.275,0,0,1,1.277-.5,5.308,5.308,0,0,1,1.438-.178,7.551,7.551,0,0,1,3.232.679,5.435,5.435,0,0,1,2.344,2.1,6.793,6.793,0,0,1,.889,3.653,6.9,6.9,0,0,1-1.018,3.814,6.789,6.789,0,0,1-2.667,2.424A7.717,7.717,0,0,1,8.166-9.582Z" transform="translate(998.516 136.767)" fill="#b55219"/>
    </g>
  </g>
</svg>
