<svg xmlns="http://www.w3.org/2000/svg" width="100" height="100" viewBox="0 0 100 100">
  <g id="Group_2301" data-name="Group 2301" transform="translate(-1271 -3491)">
    <rect id="Rectangle_742" data-name="Rectangle 742" width="100" height="100" transform="translate(1271 3491)" fill="none"/>
    <g id="Group_2304" data-name="Group 2304" transform="translate(40.74 3457.5)">
      <path id="Path_10278" data-name="Path 10278" d="M1280.685,42.5h40.878c3.82,0,5.349,1.536,5.349,5.378v58.6c0,3.975-1.494,5.49-5.413,5.49-12.6,0-25.2.021-37.806-.028-1.311-.007-1.79.24-1.684,1.642a43.694,43.694,0,0,1,.007,5.6c-.056,1.156.254,1.508,1.459,1.494,6.632-.063,13.264-.028,19.9-.028a5.73,5.73,0,0,1,1.438.07,1.344,1.344,0,0,1,1.085,1.459,1.329,1.329,0,0,1-1.078,1.29,7.3,7.3,0,0,1-1.621.07h-45.22a9.872,9.872,0,0,1-1.445-.035,1.419,1.419,0,0,1,.007-2.819,8.977,8.977,0,0,1,1.445-.035c6.569,0,13.144-.035,19.713.028,1.212.014,1.515-.338,1.459-1.494a54.623,54.623,0,0,1,.007-5.786c.07-1.226-.359-1.459-1.5-1.459-12.6.042-25.2.028-37.806.028-4.172,0-5.6-1.438-5.6-5.674V47.878c0-3.834,1.53-5.378,5.349-5.378Zm-.183,66.575h40.7c2.678,0,2.812-.127,2.812-2.721V48.117c0-2.544-.169-2.713-2.629-2.713h-81.581c-2.467,0-2.629.169-2.629,2.721v58.238c0,2.587.134,2.721,2.812,2.721Q1260.246,109.072,1280.5,109.075Z"/>
      <path id="Path_10279" data-name="Path 10279" d="M1316.269,77.488h-19.9c-2.291,0-2.537-.233-2.544-2.446q-.011-10.942,0-21.877c0-2.213.247-2.446,2.537-2.446h39.786c2.291,0,2.544.233,2.544,2.446q.01,10.942,0,21.877c0,2.206-.254,2.446-2.537,2.446Q1326.22,77.5,1316.269,77.488Zm19.537-18.24c-2.114,1.4-3.933,2.558-5.716,3.785a2.744,2.744,0,0,1-2.685.451c-1.642-.564-3.369-.881-5.025-1.417a2.007,2.007,0,0,0-2.368.648c-1.9,2.009-3.919,3.912-5.836,5.913a2.1,2.1,0,0,1-2.721.536c-2.079-.937-4.208-1.755-6.308-2.65a1.432,1.432,0,0,0-1.656.056c-2.051,1.572-4.165,3.066-6.23,4.623-1.078.818-.536,2.023-.458,3.009.063.754,1.008.352,1.536.359,4.031.035,8.07.021,12.1.021,7.95,0,15.9.007,23.843-.021.571,0,1.53.507,1.522-.825C1335.785,69.017,1335.806,64.28,1335.806,59.248Zm-39.074,8.74c2.079-1.536,3.919-2.847,5.7-4.236a2.418,2.418,0,0,1,2.812-.359c1.959.909,4,1.635,5.963,2.544a1.491,1.491,0,0,0,2.009-.423c1.748-1.825,3.651-3.51,5.328-5.4a3.2,3.2,0,0,1,3.968-1.022c1.515.564,3.108.923,4.673,1.346a2,2,0,0,0,1.868-.155c1.966-1.381,3.968-2.721,6.019-3.968.973-.592.8-1.431.7-2.213-.12-.944-.973-.458-1.459-.458-9.1-.035-18.191-.021-27.29-.021h-9.036c-.641,0-1.3-.183-1.283.916C1296.76,58.9,1296.732,63.265,1296.732,67.988Z" transform="translate(-17.583 -2.427)" fill="#b55219"/>
      <path id="Path_10280" data-name="Path 10280" d="M1316.22,121.027h-19.537c-.423,0-.846.007-1.269-.007a1.392,1.392,0,0,1-1.543-1.41c-.028-.923.557-1.417,1.48-1.473.888-.056,2.178.261,2.58-.2.662-.768.162-2.058.247-3.129.127-1.522.021-2.65-1.727-3.559-2.819-1.466-3.383-5.216-1.621-7.887a5.578,5.578,0,0,1,8.07-1.5,2.155,2.155,0,0,0,2.84.19,10.961,10.961,0,0,1,1.783-.867c1.783-.67,3.108-1.381,3.186-3.8.078-2.46,2.488-4.285,4.927-4.546a5.451,5.451,0,0,1,5.744,3.207,2.285,2.285,0,0,0,2.361,1.663,19.988,19.988,0,0,1,2.516.226,1.5,1.5,0,0,0,1.734-.839,5.619,5.619,0,0,1,6.188-2.678,5.873,5.873,0,0,1,4.49,4.877,5.726,5.726,0,0,1-3.411,6,1.356,1.356,0,0,0-.909,1.473c.028,3.376.056,6.752-.014,10.128-.021,1.064.331,1.381,1.325,1.255a9.883,9.883,0,0,1,1.445-.007c.916.021,1.543.472,1.557,1.4.021,1.022-.648,1.487-1.642,1.494-.423.007-.846,0-1.269,0Q1325.992,121.024,1316.22,121.027Zm1.5-9.952c0,1.988.042,3.982-.021,5.97-.028.881.254,1.114,1.114,1.1,3.855-.042,7.718-.049,11.573,0,.888.014,1.107-.268,1.093-1.121q-.063-5.149,0-10.3a1.3,1.3,0,0,0-.952-1.445,5.31,5.31,0,0,1-3.066-3.362c-.176-.515-.282-1.078-1.008-1.071-1.635.021-3.524-.8-4.891.141a13.578,13.578,0,0,1-1.2,1.677c-.818.754-1.966,1.191-2.157,1.473-.726,1.036-.528,2.488-.493,3.876C1317.735,109.032,1317.721,110.054,1317.721,111.075Zm-2.9.007c0-1.924.014-3.855-.014-5.779-.007-.437.148-.881-.395-1.262-2.481-1.755-2.467-1.783-5.392-.381-.867.416-1.72.867-2.608,1.226a1.442,1.442,0,0,0-1.036,1.621,4.6,4.6,0,0,1-2.333,4.588c-2.037.944-2.121,2.375-1.987,4.137a9.65,9.65,0,0,1-.007,1.8c-.092.874.233,1.121,1.1,1.107q5.783-.063,11.566,0c.86.007,1.142-.226,1.114-1.1C1314.775,115.058,1314.817,113.07,1314.817,111.083Zm4.342-12.4a2.9,2.9,0,1,0-2.939,2.805A2.916,2.916,0,0,0,1319.159,98.685Zm13.61,4.25a2.9,2.9,0,1,0-2.756-2.988A2.917,2.917,0,0,0,1332.769,102.935Zm-33.126,6.512a2.894,2.894,0,1,0-2.911-2.826A2.914,2.914,0,0,0,1299.643,109.447Z" transform="translate(-17.583 -14.849)" fill="#b55219"/>
      <path id="Path_10281" data-name="Path 10281" d="M1256.2,77.482c-3.016,0-6.026.021-9.043-.007a4.326,4.326,0,0,1-4.659-4.6q-.042-8.775,0-17.542a4.312,4.312,0,0,1,4.652-4.609q9.134-.042,18.268,0a4.277,4.277,0,0,1,4.567,4.511q.053,8.859,0,17.726a4.284,4.284,0,0,1-4.553,4.525C1262.355,77.511,1259.275,77.482,1256.2,77.482Zm.007-2.9c2.953,0,5.906-.028,8.859.014,1.466.021,2.051-.62,2.044-2.072q-.053-8.4.007-16.809c.014-1.558-.627-2.143-2.164-2.136q-8.764.063-17.535.007c-1.473-.007-2.051.62-2.037,2.065q.053,8.4,0,16.809c-.007,1.41.472,2.15,1.98,2.128C1250.3,74.565,1253.256,74.586,1256.209,74.586Z" transform="translate(-2.427 -2.421)" fill="#010101"/>
      <path id="Path_10282" data-name="Path 10282" d="M1256.194,128.6c-3.855,0-7.71-.035-11.566.014-1.543.021-2.2-.6-2.15-2.143.063-2.044.028-4.095.007-6.146-.014-1.283.585-1.868,1.868-1.861q11.841.021,23.681-.007c1.367,0,1.987.585,1.966,1.952-.035,2.051-.042,4.095.007,6.146.035,1.459-.6,2.065-2.058,2.051C1264.032,128.574,1260.113,128.6,1256.194,128.6Zm-.028-2.9h8.317c2.622,0,2.523-.007,2.65-2.636.071-1.452-.395-1.762-1.776-1.741-5.667.078-11.333.035-17,.035-3.024,0-2.96,0-3.009,3-.021,1.156.324,1.4,1.41,1.367C1249.9,125.656,1253.03,125.705,1256.166,125.705Z" transform="translate(-2.426 -22.423)" fill="#010101"/>
      <path id="Path_10283" data-name="Path 10283" d="M1285.613,79.483V53.448a7.754,7.754,0,0,1,.07-1.621,1.409,1.409,0,0,1,2.742.007,6.876,6.876,0,0,1,.071,1.621v52.437a8.966,8.966,0,0,1-.035,1.445,1.419,1.419,0,0,1-2.819-.007,9.877,9.877,0,0,1-.035-1.445Q1285.617,92.681,1285.613,79.483Z" transform="translate(-15.155 -2.434)" fill="#010101"/>
      <path id="Path_10284" data-name="Path 10284" d="M1256.5,97.937c3.735,0,7.471.007,11.206-.007,1.078-.007,2.227.007,2.269,1.41s-1.064,1.5-2.171,1.5q-11.566-.021-23.139,0c-1.057,0-2.065-.141-2.086-1.41-.028-1.4,1.064-1.508,2.171-1.5C1248.662,97.951,1252.581,97.937,1256.5,97.937Z" transform="translate(-2.456 -16.363)" fill="#010101"/>
      <path id="Path_10285" data-name="Path 10285" d="M1251.922,108.2c2.354,0,4.7.014,7.055-.007,1.092-.007,2.009.254,1.966,1.529-.042,1.156-.93,1.381-1.938,1.374q-7.231-.021-14.469,0c-1.093.007-2.016-.268-1.966-1.536.042-1.142.93-1.388,1.945-1.374C1246.981,108.218,1249.455,108.2,1251.922,108.2Z" transform="translate(-2.452 -19.391)" fill="#020202"/>
      <path id="Path_10286" data-name="Path 10286" d="M1252.364,66.128c0-1.8-.042-3.609.014-5.413s1.029-2.368,2.615-1.494q4.81,2.654,9.543,5.427c1.6.937,1.6,2.023-.007,2.967q-4.736,2.77-9.543,5.427c-1.586.874-2.551.31-2.608-1.494S1252.364,67.933,1252.364,66.128Zm9-.007c-2.192-1.226-4.046-2.255-6.026-3.362v6.759C1257.354,68.384,1259.2,67.341,1261.364,66.121Z" transform="translate(-5.34 -4.817)" fill="#080808"/>
    </g>
  </g>
</svg>
