<svg xmlns="http://www.w3.org/2000/svg" width="100" height="100" viewBox="0 0 100 100">
  <g id="Group_2305" data-name="Group 2305" transform="translate(-1271 -3491)">
    <rect id="Rectangle_742" data-name="Rectangle 742" width="100" height="100" transform="translate(1271 3491)" fill="none"/>
    <g id="Group_2306" data-name="Group 2306" transform="translate(-256.98 3459.5)">
      <g id="Group_2260" data-name="Group 2260" transform="translate(1531.98 42.5)">
        <path id="Path_10287" data-name="Path 10287" d="M1537.579,111.988c-4.175,0-5.6-1.444-5.6-5.674V47.881c0-3.835,1.532-5.374,5.347-5.381h81.959c3.821,0,5.347,1.533,5.347,5.374v58.617c0,3.978-1.492,5.5-5.415,5.5Zm40.643-2.895h40.711c2.677,0,2.813-.129,2.813-2.718V48.119c0-2.547-.163-2.718-2.636-2.718H1537.5c-2.466,0-2.629.17-2.629,2.718v58.256c0,2.588.136,2.718,2.813,2.718Z" transform="translate(-1531.98 -42.5)"/>
        <path id="Path_10288" data-name="Path 10288" d="M1616.061,77.795h-19.9c-2.3,0-2.541-.238-2.541-2.445q-.01-10.942,0-21.884c0-2.214.245-2.445,2.541-2.445h39.8c2.3,0,2.541.238,2.541,2.445q.01,10.942,0,21.884c0,2.207-.252,2.445-2.541,2.452Q1626.015,77.792,1616.061,77.795Zm19.548-18.247c-2.111,1.4-3.937,2.561-5.715,3.787a2.735,2.735,0,0,1-2.684.45c-1.641-.565-3.371-.879-5.027-1.417a2.016,2.016,0,0,0-2.37.654c-1.907,2.009-3.923,3.916-5.837,5.919a2.1,2.1,0,0,1-2.718.538c-2.077-.94-4.209-1.75-6.307-2.65a1.435,1.435,0,0,0-1.662.061c-2.057,1.573-4.168,3.065-6.232,4.625-1.076.817-.538,2.03-.463,3.011.061.756,1.008.354,1.532.354,4.032.034,8.071.02,12.11.02,7.949,0,15.9.007,23.853-.02.572,0,1.533.511,1.519-.824C1635.588,69.315,1635.609,64.574,1635.609,59.548Zm-39.09,8.739c2.084-1.539,3.923-2.847,5.7-4.237a2.431,2.431,0,0,1,2.813-.361c1.962.906,4.005,1.635,5.96,2.547a1.492,1.492,0,0,0,2.009-.422c1.75-1.832,3.651-3.515,5.326-5.4a3.184,3.184,0,0,1,3.964-1.022c1.512.565,3.113.92,4.672,1.342a1.99,1.99,0,0,0,1.873-.157c1.969-1.383,3.971-2.724,6.021-3.971.974-.593.8-1.43.7-2.214-.123-.947-.974-.456-1.458-.456-9.1-.034-18.2-.027-27.293-.027h-9.039c-.64,0-1.294-.184-1.281.92C1596.547,59.193,1596.519,63.566,1596.519,68.286Z" transform="translate(-1551.633 -45.217)" fill="#b55219"/>
        <path id="Path_10289" data-name="Path 10289" d="M1554.195,77.779c-3.017,0-6.028.02-9.045-.007a4.324,4.324,0,0,1-4.659-4.6q-.041-8.776,0-17.546a4.314,4.314,0,0,1,4.652-4.611q9.134-.041,18.274,0a4.272,4.272,0,0,1,4.564,4.509q.051,8.868,0,17.73a4.285,4.285,0,0,1-4.557,4.523C1560.345,77.806,1557.266,77.779,1554.195,77.779Zm.007-2.895c2.956,0,5.905-.027,8.861.014,1.471.02,2.05-.62,2.043-2.071q-.051-8.408.007-16.817c.014-1.56-.627-2.146-2.166-2.132q-8.776.061-17.546.007c-1.471-.007-2.05.62-2.043,2.071q.051,8.408,0,16.817c-.007,1.41.47,2.152,1.982,2.132C1548.289,74.857,1551.245,74.884,1554.2,74.884Z" transform="translate(-1534.687 -45.207)" fill="#010101"/>
        <path id="Path_10290" data-name="Path 10290" d="M1554.184,128.029c-3.855,0-7.717-.034-11.573.014-1.546.02-2.2-.6-2.152-2.146.061-2.05.027-4.1.014-6.144-.014-1.281.586-1.866,1.866-1.866q11.841.02,23.69-.007c1.369,0,1.989.586,1.969,1.955-.034,2.05-.041,4.1.007,6.144.034,1.464-.6,2.071-2.057,2.05C1562.016,128,1558.1,128.029,1554.184,128.029Zm-.034-2.895h8.323c2.622,0,2.527-.007,2.65-2.636.068-1.458-.4-1.757-1.778-1.737-5.667.082-11.334.034-17,.034-3.031,0-2.963,0-3.01,3-.021,1.151.32,1.4,1.41,1.369C1547.883,125.079,1551.016,125.134,1554.149,125.134Z" transform="translate(-1534.683 -66.537)" fill="#010101"/>
        <path id="Path_10291" data-name="Path 10291" d="M1554.479,96.706c3.739,0,7.472.007,11.211-.007,1.076-.007,2.227.007,2.268,1.41s-1.062,1.505-2.173,1.505q-11.576-.02-23.145,0c-1.056,0-2.064-.143-2.091-1.41-.027-1.4,1.069-1.505,2.173-1.5C1546.646,96.72,1550.562,96.706,1554.479,96.706Z" transform="translate(-1534.712 -59.783)" fill="#010101"/>
        <path id="Path_10292" data-name="Path 10292" d="M1549.9,107.337c2.35,0,4.707.014,7.056-.007,1.09-.007,2.01.259,1.962,1.533-.041,1.158-.933,1.383-1.941,1.376q-7.233-.02-14.474,0c-1.1.007-2.016-.272-1.968-1.533.041-1.144.933-1.389,1.941-1.376C1544.96,107.35,1547.432,107.337,1549.9,107.337Z" transform="translate(-1534.709 -63.173)" fill="#020202"/>
        <path id="Path_10293" data-name="Path 10293" d="M1550.692,66.707c0-1.8-.041-3.61.014-5.415s1.029-2.37,2.615-1.492q4.8,2.656,9.549,5.429c1.6.94,1.6,2.023-.007,2.963q-4.741,2.779-9.549,5.429c-1.587.879-2.554.307-2.609-1.492S1550.692,68.512,1550.692,66.707Zm9-.007c-2.193-1.226-4.046-2.261-6.028-3.365V70.1C1555.684,68.961,1557.53,67.919,1559.689,66.7Z" transform="translate(-1537.941 -47.887)" fill="#080808"/>
      </g>
      <g id="Group_2261" data-name="Group 2261" transform="translate(1576.148 78.905)">
        <path id="Path_10294" data-name="Path 10294" d="M1605.455,129.23l-5.653-6.58-1.812-8.834,5.04-10.51,6.648-4.713L1623.321,98l7.962,5.108,4.911,7.867v8.534l-3.828,6.743-6.259,4.843-7.595,1.669-7.758-.879-5.5,4.713Z" transform="translate(-1597.197 -96.603)" fill="#fff"/>
        <path id="Path_10295" data-name="Path 10295" d="M1621.4,96.161a18.654,18.654,0,0,1,7.179,34.349c-5.34,3.3-11.143,3.147-17.028,2.364a1.327,1.327,0,0,0-1.335.388c-1.315,1.349-2.663,2.67-3.991,4.005a1.357,1.357,0,0,1-2.459-1.035c.021-1.839-.047-3.685.027-5.524a2.937,2.937,0,0,0-1.076-2.527,18.492,18.492,0,0,1-2.357-24.4c4.134-5.619,9.8-8.044,16.688-7.819A34.471,34.471,0,0,1,1621.4,96.161Zm-12.614,34.873a2.655,2.655,0,0,1,2.833-.824c4.761.817,9.536,1.11,14.079-1.069,6.2-2.97,10.026-9.863,9.073-16.279-1.124-7.6-6.362-13.112-13.684-14.086-4.931-.654-9.808-.518-14.249,2.3a16.085,16.085,0,0,0-1.866,25.678,3.274,3.274,0,0,1,1.39,3.058c-.1,1.124-.02,2.268-.02,3.705C1607.311,132.54,1608.094,131.831,1608.782,131.034Z" transform="translate(-1596.826 -95.949)" fill="#b55219"/>
        <path id="Path_10296" data-name="Path 10296" d="M1623.317,121.242c-.218-2.03.361-3.46,2.541-4.1a2.544,2.544,0,0,0,1.553-3.147,2.829,2.829,0,0,0-5.463-.279,4.241,4.241,0,0,0-.191.872c-.1.865-.552,1.369-1.437,1.253s-1.158-.77-1.1-1.594a5.439,5.439,0,0,1,10.639-1.206,5.276,5.276,0,0,1-2.765,6.362,1.689,1.689,0,0,0-1.185,2.023,8.232,8.232,0,0,1-.021,1.533,1.14,1.14,0,0,1-1.144,1.151,1.162,1.162,0,0,1-1.335-1.09C1623.324,122.441,1623.345,121.842,1623.317,121.242Z" transform="translate(-1603.964 -100.161)" fill="#b55219"/>
        <path id="Path_10297" data-name="Path 10297" d="M1626.656,134.88c.776.163,1.26.586,1.185,1.41a1.134,1.134,0,0,1-1.287,1.131,1.161,1.161,0,0,1-1.185-1.362A1.244,1.244,0,0,1,1626.656,134.88Z" transform="translate(-1605.926 -108.363)" fill="#b55219"/>
        <line id="Line_92" data-name="Line 92" y1="24.534" x2="24.541" transform="translate(8.422 6.274)" fill="none" stroke="#b55219" stroke-width="2.8"/>
      </g>
    </g>
  </g>
</svg>
