
<svg xmlns="http://www.w3.org/2000/svg" width="514.038" height="521.317" viewBox="0 0 514.038 521.317">
  <g id="Group_2174" data-name="Group 2174" opacity="0.12">
    <path id="Path_9809" data-name="Path 9809" d="M557.574,760.868c.437-8.793.527-17.6,1.054-26.364.361-6.143-.015-12.361,1.159-18.489.3-1.6.933-4.02-1.867-4.683-1.129-3.659-4.261-2.545-6.805-2.876-4.02-.527-8.01-1.31-12.045-1.566-4.532-.286-8.928-1.43-13.445-1.792-3.644-.286-7.257-.994-10.9-1.476-2.334-.316-4.653-.632-7-.813a2.9,2.9,0,0,1-2.846-2c-.572-1.46-1.009-2.74.3-4.11,4.547-4.788,9.079-9.606,13.536-14.469,5.089-5.541,21.8-22.976,21.8-24.858,0-1.9-17.239-18.986-24.015-26.183-3.779-4-7.242-8.281-11.217-12.105-1.34-1.28-1.054-2.56-.467-4.08a3.077,3.077,0,0,1,3.011-2.138c5.375-.422,10.675-1.536,16.02-2.033,4.517-.422,8.9-1.626,13.46-1.807a87.146,87.146,0,0,0,11.8-1.566c2.243-.407,4.532,0,6.76-.648.843-.256,1.385-.286,1.446-1.295.03-.422.331-1.069.677-1.174,3.041-1.084,1.7-3.493,1.626-5.42-.09-2.259-.678-4.5-.6-6.745.211-5.827-.361-11.639-.632-17.435-.331-6.971,0-13.987-.9-20.928-.256-1.927.587-2.831,2.123-3.719,1.506-.873,2.62-.482,3.885.377,7.227,4.923,14.815,9.29,22.1,14.093,5.209,3.418,10.81,6.294,15.629,10.329,1.009.843,2.288,1.37,3.372,2.138.587.406.813.075,1.144-.256.391-.391.918-.918,1.415-.723,2.695,1.084,3.689-1.159,4.562-2.65,2.454-4.246,5.842-7.739,8.7-11.638,4.065-5.541,8.311-10.976,12.542-16.411a103.939,103.939,0,0,0,6.519-8.642,2.792,2.792,0,0,1,3.252-1.25c1.491.256,2.785.663,3.222,2.289,2.409,8.943,5.706,17.616,8.3,26.469,1.747,5.932,4.246,11.669,5.224,17.872.226,1.46.391,4.065,3.252,3.764a.461.461,0,0,1,.407.211c1.175,2.544,3.207,1.415,4.833.933,5-1.506,10.223-2.078,15.192-3.553,5.029-1.491,10.223-2.018,15.252-3.4,4.863-1.34,9.937-1.882,14.755-3.448a2.707,2.707,0,0,1,3.132,1.054c.9,1.129,1.942,2.2,1.144,3.779-2.906,5.706-4.939,11.789-7.483,17.661-2.544,5.842-4.728,11.834-7.167,17.721-1.4,3.372-3,6.67-4.517,10-.286.617-.753,1.159.3,1.566.5.2,1.054.738.9,1.28-.738,2.695,1.641,3.207,3.041,3.809,8.943,3.87,17.3,8.868,26.017,13.174,5.179,2.56,10.1,5.616,15.387,7.95,1.415.632,1.747,1.762,1.747,3.267s-.376,2.59-1.761,3.267c-8.176,3.915-16.02,8.431-24.06,12.557-6.354,3.267-12.617,6.73-19.152,9.636-.949.422-1.43.723-1.159,1.822.106.421.075,1.159-.181,1.34-2.785,1.942-.437,3.93.286,5.405,3.041,6.233,5.39,12.768,8.115,19.121,3.162,7.363,5.917,14.921,9.26,22.223.738,1.626.979,2.936-.392,4.5-1.34,1.536-2.56,1.521-4.351,1.084-8.236-2.018-16.562-3.659-24.858-5.42-4.547-.964-9.094-2.048-13.626-3.177-2.861-.708-5.737-1.4-8.6-2.153-.632-.166-1.009-.271-1.22.512-.166.632-.678,1.31-1.28,1.25-2.785-.271-2.815,2.2-3.147,3.614-2.168,9.485-5.706,18.549-8.416,27.869-1.626,5.586-3.809,11.006-5.179,16.682-.392,1.656-1.807,1.972-3.267,2.243a2.9,2.9,0,0,1-3.222-1.325c-5.24-7.242-10.961-14.108-16.291-21.26-3.779-5.059-8.085-9.756-11.337-15.237-.828-1.4-1.626-4.05-4.457-2.77a.472.472,0,0,1-.451-.045c-2.093-2.213-3.764-.15-5.119.828C593.92,746.189,585.4,750.976,577.3,756.4c-4.668,3.117-9.636,5.781-14.183,9.109-1.22.888-2.379.708-3.7-.09-1.28-.768-2.138-1.566-1.9-3.147C557.529,761.817,557.544,761.335,557.574,760.868Zm181.88-103.015c-4.381-2.409-8.416-4.908-12.707-6.911-3.418-1.6-6.519-3.734-9.937-5.255-7.031-3.147-13.6-7.257-20.732-10.178a2.925,2.925,0,0,1-2-3.372,1,1,0,0,0-.286-1.054c-1.867-1.7-1.144-3.493-.256-5.345,1.7-3.583,3.568-7.122,4.939-10.826,2.259-6.143,5.1-12.03,7.453-18.128,1.9-4.908,3.93-9.756,5.947-14.74a106.765,106.765,0,0,0-13.445,2.7c-10.012,2.364-20.145,4.216-30.067,6.971-2.71.753-6.008,2.981-8.432-.858-.06-.09-.3-.075-.452-.075-2.454-.075-3.011-1.927-3.508-3.794-.6-2.319-1.1-4.667-1.746-6.986-1.28-4.487-2.891-8.853-4.216-13.34-2.484-8.371-5.33-16.652-8.221-25.611a8.528,8.528,0,0,1-.572,1.235c-3.659,4.788-7.347,9.576-11.021,14.364-3.945,5.149-7.9,10.3-11.789,15.493-1.957,2.62-3.764,5.36-5.721,7.98-.964,1.295-2.153,2.379-4,1.731a1.305,1.305,0,0,0-1.295.241c-1.731,1.159-3.252.512-4.758-.542-3.96-2.755-7.844-5.631-12.015-8.1-4.969-2.936-9.711-6.279-14.59-9.38-4.457-2.831-8.959-5.6-13.521-8.431,0,2.589-.09,5,.015,7.408.407,9.486,1.069,18.971,1.2,28.471.03,2.243.346,4.472.452,6.7.166,3.613,2.213,7.634-2.108,10.359-.045.03-.06.136-.075.211-.662,2.243-2.409,2.575-4.412,2.725a111.321,111.321,0,0,0-11.879,1.159c-6.143,1.1-12.376,1.4-18.534,2.529-5.481,1.009-11.051,1.445-16.758,2.153,5.887,6.595,11.443,13.189,17.405,19.408,5.255,5.481,10.118,11.338,15.764,16.426a3.2,3.2,0,0,1,.873,3.884,1.771,1.771,0,0,0,0,1.581,3.483,3.483,0,0,1-1.039,4.065c-3.93,3.915-7.844,7.859-11.533,12.015-5.722,6.459-11.7,12.692-17.541,19.046-1.34,1.461-2.575,3.026-4.05,4.758,2.861-.166,5.27.723,7.754.888,6.866.467,13.6,1.867,20.431,2.575,6.58.677,13.129,1.762,19.739,2.213,2.349.166,6.339,4.035,6.444,6.429a23.15,23.15,0,0,1-.12,5.405c-1.295,6.489-.753,13.069-1.22,19.6-.407,5.631-.632,11.292-.8,16.938-.075,2.439-.015,4.878-.015,7.543,8.567-5.42,16.938-10.72,25.31-16.02,3.162-2,6.248-4.125,9.485-6.008,3.448-2,5.887-6.82,11.1-4.171.105.045.286-.09.437-.136a3.219,3.219,0,0,1,3.659,1.566c3.267,4.562,6.61,9.079,9.952,13.581,4.939,6.67,10.329,12.994,15.071,19.814,1.325,1.9,2.966,3.583,4.412,5.3,1.671-4.953,3.358-9.8,4.923-14.68,2.018-6.293,3.945-12.617,5.857-18.941,1.144-3.779,2.274-7.573,3.222-11.4.6-2.439,5.134-6.384,7.619-6.279a3.714,3.714,0,0,1,.693.12c5.42,1.431,10.826,2.936,16.351,4.05,8.311,1.671,16.532,3.779,24.813,5.631,2.093.467,4.216.738,6.429,1.114-1.807-4.637-3.388-9.214-5.36-13.6-4.08-9.079-7.453-18.459-11.729-27.478-1.2-2.545-3.96-5.42-.6-8.492.06-.06-.015-.3-.045-.452-.346-2.048.964-3.072,2.544-3.734,7.122-2.981,13.777-6.866,20.7-10.253C724.744,666.043,731.911,661.9,739.454,657.853Z" transform="translate(-364.89 -397.233)" fill="#1d201d"/>
    <path id="Path_9810" data-name="Path 9810" d="M499.244,550.512c.738,3.538-4.893,11.382-9.907,12.467-1.822.392-3.553,1.28-5.5,1.009-1.415-.2-2.063.979-2.529,1.777-1.957,3.418-5.27,5.571-7.588,8.627a54.817,54.817,0,0,1-11.744,11.187c-2.56,1.867-2.74,4.246-2.093,6.715,1.686,6.459,1.807,13.009,1.852,19.6.015,2.635.647,5.24.06,7.92a2.261,2.261,0,0,0,.723,2.243c4.517,4.2,6.58,9.184,5.3,15.583-1.084,5.39-4.667,7.89-9.26,9.546-3.071,1.114-6.309,2.364-9.561,1.762-4.216-.783-8.883-6.564-7.5-12.467.361-1.551.211-3.282,1.581-4.562,1.987-1.852,6.339-2.334,9.064-.843,2.68,1.46,4.5,5.255,3.764,8.025-.422,1.6-1.475,2.77-3.252,2.334a2.331,2.331,0,0,1-1.822-3.4c.6-1.747-.376-2.68-1.927-3.041-1.822-.436-2.7.346-2.876,2.259a7.436,7.436,0,0,0,2.831,6.595c1.295,1.19,2.379.106,3.538.06a16.336,16.336,0,0,0,8.447-3.086c2.981-1.988,3.493-8.371,1.611-11.443-.964-1.566-1.777-3.267-3.794-3.96a2.58,2.58,0,0,1-1.686-2.861c.918-6.248-.211-12.482-.09-18.715.09-5.089-1.355-10.013-2.394-14.951a4.284,4.284,0,0,1,1.626-4.577,95.243,95.243,0,0,0,16.246-15.282c2.59-3.026,5.285-5.947,7.6-9.2a2.651,2.651,0,0,1,2.966-.979c5.736,1.762,12.211-4.592,11.488-9.907a15.855,15.855,0,0,0-4.141-8.025c-3.041-3.508-6.836-3.071-9.485.933-.708,1.069-1.671,2.319.316,3.177,1.476.632,2.906,1.295,3.9-.813,1.009-2.138,3.147-2.394,4.442-.587a2.325,2.325,0,0,1,.316,2.424c-1.22,3.072-5.661,5.315-8.733,4.141a14.629,14.629,0,0,1-3.839-2.228c-2.243-1.792-2.575-4.532-1.174-7.122,2.033-3.764,4.682-6.384,9.3-6.926,3.087-.346,5.36.271,7.287,2.6C495.857,540.439,498.958,544.339,499.244,550.512Z" transform="translate(-396.778 -398.012)" fill="#1d201d"/>
    <path id="Path_9811" data-name="Path 9811" d="M494.4,722.4c.12-5.1-5.872-10.69-11.277-9.2a3.165,3.165,0,0,1-3.613-1.521,137.082,137.082,0,0,0-15.267-17.209,56.67,56.67,0,0,0-8.161-6.7,3.9,3.9,0,0,1-1.686-4.125,93.767,93.767,0,0,0,2.695-22.991c.015-3.644.181-7.272-.12-10.916a3.2,3.2,0,0,1,1.927-3.222,9.4,9.4,0,0,0,4.472-9.727c-1.189-5.239-4.818-8.16-10.78-8.627-1.611-.12-3.162-.828-4.652.918a7.805,7.805,0,0,0-1.882,6.053c.135,1.867,1.265,2.349,2.876,1.987a2.264,2.264,0,0,0,1.987-2.861c-.422-2.243.226-3.478,1.972-3.674,1.6-.2,2.921,1.19,3.087,3.147.5,5.9-5.24,9.32-10.524,7.875-2.289-.633-3.252-2.394-3.779-4.848-1.069-4.953.406-8.672,4.05-11.955,2.153-1.942,4.426-1.957,6.971-1.385,4.427.979,8.913,1.822,12.181,5.36,4.02,4.366,4.532,11.94,1.174,16.953-1.084,1.626-1.972,3.448-3.719,4.5a1.69,1.69,0,0,0-.542,2.078c.933,3.312-.271,6.549-.135,9.817a53.815,53.815,0,0,1-1.792,17.465c-1.114,3.779.753,6.248,3.553,8.191,4.923,3.4,8.552,8.055,12.5,12.451,2.078,2.319,4.442,4.4,6.173,7.016a2.161,2.161,0,0,0,1.987.9c7.046.286,12.858,4.411,14.77,11.021,1.069,3.659.09,7.317-1.972,10.539a31.564,31.564,0,0,1-3.493,4.984c-5.194,5.435-12.753,4.5-16.562-2.063-2.093-3.614-2.183-5.661-.316-7.89a9.052,9.052,0,0,1,9.38-2.56,7.259,7.259,0,0,1,3.734,3.689c.918,1.656.045,2.785-1.31,3.478a2.115,2.115,0,0,1-3.237-1.295,1.975,1.975,0,0,0-2.258-1.536,3.111,3.111,0,0,0-2.77,1.46c-.527.873.346,1.611.768,2.258a7.748,7.748,0,0,0,5.36,3.433c2.033.376,2.725-1.144,3.779-2.244C492.263,729.04,494.341,724.854,494.4,722.4Z" transform="translate(-396.738 -352.878)" fill="#1d201d"/>
    <path id="Path_9812" data-name="Path 9812" d="M543.116,598.934c-7.182-.346-14.183.783-21.2,2.213-2.65.542-5.45.2-8.191.587-6.55.964-13.2,1.009-19.724,2.288a2.755,2.755,0,0,1-3.1-1.144,3.257,3.257,0,0,1,.015-3.779,96.788,96.788,0,0,0,6.279-10.359c1.852-3.809,3.809-7.589,5.541-11.473,1.957-4.412,4.035-8.763,5.962-13.189a16.215,16.215,0,0,1,7.317-7.739c4.216-2.3,7.8-5.481,11.714-8.191,4.863-3.358,9.787-6.61,13.912-10.946,1.19-1.25,2.876-2.093,4.156-3.373a3.32,3.32,0,0,1,3.764-.422c1.114.482,1.34,1.6,1.355,2.785.166,8.657.979,17.27,1.822,25.882.422,4.366.105,8.793.391,13.2.346,5.33,1.551,10.479,2.334,15.719.286,1.912,1.235,4.155-1.581,5.164-1.129,3.96-4.4,2.59-7,2.77C545.645,599.009,544.38,598.934,543.116,598.934Zm2.861-59.2c-3.824,3.057-6.67,6.4-10.449,8.718-4.321,2.65-8.221,5.947-12.361,8.883-3.629,2.56-8.01,4.276-10.027,8.612-2.078,4.457-3.945,9-6.2,13.37-2.846,5.511-4.833,11.488-8.627,16.517a4.117,4.117,0,0,0-1.054,2.65c.5,0,.964.03,1.415,0,5.435-.482,10.916-.723,16.306-1.566,2.5-.391,4.984-.06,7.468-.557a83.427,83.427,0,0,1,18.128-2.138c3.538.06,7.077.015,10.871.015C547,576.395,548.732,558.161,545.976,539.733Z" transform="translate(-371.978 -398.419)" fill="#1d201d"/>
    <path id="Path_9813" data-name="Path 9813" d="M547.7,724.143a2.5,2.5,0,0,1-2.018-.738c-2.424-2.56-5.345-4.577-7.965-6.911-3.523-3.117-7.739-5.435-11.4-8.4-4.321-3.508-9.29-6.068-13.6-9.606-2.861-2.349-4.261-5.556-5.616-8.823-2.514-6.038-5.827-11.714-8.326-17.691-1.7-4.08-4.908-7.2-6.173-11.428-.256-.843-1.129-1.491-1.641-2.289a3.275,3.275,0,0,1,.03-3.975,2.841,2.841,0,0,1,3.372-.888c4.321,1.159,8.808,1.039,13.219,1.551,7.438.843,14.936,1.174,22.3,2.6,6.248,1.2,12.527.723,18.79.8a6.49,6.49,0,0,1,5.375,2.544c1.957,2.123,1.686,3.7,1.295,5.8-1.355,7.468-2.575,14.936-2.56,22.569.015,9-1.25,17.917-1.852,26.875-.121,1.7,0,3.433-.03,5.149C550.865,723.39,549.916,724.263,547.7,724.143ZM497.113,658.9a6.369,6.369,0,0,0,.512,1.566,58.571,58.571,0,0,1,5.962,10.539c2.529,5.782,5.706,11.247,8.025,17.119,1.174,2.966,2.59,5.812,5.225,7.679,3.824,2.725,7.814,5.195,11.548,8.055,5.134,3.93,10.931,6.986,15.373,11.834a2.984,2.984,0,0,0,2.289,1.265c2.635-17.827.963-36.06,5.36-53.886-1.385,0-2.56.045-3.734-.015-4.622-.211-9.245.105-13.9-.316-5.691-.512-11.187-2.349-16.984-2.108-1.912.075-3.854-.708-5.782-.693C506.4,659.988,501.916,658.347,497.113,658.9Z" transform="translate(-371.973 -337.652)" fill="#1d201d"/>
    <path id="Path_9814" data-name="Path 9814" d="M653.138,750.173c-1.054-7.3,7.9-14.093,14.319-13.43,2,.211,4.11-.211,6.007.889.843.482,1.6-.181,2.108-.617,2.529-2.243,5.812-3.026,8.612-4.758a91.732,91.732,0,0,1,18.113-8.115,3.275,3.275,0,0,0,2.454-2.981c1.009-7.6,3.357-14.876,5.721-22.133a28.514,28.514,0,0,1,2.078-5.676,3.974,3.974,0,0,0-.045-3.93c-3.041-6.444-2.048-12.557,2.56-17.887a9.44,9.44,0,0,1,7.031-3.282,42.222,42.222,0,0,1,9.546.452,9.843,9.843,0,0,1,7.453,11.563,19.432,19.432,0,0,1-2.8,5.917,4.584,4.584,0,0,1-4.743,1.942c-5.375-.617-9.335-5.782-6.715-11.187.858-1.777,2.65-2.424,4.08-1.43,1.506,1.039,1.656,2.288.482,3.809-1.22,1.566-.346,2.68,1.069,3.6s2.273.5,2.951-.948a9.232,9.232,0,0,0,1.084-3.779,4.587,4.587,0,0,0-3.915-4.8c-3.794-.918-7.754-1.521-11.1.693-4.171,2.771-5.691,9.742-1.957,13.972a3.248,3.248,0,0,1,.723,3.7c-2.876,5.827-4.246,12.166-6.4,18.233-1.611,4.547-2.033,9.38-2.65,14.153a4.193,4.193,0,0,1-2.861,3.689,98.943,98.943,0,0,0-20.582,8.808c-3.418,1.9-6.866,3.719-10.1,5.917a3.006,3.006,0,0,1-3.538.045,7.781,7.781,0,0,0-7.347-.858C659.01,744,656.963,746.6,658,752.748c.3,1.731,1.1,3.433,1.491,5.119.647,2.74,2.635,2.891,4.577,3.087,2.274.241,4.065-1.129,5.5-2.7.918-1.009-.3-1.972-.948-2.575-.843-.783-2.018-1.385-3.132-.226-.542.572-1.009,1.2-1.9,1.28a2.569,2.569,0,0,1-2.514-1.445,2.294,2.294,0,0,1,.256-2.846c2.755-3.373,8.748-2.71,10.63-.09,1.069,1.505,2.589,2.71,2.575,4.863-.03,3.162-3.6,7.046-7.317,8.055-2.981.813-5.706.135-8.417-.873-2.906-1.084-3.312-3.99-4.2-6.414A23.34,23.34,0,0,1,653.138,750.173Z" transform="translate(-289.686 -330.077)" fill="#1d201d"/>
    <path id="Path_9815" data-name="Path 9815" d="M537.714,751.03c5.014-.376,10.419,1.039,15.929,1.686a74.838,74.838,0,0,1,8.989,1.385,1.449,1.449,0,0,0,1.43-.422c5.8-4.5,12.933-5.059,18.941-1.114a9.758,9.758,0,0,1,4.321,6.444c.587,3.147,1.4,6.2,1.265,9.455a9.665,9.665,0,0,1-8.447,9.064,15.354,15.354,0,0,1-8.386-1.732,4.436,4.436,0,0,1-2.409-3.839c-.362-5.149,3.237-10.027,9.169-9.064a4.683,4.683,0,0,1,1.536.542A2.449,2.449,0,0,1,581.242,767a2.2,2.2,0,0,1-3.342,1.084c-1.882-1.054-2.77-.12-3.568,1.566-.979,2.048.286,2.349,1.761,2.831A6.5,6.5,0,0,0,583.2,770.8c1.551-1.611.617-3.885.6-5.857-.015-1.22-.753-2.424-.753-3.643-.03-5.526-8.221-7.844-12.181-6.1-1.626.722-3.328,1.219-4.321,3a2.425,2.425,0,0,1-2.906,1.009c-6.474-1.9-13.2-2.243-19.814-3.267-4.4-.678-8.958-.241-13.445-.136a4.793,4.793,0,0,1-4.938-3.056,101.382,101.382,0,0,0-12.226-18.354c-2.364-2.906-4.758-5.782-7.3-8.537a2.728,2.728,0,0,1-.738-2.8c1.746-5.646.045-10.1-4.984-12.9-2.575-1.43-5.134-.3-7.634.467a23.806,23.806,0,0,0-5.586,2.921c-1.1.693-1.476,3.99-.632,5.646a10.251,10.251,0,0,0,2.078,2.831c.949.9,1.837,1.581,2.906.181.994-1.28,1.476-2.68.181-3.96-1.837-1.822-2.123-2.981-.738-4.231,1.295-1.174,3.056-.768,4.5.828,3.809,4.2,1.1,11.277-3.9,12.738a4.524,4.524,0,0,1-4.4-.783c-3.011-2.3-5.36-4.878-5.782-8.943-.482-4.863,1.611-7.859,5.842-9.877a31.414,31.414,0,0,1,8.793-3.086,9.792,9.792,0,0,1,7.9,2.078c3.1,2.56,5.782,5.225,6.595,9.365a21.969,21.969,0,0,1,.211,5.872,3.781,3.781,0,0,0,1.159,3.177c3.583,3.252,5.676,7.679,8.989,11.127,3.583,3.749,5.39,8.612,8.236,12.828.828,1.235,1.626,1.912,3.192,1.762A51.472,51.472,0,0,1,537.714,751.03Z" transform="translate(-376.619 -311.587)" fill="#1d201d"/>
    <path id="Path_9816" data-name="Path 9816" d="M721.323,680.228a7.753,7.753,0,0,1,4.366,1.265c3.433,2.71,3.1,3.975,1.491,9.44-1.235,4.186-4.788,6.037-8.657,7.152-2.123.617-3.945-.768-5.646-1.822-4.186-2.59-8.281-5.285-9.982-10.359-.6-1.777-.12-3.358-.015-5.059.407-6.369,4.321-10.028,9.561-12.587a4.172,4.172,0,0,0,2.258-2.68c2.514-7.378,4.833-14.951,9.184-21.425,3.388-5.029,3.824-9.124-.03-13.882-2.936-3.629-4.08-8.251-5.737-12.527-1.235-3.177-3.192-6.083-3.7-9.561a2.731,2.731,0,0,0-1.9-2.078,17.555,17.555,0,0,1-8.462-7.543c-2.936-5.164-1.732-11.412,2.454-15.628a43.209,43.209,0,0,1,8.311-6.038c3.478-2.153,10.028,1.46,11.8,5.119,1.024,2.093,1.235,4.336,1.747,6.519a3.07,3.07,0,0,1-.662,2.213c-1.4,2.364-5.556,4-8.477,3.358a8.017,8.017,0,0,1-5.842-6.083,2.647,2.647,0,0,1,2.258-3.312c1.656-.286,2.665.527,2.876,2.3a2.792,2.792,0,0,0,4.125,2.2,1.425,1.425,0,0,0,.873-1.265c.075-2.846-2.831-6.579-5.556-7.031-1.37-.226-2.183.858-3.117,1.415-2.966,1.807-6.218,3.553-7.242,7.227-1.34,4.863,1.867,11.352,7.588,12.105a2.84,2.84,0,0,1,2.7,1.957c1.521,6.248,4.5,11.925,6.715,17.9,1.747,4.728,4.622,8.808,7.227,13.054a4.271,4.271,0,0,1,.166,4.863,89.905,89.905,0,0,0-9.756,19.092c-1.491,4-3.267,7.889-4.321,12.06a2.753,2.753,0,0,1-2.635,2.033c-6.053.512-9.817,8.808-7.257,13.34,1.551,2.74,4.125,4.577,6.9,6.1,1.581.873,2.876,1.822,4.878.527a7.508,7.508,0,0,0,3.478-5.209c.286-1.355.2-2.349-1.476-2.424-1.43-.06-3.057-.135-3.267,1.777-.15,1.385-.406,2.514-1.9,2.876a2.543,2.543,0,0,1-2.575-.828c-1.069-1.159-.828-2.409-.271-3.734A7.466,7.466,0,0,1,721.323,680.228Z" transform="translate(-264.717 -376.563)" fill="#1d201d"/>
    <path id="Path_9817" data-name="Path 9817" d="M510.429,536.515c.738,7.889-3,12.2-8.146,15.418-3.523,2.2-7.378,1.144-11.051-.166a43.425,43.425,0,0,1-7.091-3.568c-3.7-2.123-3.583-9.214-1.656-12.467a17.39,17.39,0,0,1,5.164-5.1,3.873,3.873,0,0,1,3.177-.482,7.718,7.718,0,0,1,5.842,5.315c.873,2.59.8,5.6-1.6,7.89-1.46,1.4-3.147,1.656-4.366.467-1.31-1.295-1.1-2.529.723-4.065,1.129-.964,1.024-2.8-.151-4.14-1.2-1.355-2.018-.467-2.921.346a7.534,7.534,0,0,0-2.349,7.031c.226,1.7,1.852,1.867,2.906,2.439,3.1,1.7,6.248,3.523,10.058,2.62,2.951-.692,6.7-4.833,6.866-7.874.09-1.746.6-3.568-.542-5.255a2.13,2.13,0,0,1,.557-2.785c4.637-4.592,8.191-10.073,12.346-15.056,3.1-3.7,5-8.13,7.347-12.256,1.024-1.807,2.379-2.816,4.246-2.725a115.2,115.2,0,0,0,24.813-1.671c2.906-.5,5.8-1.1,8.687-1.656a3.288,3.288,0,0,1,3.4.979,10.3,10.3,0,0,0,13.686,1.762,5.487,5.487,0,0,0,2.183-2.966,26.1,26.1,0,0,0,1.385-7.814c-.106-4.156-2.891-6.474-7.046-5.541-1.22.271-3.523.12-2.725,2.725.632,2.078,1.716,2.574,4.035,1.716a2.244,2.244,0,0,1,3.1,1.34,2.5,2.5,0,0,1-1.325,3.538,7.579,7.579,0,0,1-8.582-1.882c-1.686-2.093-3.132-5.977-1.25-8.959,1.295-2.063,3.478-2.289,5.42-2.936,5.194-1.746,12.151,1.822,12.933,6.7a22.216,22.216,0,0,1-.738,9.531c-.557,1.972-.663,4.08-2.228,5.8-6.293,6.851-14.318,6.429-20.612,2.123a4.5,4.5,0,0,0-4.231-.738c-3.93,1.25-8.055.888-12,1.807-5.736,1.34-11.563.858-17.36.934a1.853,1.853,0,0,0-1.9,1.069c-.376.768-1.054,1.385-1.4,2.168-3.4,7.438-9.3,13.144-13.716,19.874a2.965,2.965,0,0,1-.738.919C511.091,532.525,509.9,534.708,510.429,536.515Z" transform="translate(-376.6 -425.088)" fill="#1d201d"/>
    <path id="Path_9818" data-name="Path 9818" d="M653.13,516.008a30,30,0,0,1,2.8-11.367c1.114-2.56,6.444-4.667,9.561-4.11,3.162.557,5.571,2.349,7.844,4.381,1.641,1.476,1.536,3.629.963,5.3-1.792,5.224-7.648,7.9-12.361,4.11-1.37-1.114-1.777-2.454-.542-3.885,1.2-1.4,2.545-1.43,3.809,0,1.4,1.581,2.589.828,3.749-.346,1.28-1.31.858-2.153-.5-3.192a7.176,7.176,0,0,0-7.272-1.084c-1.506.527-1.445,1.972-1.852,3.071-1.22,3.282-2.183,6.61-1.114,10.223.858,2.876,6.79,6.549,9.576,5.827,1.536-.391,3.177-.271,4.607-1.445,1.024-.828,2.439-.346,3.7.452a123.712,123.712,0,0,0,28.5,13.987c2.093.678,4.065,1.37,4.4,3.523.256,1.746.677,3.478.843,5.24.5,5.255,2.108,10.193,3.809,15.147,1.43,4.186,2.514,8.477,4.5,12.467a3.081,3.081,0,0,1-.572,3.719c-4.08,4-1.912,12.9,2.951,14.725a16.369,16.369,0,0,0,9.441.3,5.754,5.754,0,0,0,2.906-9.711c-1.084-1.2-2.063-.376-2.876.271-1.009.8-1.716,1.882-.738,3.162.6.8,1.114,1.521.768,2.56a2.774,2.774,0,0,1-2.063,1.761,2.479,2.479,0,0,1-2.65-1.129c-2.048-2.469-1.551-7.634,1.024-9.591a17.084,17.084,0,0,1,3.448-1.987,5.425,5.425,0,0,1,6.926,2.289c2.033,3.448,3.3,6.806,1.716,11.066-1.7,4.592-4.953,5.857-9.2,6.188a57.52,57.52,0,0,1-7.724,0,8.466,8.466,0,0,1-5.842-2.68c-3.614-4-6.007-8.612-4.472-14.334a18.4,18.4,0,0,1,1.731-5.074c.768-1.235-.18-2.228-.527-3.282-2.5-7.769-5.827-15.282-6.776-23.5a44.651,44.651,0,0,0-1.084-5.029,2.272,2.272,0,0,0-1.7-1.732c-8.371-2.484-15.794-7.061-23.623-10.72a8.369,8.369,0,0,1-2.168-1.4,4.819,4.819,0,0,0-5.24-1.1c-5.872,1.777-13.129-.8-16.758-5.842A10.2,10.2,0,0,1,653.13,516.008Z" transform="translate(-289.678 -414.895)" fill="#1d201d"/>
    <path id="Path_9819" data-name="Path 9819" d="M580.661,745.861c5.6-.557,9.455,2.981,12.753,7.257a3.543,3.543,0,0,0,2.8,1.686c4.607.045,8.763,2.183,13.265,2.635,5.51.557,10.389,3.237,15.613,4.713a2.468,2.468,0,0,0,2.77-.422A105.062,105.062,0,0,1,649.2,746.824c4.141-2.243,5.8-5.285,7.332-9.049,2.3-5.571,10.931-9.425,16.607-7.272,3.794,1.446,6.489,4.547,9.32,7.408,3.4,3.448,2.966,7.212,1.1,10.976-1.852,3.734-5.42,5.255-9.3,6.008a4.367,4.367,0,0,1-4.186-1.717c-3.418-4.08-3.448-9.877,1.882-12.662a4.581,4.581,0,0,1,1.34-.392,2.476,2.476,0,0,1,3.117,2.123c.3,1.43-.422,2.333-1.9,2.77-2.062.617-2.5,1.732-1.792,3.674.843,2.3,2.394,1.355,3.583.678,1.25-.708,2.59-1.4,3.207-2.966.768-1.942,1.054-3.523-.587-5.33-2.123-2.364-4.231-4.863-7.137-5.977-4.818-1.852-11.759,1.9-12.18,7.754-.256,3.583-2.018,4.682-4.4,5.992-8.176,4.487-16.155,9.23-23.141,15.523-1.867,1.686-3.659,4.411-6.745,3.071-1.716-.753-3.538-1.189-5.194-2-6.76-3.312-14.334-3.568-21.41-5.691a23.534,23.534,0,0,0-5.8-.6,3.313,3.313,0,0,1-3.342-2.5,8.243,8.243,0,0,0-6.685-5.857c-2.8-.587-6.188-.979-8.356,1.641a19.481,19.481,0,0,0-4.08,7.272c-.437,1.641-1.31,3,.091,4.758a7.125,7.125,0,0,0,5.435,2.71c1.37.106,2.755.241,2.6-1.927-.12-1.717-.557-2.966-2.575-2.816a2.537,2.537,0,0,1-2.394-.662,2.451,2.451,0,0,1-.557-2.635,2.9,2.9,0,0,1,2.258-1.867c3-.557,7.679,2.861,7.9,5.962a10.213,10.213,0,0,1-.316,4.893c-1.4,3.358-4.412,4.577-8.928,3.689-4.321-.858-6.941-3.643-8.778-7.393-.979-2-.121-3.839.6-5.631,1.837-4.652,3.749-9.214,8.492-11.909C576.279,745.771,578.221,745.981,580.661,745.861Z" transform="translate(-334.331 -298.874)" fill="#1d201d"/>
    <path id="Path_9820" data-name="Path 9820" d="M579.267,497.07c5.481-.166,8.868-1.9,10.434-6.474a3.08,3.08,0,0,1,2.861-2.138c6.956-.406,13.626-2.409,20.371-3.869a63.53,63.53,0,0,0,12.015-4.381,4.159,4.159,0,0,1,4.652.632,80.707,80.707,0,0,0,15.568,12c4.125,2.349,7.9,5.33,12.361,7.137a2.925,2.925,0,0,1,1.9,3.207c-.452,6.173,7.122,11.217,11.985,9.35a17.463,17.463,0,0,0,8.688-7.92c1.31-2.274-3.508-7.694-6.113-7.182-1.265.256-1.385,1.49-1.551,2.394a2.027,2.027,0,0,0,1.445,2.56c1.355.3,2.439.738,2.544,2.3A2.463,2.463,0,0,1,675,507.2c-1.325.617-2.545.136-3.764-.587-5.586-3.252-3.689-10.9-.015-13.2,2.846-1.777,5.345-.3,7.739.813,4.08,1.927,5.661,5.6,6.038,9.907.256,2.785-1.822,4.411-3.3,6.233a24.865,24.865,0,0,1-6.986,5.917,10.37,10.37,0,0,1-7.875,1.054c-6.926-1.7-10.871-6.053-12.331-12.918-.286-1.325-1.671-1.521-2.62-2.123-6.865-4.336-14.243-7.9-20.266-13.505-1.31-1.22-2.846-2.213-4.261-3.343-.828-.663-1.581-.316-2.409.03-8.161,3.433-16.818,5.315-25.445,6.775-4.125.708-6.444,2.62-8.883,5.27-3.945,4.291-9.124,4.923-14.334,3.945-3.96-.738-6.294-4.065-8.221-7.513a41.341,41.341,0,0,1-3.087-7.287c-.858-2.635,1.551-7.2,4.532-9.154a13.681,13.681,0,0,1,9.26-1.822c2.063.211,3.343,1.776,4,3.613,1.807,5.029-.918,10.389-6.459,10.961-1.9.2-3.523-1.024-3.448-2.695.075-1.822,1.114-2.665,2.966-2.469,2.183.226,2.6-1.129,2.68-2.936.105-2.273-1.46-1.792-2.725-1.792-2.785,0-4.682,1.506-5.992,3.824-.949,1.671.467,3.011.843,4.426a17.14,17.14,0,0,0,3.764,6.4C575.835,496.709,577.9,497.492,579.267,497.07Z" transform="translate(-334.308 -427.47)" fill="#1d201d"/>
    <path id="Path_9821" data-name="Path 9821" d="M480.258,632.009c-.271-4.02,1.912-7.423,2.635-11.157,1.024-5.27,2.409-10.494,3.884-15.6,1.295-4.457.994-9.154,2.785-13.43a9.667,9.667,0,0,0,.181-2.319,3.164,3.164,0,0,1,2.379-2.906,2.69,2.69,0,0,1,3.1,1.144c2.755,4.065,6.73,6.971,9.952,10.615,4.11,4.622,8.959,8.567,12.828,13.445a76.529,76.529,0,0,0,15.628,14.62c3.071,2.2,2.725,5.029,2.815,7.859.045,1.34-1.551,2.108-2.56,2.936-4.607,3.809-9.455,7.393-13.265,12.03a172.479,172.479,0,0,1-13.505,14.424c-3.1,3-5.586,6.595-9.109,9.184a13.469,13.469,0,0,0-2.65,3.267,2.87,2.87,0,0,1-3.267,1.31,3.186,3.186,0,0,1-2.364-2.921,105.194,105.194,0,0,0-2.033-12.422c-1.024-3.945-2.093-7.95-2.981-11.925C483.374,644.054,480.619,638.3,480.258,632.009Zm4.8-.075a12.182,12.182,0,0,0,.527,4.11c2.846,9.184,5.164,18.5,7.272,27.884.346,1.551.03,3.132.527,4.667.361,1.129.617,1.445,1.686.647a31.638,31.638,0,0,0,3.839-3.809c4.065-4.261,8.537-8.176,12.361-12.6a134.527,134.527,0,0,1,19.362-18.926c2.2-1.7,2.258-2.168.045-3.764-10.389-7.468-17.8-17.962-26.966-26.65-2.74-2.6-5-5.646-7.859-8.115-1.927-1.656-2.349-1.521-2.65.873a76.678,76.678,0,0,1-1.837,10.027c-1.461,5.541-2.921,11.112-4.231,16.712C486.446,626.016,484.8,628.832,485.061,631.933Z" transform="translate(-377.069 -371.389)" fill="#1d201d"/>
    <path id="Path_9822" data-name="Path 9822" d="M701.643,623.4c-.813,4.005-1.686,7.8-2.3,11.623-.5,3.027-.708,6.1-.994,9.169-.632,6.836-1.2,13.686-1.852,20.522-.361,3.779-2.424,6.806-4.818,9.485-2.891,3.237-4.893,7.061-7.378,10.57-3.448,4.863-7.061,9.636-9.44,15.207-.6,1.4-1.807,2.65-2.469,4.156a3.241,3.241,0,0,1-3.448,1.942c-1.34-.135-2-1.2-2.364-2.589-1.084-4.171-3.388-7.859-5.119-11.759-3.373-7.6-6.971-15.116-9.877-22.931-2.168-5.842-5.812-10.885-8.763-16.306-.738-1.355-.979-2.454.181-3.6.166-.166.452-.376.422-.527-.422-3.237,2.123-3.6,4.216-4.291,8.4-2.77,16.2-6.775,24.03-10.916a218.342,218.342,0,0,1,21.546-10.193,19.51,19.51,0,0,0,3.388-2.048,3.11,3.11,0,0,1,3.313-.452C701.177,621.095,701.357,622.4,701.643,623.4Zm-5.676,3.614c-4.5.858-7.9,3.7-11.88,5.33a72.875,72.875,0,0,0-10.344,4.863A126.422,126.422,0,0,1,649.112,648.5c-2.71.934-2.815,1.054-1.31,3.313,7.106,10.7,10.645,23.051,16.216,34.464,1.777,3.644,2.906,7.573,5.074,11.036.783,1.25,1.31,1.159,1.9-.045a66.649,66.649,0,0,1,5.917-10.028c3.764-5.179,7.031-10.735,10.976-15.779,2.153-2.755,4.2-5.706,4.216-9.215.015-6.534,1.084-12.963,1.686-19.438.256-2.755.09-5.556.768-8.311C695.109,632.056,696.193,629.707,695.967,627.012Z" transform="translate(-295.175 -354.362)" fill="#1d201d"/>
    <path id="Path_9823" data-name="Path 9823" d="M699.246,623.223c-.964,2.815.271,5.375,1.024,7.95.678,2.334.286,4.8,1.28,7.122.482,1.129-.256,2.484-1.3,3.312a2.526,2.526,0,0,1-3.071.09c-5.481-3.312-11.383-5.782-17.149-8.507-6.007-2.831-11.864-5.932-17.691-9.094-5.164-2.816-10.871-4.276-16.291-6.444-1.536-.617-2.755-1.159-2.56-3.072.015-.151.075-.391,0-.467-2.8-2.62-.452-4.713.783-6.775a117.618,117.618,0,0,0,10.75-22.84c1.325-3.93,3.568-7.588,5.225-11.458,2.108-4.939,4.773-9.621,6.429-14.755a2.672,2.672,0,0,1,2.3-2.093,3.363,3.363,0,0,1,3.433,2c1.34,3.056,3.237,5.827,4.833,8.733,2.364,4.336,5.676,8.161,8.236,12.406,2.906,4.833,6.866,8.928,9.621,13.852a14.2,14.2,0,0,1,1.792,6.73,139.811,139.811,0,0,0,2.289,22.825C699.215,622.907,699.23,623.058,699.246,623.223Zm-3.026,12.151c-.783-4.833-2.033-9.23-2.228-13.852-.271-6.234-1.716-12.406-1.7-18.67a18.4,18.4,0,0,0-3.719-11.1c-6.128-8.567-12.693-16.833-17.36-26.364-.949-1.927-1.536-1.355-2.409.075-1.792,2.951-2.575,6.324-4.156,9.4a86.739,86.739,0,0,0-5.194,11.217,121.49,121.49,0,0,1-11.834,24.662c-1.1,1.762-.813,2.469,1.114,3.011,12.437,3.493,23.111,10.84,34.795,15.945C687.652,631.489,691.356,634.259,696.219,635.374Z" transform="translate(-295.187 -386.709)" fill="#1d201d"/>
    <path id="Path_9824" data-name="Path 9824" d="M589.068,571.443a1.494,1.494,0,0,0-1.37.376c-1.25.934-2.409.437-3.4-.452-7.227-6.565-15.282-11.909-23.533-17.1a194.314,194.314,0,0,1-19.633-13.626,16.845,16.845,0,0,0-3.1-1.626c-1.189-.6-2.2-1.476-1.987-2.906a3.448,3.448,0,0,1,2.454-2.906c3.9-1.265,8.01-2.138,11.654-3.93,3.674-1.807,7.468-3.342,11.172-5.044,4.8-2.213,9.516-4.622,14.349-6.79,3.719-1.672,7.483-1.295,11.307-.738a58.567,58.567,0,0,0,6.248.813c3.373.106,6.715.843,10.028.843,4.4,0,8.778.843,13.189.211a41.38,41.38,0,0,1,6.113-.045,3.209,3.209,0,0,1,3.057,1.822,2.6,2.6,0,0,1-.376,2.891c-3.824,4.366-6.851,9.3-10.284,13.957-4.08,5.541-7.965,11.232-12.452,16.487-4.05,4.743-6.625,10.419-9.817,15.7C591.868,570.66,591.115,571.97,589.068,571.443ZM543.823,536.6c2.228,2.86,5.556,3.975,8.266,5.947,3.794,2.74,7.393,5.857,11.473,8.1a125.823,125.823,0,0,1,22.9,16.426c1.385,1.235,1.686.708,2.439-.527,2.785-4.532,4.878-9.5,8.311-13.611,6.82-8.191,12.527-17.24,19.152-25.581a10.573,10.573,0,0,0,2.168-4.216,134.922,134.922,0,0,1-14.845-.226c-4.427-.437-8.883-.708-13.325-.979-4.005-.241-7.98-1.671-12.045-.316-5.27,1.747-9.952,4.8-15.1,6.821-5.119,2-9.847,4.909-15.162,6.489C546.624,535.353,545.088,535.444,543.823,536.6Z" transform="translate(-348.866 -406.913)" fill="#1d201d"/>
    <path id="Path_9825" data-name="Path 9825" d="M620.739,733.626c-3.614.121-7.317-.678-10.8-.256-3.779.452-7.6.075-11.292.858-3.1.663-6.263.03-9.335.768-1.28.3-2.65.226-3.93.527-4.728,1.159-9.049,0-13.054-2.409-3.839-2.3-8.025-3.779-12.06-5.616-5.541-2.529-10.916-5.45-16.954-6.821-1.656-.376-3.282-1.325-5-1.852A3.33,3.33,0,0,1,536,715.8a2.883,2.883,0,0,1,1.957-2.7c4.352-2.183,8.085-5.3,12.075-8.025,6.775-4.622,13.581-9.2,20.612-13.445,4.8-2.906,8.733-6.911,13.054-10.419,1.355-1.1,2.59-.964,4.306-.964,4.442-.015,5.119,3.328,6.564,5.917a129.091,129.091,0,0,0,13.777,19.573c2.86,3.463,5.24,7.378,7.859,11.081,2.665,3.764,5.345,7.513,8.191,11.127.949,1.2,1.852,2.289,1.22,3.749-.647,1.536-2.078,2.017-3.7,1.912C621.522,733.611,621.13,733.626,620.739,733.626Zm-77.073-18.007c3.839,2.093,7.95,2.665,11.669,4.532,6.233,3.132,12.858,5.526,19.046,8.808,2.695,1.43,5.631,2.5,8.492,2.078,6.188-.918,12.406-1.175,18.61-1.641,4.863-.361,9.726-1.039,14.635-.512a3.612,3.612,0,0,0,2.529-.316c-9.576-15.493-22.569-28.411-30.82-45.094-9.847,10.344-22.389,16.17-33.3,24.256C551.013,710.349,546.812,711.99,543.666,715.619Z" transform="translate(-348.874 -323.979)" fill="#1d201d"/>
    <path id="Path_9826" data-name="Path 9826" d="M606.131,519.631c1.957,1.174,4.712,1.355,7.031,2.575,4.457,2.349,9.365,3.147,14.108,4.532,3.884,1.129,7.769,2.228,11.623,3.373,2.168.647,4.442.723,6.595,1.49a18.769,18.769,0,0,1,8.6,6.309c2.755,3.583,6.384,6.233,9.5,9.425,4.155,4.276,8.266,8.6,13.28,11.985,1.28.873,2.379,2.153,3.7,3.132a3.336,3.336,0,0,1,1.355,3.538,2.814,2.814,0,0,1-2.6,2.048c-5.36.918-10.539,2.575-15.809,3.885-7.784,1.927-15.613,3.614-23.443,5.39-5.194,1.174-10.027,3.4-15.011,5.164-1.6.572-2.665-.105-4.171-.647-5-1.792-3.885-6.173-4.472-9.5a122.8,122.8,0,0,0-5.676-20.447c-1.656-4.592-2.544-9.455-3.945-14.153-1.325-4.457-2.153-9.064-3.885-13.4C601.794,521.543,602.954,519.555,606.131,519.631Zm16.923,58.584c.12-.045.482-.2.828-.346,11.985-5.3,25.039-6.76,37.52-10.253,3.9-1.1,7.829-2.033,11.729-3.086,1.43-.391,1.566-1.159.316-1.972-4.893-3.177-8.808-7.408-12.828-11.548-3.312-3.433-7.152-6.324-10.163-10.1a14.646,14.646,0,0,0-5.932-4.442c-3.779-1.566-7.89-1.761-11.714-3.132-7.317-2.6-15.192-3.478-22.208-7.107-.512-.271-1.189-.783-1.716-.271-.452.452-.226,1.19-.075,1.807,1.852,7.122,3.644,14.3,5.962,21.229a163.782,163.782,0,0,1,7.137,28.246C622.015,577.793,621.925,578.4,623.054,578.215Z" transform="translate(-315.25 -405.193)" fill="#1d201d"/>
    <path id="Path_9827" data-name="Path 9827" d="M682.085,689.2a4.145,4.145,0,0,1-1.6,3.162c-2.966,2.138-5.736,4.532-8.552,6.851-3.388,2.77-6.143,6.324-9.485,9.169-4.487,3.839-7.935,8.7-12.572,12.376a16.676,16.676,0,0,1-8.371,3.328c-4.231.542-8.07,2.274-12.165,3.222a90.461,90.461,0,0,0-13.747,4.171c-2.876,1.174-5.947,1.867-8.717,3.342a3.157,3.157,0,0,1-3.7-.723,2.708,2.708,0,0,1-.512-3.086c2.861-8.793,5.164-17.736,7.6-26.65,1.265-4.637,3.418-9.049,4.547-13.746,1.054-4.4,1.611-8.9,2.454-13.34.331-1.717.361-3.794,2.981-3.734.437.015.632-.346.873-.677.918-1.31,2.032-1.295,3.508-.783,6.61,2.3,13.009,5.3,20.025,6.294,9.034,1.28,17.571,4.622,26.529,6.233,2.936.527,5.767,1.807,8.808,2.213A2.462,2.462,0,0,1,682.085,689.2Zm-73.309,37.852c-.12,1.491.015,2.334,1.475,1.6a59.422,59.422,0,0,1,12.5-4.457c4.592-1.19,9.169-2.469,13.716-3.794,3.689-1.084,7.739-1.114,10.916-3.794,4.2-3.538,7.573-7.9,11.714-11.518,4.276-3.734,7.769-8.3,12.482-11.594,1.054-.738,2.921-1.295,2.635-2.62-.15-.753-2.183-1.355-3.433-1.566-8.853-1.445-17.239-4.908-26.138-6.173-7.242-1.039-13.912-3.945-20.733-6.354-1.385-.482-1.7-.467-2.017,1.159-1.069,5.42-1.506,10.976-3.252,16.246-1.34,4.065-3.147,8.01-4.125,12.151-1.22,5.134-2.71,10.178-4.171,15.252C609.785,723.526,609.227,725.453,608.776,727.049Z" transform="translate(-315.29 -328.273)" fill="#1d201d"/>
    <path id="Path_9828" data-name="Path 9828" d="M591.435,480.13c-7.016-.376-12.768-2.816-16.186-9.516a15.315,15.315,0,0,1-1.566-10.374c.888-4.487,1.671-8.808,5.285-12.2a17.264,17.264,0,0,1,18.9-2.77A42.257,42.257,0,0,1,612,456.747c2.6,3.177,2.846,7.332,3.839,11.157,1.31,5-.151,9.8-1.114,14.574a12.206,12.206,0,0,1-3.93,6.836c-4.637,3.764-9.214,7.784-15.071,9.711-2.063.678-4-.286-6.007-.346-.753-.015-1.22-.933-1.265-1.792a2.03,2.03,0,0,1,1.235-2.108,3.77,3.77,0,0,1,2.74-.467c2.424.888,4.381-.3,6.038-1.626a35.674,35.674,0,0,1,5.21-3.6c4.7-2.56,6.444-6.851,7.483-11.8,1.144-5.541-.06-10.72-1.837-15.809-1.114-3.207-3.9-5.39-6.414-7.393-3.674-2.936-7.573-5.872-12.753-5.8-6.248.09-10.419,3.764-11.262,9.952-.211,1.536-.8,3.041-.873,4.592a12.443,12.443,0,0,0,8.748,11.97c.678.2,1.355.361,2.033.542,2.876.753,4.11.286,5.465-2.063,1.22-2.093,1.024-5.059-.482-6.58a2.191,2.191,0,0,0-2.439-.241c-1.25.436-2.454,1.009-3.7,1.475a2.2,2.2,0,0,1-3.132-1.2,2.15,2.15,0,0,1,1.2-2.936,19.171,19.171,0,0,1,5.9-2.2c4.547-.678,9.034,4.427,8.356,9.32a17.3,17.3,0,0,1-3.523,7.6C595.29,480.13,593.317,480.009,591.435,480.13Z" transform="translate(-329.975 -443.623)" fill="#1d201d"/>
    <path id="Path_9829" data-name="Path 9829" d="M590.706,771.956c6.881-.06,11.382,7.483,8.191,13.731-2.816,5.51-8.627,6.534-13.506,2.379a2.259,2.259,0,0,1,1.957-4.005,28.464,28.464,0,0,1,2.846,1.1c3.282,1.25,4.833.241,5.059-3.267a4.84,4.84,0,0,0-5.947-5.209c-5.812,1.054-10.013,4.336-10.886,10.1-.723,4.788-.166,9.862,3.734,13.716a11.872,11.872,0,0,0,13.385,2.258,36.554,36.554,0,0,0,12.948-10.329c1.641-1.987,1.792-4.622,2.394-7.016a23.546,23.546,0,0,0-2.74-18.67,6.933,6.933,0,0,0-1.882-2.078c-2.68-1.9-5.586-3.418-8.145-5.541-1.536-1.265-3.433-2.138-5.661-1.34a3.654,3.654,0,0,1-2.74-.512,2.013,2.013,0,0,1-1.144-2.364A2.077,2.077,0,0,1,590.3,753.2a13.159,13.159,0,0,1,11.593,2.861,19.6,19.6,0,0,0,3.629,2.575c6.73,3.553,9.3,9.561,10.494,16.728.979,5.917-.632,11.277-2.123,16.758-.542,2.018-2.063,3.448-3.388,5.014-4.11,4.833-9.019,8.612-15.041,10.479-8.974,2.785-16.652-.542-20.146-9.245-1.762-4.411-3.086-9.47-1.265-14.183C577.049,776.458,581.943,772.649,590.706,771.956Z" transform="translate(-330.073 -287.253)" fill="#1d201d"/>
    <path id="Path_9830" data-name="Path 9830" d="M496.992,743.748c.346-.994-.181-1.6-.873-2.228-5.8-5.195-15.9-4.336-19.407,2.936-1.009,2.078-2.665,3.779-2.981,6.278-.858,6.926,1.852,11.081,8.477,13.4,5.481,1.912,11.247,1.521,16.893.512,2.258-.406,3.915-2.243,5.781-3.523a24.271,24.271,0,0,0,10.494-17.029c.241-1.566-.5-3.071-.964-4.547a68.329,68.329,0,0,1-1.912-6.986,6,6,0,0,0-3.056-4.517,3.021,3.021,0,0,1-.723-.6c-1.144-1.1-2.62-2.258-1.235-3.975,1.445-1.777,2.816-.587,4.276.376,3.553,2.364,5.014,5.721,5.661,9.787.452,2.815,1.912,5.42,2.334,8.311a17.02,17.02,0,0,1-1.415,9.546,34.341,34.341,0,0,1-12.587,14.846c-3.493,2.3-7.167,2.981-11.021,3.538a30.357,30.357,0,0,1-15.372-1.927c-9.847-3.809-13.445-14.454-8.1-23.337a51.123,51.123,0,0,1,2.665-4.7c6.625-8.567,19.724-8.4,26.695-.437,2.529,2.876.918,5.947.166,8.868-1.1,4.216-4.969,5.074-8.356,6.354-.979.376-2.048-.181-2.921-.662-3.011-1.7-4.231-4.7-5.345-7.724a1.99,1.99,0,0,1,1.385-2.635,2.1,2.1,0,0,1,2.65.994c.572.843.994,1.777,1.521,2.665.617,1.024.964,2.906,2.334,2.514,1.6-.452,3.553-.964,4.291-2.951A6.83,6.83,0,0,0,496.992,743.748Z" transform="translate(-382.857 -302.589)" fill="#1d201d"/>
    <path id="Path_9831" data-name="Path 9831" d="M497.006,505.625c-.12-3.342-1.506-5.089-4.577-6.1-1.174-.391-1.6.406-2.018,1.1-.738,1.189-1.31,2.484-2.018,3.719-.647,1.129-1.581,1.837-2.921,1.295a2.2,2.2,0,0,1-1.22-3.132,18.509,18.509,0,0,1,3.252-5.676c2.108-2.394,4.472-2.349,7.408-1.325,5.466,1.882,6.534,6.218,7.031,11.051a4.8,4.8,0,0,1-2.017,4.065c-5.164,4.562-10.931,6.58-17.872,4.336a15.531,15.531,0,0,1-9.711-8.236c-1.385-2.785-3.086-5.315-3.448-8.6-1.069-9.621,6.113-16.216,13.626-17.736a48.806,48.806,0,0,1,5.3-.934c7.679-.6,14.725.617,21.049,5.752a34.585,34.585,0,0,1,9.636,13.129c1.506,3.358,2.288,7.317.753,11.157-1.641,4.11-1.746,8.687-4.065,12.617-1.19,2.033-3.117,3.041-4.863,4.321a2,2,0,0,1-2.921-.587,2.038,2.038,0,0,1,.181-2.8A7.764,7.764,0,0,1,509.5,521.3a6.272,6.272,0,0,0,3.011-4.562,35.725,35.725,0,0,1,1.686-6.309c1.822-4.562.813-8.657-1.265-12.933-2.68-5.556-7.317-8.868-12.165-12.12-1.581-1.069-3.358-.693-5.014-.979a25.539,25.539,0,0,0-16.968,2.5c-5.631,3.086-6.791,10.991-3.448,15.673.994,1.4,1.551,3.132,2.665,4.412,4.848,5.571,13.009,5.481,18.354.677A1.952,1.952,0,0,0,497.006,505.625Z" transform="translate(-382.856 -425.576)" fill="#1d201d"/>
    <path id="Path_9832" data-name="Path 9832" d="M537.8,509.363c-6.851-2.063-14.755-1.566-20.025-7.724a34.1,34.1,0,0,1-7.95-17.631c-.918-6.2.858-11.578,3.719-16.577,3.99-6.971,9.3-12.9,18.1-13.355a14.593,14.593,0,0,1,12.6,6.218c2.3,3.132,4.788,6.474,5.194,10.615.391,4.08.12,8.176-2.364,11.623-2.048,2.861-4.427,5.466-7.844,6.9-5.194,2.183-7.634,1.521-11.353-2.7-2.906-3.312-2.424-6.986-1.445-10.6.723-2.665,3.358-3.4,5.827-3.644a24.965,24.965,0,0,1,5.164.346,2.045,2.045,0,0,1,1.942,2.469,2.086,2.086,0,0,1-2.288,1.942c-.933.045-1.882-.166-2.816-.151-1.2.015-2.936-.467-3.342.918-.467,1.6-1.129,3.358.211,5.164,1.942,2.62,3.87,3.327,6.7,1.822,6.519-3.493,9.41-11.8,5.164-17.947-1.912-2.77-3.388-5.541-6.73-7.2-4.652-2.3-8.492-.828-11.94,1.807-5.119,3.93-8.025,9.576-9.967,15.629-.828,2.575.06,5.36.452,7.95a23.574,23.574,0,0,0,8.928,15.433c1.9,1.506,4.171,1.656,6.324,2.2,1.731.437,3.433.948,5.149,1.43a7.9,7.9,0,0,0,5.767-.271,8.865,8.865,0,0,1,2.409-.858A2.194,2.194,0,0,1,546,504.7a2.006,2.006,0,0,1-1.189,2.725C542.569,508.31,540.522,509.906,537.8,509.363Z" transform="translate(-362.232 -438.348)" fill="#1d201d"/>
    <path id="Path_9833" data-name="Path 9833" d="M643.179,762.526c7.86.075,13.747,3.056,16.637,9.907,2.77,6.564,3.4,13.52-.918,19.9-2.409,3.553-6.2,5.33-10.238,6.068-5.842,1.054-11.337-.632-16.833-2.68-7.483-2.785-12.03-8.552-14.635-15.342-3.328-8.627-3.975-17.586,3.312-25.159,1.9-1.972,2.861-4.637,4.968-6.534,2.063-1.867,4.592-2.259,7.031-2.981a1.948,1.948,0,0,1,2.123,1.2,2.1,2.1,0,0,1-.422,2.6,4.8,4.8,0,0,1-2.71,1.28,6.67,6.67,0,0,0-4.728,3.553,29.453,29.453,0,0,1-3.644,5.164c-3.7,4.171-3.779,8.9-3,14.063.783,5.209,3.357,9.47,6.595,13.235,3.162,3.689,7.739,5.5,12.451,6.4,3.087.587,6.158,1.521,9.47.587A11.5,11.5,0,0,0,657,780.352c-.768-3.327-.843-6.73-3.644-9.365-3.96-3.719-8.447-4.487-13.415-3.117-2.68.737-3.764,4.818-2.078,7.107,2.289,3.117,3.041,3.177,5.932.467a12.3,12.3,0,0,1,1.942-1.716,2.227,2.227,0,0,1,3.011.346,1.966,1.966,0,0,1,.09,2.8c-2.048,2.138-3.975,4.457-7.107,5.18a3.839,3.839,0,0,1-2.725-.106c-3.839-2-7.423-5.736-6.4-10.539C633.95,764.845,636.81,762.556,643.179,762.526Z" transform="translate(-309.026 -290.907)" fill="#1d201d"/>
    <path id="Path_9834" data-name="Path 9834" d="M643.654,488.7a16.428,16.428,0,0,1-7.935-2.033c-3.373-1.581-2.906-4.969-3.4-7.754-.557-3.147,3.1-8.477,6.1-9.561a6.029,6.029,0,0,1,5.586.783,34.283,34.283,0,0,1,4.276,3.7c1.054.979,1.37,2.213.316,3.343-1.129,1.219-2.439.918-3.568-.075a24.817,24.817,0,0,0-3.6-3.041,1.267,1.267,0,0,0-1.957.316c-1.37,1.626-2.816,2.891-2.424,5.5a4.159,4.159,0,0,0,3.885,3.884c6.459,1.039,12.09-.8,14.665-7.2,1.867-4.637,2.65-9.786-.406-14.65-1.641-2.62-7.649-5.42-11.127-4.863-5.014.8-9.877,1.972-14.3,4.7a17.374,17.374,0,0,0-4.231,3.96,26.954,26.954,0,0,0-6.053,15.674,13.182,13.182,0,0,0,2.906,9.636,40.518,40.518,0,0,1,4.246,5.9,6.652,6.652,0,0,0,4.728,3.538,5.061,5.061,0,0,1,2.545,1.114,2.087,2.087,0,0,1,.572,2.755,2.116,2.116,0,0,1-2.364,1.174c-3.945-.738-7.227-2.514-9.35-6.053a24.245,24.245,0,0,0-2.8-4.05c-5.42-5.872-5.752-12.722-4.246-20.145a29.659,29.659,0,0,1,7.874-14.424c4.11-4.4,9.741-6.474,15.7-7.664,5.059-1.024,9.771-.888,14.529,1.521,4.457,2.258,6.579,6.068,7.588,10.434A21.179,21.179,0,0,1,659,480.234c-2.319,4.141-5.917,7.317-10.991,7.92C646.47,488.364,644.98,489.1,643.654,488.7Z" transform="translate(-308.96 -439.105)" fill="#1d201d"/>
    <path id="Path_9835" data-name="Path 9835" d="M535.55,774.871a12.283,12.283,0,0,1,1.852-.12,2.2,2.2,0,0,1,.512,4.291c-2.62.527-5.3.888-7.92-.06-2.725-.979-3.328-2.589-3.99-5.435-1.325-5.631,1.972-8.627,5.721-11.548a4.669,4.669,0,0,1,4.035-.662,17.12,17.12,0,0,1,12.316,9.711c2.108,4.517,2.74,9.787-.151,14.635-.768,1.28-1.491,2.56-2.243,3.855-5.39,9.184-16.246,11.021-24.542,4.216-5.737-4.7-9.26-11.036-11.247-18.113-1.054-3.764-.06-7.678.708-11.4a28.035,28.035,0,0,1,11.157-17.33,2.226,2.226,0,0,1,.6-.346c5.827-1.671,11.5-4.05,17.721-3.809,1.927.075,3.478,1.31,5.164,2.093a1.857,1.857,0,0,1,.662,2.7,2.269,2.269,0,0,1-3.207,1.069c-2.349-1.069-4.848-1.837-7.272-.964a53.431,53.431,0,0,1-7.212,1.867c-4.276.9-6.971,3.644-9.4,7.152-3.177,4.607-4.261,9.7-4.517,15.041-.226,4.908,2.319,8.988,4.818,12.964a29.99,29.99,0,0,0,3.839,4.472c5.9,6.113,14.755,5.27,19.031-2.349,2.048-3.659,3.553-7.076,2.635-11.488-.753-3.583-5.857-8.627-9.425-9.26-1.912-.331-5.119,3.342-4.833,5.481C530.867,774.856,530.972,774.946,535.55,774.871Z" transform="translate(-362.304 -292.381)" fill="#1d201d"/>
    <path id="Path_9836" data-name="Path 9836" d="M754.079,580.385c4.818-.964,8.988,1.295,12.828,4.351,2.966,2.364,3.945,5.842,4.351,9.335.934,7.965-2.424,14.59-7.167,20.627-5.9,7.528-14.033,9.952-23.187,9.907a25.753,25.753,0,0,1-6.911-.948c-4.366-1.219-7.242-4.186-10-7.438-1.762-2.078-4.186-3.493-5.571-6.008a13.876,13.876,0,0,1-1.536-7.031,1.944,1.944,0,0,1,1.581-2.063,2.15,2.15,0,0,1,2.575,1.159,1.231,1.231,0,0,1,.211.662c-.316,5.872,4.713,8.3,7.814,11.91,5.345,6.2,12.241,5.992,19.408,4.306a32.952,32.952,0,0,0,3.312-1.114c9.666-3.493,13.22-11.654,15.177-20.657,1.31-5.992-4.637-12.421-10.8-12.406a28.5,28.5,0,0,1-4.246-.03c-5.044-.8-11.187,4.5-11.819,10.178a15.107,15.107,0,0,0-.422,2.755c.181,1.957.06,4.05,2.785,4.728s5.541.271,6.866-1.581a1.809,1.809,0,0,0-.241-2.168c-.813-1.25-1.6-2.514-2.319-3.824a2.261,2.261,0,0,1,3.026-3.147c2.906,1.415,5.255,8.417,3.794,11.232-1.746,3.358-7.393,5.526-11.262,4.306-6.324-1.972-8.492-7.167-6.67-14.168a18.606,18.606,0,0,1,8.311-11.172C746.867,580.19,750.3,580.084,754.079,580.385Z" transform="translate(-257.409 -374.586)" fill="#1d201d"/>
    <path id="Path_9837" data-name="Path 9837" d="M753.546,667.874c-6.218,1.355-10.8-1.927-14.815-6.113-2.078-2.168-2.725-5.24-3.282-8.13a19.978,19.978,0,0,1-.271-4.863c.407-7,5.947-8.688,11.127-8.04,5.375.678,10.991,5.42,6.188,12.03-.647.888-1.054,1.927-1.7,2.8a2.3,2.3,0,0,1-3.312.783c-1.295-.828-1.28-2.063-.572-3.312.467-.813.979-1.6,1.46-2.409,1.641-2.785.286-5.375-3.011-5.33-4.276.06-6.113,1.19-5.481,6.595.617,5.255,3.1,9.4,7.98,10.81,5.511,1.6,11.548,1.852,16.08-2.785,3.071-3.147,3.644-7.317,2.529-11.578a34.021,34.021,0,0,0-8.025-14.379c-1.987-2.2-4.953-2.966-7.6-4.02a22.342,22.342,0,0,0-17.149-.166,8.632,8.632,0,0,0-2.906,1.882c-2.243,2.183-4.186,4.667-6.595,6.7a6.4,6.4,0,0,0-2.575,5.526,4.987,4.987,0,0,1-.452,1.807,2.1,2.1,0,0,1-2.56,1.551c-1.295-.226-1.7-1.144-1.746-2.409a11.713,11.713,0,0,1,3.794-9.531c2.514-2.274,4.607-4.924,7.121-7.182a17.634,17.634,0,0,1,11.323-4.321,47.193,47.193,0,0,1,6.836.151,30.525,30.525,0,0,1,14.62,5.781c3.282,2.349,5.646,5.932,7.408,9.576,1.671,3.478,3.433,7.106,3.508,11.081.106,5.435-.843,10.509-5.736,14.077C762.083,667.137,758.244,668.7,753.546,667.874Z" transform="translate(-257.433 -352.555)" fill="#1d201d"/>
    <path id="Path_9838" data-name="Path 9838" d="M440.72,575.008c-10.479-.768-17.27,5.089-22.434,13.144-4.216,6.565-1.114,14.379,6.2,16.878a21.921,21.921,0,0,1,2.409.888c7.92,3.689,16.231-3.132,17.044-10.69.2-1.807-3.162-4.366-5.405-4.2-3.433.271-4.14,1.28-3.327,4.728.2.828.452,1.656.572,2.514a2.217,2.217,0,0,1-1.536,2.6,2.034,2.034,0,0,1-2.74-1.19c-1.024-2.74-1.731-5.6-1.054-8.507.6-2.545,2.62-3.433,5.074-4.216,3.719-1.189,6.534-.346,9.546,1.912,4.743,3.553,4.02,5.33,2.74,10.027-2,7.378-7.483,11.247-14.71,12.783a10.21,10.21,0,0,1-4.186-.331c-6.79-1.506-13.054-4.156-15.96-10.976-2.454-5.736-1.069-11.367,2.439-16.426A38.727,38.727,0,0,1,428.525,572.4a13.685,13.685,0,0,1,3.93-1.43,32.3,32.3,0,0,1,22.735,3.222c3.162,1.731,6.173,4.11,7.468,7.844,1.325,3.839,3.719,7.2,4.758,11.157.693,2.635.06,5.119-.693,7.588a2.013,2.013,0,0,1-2.349,1.521,2.045,2.045,0,0,1-1.9-2.289,9.053,9.053,0,0,1,.226-2.319,6.948,6.948,0,0,0-.662-5.857,32.527,32.527,0,0,1-2.74-5.932,13.6,13.6,0,0,0-9.079-8.747C447.119,576.092,444.168,574.466,440.72,575.008Z" transform="translate(-411.714 -379.627)" fill="#1d201d"/>
    <path id="Path_9839" data-name="Path 9839" d="M731.878,554.1c2.424.166,4.953-1.054,7.3-3.147,2.575-2.289,5.285-4.2,6.038-8.01a12.536,12.536,0,0,0-5.315-12.828,36.844,36.844,0,0,0-15.192-5.661c-2.62-.377-5.165.933-7.694,1.686a23.419,23.419,0,0,0-13.641,10.72,8.723,8.723,0,0,0-1.355,4.878,33.667,33.667,0,0,1-.768,8.4,5.827,5.827,0,0,0,1.069,4.653,10.381,10.381,0,0,1,1.43,2.424c.482,1.295.316,2.56-1.114,3.192-1.31.587-2.168-.105-3-1.129-3.056-3.794-3.478-7.98-2.454-12.6.587-2.665-.226-5.5.587-8.191a18.628,18.628,0,0,1,5.27-8.913c.587-.527,1.189-1.024,1.746-1.6,5.285-5.36,12.136-7.407,19.227-8.16,3.3-.346,6.986.888,10.178,2.2,4.969,2.032,10.073,4.216,13.129,9.049,4.381,6.941,4.442,12.135-.5,19.076a20.206,20.206,0,0,1-10.991,8.115,17.45,17.45,0,0,1-21.244-11.895c-.8-2.891,1.566-4.953,3.026-7.062,2.589-3.734,6.594-3.463,10.464-3.086a4.176,4.176,0,0,1,2.74,2.078c1.626,2.364,1.686,5.149,1.942,7.845a2.184,2.184,0,0,1-2.123,2.6c-1.536.121-2.2-1.024-2.514-2.349-.211-.9-.12-1.852-.361-2.785-.708-2.725-3.057-3.764-5.481-2.319-2.65,1.581-3.6,4.893-1.686,7.212C723.3,551.754,726.518,554.329,731.878,554.1Z" transform="translate(-267.624 -405.126)" fill="#1d201d"/>
    <path id="Path_9840" data-name="Path 9840" d="M441.35,672.508a26.4,26.4,0,0,0,14.665-5.767c1.777-1.475,2.529-3.538,3.342-5.556a42.458,42.458,0,0,1,2.56-5.511,7.054,7.054,0,0,0,.723-6.068,7.97,7.97,0,0,1-.211-2.093,2.08,2.08,0,0,1,1.716-2.454c1.37-.286,2.213.437,2.665,1.747,1.159,3.388,1.4,6.866-.286,10.028-1.7,3.177-2.785,6.625-4.547,9.741a16.021,16.021,0,0,1-8.341,7.212c-3.975,1.536-7.844,3.252-12.346,3.388-10.374.3-18.158-4.14-24.482-12a24.12,24.12,0,0,1-4.848-10.705c-1.355-6.489,4.171-13.731,8.416-15.538,3.538-1.491,7.076-3.282,11.172-3.192a16.523,16.523,0,0,1,9.952,3.342,18.423,18.423,0,0,1,7.182,13.265,6.111,6.111,0,0,1-.527,3c-1.716,3.779-7.769,6.324-11.8,5.24-2.575-.693-5.1-1.28-5.857-4.276s-.015-5.9,1.024-8.717a2,2,0,0,1,2.77-1.114,2.185,2.185,0,0,1,1.46,2.635c-.151.843-.452,1.656-.557,2.514-.181,1.28-.964,2.966.286,3.734a5.142,5.142,0,0,0,5.345.422c3.629-1.972,3.824-5.285.918-9.591-3.463-5.134-10.208-7.2-15.583-4.592-2.816,1.37-5.706,2.213-7.573,5.119a12.009,12.009,0,0,0,.361,13.731A34.651,34.651,0,0,0,431.081,671C434.078,672.554,437.48,672.162,441.35,672.508Z" transform="translate(-411.696 -346.484)" fill="#1d201d"/>
    <path id="Path_9841" data-name="Path 9841" d="M429.464,545.921a17.237,17.237,0,0,1,6.264-15.629,14.877,14.877,0,0,1,13.882-2.906,30.92,30.92,0,0,1,7.212,2.665,17.294,17.294,0,0,1,4.547,26.258c-2.364,2.785-5.526,1.807-8.386,1.551-4.276-.391-5.962-3.93-7.724-7.152a3.789,3.789,0,0,1,.15-3.192c1.19-3.086,3.824-4.7,6.354-6.384a2.059,2.059,0,0,1,2.951.617,2.229,2.229,0,0,1-.542,3.162c-.783.647-1.611,1.265-2.379,1.927-2.289,2-2.093,4.261.5,5.887,2.469,1.551,6.233.693,7.272-1.972,2.424-6.173,1.551-12.451-4.306-16.11-4.366-2.71-9.365-4.276-14.71-2.108-2.5,1.009-6.143,6.263-6.384,9.591a38.205,38.205,0,0,0,2.439,16.788,5.265,5.265,0,0,0,.753,1.19,28.669,28.669,0,0,0,16.923,11.1,14.306,14.306,0,0,0,11.217-2.258,19.867,19.867,0,0,1,4.216-1.957,7.383,7.383,0,0,0,4.863-4.427,6.6,6.6,0,0,1,1.159-1.762,2.25,2.25,0,0,1,3.824,2.364,13.251,13.251,0,0,1-8.431,8.206,13.1,13.1,0,0,0-2.951,1.355c-5.962,3.764-12.015,4.141-18.79,1.852a30.552,30.552,0,0,1-15.944-12.211A25.33,25.33,0,0,1,429.464,545.921Z" transform="translate(-402.806 -401.566)" fill="#1d201d"/>
    <path id="Path_9842" data-name="Path 9842" d="M730.867,693.078c-4.833.151-8.356,2.6-10.825,6.61-1.415,2.289.828,6.5,3.568,6.595,3.915.12,3.267,1.37,4.186-2.936.2-.918.166-1.882.391-2.785.316-1.22,1.024-2.243,2.439-2.123a2.232,2.232,0,0,1,2.138,2.6,18.9,18.9,0,0,1-1.144,6.429c-1.626,3.975-8.748,5.119-12.376,2.123-2.183-1.807-3.4-4.261-4.653-6.715a2.717,2.717,0,0,1-.09-2.063,16.714,16.714,0,0,1,12.964-12.03c5.119-1.159,10.585-.5,14.68,3.915,1.536,1.656,3.7,2.65,5.029,4.577,6.278,9.079,2.424,19.212-5.631,24.225-5.179,3.237-10.81,4.682-16.592,6.007a6.586,6.586,0,0,1-2.771-.376c-6.715-1.19-12.828-3.508-17.962-8.356-4.7-4.411-7.332-9.425-6.911-15.93.181-2.815-.828-5.526-.572-8.4.271-2.891,1.867-4.924,3.342-7.092a1.943,1.943,0,0,1,2.936-.392,2.423,2.423,0,0,1,.647,3.177c-.708,1.7-2.259,2.966-2.349,5.029a8.309,8.309,0,0,0-.015,2.289,13.661,13.661,0,0,1,.647,3.915c-.286,4.291.09,8.537,3.117,11.684a30.314,30.314,0,0,0,11.895,8.085c7.558,2.65,14.078.783,20.687-2.8a14.982,14.982,0,0,0,7.694-8.7c1.25-3.839-.166-7.3-2.409-10.223a24.53,24.53,0,0,0-5.752-4.833A9.857,9.857,0,0,0,730.867,693.078Z" transform="translate(-267.621 -320.831)" fill="#1d201d"/>
    <path id="Path_9843" data-name="Path 9843" d="M696.93,483.189a16.4,16.4,0,0,1,15.026,9.726c2.078,4.984,3.6,10.028,3.523,15.644-.106,8.688-4.08,15.147-10.238,20.627a24.373,24.373,0,0,1-7.363,4.924,20.417,20.417,0,0,1-11.066.783c-3.147-.512-6.384-.181-9.5-1.31-2.379-.858-3.809-2.7-5.481-4.306a1.92,1.92,0,0,1-.06-2.6,2.478,2.478,0,0,1,3.538-.271c3.433,4.517,8.612,3.418,13.174,4.035,9.832,1.34,15.147-4.923,19.694-12.2.9-1.445,1.34-3.177,2.168-4.667,1.024-1.822.2-3.674.361-5.5.406-4.637-1.1-8.808-2.921-12.873-2.981-6.685-9.5-9.591-15.99-6.173-5.1,2.68-9.44,6.821-9.109,13.4a12.941,12.941,0,0,0,5.721,10.253c1.34.934,5.556-.994,6.038-2.831.918-3.613,2.228-3.523-2.349-5.1a25.594,25.594,0,0,1-2.846-1.039,2.1,2.1,0,0,1-1.235-2.334,2.2,2.2,0,0,1,1.882-1.867c3.162-.663,9.275,3.147,10.073,6.263.9,3.463-2.168,8.823-5.842,10.524-6.218,2.891-9.455,1.355-13.761-5.917-3.794-6.414-3.538-13.25,1.4-18.941C685.788,486.848,690.455,482.587,696.93,483.189Z" transform="translate(-280.464 -423.646)" fill="#1d201d"/>
    <path id="Path_9844" data-name="Path 9844" d="M429.427,703.008c-.738-4.7,1.6-9.471,3.207-14.3.918-2.786,3.613-4.517,5.691-6.549a28.212,28.212,0,0,1,21.7-8.236,2.192,2.192,0,0,1,.708.045c5.526,2.469,11.413,4.231,16.11,8.3,1.551,1.34,1.942,3.343,2.831,5.059a1.88,1.88,0,0,1-.813,2.469,2.111,2.111,0,0,1-2.635-.12c-.181-.151-.422-.3-.5-.5-1.686-4.231-5.526-5.616-9.2-7.634-5.24-2.861-10.073-3.614-15.824-1.641s-9.952,5.661-13.43,10.223c-1.746,2.289-2.469,5.45-2.755,8.341-.527,5.39-1.46,10.9,2.409,15.764,2.65,3.327,8.115,5.179,12.135,3.659a23.477,23.477,0,0,1,3.508-1.31c5.556-1.1,9.35-8.281,7.965-14.288-.135-.6-.211-1.22-.361-1.822-.663-2.65-2.153-3.87-4.682-3.839-2.635.015-5.059,1.686-5.6,3.809-.211.858.391,1.325.9,1.776,1.114.994,2.3,1.912,3.433,2.876a2.21,2.21,0,0,1,.512,3.162,2.178,2.178,0,0,1-3.162.512,19.53,19.53,0,0,1-5.164-4.457c-1.867-2.544-1.476-4.381,0-7.107,2.665-4.938,6.941-5.6,11.819-5.3a4.635,4.635,0,0,1,3.192,1.777,15.589,15.589,0,0,1,3.93,8.612c.949,6.851-1.22,12.783-6.971,16.562-6.113,4.02-13.024,6.083-20.16,2.59-4.442-2.168-6.805-6.324-8.266-10.946C429.231,708.247,429.472,705.959,429.427,703.008Z" transform="translate(-402.83 -327.192)" fill="#1d201d"/>
    <path id="Path_9845" data-name="Path 9845" d="M696.76,767.78c-4.667.422-8.3-2.439-12.135-5.33a16.059,16.059,0,0,1-6.564-14.529,16.575,16.575,0,0,1,9.079-14.2c2.785-1.445,5.134.392,7.543,1.31,4.276,1.656,4.848,5.676,5.375,9.44.271,1.912-1.174,3.583-2.831,4.622a19.87,19.87,0,0,1-6.565,2.379,2.146,2.146,0,0,1-2.575-1.581,2.194,2.194,0,0,1,1.505-2.816c.934-.406,1.912-.677,2.861-1.008,2.846-.979,3.493-3.93,1.34-6.1a5.16,5.16,0,0,0-7.378-.12c-4.14,4.035-5.044,11.744-1.415,16.291,3.433,4.306,7.754,7.859,13.716,7.107,3.93-.5,6.881-3.132,8.793-6.73,2.8-5.27,3.448-11.036,3.418-16.8-.015-2.68-1.807-5.119-3.086-7.513a23.766,23.766,0,0,0-13.325-11.548,8.472,8.472,0,0,0-3.885-.361,73.885,73.885,0,0,1-7.95.723,7.457,7.457,0,0,0-6.1,2.454,7.335,7.335,0,0,1-1.656,1.295,2.145,2.145,0,0,1-3.147-.422c-.858-1.114-.467-2.123.392-3.162a13.159,13.159,0,0,1,10.058-4.8c2.273-.105,4.532-.3,6.79-.6,7.242-.994,12.572,2.62,17.6,7.152,4.547,4.1,7.016,9.44,8.582,15.087.783,2.816.211,6.038.075,9.079-.391,9.094-6.474,17.857-13.9,20.371A15.253,15.253,0,0,1,696.76,767.78Z" transform="translate(-280.46 -306.098)" fill="#1d201d"/>
    <path id="Path_9846" data-name="Path 9846" d="M542.878,502.93c5.526-.06,10.494,5.33,10.058,10.735a5.672,5.672,0,0,1-4.637,4.923,26.338,26.338,0,0,0-3.192.707,2.132,2.132,0,0,1-2.876-1.325,2.367,2.367,0,0,1,1.174-3.026,7.579,7.579,0,0,1,2.936-.708c1.551-.256,2.258-.948,1.536-2.785-1.445-3.719-3.779-4.155-6.866-3.689a7.064,7.064,0,0,0-6.053,6.218c-.3,4.8,5.255,11.533,10.013,12.105,2.816.331,5.616-.467,8.311-1.189a37.849,37.849,0,0,0,17.872-9.937,2.09,2.09,0,0,1,2.8-.361,2.16,2.16,0,0,1,.949,2.846,3.8,3.8,0,0,1-1.325,1.912c-2.981,1.822-5.586,4.171-8.642,5.962-5.5,3.237-11.473,4.276-17.48,5.36-4.14.753-7.8-.934-10.69-3.689a21.307,21.307,0,0,1-4.788-6.068c-3.267-6.851-1.882-12.948,4.923-16.8C538.767,503.126,540.92,503.065,542.878,502.93Z" transform="translate(-351.76 -413.636)" fill="#1d201d"/>
    <path id="Path_9847" data-name="Path 9847" d="M608.5,731.211c-.3-6.429,2.334-11.021,8.1-14.093,3.583-1.912,7.152-4.035,11.021-5.029,4.713-1.22,9.606-2.168,14.575-1.686,1.656.166,3.026.964,2.951,2.74-.09,1.957-1.551,2.138-3.267,2.033a40.632,40.632,0,0,0-10.238.964c-5.1.948-9.5,3.252-13.9,5.721a8.619,8.619,0,0,0-4.517,7.95c-.03,2.725-.226,5.435,1.31,7.995,1.7,2.831,4.11,3.629,7.152,3.358,2.213-.2,5.345-2.62,5.827-4.818a5.918,5.918,0,0,0-1.129-4.607c-.572-.828-1.2-.391-1.852-.09-1.114.527-2.048,1.446-3.4,1.476a2.281,2.281,0,0,1-2.575-1.611,2.11,2.11,0,0,1,1.28-2.71c1.189-.587,2.349-1.234,3.538-1.837,2.65-1.34,5.6-.03,7.392,2.936,5.119,8.462-2.74,15.327-9.184,15.96-8,.783-12.843-5.827-13.084-12.527C608.482,732.626,608.5,731.918,608.5,731.211Z" transform="translate(-312.227 -308.796)" fill="#1d201d"/>
    <path id="Path_9848" data-name="Path 9848" d="M542.781,739.874c-5.36-.226-9.365-2.409-11.714-7.483a10.364,10.364,0,0,1,.105-8.446c2.319-5.8,6.128-10.268,12.617-11.774,3.207-.753,6.2.467,9.26.918,5.465.8,10.359,3.222,15.011,6.068a49.587,49.587,0,0,1,5.736,4.457,4.856,4.856,0,0,1,1.129,1.762,2.119,2.119,0,0,1-.979,2.831,2.042,2.042,0,0,1-2.785-.422,32.591,32.591,0,0,0-10.841-7.543,35.609,35.609,0,0,0-11.2-3.147c-7.061-.8-12.452,2.951-14,9.907-.617,2.74.587,5.24,3.388,7.107,2.033,1.355,5.736,1.46,7.528.105a6.445,6.445,0,0,0,2.153-4.05c.286-1.37-1.084-1.4-1.882-1.581a9.592,9.592,0,0,1-2.725-.648,2.4,2.4,0,0,1-1.31-3.162,2.12,2.12,0,0,1,2.906-1.25,29.857,29.857,0,0,0,3.659.8c3.011.527,4.472,3.614,3.689,7.393C551.408,737.013,547.78,740.055,542.781,739.874Z" transform="translate(-351.799 -307.959)" fill="#1d201d"/>
    <path id="Path_9849" data-name="Path 9849" d="M638.978,535c-9.32-.15-17.541-3.357-25.1-8.461a12.267,12.267,0,0,1-5.33-9.922c-.256-4.156-.075-8.176,2.289-12a11.6,11.6,0,0,1,13.626-4.427c2.7,1.129,5.27,2.545,6.685,5.556,1.686,3.568,1.25,8.823-1.581,11.653a5.031,5.031,0,0,1-4.984,1.445,24.931,24.931,0,0,1-5.42-2.7,1.825,1.825,0,0,1-.572-2.349,2.228,2.228,0,0,1,1.942-1.491c1.476-.2,2.575.6,3.674,1.31,1.46.933,2.138.467,2.816-1.009,2.153-4.788-2.063-7.829-5.42-8.281-5.224-.723-7.648,2.65-8.266,6.9a17.294,17.294,0,0,0,.331,7.227,7.841,7.841,0,0,0,3.162,4.517,39.464,39.464,0,0,0,12.391,5.917c4.156,1.069,8.492,2.018,12.888,1.385,1.536-.226,2.816.12,3.026,1.792.226,1.822-1.054,2.71-2.695,2.936A29.515,29.515,0,0,1,638.978,535Z" transform="translate(-312.233 -415.395)" fill="#1d201d"/>
    <path id="Path_9850" data-name="Path 9850" d="M490.78,601.958c.407,8.552-2.319,16.246-6.414,23.563a7.264,7.264,0,0,1-1.355,1.611,2.222,2.222,0,0,1-3.357.151,2.152,2.152,0,0,1-.121-3.177c2.725-3.508,4.05-7.694,5.435-11.774.843-2.454.813-5.225,1.069-7.859a34.677,34.677,0,0,0,.015-3.538c0-7.378-5.481-12.527-12.964-12.166a6.265,6.265,0,0,0-5.721,4.788c-.708,2.544-.662,5.225,1.415,7.212a5.821,5.821,0,0,0,4.186,1.25c1.28-.015,1.22-.919,1.265-1.807.045-1.159-.256-2.364.407-3.463a2.436,2.436,0,0,1,2.951-1.34,2.049,2.049,0,0,1,1.445,2.394c-.045.858-.075,1.731-.09,2.589-.015,4.186-2.243,6.324-6.354,6.369-9.049.105-11.849-9.034-9.41-15.342,3.252-8.431,12.677-8.883,18.655-5.255,4.156,2.529,7.679,5.33,8.718,10.374C490.961,598.359,490.645,600.166,490.78,601.958Z" transform="translate(-386.116 -372.64)" fill="#1d201d"/>
    <path id="Path_9851" data-name="Path 9851" d="M490.713,646.068c.181,3.192.075,6.2-1.385,9.049-2.846,5.51-12.422,11.036-19.648,8.507-3.433-1.2-7.227-6.248-7.287-9.922a14.493,14.493,0,0,1,1.43-7.453c2.033-3.824,5.315-4.562,8.959-4.743,3.824-.181,6.143,2.213,6.158,6.038,0,.949.03,1.9.075,2.83.075,1.25-.316,2.2-1.611,2.5a2.432,2.432,0,0,1-2.755-1.34,4.9,4.9,0,0,1-.422-3.222c.211-2.183-1.024-2.379-2.635-2.033-3.041.663-4.8,2.3-4.517,6.715.2,2.951,2.5,5.917,5.225,6.414,4.818.873,12.678-3.523,13.491-8.341a35.388,35.388,0,0,0,.166-8.462,38.35,38.35,0,0,0-3.162-12.557,41.246,41.246,0,0,0-3.147-5.706c-.843-1.31-1.159-2.484.105-3.553,1.295-1.084,2.544-.542,3.538.557a23.446,23.446,0,0,1,3.915,6.9C489.584,633.917,491.18,639.879,490.713,646.068Z" transform="translate(-386.094 -354.342)" fill="#1d201d"/>
    <path id="Path_9852" data-name="Path 9852" d="M681.939,652.831c-.286-7.423,1.732-14.349,4.607-21,1.837-4.246,5.36-6.565,10.057-7.438,3.854-.723,7.393-1.009,11.217.452,5.119,1.972,7.8,8.838,6.414,13.581a13.048,13.048,0,0,1-5.661,7.724c-3.478,2.228-10.268.527-12-3.177-.723-1.521.3-7.227,1.506-8.386a2.047,2.047,0,0,1,2.183-.527,2.289,2.289,0,0,1,1.671,2.063,7.287,7.287,0,0,1-.843,3.6c-.317.768-.407,1.521.437,2.063,2.228,1.43,6.293.136,7.393-2.364,2.71-6.188-.677-11.428-7.468-11.081-4.261.211-8.627,1.039-10.72,5.45a37.492,37.492,0,0,0-3.342,10.9c-.738,5.224-.889,10.494.662,15.644.392,1.31.121,2.409-1.219,2.921a2.257,2.257,0,0,1-3.222-1.491C682.872,658.838,682.466,655.812,681.939,652.831Z" transform="translate(-275.095 -352.523)" fill="#1d201d"/>
    <path id="Path_9853" data-name="Path 9853" d="M586.358,524.3c-6.037.241-11.443-1.22-16.758-3.1a4.4,4.4,0,0,1-2.108-1.461,2.311,2.311,0,0,1-.09-2.861,1.985,1.985,0,0,1,2.71-.708c6.128,3.011,12.677,3.749,19.362,3.373a32.79,32.79,0,0,0,7.8-1.415c5.526-1.716,9.079-10.961,6.2-15.93-2.364-4.08-8.823-4.381-11.849-.617a5.07,5.07,0,0,0-.557,4.442c.271,1.009.723,1.355,1.882,1.009a10.425,10.425,0,0,1,3.493-.2,2.041,2.041,0,0,1,1.882,1.822,2.068,2.068,0,0,1-.873,2.273c-1.611,1.114-7.528.753-9.109-.467-1.355-1.054-1.7-2.439-1.972-4.065-1.2-7.046,3.117-11.036,9.094-11.849,10.524-1.43,15.7,7.513,12.978,16.637-1.581,5.285-4.14,10.028-9.892,11.488C594.518,523.7,590.333,524.709,586.358,524.3Z" transform="translate(-333.223 -417.949)" fill="#1d201d"/>
    <path id="Path_9854" data-name="Path 9854" d="M701.537,623.178c-5.842-.677-12.03-1.611-15.041-8.191a55.93,55.93,0,0,1-3.914-12.452c-1.084-5.5-.331-10.961.5-16.4a2.958,2.958,0,0,1,2.228-2.755c1.9-.407,3.1.918,2.71,2.936a50.665,50.665,0,0,0-1.039,10.615c.105,5.119,1.521,9.726,3.071,14.409a8.19,8.19,0,0,0,4.923,5.571c3.568,1.355,7.107,2.289,10.871.617,2.785-1.235,3.885-3.493,4.05-6.339.136-2.349-2-6.038-3.96-6.685a6.594,6.594,0,0,0-4.562.557c-.949.391-.587,1.31-.286,2.048a6.44,6.44,0,0,1,.753,3.614,2.309,2.309,0,0,1-1.792,1.957,2.058,2.058,0,0,1-2.138-.678c-1.37-1.506-2.063-7.046-1.189-8.838a4.584,4.584,0,0,1,3.147-2.6c3.373-.8,6.67-2.018,9.922.888a12.767,12.767,0,0,1,4.532,11.1C713.913,619.881,707.228,623,701.537,623.178Z" transform="translate(-275.029 -372.993)" fill="#1d201d"/>
    <path id="Path_9855" data-name="Path 9855" d="M531.523,713.34c-.889,5.39-2.349,10.464-7.016,14.017-4.607,3.508-10.374,2.831-14.635-.949-2.966-2.62-4.14-5.977-4.321-9.8-.09-2.032,3.915-7.031,6.414-7.95,2.273-.843,4.5.045,6.5,2.484a19.259,19.259,0,0,0,1.656,1.671c.994.949,1.295,2.033.407,3.147a2.323,2.323,0,0,1-3.373.467,8.51,8.51,0,0,1-2.394-2.575,1.129,1.129,0,0,0-1.777-.407,5.86,5.86,0,0,0-1.506,7.829c4.11,5.375,9.892,4.924,13.144-1.2,1.852-3.478,3.282-7.287,1.084-11.127a32.594,32.594,0,0,0-4.818-6.068,43.492,43.492,0,0,0-9.817-7.438,33.1,33.1,0,0,0-7.137-2.831c-1.34-.391-2.424-.964-2.244-2.544.2-1.671,1.37-2.018,2.906-2.063,2.334-.045,4.231,1.235,6.143,2.093a41.918,41.918,0,0,1,19.408,17.315A10.215,10.215,0,0,1,531.523,713.34Z" transform="translate(-366.227 -320.059)" fill="#1d201d"/>
    <path id="Path_9856" data-name="Path 9856" d="M584.48,719.116A52.442,52.442,0,0,1,600,721.389c6.384,2,9.892,12.9,9.034,17.827-1.069,6.053-4.788,8.988-10.494,10.042-3.433.632-10.073-2.544-11.7-5.616-1.686-3.192-.5-9.245,2.183-11.142,1.265-.888,7.377-.783,8.552.166a2.071,2.071,0,0,1,.753,2.108,2.046,2.046,0,0,1-1.822,1.9,8.471,8.471,0,0,1-3.493-.151c-1.505-.527-1.837.3-2.123,1.34a5.536,5.536,0,0,0,4.306,6.4c7.287,1.1,11.066-4.125,8.582-11.322-1.912-5.526-5.616-7.95-11.232-8.6-7.769-.9-15.237-.346-22.389,2.981a2.031,2.031,0,0,1-2.725-.632,2.308,2.308,0,0,1,0-2.861,4.46,4.46,0,0,1,2.289-1.6C575.085,720.4,580.49,718.92,584.48,719.116Z" transform="translate(-333.228 -304.335)" fill="#1d201d"/>
    <path id="Path_9857" data-name="Path 9857" d="M669.675,524.4c5.224-.722,10.75,4.4,12,8.371,1.867,5.917-1.837,11.819-6.2,14.454a34.634,34.634,0,0,1-5.179,2.71c-4.065,1.6-7.935.963-11.714-1.19a59.909,59.909,0,0,1-10.916-7.588,42.329,42.329,0,0,1-5.5-6.414c-1.009-1.37-1.641-3.011-2.71-4.4a4.18,4.18,0,0,1-.783-3.358,2.029,2.029,0,0,1,1.686-1.747,1.944,1.944,0,0,1,2.409,1.024,32.147,32.147,0,0,0,7.5,10.705c4,3.945,8.492,7.588,14.063,8.988,4.321,1.084,12.03-3.6,13.084-8.582.542-2.575-.557-4.667-2.3-6.354a6.728,6.728,0,0,0-6.73-1.822,6.213,6.213,0,0,0-3.011,2.891c-.587.963.06,1.6.9,2.048a7.406,7.406,0,0,1,2.7,1.837,2.421,2.421,0,0,1,.06,3.237,2,2,0,0,1-3.132.166c-1.641-1.581-4.457-1.732-5.119-4.517-.422-1.761-.617-3.4.5-4.924C663.441,527.03,665.278,523.522,669.675,524.4Z" transform="translate(-296.993 -402.851)" fill="#1d201d"/>
    <path id="Path_9858" data-name="Path 9858" d="M670.219,717.916c-6.143,0-11.142-6.038-9.245-10.841,1.114-2.815,4.005-3.478,6.354-4.728.708-.376,1.566.226,1.957.979a2.6,2.6,0,0,1-.211,2.891,5.882,5.882,0,0,1-2.469,1.761c-1.671.768-1.717,1.686-.617,3.086a5.381,5.381,0,0,0,7.287,1.415c3.418-1.927,4.923-5.074,3.96-8.13a10.366,10.366,0,0,0-4.923-5.752c-7.829-4.652-10.058-1.837-16.923,2.454-3,1.867-5.285,4.577-7.679,7.137a32.789,32.789,0,0,0-4.472,6.9c-.8,1.445-1.506,2.514-3.192,1.837-1.822-.738-1.792-2.469-1.1-3.809a41.362,41.362,0,0,1,4.186-6.79c4.08-5.24,9.455-8.868,14.921-12.572,8.778-5.962,22.163,1.717,23.909,10.118a11.317,11.317,0,0,1-4,11.1C675.7,716.757,673.155,718.593,670.219,717.916Z" transform="translate(-297.04 -318.221)" fill="#1d201d"/>
    <path id="Path_9859" data-name="Path 9859" d="M695.918,689.911a13.284,13.284,0,0,1-5.872,9.681c-4.2,2.665-8.687,2.228-12.587-.346-4.532-2.981-7.935-7.046-8.793-12.752a11.172,11.172,0,0,1,.512-5.1,49.953,49.953,0,0,1,5.992-13.37,46.313,46.313,0,0,1,9.967-10.539,4.252,4.252,0,0,1,1.686-.8,2.261,2.261,0,0,1,2.74,1.31,2.175,2.175,0,0,1-.918,2.861c-7.875,5.541-12.406,13.37-15.222,22.344a7.267,7.267,0,0,0,1.129,6.068c2.153,3.553,4.637,6.73,9.2,7.242,2.665.3,4.592-1.069,5.977-3.026,1.49-2.108,2.153-4.682.873-7.092a5.818,5.818,0,0,0-3.719-2.635c-.768-.2-1.129.226-1.37.888a17.867,17.867,0,0,1-1.114,2.831c-.708,1.28-1.837,2.032-3.328,1.37-1.566-.693-1.6-1.942-.964-3.358.512-1.129.934-2.319,1.445-3.463a5.339,5.339,0,0,1,6.459-2.771C693.524,681.118,695.933,684.2,695.918,689.911Z" transform="translate(-281.846 -335.927)" fill="#1d201d"/>
    <path id="Path_9860" data-name="Path 9860" d="M531.5,533.444a14.493,14.493,0,0,1-3.071,9.4,54.172,54.172,0,0,1-9.47,9.726,36.431,36.431,0,0,1-8.251,4.818,29.5,29.5,0,0,0-3.463,1.37,5.586,5.586,0,0,1-3.418.617,2.163,2.163,0,0,1-2.123-2.138,2.016,2.016,0,0,1,1.656-2.258,36.615,36.615,0,0,0,17.074-10.058c3.147-3.222,7.122-6.4,6.2-11.759-.648-3.809-1.987-7.453-5.435-9.726a6.172,6.172,0,0,0-7.287.286c-2.213,1.536-3.824,3.659-3.463,6.474a6.419,6.419,0,0,0,2.439,3.674c.8.678,1.37.361,1.942-.391a13.563,13.563,0,0,1,2.228-2.409,2.283,2.283,0,0,1,3.388.286c.994,1.159.708,2.319-.406,3.312a12.776,12.776,0,0,0-1.49,1.506c-3.041,3.7-6.068,3.794-9.546.512-6.444-6.068-2.409-13.987,3.041-17.239,7.679-4.592,15.493,1.039,17.571,7.588C530.34,529.364,531.921,531.532,531.5,533.444Z" transform="translate(-366.218 -406.133)" fill="#1d201d"/>
    <path id="Path_9861" data-name="Path 9861" d="M695.916,559.842a10.325,10.325,0,0,1-8.9,9.606,5.179,5.179,0,0,1-5.089-2.349,23.676,23.676,0,0,1-2.108-4.954,1.981,1.981,0,0,1,1.084-2.575,2.336,2.336,0,0,1,3.117.828,6.979,6.979,0,0,1,1.114,2.56c.557,2.244,1.837,1.882,3.282,1.009a5.051,5.051,0,0,0,2.454-6.354c-1.265-3.885-3.779-5.932-6.986-5.737a9.1,9.1,0,0,0-6.354,3.207,17.523,17.523,0,0,0-3.854,5.8,6.884,6.884,0,0,0-.211,4.4,45.3,45.3,0,0,0,10.043,17.977,29.861,29.861,0,0,0,4.818,4.1c1.325.934,1.927,1.942,1.069,3.342a2.28,2.28,0,0,1-3.508.647,42.6,42.6,0,0,1-17.134-26.725c-.738-3.719.708-7.031,3.041-9.982,2.469-3.117,5.134-5.706,9.154-6.986a11.429,11.429,0,0,1,13.6,6.549C695.134,555.792,695.992,557.312,695.916,559.842Z" transform="translate(-281.845 -391.261)" fill="#1d201d"/>
    <path id="Path_9862" data-name="Path 9862" d="M488.31,583.656c-4.713-.527-9.3-1.37-12.873-5.179a11.272,11.272,0,0,1-.557-14.59c1.611-1.957,3.117-3.764,5.812-4.456a11.064,11.064,0,0,1,11.1,3.342,5.787,5.787,0,0,1,.09,6.384c-.813,1.069-1.626,2.123-2.409,3.207a2.113,2.113,0,0,1-3.071.753,2.36,2.36,0,0,1-.964-3.086,9.908,9.908,0,0,1,1.972-2.62c.843-1.009.677-1.761-.361-2.544-4.2-3.162-7.935-.316-9.365,3.508-2.138,5.736,2.394,9.094,6.911,10.012a13.523,13.523,0,0,0,6.038.3,9.351,9.351,0,0,0,4.667-2.454,39.112,39.112,0,0,0,7.874-11.066,31.347,31.347,0,0,0,3.478-12.437c.045-1.475.632-2.5,2.153-2.56a2.236,2.236,0,0,1,2.439,2.56,31.812,31.812,0,0,1-1.761,9.169,46.084,46.084,0,0,1-10.509,17.239C495.733,582.617,492.9,583.445,488.31,583.656Z" transform="translate(-380.996 -389.751)" fill="#1d201d"/>
    <path id="Path_9863" data-name="Path 9863" d="M492.788,678.676c.256,2.259-1.28,3.568-2.906,4.893-4.984,4.05-10.69,2.333-14.093-1.641-3.313-3.885-4.442-8.236-2.3-12.828,2.168-4.652,6.414-6.836,11.428-7.649,3.764-.6,7.468-.753,10.826,1.34,3.764,2.349,6.158,6.037,8.718,9.5a40.09,40.09,0,0,1,4.622,9.094,45.845,45.845,0,0,1,2.228,9.787c.256,1.581-.211,3.177-2.153,3.282-1.912.105-2.153-1.2-2.454-2.936a46.486,46.486,0,0,0-2.62-9.636,45.622,45.622,0,0,0-8.386-13.084c-2.469-2.816-5.571-3.358-9.154-2.816-2.786.422-5.315,1.084-7.393,3.117a6.328,6.328,0,0,0-1.415,7.348,6.866,6.866,0,0,0,5.661,4.713,5.518,5.518,0,0,0,4.336-2c.768-.8.045-1.461-.407-2.063a10.743,10.743,0,0,1-1.822-2.439,2.334,2.334,0,0,1,.9-3.1,2,2,0,0,1,3.056.708C490.605,674.355,493.18,675.665,492.788,678.676Z" transform="translate(-381.033 -333.681)" fill="#1d201d"/>
    <path id="Path_9864" data-name="Path 9864" d="M476.062,513.133c-5.556-.587-11.774-1.19-17.977-1.9-1.686-.2-2.093.045-1.521,1.837,1.686,5.24,3.388,10.539,4.547,15.869a113.483,113.483,0,0,0,5.782,18.444,3.845,3.845,0,0,1-.226,3.629,2.151,2.151,0,0,1-2.213,1.024,2.13,2.13,0,0,1-1.882-1.6c-1.024-4.818-3.523-9.169-4.547-13.957-1.792-8.432-4.728-16.562-6.685-24.949-.813-3.463.467-5.315,3.96-5.059,5.992.452,11.985.858,17.932,1.746,3.011.452,6.113.166,9.169.542,4.562.572,9.019,1.731,13.641,2.017a2,2,0,0,1,1.822,2.364,2.367,2.367,0,0,1-2.544,2.243c-2.771.15-5.39-.8-8.085-1.174C483.74,513.72,480.308,512.711,476.062,513.133Z" transform="translate(-391.799 -411.854)" fill="#1d201d"/>
    <path id="Path_9865" data-name="Path 9865" d="M475.365,740.372c-4.667.512-10.946,1.22-17.239,1.867a21.079,21.079,0,0,1-4.246.03c-2.063-.211-3.267-2.334-2.68-4.652.693-2.785,1.551-5.526,2.274-8.3,1.476-5.631,3.282-11.157,4.547-16.848.873-3.93,2.544-7.679,3.915-11.473a12.9,12.9,0,0,0,.572-2.243,2.171,2.171,0,0,1,2.484-2c1.355.12,1.988,1.024,2.2,2.364.361,2.213-1.024,3.914-1.731,5.766-3.885,10.193-5.526,21-9.034,31.287-.421,1.22.166,1.581,1.28,1.43,8.447-1.114,16.953-1.6,25.43-2.394,3.237-.3,6.414-1.19,9.636-1.732a9.916,9.916,0,0,1,3.056-.045,2.266,2.266,0,0,1,2.078,2.2,2.037,2.037,0,0,1-1.837,2.364C489.654,738.369,483.466,740.4,475.365,740.372Z" transform="translate(-391.825 -315.639)" fill="#1d201d"/>
    <path id="Path_9866" data-name="Path 9866" d="M448.791,599.262a2.425,2.425,0,0,1,2.063,1.34,2.518,2.518,0,0,1-.437,2.65c-1.129,1.777-3.192,2.213-4.833,3.192a150.2,150.2,0,0,0-13.039,8.733c-4.427,3.267-9.094,6.324-13.792,9.26-1.295.813-1.581,1.114-.09,2.168,6.053,4.276,12.467,8.04,18.248,12.723a60.822,60.822,0,0,0,11.066,6.549,7.213,7.213,0,0,1,2.048,1.551c1.009,1.069,1.6,2.274.467,3.538-1.2,1.355-2.334.828-3.689-.105-2.439-1.671-5.044-3.117-7.618-4.577-3.3-1.867-6.113-4.366-9.215-6.474-3.538-2.409-7.076-4.878-10.705-7.167a69.824,69.824,0,0,1-6.113-4.321,3.419,3.419,0,0,1,.105-5.646c5.059-3.643,10.118-7.317,15.508-10.509a24.5,24.5,0,0,0,3.538-2.71c3.99-3.493,8.823-5.661,13.295-8.371C446.638,600.466,447.316,599.157,448.791,599.262Z" transform="translate(-411.715 -364.93)" fill="#1d201d"/>
    <path id="Path_9867" data-name="Path 9867" d="M757.673,686.6a3.613,3.613,0,0,1-2.936,3.207c-5.947,1.551-11.895,3.147-17.872,4.547a45.072,45.072,0,0,0-4.442,1.46c-5.707,1.957-11.789,2.228-17.571,3.839a1.975,1.975,0,0,1-2.409-1.054,2.195,2.195,0,0,1,.452-2.8,4.592,4.592,0,0,1,2.454-1.295,131.672,131.672,0,0,0,19.317-4.366,134.963,134.963,0,0,1,15.387-3.779c1.7-.3,2.229-.753,1.009-2.469-4.4-6.173-9.139-12.09-13.1-18.594-2.017-3.312-4.893-6.128-7.5-9.064a7.176,7.176,0,0,1-1.882-3.433,2.183,2.183,0,0,1,1.325-2.5,1.991,1.991,0,0,1,2.71.723c3.342,5.21,7.95,9.425,11.277,14.71,3.869,6.143,8.311,11.909,12.512,17.827A6.464,6.464,0,0,1,757.673,686.6Z" transform="translate(-259.813 -339.253)" fill="#1d201d"/>
    <path id="Path_9868" data-name="Path 9868" d="M714.438,550.471c3.523.662,7.077,1.174,10.555,2.033,7.317,1.807,14.6,3.779,21.892,5.691,2.635.693,5.3,1.265,7.874,2.108,2.981.979,3.779,3.117,2,5.676-3.478,5.014-6.775,10.163-10.811,14.77a18.372,18.372,0,0,0-1.867,3.237c-2.8,4.773-6.595,8.763-10.073,13.009a6.836,6.836,0,0,0-1.054,1.521c-.587,1.31-1.656,1.957-3.071,1.265-1.34-.647-1.566-1.807-1.129-3.192.753-2.364,2.74-3.779,4.216-5.571a83.942,83.942,0,0,0,8.1-11.217c2-3.433,4.667-6.459,7.031-9.681,1.069-1.445,2.093-2.951,3.192-4.366.768-.979.918-1.49-.6-1.807-5.179-1.054-10.208-2.77-15.433-3.734-3.328-.6-6.384-2.439-9.832-2.921-3.312-.467-6.595-1.129-9.907-1.686a5.017,5.017,0,0,1-2.831-1.536,2.132,2.132,0,0,1-.346-2.424A1.824,1.824,0,0,1,714.438,550.471Z" transform="translate(-259.82 -389.615)" fill="#1d201d"/>
    <path id="Path_9869" data-name="Path 9869" d="M679.9,757.246c.994-5.1.994-12.557.843-20.01a5.14,5.14,0,0,1,.828-2.65,2.161,2.161,0,0,1,2.665-.964,2.03,2.03,0,0,1,1.581,2.334c-.753,3.914-.241,7.844-.331,11.759-.06,2.921-.662,5.751-.934,8.612-.527,5.586-.768,11.2-1.144,16.788a31.543,31.543,0,0,1-.406,3.96c-.527,2.635-2.6,3.945-5.074,2.815a173.621,173.621,0,0,1-16.562-8.1,21.1,21.1,0,0,0-3.478-1.31C652.8,768.583,648.3,765.6,643.6,763a27.248,27.248,0,0,0-2.514-1.189,2.069,2.069,0,0,1-1.325-2.68,2.253,2.253,0,0,1,2.529-1.7,8.6,8.6,0,0,1,3.057,1.054c5.044,3.1,10.088,6.128,15.734,8.175,4.08,1.476,7.844,3.779,11.759,5.721,1.4.693,2.846,1.295,4.2,2.047s1.732.106,1.717-1.084C678.745,768.7,679.6,764.141,679.9,757.246Z" transform="translate(-296.473 -297.055)" fill="#1d201d"/>
    <path id="Path_9870" data-name="Path 9870" d="M680.759,505.136c-.12-9.079-1.46-18.067-1.927-27.116-.015-.391-.045-.783-.06-1.174-.06-2.936.015-2.77-2.65-1.626-6.369,2.74-12.316,6.339-18.835,8.763-4.246,1.581-8.01,4.216-11.879,6.55a12.556,12.556,0,0,1-1.882.873c-1.7.647-3.1.346-3.689-1.325-.647-1.822.678-2.424,2.228-3.117a74.845,74.845,0,0,0,7.317-4.156c3.357-2,7.107-3.222,10.585-4.893,3.7-1.792,7.453-3.538,11.1-5.481a62.484,62.484,0,0,1,6.745-3.177c2.815-1.114,4.983.3,5.27,3.4.436,4.607.768,9.214,1.1,13.837.587,8.251,1.822,16.456,1.31,24.753a2.7,2.7,0,0,0,.136,1.159,2.1,2.1,0,0,1-1.506,3.1c-1.551.422-2.484-.422-2.951-1.942C680.277,510.782,681.09,507.937,680.759,505.136Z" transform="translate(-296.454 -430.853)" fill="#1d201d"/>
    <path id="Path_9871" data-name="Path 9871" d="M588.937,483.5a5.485,5.485,0,0,1-3.418-2.213,69.406,69.406,0,0,0-8.763-10.118c-5.465-4.833-10.208-10.359-15.358-15.478-1.114-1.1-1.551-1.144-2.228.346-3.162,6.851-5.887,13.882-9.486,20.537a59.279,59.279,0,0,0-4.306,11.533,6.369,6.369,0,0,1-1.927,3.177,2.168,2.168,0,0,1-2.815.256,2.05,2.05,0,0,1-.843-2.695c2.68-5.45,4.1-11.383,6.9-16.818,3.372-6.549,6.173-13.415,9.35-20.07,1.792-3.749,4.035-4.14,6.941-1.2,4.246,4.276,8.492,8.552,12.557,12.994,2.74,3,6.1,5.375,8.7,8.582a64.522,64.522,0,0,0,6.519,7.393,2.125,2.125,0,0,1,.361,2.62A1.973,1.973,0,0,1,588.937,483.5Z" transform="translate(-347.064 -441)" fill="#1d201d"/>
    <path id="Path_9872" data-name="Path 9872" d="M559.6,798.952c-1.761.06-2.68-1.114-3.267-2.379-2.59-5.571-5.134-11.172-7.5-16.833a23.666,23.666,0,0,0-1.7-3.041c-2.846-4.818-4.2-10.223-6.339-15.328a12.621,12.621,0,0,0-.723-1.686,2.24,2.24,0,0,1,.572-3.312c1.325-.9,2.379-.226,3.327.723,1.295,1.295,1.355,3.1,1.957,4.7a152.079,152.079,0,0,0,6.67,15.147c2.394,4.743,4.547,9.711,6.5,14.695.738,1.882,1.25,1.581,2.469.392,4.908-4.818,9.3-10.118,14.529-14.635,3.629-3.132,6.444-7.047,9.44-10.765a7.064,7.064,0,0,1,1.686-1.6c1.189-.753,2.56-1.189,3.583.151,1.039,1.37.422,2.439-.768,3.628-2.213,2.213-4.05,4.788-6.218,7.046-6.9,7.152-13.882,14.228-20.853,21.3C562.039,798.139,561.03,799.042,559.6,798.952Z" transform="translate(-347.057 -285.702)" fill="#1d201d"/>
    <path id="Path_9873" data-name="Path 9873" d="M664.621,485.793a10.226,10.226,0,0,0-4.065,1.882c-3.071,2.62-7.061,3.147-10.494,4.938a2.016,2.016,0,0,1-2.8-.964c-.723-1.129-.286-2.093.647-2.906,1.52-1.325,3.418-1.777,5.27-2.394,3.282-1.1,5.857-3.508,9.034-4.863,4.577-1.942,7.091-.451,7.332,4.442.241,4.878.151,9.771.888,14.635.241,1.611-.15,3.162-2.153,3.207-1.957.03-2.3-1.536-2.484-3.1-.331-2.861-1.084-5.752-.843-8.567A27.738,27.738,0,0,0,664.621,485.793Z" transform="translate(-292.798 -424.895)" fill="#1d201d"/>
    <path id="Path_9874" data-name="Path 9874" d="M670.423,741.311c.361,1.25-.3,2.5-.512,3.794-.542,3.328-.03,6.67-.316,10.012-.422,5.044-2.816,6.58-7.483,4.517-2.876-1.265-5.33-3.207-8.161-4.547-1.686-.8-3.629-.828-5.18-2.063-1.189-.934-2.424-1.716-1.566-3.388.9-1.747,2.289-1.31,3.839-.708a58.178,58.178,0,0,1,11.654,5.736c1.7,1.144,2.033.5,2.319-1.295.452-2.71-.542-5.375.136-8.115a16.989,16.989,0,0,0,.662-4.14c-.015-1.807.181-3.779,2.56-3.674C670.709,737.531,670.468,739.534,670.423,741.311Z" transform="translate(-292.788 -295.062)" fill="#1d201d"/>
    <path id="Path_9875" data-name="Path 9875" d="M559.2,467.694c-2.138,2.469-1.852,5.917-3.568,8.567-1.174,1.822-2.063,3.854-3.057,5.782-.617,1.2-1.566,1.822-2.891,1.325-1.415-.542-1.671-1.671-1.385-3.087.421-1.987,1.792-3.433,2.695-5.149,1.521-2.906,2.093-6.158,3.523-9.094,2.2-4.472,5.044-4.984,8.507-1.476,3.177,3.222,5.556,7.212,9.425,9.757a4.477,4.477,0,0,1,.9,1.069c.949,1.22,1.521,2.59.136,3.749s-2.56.376-3.674-.768a27.808,27.808,0,0,0-3.854-3.433C563.231,472.979,562.1,469.516,559.2,467.694Z" transform="translate(-342.708 -434.199)" fill="#1d201d"/>
    <path id="Path_9876" data-name="Path 9876" d="M559.13,772.915c3-1.927,4.125-5.3,6.836-7.272a51.015,51.015,0,0,0,4.351-3.93,2.264,2.264,0,0,1,3.192-.316c1.084.873.934,1.987.316,3.177-1.084,2.048-3.267,2.906-4.713,4.562-2,2.3-4,4.592-6.068,6.836-3.373,3.644-6.324,3.1-8.462-1.4-1.957-4.125-2.725-8.778-5.571-12.512a6.747,6.747,0,0,1-.557-1.521c-.587-1.475-.3-2.7,1.2-3.312,1.581-.647,2.439.392,3.147,1.671a77.61,77.61,0,0,1,5.661,12.738A11.586,11.586,0,0,0,559.13,772.915Z" transform="translate(-342.718 -285.156)" fill="#1d201d"/>
    <path id="Path_9877" data-name="Path 9877" d="M466.315,519.728a30.3,30.3,0,0,0,2.108,6.294,19.066,19.066,0,0,1,1.461,5.616,18.546,18.546,0,0,0,.677,3.418,2.1,2.1,0,0,1-1.385,3c-1.43.467-2.3-.316-2.981-1.6-1.129-2.153-.768-4.607-1.566-6.806-1.039-2.846-2.138-5.691-2.966-8.6-1.174-4.11,1.506-6.76,5.721-5.977a101.513,101.513,0,0,0,10.4,1.6c1.491.121,3-.376,4.592.06s2.755,1.084,2.424,2.83a2.288,2.288,0,0,1-3.267,1.777c-1.445-.542-2.816.151-4.186-.166-1.822-.437-3.7.135-5.571-.6C470.14,519.909,468.258,519.984,466.315,519.728Z" transform="translate(-386.599 -407.564)" fill="#1d201d"/>
    <path id="Path_9878" data-name="Path 9878" d="M726.424,676.047a20.84,20.84,0,0,0,4.5-.964c1.159-.286.647-.9.286-1.536-1.446-2.529-4.035-4.11-5.375-6.745-.919-1.792-2.153-3.433-3.207-5.164a2.169,2.169,0,0,1,.467-3.147c1.114-.813,2.2-.452,3.177.482,1.4,1.325,1.987,3.162,3.086,4.652,1.927,2.635,4.035,5.134,6.053,7.709a6.859,6.859,0,0,1,1.611,3.357c.3,2.439-1.054,4.11-4.1,4.818-3.162.723-6.369,1.28-9.561,1.942-1.972.407-3.7,1.641-5.752,1.807-1.415.105-2.545-.331-2.891-1.807a2.1,2.1,0,0,1,1.671-2.695c2.83-.6,5.435-1.852,8.19-2.65A2.379,2.379,0,0,1,726.424,676.047Z" transform="translate(-258.541 -335.207)" fill="#1d201d"/>
    <path id="Path_9879" data-name="Path 9879" d="M466.472,721.617a110.321,110.321,0,0,1,15.508-1.852,2.384,2.384,0,0,1,2.831,1.927c.286,1.506-.663,2.274-2,2.74-1.822.632-3.689.045-5.511.271-3.478.422-6.941,1.084-10.419,1.581-4.05.572-6.369-2.244-5.149-6.324.949-3.192,2.033-6.354,3.132-9.516.617-1.762.271-3.689,1.22-5.45.738-1.37,1.506-2.3,3.056-1.822,1.716.542,1.762,1.882,1.325,3.433a33.756,33.756,0,0,0-1.159,5.45C468.941,715.354,466.472,717.958,466.472,721.617Z" transform="translate(-386.59 -312.452)" fill="#1d201d"/>
    <path id="Path_9880" data-name="Path 9880" d="M425.28,621.049c.03-1.9,1.325-3.072,2.786-4,2.755-1.762,5.6-3.388,8.371-5.119,1.656-1.039,2.755-2.77,4.652-3.553,1.43-.587,2.68-.738,3.463.708.753,1.4.03,2.394-1.189,3.373a65.255,65.255,0,0,1-11.232,7.513c-1.551.768-1.461,1.641.015,2.394a64.452,64.452,0,0,1,11.051,7.363c1.25,1.009,2.2,1.987,1.34,3.523-.873,1.581-2.243,1.22-3.689.587-1.792-.8-2.831-2.484-4.427-3.463-2.785-1.716-5.631-3.342-8.371-5.119C426.59,624.3,425.295,623.112,425.28,621.049Z" transform="translate(-404.856 -360.535)" fill="#1d201d"/>
    <path id="Path_9881" data-name="Path 9881" d="M732.118,567.284a21.775,21.775,0,0,0-6.188-1.355,20.956,20.956,0,0,1-5.571-1.491,25.8,25.8,0,0,0-3.779-1.235,2.139,2.139,0,0,1-1.852-2.785c.361-1.46,1.505-1.927,2.921-1.746,1.942.256,3.659,1.295,5.526,1.746,3.162.753,6.384,1.235,9.546,1.957,4.5,1.024,5.661,4.1,2.936,7.829-1.972,2.695-4.125,5.27-6.2,7.889-1.069,1.34-1.46,3.071-2.74,4.336-1.129,1.129-2.228,2.018-3.629.934-1.551-1.19-.738-2.545.045-3.945C725.524,575.114,728.7,571.38,732.118,567.284Z" transform="translate(-258.544 -385.47)" fill="#1d201d"/>
    <path id="Path_9882" data-name="Path 9882" d="M491.475,553.3a2.2,2.2,0,0,1-2.138,2.288c-1.957.075-2.529-1.49-2.635-3a2.205,2.205,0,0,1,2.3-2.454C490.843,550.1,491.309,551.45,491.475,553.3Z" transform="translate(-373.802 -389.766)" fill="#1d201d"/>
    <path id="Path_9883" data-name="Path 9883" d="M573.587,501.38a2.931,2.931,0,0,1,2.755,2.906,1.948,1.948,0,0,1-2.168,2.228,2.94,2.94,0,0,1-3.011-2.74C571.043,502.3,572.021,501.5,573.587,501.38Z" transform="translate(-331.098 -414.42)" fill="#1d201d"/>
    <path id="Path_9884" data-name="Path 9884" d="M651.265,524.375c-.03,1.822-.587,3.011-2.273,3-1.747-.015-2.379-1.265-2.469-2.846a2.193,2.193,0,0,1,2.153-2.575A2.428,2.428,0,0,1,651.265,524.375Z" transform="translate(-292.992 -404.02)" fill="#1d201d"/>
    <path id="Path_9885" data-name="Path 9885" d="M491.488,682.08c-.2,1.46-.437,2.936-2.3,3.041a2.194,2.194,0,0,1-2.484-2.258c-.015-1.521.527-3.1,2.439-3.192C490.66,679.581,491.307,680.7,491.488,682.08Z" transform="translate(-373.8 -324.273)" fill="#1d201d"/>
    <path id="Path_9886" data-name="Path 9886" d="M573.649,733.789c-1.686-.181-2.635-1.009-2.484-2.469a2.944,2.944,0,0,1,3.071-2.68,1.962,1.962,0,0,1,2.108,2.289A2.986,2.986,0,0,1,573.649,733.789Z" transform="translate(-331.099 -299.51)" fill="#1d201d"/>
    <path id="Path_9887" data-name="Path 9887" d="M646.532,710.174a2.351,2.351,0,0,1,2.379-2.3c1.671-.06,2.319,1.069,2.319,2.62,0,1.686-.873,2.8-2.5,2.8C647.345,713.291,646.442,712.342,646.532,710.174Z" transform="translate(-292.987 -310.013)" fill="#1d201d"/>
    <path id="Path_9888" data-name="Path 9888" d="M630.178,516.268c-1.506-.03-2.5-.813-2.364-2.289.166-1.762,1.536-2.5,3.162-2.5a2.072,2.072,0,0,1,2.213,2.243C633.174,515.605,631.819,516.163,630.178,516.268Z" transform="translate(-302.454 -409.313)" fill="#1d201d"/>
    <path id="Path_9889" data-name="Path 9889" d="M630.01,718.781c1.912.09,3.222.723,3.192,2.6a2.088,2.088,0,0,1-2.289,2.168c-1.626-.045-3-.813-3.1-2.575A1.959,1.959,0,0,1,630.01,718.781Z" transform="translate(-302.452 -304.497)" fill="#1d201d"/>
    <path id="Path_9890" data-name="Path 9890" d="M502.8,700.954c-1.626.015-2.635-.873-2.59-2.394a2.343,2.343,0,0,1,2.725-2.319c1.445.06,2.7.693,2.725,2.334C505.676,700.4,504.411,700.939,502.8,700.954Z" transform="translate(-366.969 -315.894)" fill="#1d201d"/>
    <path id="Path_9891" data-name="Path 9891" d="M685.569,668.87c-1.159-.181-2.213-.708-2.258-2.153-.06-1.912,1.37-2.62,2.891-2.8a2.136,2.136,0,0,1,2.469,2.258C688.716,668.057,687.27,668.614,685.569,668.87Z" transform="translate(-274.388 -332.247)" fill="#1d201d"/>
    <path id="Path_9892" data-name="Path 9892" d="M688.731,568.912c-.241,1.415-1.054,2.424-2.529,2.243-1.536-.181-2.951-.918-2.891-2.816a2.06,2.06,0,0,1,2.379-2.078C687.285,566.352,688.6,567.03,688.731,568.912Z" transform="translate(-274.388 -381.616)" fill="#1d201d"/>
    <path id="Path_9893" data-name="Path 9893" d="M555.193,727.637c-.09,1.807-1.009,2.6-2.439,2.5-1.837-.136-2.469-1.551-2.484-3.147a1.979,1.979,0,0,1,2.259-2.138C554.305,725,554.938,726.328,555.193,727.637Z" transform="translate(-341.657 -301.429)" fill="#1d201d"/>
    <path id="Path_9894" data-name="Path 9894" d="M550.24,508.091c.256-1.731.918-3.071,2.755-3.041a2.03,2.03,0,0,1,2.153,2.469c-.2,1.641-1.054,2.831-2.846,2.8A2.028,2.028,0,0,1,550.24,508.091Z" transform="translate(-341.672 -412.564)" fill="#1d201d"/>
    <path id="Path_9895" data-name="Path 9895" d="M503.091,538.823c-1.747-.136-2.891-.888-2.891-2.424a2.28,2.28,0,0,1,2.635-2.349c1.521.03,2.71.542,2.816,2.183C505.756,538.07,504.355,538.522,503.091,538.823Z" transform="translate(-366.974 -397.901)" fill="#1d201d"/>
    <path id="Path_9896" data-name="Path 9896" d="M472.107,628.361c-.09,1.6-.858,2.469-2.228,2.394a2.878,2.878,0,0,1-3.026-2.71,2.113,2.113,0,0,1,2.334-2.364A3.081,3.081,0,0,1,472.107,628.361Z" transform="translate(-383.839 -351.571)" fill="#1d201d"/>
    <path id="Path_9897" data-name="Path 9897" d="M469.635,604.36c1.551.045,2.454.723,2.424,2.138a2.888,2.888,0,0,1-2.785,2.966,2.118,2.118,0,0,1-2.424-2.289C466.88,605.4,468.22,604.706,469.635,604.36Z" transform="translate(-383.837 -362.35)" fill="#1d201d"/>
    <path id="Path_9898" data-name="Path 9898" d="M690.78,588.99c.181-1.49.8-2.77,2.65-2.8a2.014,2.014,0,0,1,2.213,2.394,2.733,2.733,0,0,1-2.8,2.846C691.427,591.445,690.81,590.5,690.78,588.99Z" transform="translate(-270.611 -371.537)" fill="#1d201d"/>
    <path id="Path_9899" data-name="Path 9899" d="M695.679,646.49c-.075,1.611-.783,2.575-2.289,2.514-1.807-.075-2.545-1.325-2.59-2.981a1.949,1.949,0,0,1,2.078-2.273C694.685,643.78,695.377,645.045,695.679,646.49Z" transform="translate(-270.601 -342.433)" fill="#1d201d"/>
    <path id="Path_9900" data-name="Path 9900" d="M578.6,598.284a2.241,2.241,0,0,1-2.108-1.265c-3.644-6.053-6.851-12.331-10.208-18.549-1.385-2.59-2.033-5.541-4.156-7.784-.948-1.009-.181-2.273.843-3.026a2.4,2.4,0,0,1,3.553.437,60.01,60.01,0,0,1,9.546,16.682,63.032,63.032,0,0,0,3.839,7.769,12.129,12.129,0,0,1,1.009,3.087A2.31,2.31,0,0,1,578.6,598.284Z" transform="translate(-335.881 -381.207)" fill="#1d201d"/>
    <path id="Path_9901" data-name="Path 9901" d="M580.9,647.629c-.316,3.448-2.213,5.48-3.267,7.9a159.485,159.485,0,0,1-6.956,14.8c-1.22,2.168-3.3,3.659-4.607,5.812-.738,1.2-2.3.873-3.342-.045a2.205,2.205,0,0,1-.542-3.147c3.177-4.562,5.39-9.651,7.754-14.6,1.6-3.343,3.809-6.218,5.646-9.35a11.3,11.3,0,0,0,.828-1.912,2.105,2.105,0,0,1,2.65-1.4A2.241,2.241,0,0,1,580.9,647.629Z" transform="translate(-335.856 -341.494)" fill="#1d201d"/>
    <path id="Path_9902" data-name="Path 9902" d="M578.665,594.122c1.25-7.558.934-15.3,2.424-22.81.422-2.093,1.6-4,2.078-6.173a2.163,2.163,0,0,1,2.891-1.385c1.295.407,2.575,1.475,1.912,2.755-1.325,2.545-.6,5.24-1.114,7.829-.813,4.125-1.024,8.386-1.581,12.572-.437,3.3-1.882,6.384-2.048,9.787-.075,1.626-2.65,1.942-3.764.542A3.98,3.98,0,0,1,578.665,594.122Z" transform="translate(-327.322 -382.947)" fill="#1d201d"/>
    <path id="Path_9903" data-name="Path 9903" d="M579.634,660.211a43.788,43.788,0,0,0-.828-7.935,5.79,5.79,0,0,1,.376-4.11,2.158,2.158,0,0,1,2.575-1.175,2.328,2.328,0,0,1,1.656,2.033c1.6,7.468,2.454,15.056,3.583,22.585.361,2.364-.135,4.773.964,7.137.587,1.28-.828,2.289-2.153,2.56a2.374,2.374,0,0,1-2.8-1.656A64.213,64.213,0,0,1,579.634,660.211Z" transform="translate(-327.328 -340.841)" fill="#1d201d"/>
    <path id="Path_9904" data-name="Path 9904" d="M559.94,618.939c1.792-.105,3.117.392,3.267,2.153.136,1.732-1.024,2.289-2.65,2.635a14.833,14.833,0,0,0-4.728,1.837c-3.448,2.108-7.588,2.258-11.262,3.764-3.583,1.475-7.513,1.882-11.021,3.658-1.415.723-2.59.03-3.282-1.385a2.252,2.252,0,0,1,1.039-3.207,58.89,58.89,0,0,1,18.489-6.655c2.74-.542,5.39-1.521,8.07-2.334C558.615,619.15,559.307,618.728,559.94,618.939Z" transform="translate(-351.929 -355.007)" fill="#1d201d"/>
    <path id="Path_9905" data-name="Path 9905" d="M560.037,619.306c-1.295.166-2.379-.572-3.553-.949-6.128-2-12.557-2.921-18.64-5.134-2.439-.888-4.306-2.71-6.76-3.583-1.25-.437-1.475-1.942-.677-3.252a2.383,2.383,0,0,1,3.222-1.114,128.983,128.983,0,0,0,17.059,5.42c3.072.8,5.586,2.725,8.612,3.463a8.315,8.315,0,0,0,1.31.422c1.687.12,2.755.918,2.575,2.65C563,618.989,561.648,619.4,560.037,619.306Z" transform="translate(-351.936 -362.013)" fill="#1d201d"/>
    <path id="Path_9906" data-name="Path 9906" d="M599.035,569.282c-.2-1.686.482-2.755,2.243-2.831,1.852-.075,2.71.858,2.725,2.725a55.441,55.441,0,0,1-3.568,19.257,69.2,69.2,0,0,0-2.078,8.627,5.288,5.288,0,0,1-1.2,2.469,2.152,2.152,0,0,1-2.725.708,2.337,2.337,0,0,1-1.28-2.755c1.1-6.745,2.5-13.415,4.035-20.07C597.785,574.717,598.854,572.082,599.035,569.282Z" transform="translate(-320.004 -381.52)" fill="#1d201d"/>
    <path id="Path_9907" data-name="Path 9907" d="M637.161,591.476c-.045.121-.045.783-.346.979-2.228,1.43-3.207,3.975-5.194,5.646-5.6,4.682-12.2,7.965-17.691,12.783a3.945,3.945,0,0,1-2.65.8,2.193,2.193,0,0,1-2.2-1.445,2.075,2.075,0,0,1,.693-2.529c6.384-5.405,12.858-10.66,19.649-15.538,1.25-.9,2.71-1.491,3.553-2.981.572-1.009,1.792-.918,2.786-.5C636.8,589.1,637.267,590,637.161,591.476Z" transform="translate(-312.012 -370.424)" fill="#1d201d"/>
    <path id="Path_9908" data-name="Path 9908" d="M599.075,674.8c-.422-2.243-1.46-4.848-1.972-7.6-.753-4.125-2.093-8.146-2.77-12.286-.437-2.665-.452-5.405-1.19-8.04a1.954,1.954,0,0,1,1.31-2.274,2.02,2.02,0,0,1,2.394.407,4.909,4.909,0,0,1,1.521,2.815c1.069,6.068,3.162,11.864,4.773,17.781.964,3.553.437,7.076.813,10.585.166,1.626-1.129,2.334-2.68,2.213C599.391,678.261,598.729,677.117,599.075,674.8Z" transform="translate(-320.013 -342.119)" fill="#1d201d"/>
    <path id="Path_9909" data-name="Path 9909" d="M611.115,629.584a4.56,4.56,0,0,1,3.132,1.039c4.667,4.1,10.088,7.152,15.147,10.69,2.966,2.078,4.682,5.18,7.362,7.453.994.858.693,2.409-.361,3.372a2.179,2.179,0,0,1-3.207.136c-3.026-3.207-6.715-5.631-10.3-8.055-4.7-3.177-8.4-7.468-13.054-10.645a2.02,2.02,0,0,1-.783-2.5A2,2,0,0,1,611.115,629.584Z" transform="translate(-312.013 -349.602)" fill="#1d201d"/>
    <path id="Path_9910" data-name="Path 9910" d="M568.879,640.6c-.166,1.6-1.611,2.439-2.168,3.839-2.168,5.5-6.113,9.952-8.929,15.056-1.506,2.725-3.96,4.818-4.908,7.935-.392,1.31-1.837,1.626-3.192.873a2.474,2.474,0,0,1-1.295-3.357,56.547,56.547,0,0,1,10.1-16.953,43.458,43.458,0,0,0,4.216-6.474,9.946,9.946,0,0,1,2.3-2.635,2.315,2.315,0,0,1,2.65-.2A2.342,2.342,0,0,1,568.879,640.6Z" transform="translate(-342.725 -345.155)" fill="#1d201d"/>
    <path id="Path_9911" data-name="Path 9911" d="M567.076,605.19a3.7,3.7,0,0,1-3.644-2.093c-3.614-6.233-8.507-11.593-12.2-17.766-1.34-2.228-1.491-4.878-2.891-7.122-.783-1.25.361-2.56,1.762-3.086a2.2,2.2,0,0,1,2.951,1.22,108.91,108.91,0,0,0,8.989,14.228c2.048,2.906,3.192,6.218,4.984,9.214.452.753,1.114,1.295,1.506,2.078A2.19,2.19,0,0,1,567.076,605.19Z" transform="translate(-342.759 -377.228)" fill="#1d201d"/>
    <path id="Path_9912" data-name="Path 9912" d="M642.274,628.375c-4.125,1.4-8.326.392-12.512.407-2.529,0-4.939-.632-7.423-.858-2.349-.211-4.7-.361-7.046-.361a4.778,4.778,0,0,1-2.815-.964,2.136,2.136,0,0,1-.783-2.71,1.932,1.932,0,0,1,2.183-1.43c2.755.888,5.45-.256,8.13-.06,6.173.467,12.376.136,18.534.979a5.752,5.752,0,0,0,2.093-.015c2.183-.467,3.463.331,3.583,2.123.12,1.731-1.144,2.846-3.237,2.876A5.476,5.476,0,0,1,642.274,628.375Z" transform="translate(-310.696 -353.241)" fill="#1d201d"/>
    <path id="Path_9913" data-name="Path 9913" d="M538.37,590.29c2.529,1.355,5.887.783,8.868,2.123,6.113,2.755,11.925,6.158,18.263,8.416a5.372,5.372,0,0,1,1.942,1.671,2.116,2.116,0,0,1,.015,2.816,2.094,2.094,0,0,1-2.529.693c-7.965-2.665-15.7-5.887-23.4-9.215-1.355-.587-2.529-1.43-4.125-1.536a2.14,2.14,0,0,1-2-2.68A2.57,2.57,0,0,1,538.37,590.29Z" transform="translate(-349.195 -369.465)" fill="#1d201d"/>
    <path id="Path_9914" data-name="Path 9914" d="M629.832,607.085c1.792-.151,3.6-.181,5.375-.482,2.921-.482,5.631.949,8.537.828,1.686-.075,2.725,1.295,2.409,3.071-.256,1.505-1.295,2.063-2.906,2.078-5.315.045-10.66-.015-15.93.542-3.478.361-6.851-.075-10.269-.166a7.342,7.342,0,0,0-2.544.226,2.125,2.125,0,0,1-2.816-1.445,2.2,2.2,0,0,1,1.25-2.936,5.156,5.156,0,0,1,2.454-.677c4.411.226,8.732-.557,13.054-1.2a10.64,10.64,0,0,1,1.385-.015Z" transform="translate(-310.691 -361.266)" fill="#1d201d"/>
    <path id="Path_9915" data-name="Path 9915" d="M538.716,648.443c-2.2.135-3.071-.888-3.313-2.289a2.265,2.265,0,0,1,1.792-2.665,100.226,100.226,0,0,0,14.68-5.962,77.912,77.912,0,0,1,10.78-3.7c.858-.256,1.415-.918,2.273-1.1a2.253,2.253,0,0,1,2.529.723,2.115,2.115,0,0,1-.045,2.815,5.476,5.476,0,0,1-1.942,1.656c-6.851,2.439-13.054,6.294-19.8,8.974C543.233,647.855,540.433,646.846,538.716,648.443Z" transform="translate(-349.195 -348.059)" fill="#1d201d"/>
    <path id="Path_9916" data-name="Path 9916" d="M626.665,579.041a1.958,1.958,0,0,1-.828,1.852,127.332,127.332,0,0,0-13.671,12.437c-2.785,2.785-6.489,4.336-9.094,7.362-1.129,1.31-3.237.181-3.388-1.626a4.143,4.143,0,0,1,1.822-3.644,76.885,76.885,0,0,0,8.191-8.085,71.461,71.461,0,0,1,7.694-7.242c1.731-1.385,3.885-2.228,5.782-3.463C624.768,575.608,626.681,577.084,626.665,579.041Z" transform="translate(-316.678 -376.539)" fill="#1d201d"/>
    <path id="Path_9917" data-name="Path 9917" d="M626.666,662.574a2.593,2.593,0,0,1-4.02,2.394A56.823,56.823,0,0,1,609.517,654.2a66.612,66.612,0,0,0-8.055-7.9,4.388,4.388,0,0,1-1.762-2.951,2.2,2.2,0,0,1,1.265-2.53,2.357,2.357,0,0,1,2.59.527c5.706,4.4,10.78,9.5,16.231,14.2,2.048,1.762,3.328,4.381,6.083,5.405A1.456,1.456,0,0,1,626.666,662.574Z" transform="translate(-316.678 -344.018)" fill="#1d201d"/>
    <path id="Path_9918" data-name="Path 9918" d="M530.271,556.624c.527-1.942-.557-3.749-.09-5.661.376-1.581,1.084-2.7,2.8-2.56a2.438,2.438,0,0,1,2.289,3,77.936,77.936,0,0,0-.331,12.843,69.293,69.293,0,0,1-.105,8.838c-.316,4.08-3.915,6.5-7.167,7.152-5.571,1.1-11.232,1.566-16.788,2.815-.873.2-1.581.632-2.394.843-1.732.451-3.267,0-3.809-1.807s.6-2.936,2.259-3.177c5.074-.723,10.027-2.108,15.177-2.484,1.912-.135,3.764-.888,5.676-1.2,2.273-.376,2.62-2.168,2.62-3.809,0-3.343.422-6.715-.376-10.028C529.624,559.756,530.979,558.221,530.271,556.624Z" transform="translate(-364.78 -390.649)" fill="#1d201d"/>
    <path id="Path_9919" data-name="Path 9919" d="M517.808,559.343c.015,1.852-2.243,4.291-3.975,4.291-1.536,0-3.659-2.033-3.614-3.448.045-1.491,2.53-4.1,3.96-4.156A3.862,3.862,0,0,1,517.808,559.343Z" transform="translate(-361.907 -386.787)" fill="#1d201d"/>
    <path id="Path_9920" data-name="Path 9920" d="M535.281,676.926c-.151,1.942-.467,4.336-.467,6.715a81.069,81.069,0,0,0,.407,9.169c.241,2.258-.286,3.824-1.957,4.171-1.777.361-3.087-.678-3-3.192.166-4.637-.316-9.26.151-13.9a31.624,31.624,0,0,0-.3-7.438,2.271,2.271,0,0,0-1.837-2.078,63.275,63.275,0,0,0-10.042-1.942c-3.839-.572-7.664-1.2-11.473-1.972-1.536-.3-2.59-1.415-2.093-3.117a2.622,2.622,0,0,1,3.553-1.882c5.9,2.168,12.166,2.439,18.248,3.523,6.038,1.069,8.883,4.4,8.627,10.3A10.175,10.175,0,0,0,535.281,676.926Z" transform="translate(-364.775 -333.572)" fill="#1d201d"/>
    <path id="Path_9921" data-name="Path 9921" d="M513.894,672.34c1.716.045,3.975,2.545,3.915,4.367a3.966,3.966,0,0,1-3.463,3.252c-1.521.015-4.125-2.65-4.125-4.231C510.22,674.282,512.373,672.3,513.894,672.34Z" transform="translate(-361.907 -327.977)" fill="#1d201d"/>
    <path id="Path_9922" data-name="Path 9922" d="M512.172,622.813c.979,4.743-2.3,7.528-4.848,10.434-2.816,3.222-5.631,6.459-8.341,9.787a9.927,9.927,0,0,0-1.1,1.777c-.933,1.716-2.74,2.424-4.111,1.626-1.475-.858-1.7-2.559-.286-4.261,2.966-3.6,5.947-7.2,9.139-10.585,1.46-1.551,2.545-3.357,4.005-4.893a3.444,3.444,0,0,0,.015-4.863c-1.927-2.364-3.93-4.653-5.9-6.971-2.469-2.891-5-5.736-7.423-8.657-1.1-1.325-1.235-2.8.3-3.9a2.561,2.561,0,0,1,3.885.873c3.388,5.691,8.386,10.043,12.376,15.222A12.756,12.756,0,0,1,512.172,622.813Z" transform="translate(-370.876 -363.669)" fill="#1d201d"/>
    <path id="Path_9923" data-name="Path 9923" d="M489.42,617.889c.015-2.635,1.009-3.734,3.388-3.689,2.3.03,3.237,1.159,3.222,3.869-.015,2.62-1.039,3.734-3.4,3.689C490.308,621.729,489.4,620.629,489.42,617.889Z" transform="translate(-372.425 -357.375)" fill="#1d201d"/>
    <path id="Path_9924" data-name="Path 9924" d="M676.95,632.749a2.3,2.3,0,0,1,2.515,1.551,2.159,2.159,0,0,1-.783,2.71c-1.25,1.084-2.906,1.551-4.216,2.484-4.216,2.966-9.064,4.818-13.355,7.679-2.8,1.867-3.312,2.966-2.153,6.068,2.259,6.038,4.427,12.09,6.7,18.128.693,1.852.2,3.177-1.626,3.719-1.807.542-2.966-.677-3.282-2.243-1.28-6.369-4.186-12.166-6.369-18.218-1.732-4.788-.151-9.064,4.351-11.518,4.788-2.6,9.455-5.435,14.213-8.07C674.33,634.269,675.083,632.342,676.95,632.749Z" transform="translate(-289.362 -348.024)" fill="#1d201d"/>
    <path id="Path_9925" data-name="Path 9925" d="M664.763,649.486c.211-2.59,1.912-4.592,3.7-4.381,2.2.256,3.523,1.626,3.358,3.463-.226,2.514-1.807,4.457-3.523,4.306C666.194,652.693,664.613,651.173,664.763,649.486Z" transform="translate(-283.771 -341.756)" fill="#1d201d"/>
    <path id="Path_9926" data-name="Path 9926" d="M677,614.984a2.576,2.576,0,0,1-1.792-.482c-5.1-4.171-11.232-6.61-16.8-10.013-4.125-2.529-5.8-6.474-4.05-11.292,1.852-5.119,4.186-10.042,5.676-15.3a20.273,20.273,0,0,0,.527-2.484c.331-1.927,1.942-3.312,3.388-2.846,1.942.632,2.424,1.957,1.686,3.9-1.671,4.351-3.071,8.808-4.923,13.069-.843,1.942-1.31,3.99-2.093,5.932a3.416,3.416,0,0,0,1.6,4.562c2.65,1.475,5.285,3.011,7.92,4.517,3.373,1.927,6.76,3.824,10.1,5.8A2.439,2.439,0,0,1,677,614.984Z" transform="translate(-289.372 -378.47)" fill="#1d201d"/>
    <path id="Path_9927" data-name="Path 9927" d="M664.751,586.187c.075-1.566,2.033-3.1,3.869-3.026,1.656.06,3.3,2.53,3.207,4.818-.06,1.626-1.942,3.132-3.794,3.026C666.467,590.9,664.661,588.265,664.751,586.187Z" transform="translate(-283.773 -373.07)" fill="#1d201d"/>
    <path id="Path_9928" data-name="Path 9928" d="M596.339,528.659a2.609,2.609,0,0,1-.888,2.319c-4.984,4.141-8.326,9.711-12.542,14.5-3.478,3.945-7.453,4.923-12.12,2.138q-7.2-4.291-14.484-8.507c-.587-.346-1.355-.361-1.987-.662-1.551-.738-2.7-1.882-1.972-3.7.738-1.852,2.243-2.047,3.854-1.069,4.11,2.514,8.582,4.457,12.467,7.332,1.716,1.28,3.734,1.882,5.48,3.087,1.7,1.174,3.373.376,4.532-.994,2.2-2.62,4.4-5.24,6.5-7.95,2.183-2.816,4.562-5.541,6.956-8.221a2.422,2.422,0,0,1,2.831-.542A2.112,2.112,0,0,1,596.339,528.659Z" transform="translate(-340.72 -401.89)" fill="#1d201d"/>
    <path id="Path_9929" data-name="Path 9929" d="M568.5,525.29c1.731-.015,2.921,1.415,2.936,3.523.03,2.183-1.686,3.448-4.622,3.418-1.731-.015-2.936-1.476-2.936-3.553C563.865,526.479,565.461,525.32,568.5,525.29Z" transform="translate(-334.775 -402.33)" fill="#1d201d"/>
    <path id="Path_9930" data-name="Path 9930" d="M596.344,712.576a2.045,2.045,0,0,1-1.325,2.213,2.62,2.62,0,0,1-2.861-.452c-1.265-1.084-1.957-2.65-3.086-3.809-3.674-3.749-6.489-8.191-10-12.06-1.43-1.581-3.1-2.394-5.089-1.295-2.725,1.491-5.33,3.192-8.01,4.758-3.222,1.882-6.474,3.719-9.711,5.586-1.641.949-3.117.843-3.9-.994-.768-1.807.316-3.117,1.912-3.734a63.828,63.828,0,0,0,11.608-6.354,43.124,43.124,0,0,1,8.492-4.366c2.228-.813,6.068.873,8.341,3.433,3.538,3.975,6.444,8.462,10.163,12.286a11.993,11.993,0,0,0,2.183,2.093A2.9,2.9,0,0,1,596.344,712.576Z" transform="translate(-340.725 -318.106)" fill="#1d201d"/>
    <path id="Path_9931" data-name="Path 9931" d="M571.438,706.858c.015,2.108-1.159,3.568-2.861,3.6-2.966.045-4.682-1.159-4.7-3.312-.015-2.078,1.175-3.583,2.876-3.614C569.677,703.47,571.423,704.7,571.438,706.858Z" transform="translate(-334.775 -312.207)" fill="#1d201d"/>
    <path id="Path_9932" data-name="Path 9932" d="M627.781,560.671c-3.523-.015-5.977-2.033-7.378-5.5a100.035,100.035,0,0,1-3.358-9.937,48.058,48.058,0,0,0-3.508-8.1c-.979-1.942-.843-3.644.723-4.532,1.521-.858,3-.271,3.734,1.972,1.536,4.728,3.734,9.215,4.893,14.078a47.024,47.024,0,0,0,2.168,5.405c.783,2.093,2.635,2.153,4.246,1.972,3.011-.361,5.962-1.129,8.958-1.671,3.659-.663,7.348-1.235,11.006-1.912,1.837-.346,2.936.407,3.282,2.138.286,1.43-1.491,3.1-3.252,3.041-4.381-.181-8.582.888-12.783,1.837A44.743,44.743,0,0,1,627.781,560.671Z" transform="translate(-309.98 -398.821)" fill="#1d201d"/>
    <path id="Path_9933" data-name="Path 9933" d="M632.424,539.539a3.57,3.57,0,0,1-3.207,3.674c-2-.015-4.442-2.078-4.4-3.734a3.653,3.653,0,0,1,3.071-3.538C629.849,535.865,632.408,537.9,632.424,539.539Z" transform="translate(-303.962 -396.946)" fill="#1d201d"/>
    <path id="Path_9934" data-name="Path 9934" d="M628.96,682.351c3.433.03,7.031,1.114,10.69,1.9a37.8,37.8,0,0,0,9.365,1.144c1.867-.076,3.824,1.43,3.568,2.951-.316,1.882-1.506,2.5-3.433,2.2-5.541-.858-11.066-1.837-16.547-3.041-1.43-.316-2.936-.2-4.381-.452-1.912-.316-2.8.888-3.342,2.274-1.235,3.192-2.258,6.459-3.4,9.681-1.174,3.282-2.349,6.565-3.6,9.817-.572,1.476-1.641,2.394-3.312,1.656a2.531,2.531,0,0,1-1.37-3.734c3.192-5.767,4.607-12.181,6.9-18.263a10.825,10.825,0,0,1,5.5-5.977C626.551,682,627.605,682.562,628.96,682.351Z" transform="translate(-310.029 -322.947)" fill="#1d201d"/>
    <path id="Path_9935" data-name="Path 9935" d="M629.132,692.67a3.553,3.553,0,0,1,3.3,3.568c.03,1.6-2.213,3.553-4.2,3.674a3.468,3.468,0,0,1-3.388-3.433C624.736,694.808,627.085,692.731,629.132,692.67Z" transform="translate(-303.953 -317.698)" fill="#1d201d"/>
  </g>
</svg>
