
<svg xmlns="http://www.w3.org/2000/svg" width="707.857" height="357.424" viewBox="0 0 707.857 357.424">
  <g id="Group_3068" data-name="Group 3068" transform="translate(-1227.822 -754.538)">
    <g id="Group_2187" data-name="Group 2187" transform="translate(1228.322 755.038)" opacity="0.1">
      <path id="Path_9801" data-name="Path 9801" d="M2118.922,791.6c-4.063-27.747-6.662-55.825-12.556-83.206-7.8-36.387-17.059-72.554-27.968-108.1-4.576-14.935-15.082-28.04-24.929-41.036,21.561,61.865,38.327,124.205,37.448,190.023-.183,14.277-2.38,28.553-3.881,42.793-.183,1.72-1.83,3.295-3.551,6.223-5.93-60.766-8.383-120.508-32.982-175.894,4.722,57.325,18.779,114.468-.256,171.574-5.894-70.65-7.907-141.776-44.257-206.057,3,23.208,6.845,46.344,8.786,69.625,1.94,23.428,3.551,47.076,2.343,70.5-1.208,23.684-6.077,47.149-9.335,70.723l-6.772-.219q-8.071-83.847-16.18-167.657c-.549-.146-12.812,97.043-18.413,145.766-.769.11-1.5.22-2.27.329Q1954.1,662.613,1944.016,548.2c-.366-.11-5.637,123.4-7.687,180.067-6.04-22.22-13.4-49.309-20.756-76.434-1.83.4-8.346-27.272-10.213-26.906,2.05,16.07,9.262,60.181,10.689,76.324,1.464,16.29,3.148,32.763,2.27,49.016-.915,16.619-4.869,33.092-9.811,49.638-20.39-63.951-31.92-128.818-27.491-196.064-17.314,57.472-14.13,116.738-14.532,179.627-5.783-39.571-10.945-75.08-16.107-110.588-2.05.183-3.55-35.508-5.6-35.325,0,37.411-.549,110.624-.549,148.036-13.727-68.893-17.424-139.36-48.247-203.751,7.8,71.859,18.963,143.35,7.724,216.2-21.927-42.793-41.219-86.391-50.041-135.224-3.075,12.19-6.882,24.234-9.042,36.606-2.379,13.581-3.441,27.418-4.649,41.145-1.135,13.215-1.721,26.5-3.514,39.755-14.9-51.578-18.6-103.413-3.4-155.907-19,26.32-24.893,56.667-27.711,88.331-10.689-52.677-15.521-106.708-39.718-155.76,14.863,73.506,29.469,146.9,17.864,222.677-17.314-28.7-28.15-59.266-29.8-93.163-14.167,29.212-11.166,60.73-12.922,91.919-19.914-44.111-12.19-166.6-12.483-170.256-.33-4.173-2.892,16.912-3.7,16.839-5.345,30.127-12.336,75.629-17.168,102.681-5.747-36.789-22.184-140.9-23.684-140.715,2.672,62.524,4.283,149.793-7.87,211.841-20.317-49.309-25.734-100.924-23.538-153.71-1.355-.073-7.944,63.329-9.957,96.2-12.52-51.871-21.085-104.548-52.457-149.061,23.172,67.319,43.159,134.967,33.788,209.974-38.693-29.724-50.663-67.319-45.1-112.052-1.537-.073-10.579,60.181-13.251,87.2-10.616-25.331-18.67-129.989-3.917-205.691-3.185,6.662-6.991,13.105-9.444,20.023-14.862,41.365-19.145,84.6-21.781,128.122-.659,10.652-1.94,21.268-2.929,31.921v147.6c5.089.256,10.177.769,15.265.769q330.556.055,661.148,0c5.089,0,10.177-.476,15.266-.769Q2118.9,845.352,2118.922,791.6Z" transform="translate(-1427.28 -548.2)" fill="none" stroke="#545e46" stroke-width="1"/>
    </g>
    <g id="Group_2181" data-name="Group 2181" transform="translate(1244 760.038)" opacity="0.94">
      <path id="Path_9801-2" data-name="Path 9801" d="M2118.922,791.6c-4.063-27.747-6.662-55.825-12.556-83.206-7.8-36.387-17.059-72.554-27.968-108.1-4.576-14.935-15.082-28.04-24.929-41.036,21.561,61.865,38.327,124.205,37.448,190.023-.183,14.277-2.38,28.553-3.881,42.793-.183,1.72-1.83,3.295-3.551,6.223-5.93-60.766-8.383-120.508-32.982-175.894,4.722,57.325,18.779,114.468-.256,171.574-5.894-70.65-7.907-141.776-44.257-206.057,3,23.208,6.845,46.344,8.786,69.625,1.94,23.428,3.551,47.076,2.343,70.5-1.208,23.684-6.077,47.149-9.335,70.723l-6.772-.219q-8.071-83.847-16.18-167.657c-.549-.146-12.812,97.043-18.413,145.766-.769.11-1.5.22-2.27.329Q1954.1,662.613,1944.016,548.2c-.366-.11-5.637,123.4-7.687,180.067-6.04-22.22-13.4-49.309-20.756-76.434-1.83.4-8.346-27.272-10.213-26.906,2.05,16.07,9.262,60.181,10.689,76.324,1.464,16.29,3.148,32.763,2.27,49.016-.915,16.619-4.869,33.092-9.811,49.638-20.39-63.951-31.92-128.818-27.491-196.064-17.314,57.472-14.13,116.738-14.532,179.627-5.783-39.571-10.945-75.08-16.107-110.588-2.05.183-3.55-35.508-5.6-35.325,0,37.411-.549,110.624-.549,148.036-13.727-68.893-17.424-139.36-48.247-203.751,7.8,71.859,18.963,143.35,7.724,216.2-21.927-42.793-41.219-86.391-50.041-135.224-3.075,12.19-6.882,24.234-9.042,36.606-2.379,13.581-3.441,27.418-4.649,41.145-1.135,13.215-1.721,26.5-3.514,39.755-14.9-51.578-18.6-103.413-3.4-155.907-19,26.32-24.893,56.667-27.711,88.331-10.689-52.677-15.521-106.708-39.718-155.76,14.863,73.506,29.469,146.9,17.864,222.677-17.314-28.7-28.15-59.266-29.8-93.163-14.167,29.212-11.166,60.73-12.922,91.919-19.914-44.111-12.19-166.6-12.483-170.256-.33-4.173-2.892,16.912-3.7,16.839-5.345,30.127-12.336,75.629-17.168,102.681-5.747-36.789-22.184-140.9-23.684-140.715,2.672,62.524,4.283,149.793-7.87,211.841-20.317-49.309-25.734-100.924-23.538-153.71-1.355-.073-7.944,63.329-9.957,96.2-12.52-51.871-21.085-104.548-52.457-149.061,23.172,67.319,43.159,134.967,33.788,209.974-38.693-29.724-50.663-67.319-45.1-112.052-1.537-.073-10.579,60.181-13.251,87.2-10.616-25.331-18.67-129.989-3.917-205.691-3.185,6.662-6.991,13.105-9.444,20.023-14.862,41.365-19.145,84.6-21.781,128.122-.659,10.652-1.94,21.268-2.929,31.921v147.6c5.089.256,10.177.769,15.265.769q330.556.055,661.148,0c5.089,0,10.177-.476,15.266-.769Q2118.9,845.352,2118.922,791.6Z" transform="translate(-1427.28 -548.2)" fill="#545e46"/>
    </g>
  </g>
</svg>
