
<svg xmlns="http://www.w3.org/2000/svg" width="31.427" height="25.525" viewBox="0 0 31.427 25.525">
  <path id="twitter-brands_1_" data-name="twitter-brands (1)" d="M28.2,54.443c.02.279.02.558.02.838,0,8.515-6.481,18.326-18.326,18.326A18.2,18.2,0,0,1,0,70.715a13.325,13.325,0,0,0,1.555.08,12.9,12.9,0,0,0,8-2.752A6.452,6.452,0,0,1,3.53,63.576a8.123,8.123,0,0,0,1.216.1,6.812,6.812,0,0,0,1.7-.219,6.442,6.442,0,0,1-5.165-6.321v-.08a6.487,6.487,0,0,0,2.911.818,6.451,6.451,0,0,1-1.994-8.615A18.308,18.308,0,0,0,15.474,56a7.271,7.271,0,0,1-.16-1.476,6.447,6.447,0,0,1,11.147-4.407,12.681,12.681,0,0,0,4.088-1.555,6.424,6.424,0,0,1-2.832,3.55,12.913,12.913,0,0,0,3.709-1,13.846,13.846,0,0,1-3.23,3.33Z" transform="translate(0 -48.082)" fill="#1f2d16" opacity="0.6"/>
</svg>
